<?xml version="1.0" encoding="utf-8"?>
<!-- Generator: Adobe Illustrator 21.1.0, SVG Export Plug-In . SVG Version: 6.00 Build 0)  -->
<svg version="1.1" id="Layer_1" xmlns="http://www.w3.org/2000/svg" xmlns:xlink="http://www.w3.org/1999/xlink" x="0px" y="0px"
	 viewBox="0 0 44 35" style="enable-background:new 0 0 44 35;" xml:space="preserve">
<style type="text/css">
	.st0{fill:#585950;}
</style>
<g>
	<g>
		<path class="st0" d="M20.4,20.3h3.1c0.5,0,0.8-0.4,0.8-0.8v-1.2c-0.8,0-1.6,0-2.4,0s-1.6,0-2.4,0v1.2C19.6,19.9,20,20.3,20.4,20.3
			z"/>
		<path class="st0" d="M25.4,18.2v1.2c0,1-0.8,1.8-1.8,1.8h-3.1c-1,0-1.8-0.8-1.8-1.8v-1.2C12,18.1,5.8,17.6,0,16.7v13.8
			C0,33,2,35,4.6,35h34.9c2.5,0,4.6-2,4.6-4.5V16.7C38.2,17.6,32,18.1,25.4,18.2z"/>
	</g>
	<g>
		<path class="st0" d="M23.6,15.6h-3.1c-0.5,0-0.8,0.4-0.8,0.8v0.8c0.8,0,1.6,0,2.4,0c0.8,0,1.6,0,2.4,0v-0.8
			C24.4,16,24,15.6,23.6,15.6z"/>
		<path class="st0" d="M39.4,5.5h-9V5c0-2.7-2.3-5-5.1-5h-6.8c-2.8,0-5.1,2.2-5.1,5v0.6h-9C2,5.5,0,7.5,0,10v5.7
			c5.8,0.9,12,1.4,18.6,1.5v-0.8c0-1,0.8-1.8,1.8-1.8h3.1c1,0,1.8,0.8,1.8,1.8v0.8c6.6-0.1,12.8-0.7,18.6-1.5V10
			C44,7.5,42,5.5,39.4,5.5z M28.4,5.5H15.6V5c0-1.6,1.3-2.9,3-2.9h6.8c1.7,0,3,1.3,3,2.9V5.5z"/>
	</g>
</g>
</svg>
