<svg xmlns="http://www.w3.org/2000/svg" viewBox="3064.75 4171.75 22.528 27.06">
  <defs>
    <style>
      .cls-1 {
        fill: #fff;
        stroke: #666766;
        stroke-miterlimit: 10;
        stroke-width: 0.5px;
      }

      .cls-2 {
        fill: #666766;
      }
    </style>
  </defs>
  <g id="Group_976" data-name="Group 976" transform="translate(3064.8 4171.8)">
    <rect id="Rectangle_503" data-name="Rectangle 503" class="cls-1" width="19.93" height="24.462" transform="translate(0.2 0.2)"/>
    <rect id="Rectangle_504" data-name="Rectangle 504" class="cls-1" width="19.93" height="24.462" transform="translate(2.298 2.298)"/>
    <g id="Group_743" data-name="Group 743" transform="translate(15.976 19.081)">
      <path id="Path_193" data-name="Path 193" class="cls-2" d="M38.471,49.1a1.882,1.882,0,0,0,.545.42,1.437,1.437,0,0,0,.755.168.532.532,0,0,0,.252-.042.32.32,0,0,0,.21-.084.579.579,0,0,0,.168-.126v-.21a.378.378,0,0,0-.042-.21c-.042-.042-.084-.126-.168-.168a2.047,2.047,0,0,0-.294-.126c-.126-.042-.294-.084-.462-.126a1.919,1.919,0,0,1-1.007-.545,1.2,1.2,0,0,1-.336-.881,1.234,1.234,0,0,1,.378-.923,1.581,1.581,0,0,1,1.007-.42V45.2h.713v.629a2.005,2.005,0,0,1,.755.252c.21.126.336.252.462.336l-.629.713A.579.579,0,0,0,40.611,47a.918.918,0,0,0-.21-.126.6.6,0,0,0-.252-.084.714.714,0,0,0-.294-.042.532.532,0,0,0-.252.042.32.32,0,0,0-.21.084.579.579,0,0,0-.168.126.32.32,0,0,0-.084.21.374.374,0,0,0,.21.336,1.8,1.8,0,0,0,.671.21,2.714,2.714,0,0,1,.545.168,1.733,1.733,0,0,1,.462.294,1.643,1.643,0,0,1,.336.42,1.34,1.34,0,0,1,.126.587,1,1,0,0,1-.126.5.914.914,0,0,1-.294.378,1.507,1.507,0,0,1-.42.294,2.078,2.078,0,0,1-.545.168v.713h-.713v-.671a2.975,2.975,0,0,1-.923-.252,2.559,2.559,0,0,1-.671-.5Z" transform="translate(-37.8 -45.2)"/>
    </g>
  </g>
</svg>
