<?xml version="1.0" encoding="utf-8"?>
<!-- Generator: Adobe Illustrator 21.1.0, SVG Export Plug-In . SVG Version: 6.00 Build 0)  -->
<svg version="1.1" id="Layer_1" xmlns="http://www.w3.org/2000/svg" xmlns:xlink="http://www.w3.org/1999/xlink" x="0px" y="0px"
	 viewBox="0 0 25.9 36" style="enable-background:new 0 0 25.9 36;" xml:space="preserve">
<style type="text/css">
	.st0{fill:url(#SVGID_1_);}
	.st1{fill:none;stroke:#C24031;stroke-miterlimit:10;}
	.st2{fill:#5D1711;}
</style>
<g>
	<linearGradient id="SVGID_1_" gradientUnits="userSpaceOnUse" x1="12.927" y1="35.4018" x2="12.927" y2="0.5982">
		<stop  offset="0" style="stop-color:#F37365"/>
		<stop  offset="1" style="stop-color:#EE4A3C"/>
	</linearGradient>
	<path class="st0" d="M12.9,0.6C5.8,0.6,0,6.4,0,13.5c0,13.8,12.9,21.9,12.9,21.9s12.9-8.1,12.9-21.9C25.9,6.4,20.1,0.6,12.9,0.6z
		 M12.9,18c-2.6,0-4.7-2.1-4.7-4.7c0-2.6,2.1-4.7,4.7-4.7s4.7,2.1,4.7,4.7C17.6,15.9,15.5,18,12.9,18z"/>
	<g>
		<path class="st1" d="M12.9,0.6C5.8,0.6,0,6.4,0,13.5c0,13.8,12.9,21.9,12.9,21.9s12.9-8.1,12.9-21.9C25.9,6.4,20.1,0.6,12.9,0.6z"
			/>
		<circle class="st2" cx="12.9" cy="13.3" r="4.7"/>
	</g>
</g>
</svg>
