<svg xmlns="http://www.w3.org/2000/svg" viewBox="3563 5040 30 30"><defs><style>.a{fill:#fff;}.b,.e{fill:none;}.b{stroke:#fff;stroke-width:3px;}.c{fill:#f7f7f7;stroke:rgba(0,0,0,0);}.d{stroke:none;}</style></defs><g transform="translate(2887 4684)"><rect class="a" width="29" height="3" transform="translate(677.693 377.585) rotate(-30)"/><g class="b" transform="translate(676 356)"><circle class="d" cx="15" cy="15" r="15"/><circle class="e" cx="15" cy="15" r="13.5"/></g><path class="c" d="M-2872.39-4659.746h-2.186v-1.932a6.9,6.9,0,0,1-4.231-1.725l.562-.871,1.573-.908a5.93,5.93,0,0,0,2.787.812c1.56,0,2.53-.713,2.53-1.862a1.553,1.553,0,0,0-.437-1.081,2.549,2.549,0,0,0-.52-.386l3.1-1.792a3.886,3.886,0,0,1,1.144,2.96,4.6,4.6,0,0,1-1.343,3.366,5.267,5.267,0,0,1-2.982,1.417v2Zm-4.229-10.085h0a5.185,5.185,0,0,1-.485-.426,3.924,3.924,0,0,1-1.219-2.9,4.157,4.157,0,0,1,1.279-3.11,5.1,5.1,0,0,1,2.469-1.282v-1.956h2.186v1.817a6.714,6.714,0,0,1,4.209,1.656l-1.472,2.093a5.982,5.982,0,0,0-3.152-1.149c-1.368,0-2.323.662-2.323,1.61a1.158,1.158,0,0,0,.415.943,4.931,4.931,0,0,0,1.442.77l-3.348,1.934Z" transform="translate(3564.693 5041)"/></g></svg>