<?xml version="1.0" encoding="utf-8"?>
<!-- Generator: Adobe Illustrator 21.1.0, SVG Export Plug-In . SVG Version: 6.00 Build 0)  -->
<svg version="1.1" id="Layer_1" xmlns="http://www.w3.org/2000/svg" xmlns:xlink="http://www.w3.org/1999/xlink" x="0px" y="0px"
	 viewBox="0 0 27.4 27.4" style="enable-background:new 0 0 27.4 27.4;" xml:space="preserve">
<style type="text/css">
	.st0{fill:url(#SVGID_1_);}
</style>
<radialGradient id="SVGID_1_" cx="14.3788" cy="13.4" r="13.7" gradientUnits="userSpaceOnUse">
	<stop  offset="0" style="stop-color:#F37365"/>
	<stop  offset="1" style="stop-color:#EE4A3C"/>
</radialGradient>
<path class="st0" d="M14.4-0.3C6.8-0.3,0.7,5.8,0.7,13.4c0,7.6,6.1,13.7,13.7,13.7S28.1,21,28.1,13.4C28.1,5.8,21.9-0.3,14.4-0.3z
	 M12.1,19.9c0,0.2-0.2,0.2-0.2,0.2l-0.2-0.2l-0.6-0.6l-4.5-4.5c-0.2-0.2-0.2-0.3,0-0.5l1.9-1.9c0-0.2,0-0.2,0.2-0.2L9,12.4l2.9,3
	l8.3-8.6c0-0.2,0.2-0.2,0.2-0.2l0.2,0.2l1.9,1.9c0,0.2,0,0.5,0.2,0.6L12.1,19.9z"/>
</svg>
