<svg xmlns="http://www.w3.org/2000/svg" viewBox="240 987 36.424 52.723">
  <defs>
    <style>
      .cls-1 {
        fill: #57584f;
      }

      .cls-2, .cls-3 {
        fill: #fff;
      }

      .cls-2 {
        stroke: #fff;
        stroke-miterlimit: 10;
      }
    </style>
  </defs>
  <g id="Group_12" data-name="Group 12" transform="translate(-357 600)">
    <g id="Group_4" data-name="Group 4" transform="translate(597 387)">
      <g id="Group_3" data-name="Group 3">
        <path id="Path_5" data-name="Path 5" class="cls-1" d="M6.59,39.543a6.59,6.59,0,0,0,0,13.181,6.63,6.63,0,0,0,6.59-6.59,6.53,6.53,0,0,0-6.59-6.59m0,9.886a3.3,3.3,0,0,1,0-6.59,3.218,3.218,0,0,1,3.3,3.3,3.314,3.314,0,0,1-3.3,3.3M34.992,4.08V3.3A3.218,3.218,0,0,0,31.7,0H7.218a3.218,3.218,0,0,0-3.3,3.3V4.08a3.385,3.385,0,0,0-2.981,3.3,3.259,3.259,0,0,0,2.981,3.3v3.3L5.335,37.973H6.59a8.438,8.438,0,0,1,8.473,8.473,8.3,8.3,0,0,1-2.511,5.963H30.442A2.157,2.157,0,0,0,32.8,50.37l2.04-36.247V10.513A1.482,1.482,0,0,0,36.4,8.944V5.806A1.426,1.426,0,0,0,34.992,4.08M4.394,8.787A1.482,1.482,0,0,1,2.824,7.218,1.482,1.482,0,0,1,4.394,5.649,1.482,1.482,0,0,1,5.963,7.218,1.687,1.687,0,0,1,4.394,8.787"/>
        <path id="Path_6" data-name="Path 6" class="cls-2" d="M12.787,45.493A8.552,8.552,0,0,1,12,48.945h14.75a1.482,1.482,0,0,0,1.569-1.569l.628-11.455L30.2,3.911A2.352,2.352,0,0,0,27.851,1.4H6.354A2.712,2.712,0,0,0,4,4.068L5.255,36.078l.157.941A8.5,8.5,0,0,1,12.787,45.493Z" transform="translate(2.277 0.797)"/>
      </g>
      <circle id="Ellipse_3" data-name="Ellipse 3" class="cls-1" cx="8.63" cy="8.63" r="8.63" transform="translate(10.67 15.064)"/>
      <path id="Path_7" data-name="Path 7" class="cls-3" d="M19.185,13.712,17.93,12.457l-.157-.157a.154.154,0,0,0-.157.157l-5.178,5.492-1.883-1.883v-.157c-.157,0-.157,0-.157.157L9.143,17.321c-.157.157-.157.157,0,.314l2.824,2.824h0l.471.471.157.157a.154.154,0,0,0,.157-.157l6.59-6.59A1.186,1.186,0,0,1,19.185,13.712Z" transform="translate(5.137 7.001)"/>
    </g>
  </g>
</svg>
