<?xml version="1.0" encoding="utf-8"?>
<!-- Generator: Adobe Illustrator 22.1.0, SVG Export Plug-In . SVG Version: 6.00 Build 0)  -->
<svg version="1.1" id="Layer_1" xmlns="http://www.w3.org/2000/svg" xmlns:xlink="http://www.w3.org/1999/xlink" x="0px" y="0px"
	 width="54px" height="491px" viewBox="0 0 54 491" style="enable-background:new 0 0 54 491;" xml:space="preserve">
<style type="text/css">
	.st0{fill:#57584F;}
	.st1{fill:none;stroke:#FFFFFF;stroke-miterlimit:10;}
	.st2{fill:#FFFFFF;}
	.st3{fill:#57584F;stroke:#FFFFFF;stroke-miterlimit:10;}
</style>
<g>
	<path class="st0" d="M6.7,39.3c-3.6,0-6.6,2.9-6.6,6.6c0,3.6,3,6.6,6.6,6.6s6.6-2.9,6.6-6.6C13.3,42.2,10.3,39.3,6.7,39.3
		 M6.7,49.1c-1.8,0-3.2-1.4-3.2-3.2s1.4-3.2,3.2-3.2s3.2,1.4,3.2,3.2C9.9,47.6,8.5,49.1,6.7,49.1 M34.8,4V3.2c0-1.8-1.4-3.2-3.2-3.2
		H7.2C5.4,0,4,1.4,4,3.2V4C2.4,4.2,1.1,5.6,1.1,7.2c0,1.7,1.3,3.1,2.9,3.2v3.2l1.4,23.9h1.2c4.6,0,8.4,3.7,8.4,8.4
		c0,2.3-0.9,4.4-2.5,5.9h17.8c1.3,0,2.3-0.8,2.4-2.1l2-35.7v-3.5c0.9,0,1.6-0.7,1.6-1.6V5.7C36.4,4.7,35.7,4,34.8,4 M4.4,8.8
		c-0.9,0-1.6-0.7-1.6-1.6s0.7-1.6,1.6-1.6S6,6.3,6,7.2C6,8,5.3,8.8,4.4,8.8"/>
	<path class="st1" d="M15,45.9c0,1.2-0.3,2.4-0.8,3.5h14.7c0.9,0,1.5-0.6,1.6-1.5l0.6-11.3l1.2-31.8c0-1.4-1-2.5-2.3-2.5H8.7
		c-1.3,0-2.3,1.1-2.3,2.5l1.3,31.8l0.1,1C11.8,38.1,15,41.6,15,45.9z"/>
	<path class="st2" d="M20.3,9.4l3.9-2.8L30,9.4l2.3-1.5l0.1-3.1c0-1.4-1-2.5-2.3-2.5H8.7c-1.3,0-2.3,1.1-2.3,2.5l0.2,4.1L12.4,6
		L20.3,9.4z"/>
</g>
<g>
	<g id="XMLID_1_">
		<g id="XMLID_2_">
			<path id="XMLID_4_" class="st0" d="M0.2,127.6c0,0.4,0.3,0.7,0.8,0.7h2.8c0.4,0,0.8-0.3,0.8-0.7c0-0.4,0-0.7,0-0.7h44.6v0.7
				c0,0.4,0.3,0.7,0.8,0.7h2.8c0.4,0,0.8-0.3,0.8-0.7v-2.1H0.4v2.1C0.4,127.6,0.2,127.6,0.2,127.6z"/>
			<rect id="XMLID_3_" x="50.6" y="102.8" class="st0" width="2.7" height="21.3"/>
		</g>
	</g>
	<g>
		<path class="st0" d="M0.1,105v13.5c0,0.4,0.2,1,0.5,1.3l3.7,4.3h44.9V105H0.1z"/>
	</g>
	<path class="st3" d="M42.8,106.4L42.8,106.4h-41v11.3c0,0.3,0.2,0.8,0.4,1.1l3.1,3.6h4.6h32.9h4.6v-15.9L42.8,106.4L42.8,106.4z"/>
	<polygon class="st2" points="1.7,109.9 6.9,108.3 10.9,109.4 16.4,107.7 25.6,108.4 29.9,107.3 40,108.6 47.4,108.2 47.4,106.4 
		1.7,106.4 	"/>
</g>
<g>
	<path class="st0" d="M43.8,194.2c0.4,0.1,0.4,0.4,0.4,0.8v1.5c0,0.4-0.4,0.6-0.8,0.5l-0.6-0.2v19c0,0.5-0.4,0.9-0.9,0.9H3
		c-0.5,0-0.9-0.4-0.9-0.9v-31.7c-1.1-0.3-2-1.3-2-2.5c0-1.4,1.1-2.6,2.6-2.6c0.3,0,0.7,0.1,0.9,0.2L43.8,194.2z M4,181.6
		c0-0.7-0.6-1.3-1.3-1.3s-1.3,0.6-1.3,1.3s0.6,1.3,1.3,1.3S4,182.3,4,181.6"/>
	<path class="st1" d="M40.2,197.4v16.9c0,0.2-0.2,0.4-0.4,0.4H5c-0.2,0-0.4-0.2-0.4-0.4v-29.1c0,0,33.4,11.3,35.5,12
		C40.2,197.3,40.2,197.3,40.2,197.4z"/>
	<polygon class="st2" points="4.5,190.9 8,192.5 11.1,189.3 21.3,190.7 4.8,184.9 4.7,185.9 	"/>
</g>
<g>
	<path class="st0" d="M33.7,290c-0.3-1.8-1.2-3.3-1.6-5.1c-0.4-1.7-2.2-2.9-3.3-4.1c-1.2-1.3-2.4-2.4-4.1-3.2
		c-1.2-0.6-2.4-1.1-3.6-1.4c-0.3-0.1-3.6-0.9-3.7-0.5c0.7-2.1,2.4-3.7,4.5-4.4c-0.5-0.4-1-1.1-1.6-1.2c-0.3-0.1-0.5-0.1-0.8-0.1
		c-0.1,0-0.1-0.1-0.1-0.1c-0.1-0.2,0.1-0.4,0.1-0.7c0-0.2-0.1-0.3-0.3-0.4c-0.2-0.1-0.3-0.1-0.5,0c-1,0.1-2,0.4-3,0.3
		c-0.5-0.1-1-0.1-1.4-0.3c-0.1,0-1.3-0.6-1.3-0.6c-0.5,0.3-0.2,1,0.1,1.5c0.8,1.3,1.6,2.6,2.4,3.9c0.3,0.5,0.5,1,0.5,1.5
		s-0.4,1.1-0.9,1.1c-1.7-0.1-3.5,0.3-5.1,1c-1.8,0.8-2.8,2.1-4.1,3.5c-1.2,1.4-2.2,2.4-3.1,3.9c-0.9,1.4-1.7,2.9-2,4.6
		c-0.3,1.4-0.9,3.1-0.7,4.5c0.1,0.7,0.4,1.5,0.5,2.2c0.2,1.1,0,2.2,0.1,3.4c0.2,2.1-0.2,4.1-0.1,6.1c0,0.5,0.1,1.1,0.3,1.6
		c0.3,0.8,1.2,1.3,2,1.5s1.7,0.1,2.6-0.1c4.5-0.8,9.1,0.8,13.7,0.3c2.2-0.3,4.5-1,6.7-1c1.2,0.1,2.3,0.3,3.4,0.3
		c1.2,0,2.4-0.3,3.1-1.2c1.2-1.4,0.8-3.5,0.8-5.4c-0.1-2.3,0.6-4.6,0.7-6.9C34.1,293.2,34,291.6,33.7,290z"/>
</g>
<g>
	<path class="st0" d="M31,442.4v-0.8c0-1.8-1.4-3.2-3.2-3.2h-4.6v-0.5c0-2-1.6-3.7-3.7-3.7h-6.4c-2,0-3.7,1.7-3.7,3.7v0.5H4.9
		c-1.7,0-3.2,1.4-3.2,3.2v0.8c-0.9,0-1.6,0.7-1.6,1.6v3.2c0,0.9,0.7,1.6,1.6,1.6v3.5L3.6,488c0.1,1.3,1.1,2.1,2.4,2.1h20.6
		c1.3,0,2.3-0.8,2.4-2.1l1.9-35.7v-3.5c0.9,0,1.6-0.7,1.6-1.6V444C32.6,443.1,31.9,442.4,31,442.4z M21.8,438.4H11v-0.5
		c0-1.2,1-2.2,2.2-2.2h6.4c1.2,0,2.2,1,2.2,2.2C21.8,437.9,21.8,438.4,21.8,438.4z"/>
	<path class="st3" d="M29.1,443.5c0-1.7-1.2-2.9-2.8-2.9h-4h-12h-4c-1.5,0-2.8,1.3-2.8,2.9l1.7,42.6c0.1,1.2,1,1.9,2.1,1.9h18
		c1.1,0,2-0.7,2.1-1.9L29.1,443.5z"/>
	<path class="st2" d="M11.3,445.7l8.1-1.6l5.5,2.6L29,446l0.1-2.5c0-1.7-1.2-2.9-2.8-2.9h-4h-12h-4c-1.5,0-2.8,1.3-2.8,2.9l0.1,1.9
		c2-0.6,3.6-1.2,3.6-1.2L11.3,445.7z"/>
</g>
<g>
	<path class="st0" d="M39.3,359.4H0.9c-0.4,0-0.8,0.3-0.8,0.8c0,0.4,0.3,0.7,0.7,0.8l3.5,21.1c0.1,0.8,0.9,1.4,1.7,1.4h28.2
		c0.8,0,1.5-0.6,1.7-1.4l3.5-21.1l0,0c0.4,0,0.8-0.3,0.8-0.8C40.1,359.7,39.8,359.4,39.3,359.4"/>
	<path class="st2" d="M18.3,365.3L27,364l4.5,1.5l4.3-0.9l1-0.3c0.3,0,0.1-1.6,0.1-1.9c-0.1-0.3-0.3-0.4-0.8-0.4H2.9
		c-0.3,0-0.1,0.9-0.1,0.9l0.7,2.7c3-0.8,6.3-1.6,6.3-1.6L18.3,365.3z"/>
	<path class="st1" d="M37.1,362.3c0-0.2,0-0.3,0-0.3h-0.2H3.1H2.9c0,0,0,0.1,0,0.3c0,0.3,0,0.6,0.1,0.8c0.5,4,2.9,17.2,2.9,17.2
		c0.1,0.6,0.8,1.1,1.5,1.1h0.2h24.8h0.2c0.7,0,1.4-0.5,1.5-1.1c0,0,2.4-13.2,2.9-17.2C37.1,362.9,37.2,362.5,37.1,362.3z"/>
</g>
</svg>
