<?xml version="1.0" encoding="utf-8"?>
<!-- Generator: Adobe Illustrator 22.1.0, SVG Export Plug-In . SVG Version: 6.00 Build 0)  -->
<svg version="1.1" id="Layer_1" xmlns="http://www.w3.org/2000/svg" xmlns:xlink="http://www.w3.org/1999/xlink" x="0px" y="0px"
	 width="218.5px" height="40.1px" viewBox="0 0 218.5 40.1" style="enable-background:new 0 0 218.5 40.1;" xml:space="preserve">
<style type="text/css">
	.st0{fill:#FFFFFF;}
</style>
<g>
	<g id="_x37_65-arrow-left-toolbar_x40_2x.png_28_">
		<g>
			<path class="st0" d="M18.7,38.3L2.3,20L18.7,1.7l0,0C18.9,1.5,19,1.3,19,1c0-0.6-0.4-1-0.9-1c-0.3,0-0.5,0.1-0.7,0.3l0,0
				l-17.1,19l0,0C0.1,19.5,0,19.7,0,20s0.1,0.5,0.3,0.7l0,0l17.1,19l0,0c0.2,0.2,0.4,0.3,0.7,0.3c0.5,0,0.9-0.4,0.9-1
				C19,38.7,18.9,38.5,18.7,38.3L18.7,38.3z"/>
		</g>
	</g>
</g>
<path class="st0" d="M55.4,10.9c0,6-4.9,10.8-10.9,10.8s-10.8-4.8-10.8-10.8S38.6,0.1,44.5,0.1C50.5,0.1,55.4,4.9,55.4,10.9
	 M60,40.1c0-3.3-1.1-8.5-2.9-11.1c-2.8-3.9-7.4-4.4-12.6-4.4s-9.9,0.5-12.7,4.4C30,31.5,29,36.7,29,40L60,40.1L60,40.1z"/>
<g id="_x37_89-map-location-selected_x40_2x.png">
	<g>
		<path class="st0" d="M116.9,38.8L116.9,38.8l-8.4-15l0,0c-0.1-0.3-0.4-0.4-0.7-0.4h-1.7c-0.5,0-0.8,0.4-0.8,0.8s0.4,0.8,0.8,0.8
			h1.2l7.5,13.3H72.3L79.7,25h1.2c0.5,0,0.8-0.4,0.8-0.8s-0.4-0.8-0.8-0.8h-1.7c-0.3,0-0.6,0.2-0.7,0.4l0,0l-8.4,15l0,0
			C70,38.9,70,39,70,39.2c0,0.5,0.4,0.8,0.8,0.8h45.3c0.5,0,0.8-0.4,0.8-0.8C117,39,117,38.9,116.9,38.8z M106.9,13.3
			c0-7.4-6-13.3-13.4-13.3S80.1,6,80.1,13.3c0,8.3,13.4,21.7,13.4,21.7S106.9,21.7,106.9,13.3z M88.5,13.3c0-2.8,2.3-5,5-5
			c2.8,0,5,2.2,5,5s-2.3,5-5,5C90.7,18.3,88.5,16.1,88.5,13.3z"/>
	</g>
</g>
<g>
	<path class="st0" d="M140.3,35.1V40h-4.7v-4.8c-4.6-0.4-7.8-2.4-8.7-3.2l3.2-4.7c0.6,0.4,3.2,2.2,7.1,2.2c2.5,0,4.5-0.9,4.5-3.2
		c0-0.8-0.2-1.2-0.8-1.9c-1.4-1.3-7.7-2.8-10.7-5.7c-1.2-1.2-2.3-2.6-2.3-5.3c0-5.4,5-7.8,7.7-8.4V0h4.7v4.8
		c5.2,0.4,8.1,2.5,8.6,3.1l-3.2,4.5c-0.6-0.4-3.2-2-6.4-2c-2.4,0-4,0.9-4,2.6c0,1,0.5,1.4,0.9,1.7c1.5,1.4,7.4,2.7,10.7,5.8
		c1.4,1.3,2.3,3.2,2.3,5.3C149.2,31.5,144.7,34.4,140.3,35.1z"/>
</g>
<g>
	<g>
		<path id="Path_8_2_" class="st0" d="M174,22.3c-1.2,0-2.2,1-2.2,2.2s1,2.2,2.2,2.2s2.2-1,2.2-2.2S175.2,22.3,174,22.3"/>
		<path id="Path_8_1_" class="st0" d="M182.9,22.3c-1.2,0-2.2,1-2.2,2.2s1,2.2,2.2,2.2c1.2,0,2.2-1,2.2-2.2S184.1,22.3,182.9,22.3"
			/>
		<path id="Path_8_3_" class="st0" d="M200.7,22.3c-1.2,0-2.2,1-2.2,2.2s1,2.2,2.2,2.2s2.2-1,2.2-2.2S201.9,22.3,200.7,22.3"/>
		<path class="st0" d="M209.9,12.8c-0.1-0.4-0.5-0.8-0.9-0.8h-6.6c-0.5,0-0.8,0.4-0.8,0.8v7.7c1.7,0.3,2.9,1.7,3.1,3.3h5.7
			c0.4,0,0.7-0.2,0.7-0.6v-0.1v-4L209.9,12.8z M203.7,17.3v-4h4.1c0.2,0,0.3,0.1,0.4,0.2l0.1,0.1c0.1,0,0.1,0.2,0.1,0.2l0.7,3.5
			C209.1,17.3,203.7,17.3,203.7,17.3z"/>
		<path id="Path_12_2_" class="st0" d="M200.3,20.5V8.7c0-0.5-0.4-0.8-0.8-0.8h-27.8c-0.5,0-0.8,0.4-0.8,0.8v0.5
			c-3,1.2-4.9,4-4.9,7.1c0,3,1.8,5.7,4.5,6.9c0.5-1.4,1.9-2.4,3.4-2.4c1.7,0,3.2,1.2,3.6,2.9c0.5,0,1.1,0,1.6,0
			c0.4-2,2.3-3.2,4.3-2.8c1.5,0.3,2.6,1.5,2.9,3h10.6C197.2,22.1,198.6,20.7,200.3,20.5z"/>
	</g>
	<path class="st0" d="M162,35c-1.4,0-2.5-1.1-2.5-2.5s1.1-2.5,2.5-2.5s2.5,1.1,2.5,2.5S163.4,35,162,35z M162,31
		c-0.8,0-1.5,0.7-1.5,1.5s0.7,1.5,1.5,1.5s1.5-0.7,1.5-1.5S162.8,31,162,31z"/>
	<circle class="st0" cx="188.5" cy="32.5" r="2"/>
	<path class="st0" d="M216,35c-1.4,0-2.5-1.1-2.5-2.5s1.1-2.5,2.5-2.5s2.5,1.1,2.5,2.5S217.4,35,216,35z M216,31
		c-0.8,0-1.5,0.7-1.5,1.5s0.7,1.5,1.5,1.5s1.5-0.7,1.5-1.5S216.8,31,216,31z"/>
	<path class="st0" d="M212,33h-1v-1h1V33z M209,33h-1v-1h1V33z M206,33h-1v-1h1V33z M203,33h-1v-1h1V33z M200,33h-1v-1h1V33z
		 M197,33h-1v-1h1V33z M194,33h-1v-1h1V33z M191,33h-1v-1h1V33z"/>
	<rect x="164" y="32" class="st0" width="24" height="1"/>
</g>
</svg>
