<?xml version="1.0" encoding="utf-8"?>
<!-- Generator: Adobe Illustrator 22.0.1, SVG Export Plug-In . SVG Version: 6.00 Build 0)  -->
<svg version="1.1" id="Layer_1" xmlns="http://www.w3.org/2000/svg" xmlns:xlink="http://www.w3.org/1999/xlink" x="0px" y="0px"
	 width="1659px" height="100.1px" viewBox="0 0 1659 100.1" xml:space="preserve">
<style type="text/css">
	.st0{fill:#7AB800;}
	.st1{fill:#3C8A2E;}
	.st2{fill:#78B800;}
	.st3{fill:#FFFFFF;}
	.st4{fill:#C1C1C1;}
</style>
<g id="XMLID_5_">
	<g id="XMLID_6_">
		<path id="XMLID_8_" d="M50,100.1c27.6,0,50-22.4,50-50s-22.4-50-50-50S0,22.5,0,50.1S22.4,100.1,50,100.1z M50,6.2
			c24.1,0,43.8,19.7,43.8,43.8S74.1,93.8,50,93.8S6.2,74.2,6.2,50C6.2,25.9,25.9,6.2,50,6.2z"/>
		<path id="XMLID_1_" d="M28.1,53.2h35.2L52,64.5c-1.2,1.2-1.2,3.2,0,4.4c1.2,1.2,3.2,1.2,4.4,0L74.9,50L56.4,31.1
			c-0.6-0.6-1.4-0.9-2.2-0.9c-0.8,0-1.6,0.3-2.2,0.9c-1.2,1.2-1.2,3.2,0,4.4L63.5,47H28.1c-1.7,0-3.1,1.4-3.1,3.1
			S26.4,53.2,28.1,53.2z"/>
	</g>
</g>
<g id="XMLID_2_">
	<g id="XMLID_3_">
		<path id="XMLID_7_" class="st0" d="M636.5,100.1c27.6,0,50-22.4,50-50s-22.4-50-50-50s-50,22.4-50,50S608.9,100.1,636.5,100.1z
			 M636.5,6.2c24.1,0,43.8,19.7,43.8,43.8s-19.7,43.8-43.8,43.8S592.7,74.2,592.7,50C592.7,25.9,612.4,6.2,636.5,6.2z"/>
		<path id="XMLID_4_" class="st0" d="M614.6,53.2h35.2l-11.3,11.3c-1.2,1.2-1.2,3.2,0,4.4c1.2,1.2,3.2,1.2,4.4,0L661.4,50
			l-18.5-18.9c-0.6-0.6-1.4-0.9-2.2-0.9s-1.6,0.3-2.2,0.9c-1.2,1.2-1.2,3.2,0,4.4L650,47h-35.4c-1.7,0-3.1,1.4-3.1,3.1
			S612.9,53.2,614.6,53.2z"/>
	</g>
</g>
<path id="XMLID_10_" class="st1" d="M110,40.4c0,22.3,18,40.4,40.2,40.4c7.8,0,15.1-2.3,21.3-6.1l0,0l21.7,22.1
	c2.1,2.2,5,3.3,7.8,3.3s5.6-1.1,7.7-3.2c4.3-4.3,4.4-11.3,0.1-15.6l-22.1-22.5c-0.1-0.2-0.3-0.3-0.5-0.4c2.7-5.4,4.2-11.5,4.2-17.9
	c0-22.3-18-40.4-40.2-40.4C128,0,110,18.1,110,40.4 M119.2,40.4c0-17.1,13.9-31.1,31-31.1s31,13.9,31,31.1s-13.9,31.1-31,31.1
	S119.2,57.5,119.2,40.4z"/>
<path d="M272,0.1c-27.6,0-50,22.4-50,50s22.4,50,50,50s50-22.4,50-50S299.6,0.1,272,0.1z M285.4,68.3L272,54.9l-13.4,13.4l-4.8-4.8
	l13.4-13.4l-13.4-13.4l4.8-4.8L272,45.3l13.4-13.4l4.8,4.8l-13.4,13.4l13.4,13.4L285.4,68.3z"/>
<path class="st2" d="M332,19.2v38.6c0,10.5,8.5,19.1,18.9,19.1h17.8v23.2l19.9-23.2h41.8c10.4,0,18.9-8.6,18.9-19.1V19.2
	c0-10.5-8.5-19.1-18.9-19.1h-79.5C340.5,0.1,332,8.7,332,19.2z"/>
<path class="st3" d="M459.2,19.2v38.6c0,10.5,8.5,19.1,18.9,19.1h17.8v23.2l19.9-23.2h41.8c10.4,0,18.9-8.6,18.9-19.1V19.2
	c0-10.5-8.5-19.1-18.9-19.1h-79.5C467.7,0.1,459.2,8.7,459.2,19.2z"/>
<g>
	<g id="_x37_65-arrow-left-toolbar_x40_2x.png_30_">
		<g>
			<path class="st1" d="M792.3,25.8l-45.8,43.4l-45.8-43.4l0,0c-0.4-0.4-1.1-0.7-1.7-0.7c-1.4,0-2.5,1.1-2.5,2.5
				c0,0.7,0.3,1.3,0.8,1.8l0,0l47.5,45l0,0c0.4,0.4,1.1,0.7,1.7,0.7c0.7,0,1.3-0.3,1.7-0.7l0,0l47.5-45l0,0c0.5-0.5,0.8-1.1,0.8-1.8
				c0-1.4-1.1-2.5-2.5-2.5C793.3,25.1,792.7,25.4,792.3,25.8L792.3,25.8z"/>
		</g>
	</g>
</g>
<g>
	<g>
		<circle class="st4" cx="1100.5" cy="56.7" r="22.3"/>
		<path class="st4" d="M1170.5,16h-38.9l-3.9-12.5c-0.6-2-1.6-3.5-3.5-3.5h-47.3c-1.9,0-2.9,1.6-3.5,3.5l-3.9,12.5h-38.9
			c-1.9,0-3.5,1.6-3.5,3.5v77c0,1.9,1.6,3.5,3.5,3.5h139.9c1.9,0,3.5-1.6,3.5-3.5v-77C1174,17.6,1172.4,16,1170.5,16z M1100.5,92.1
			c-19.5,0-35.4-15.8-35.4-35.4c0-19.5,15.8-35.4,35.4-35.4s35.4,15.8,35.4,35.4S1120,92.1,1100.5,92.1z M1145.1,34.4
			c-2.9,0-5.3-2.4-5.3-5.3s2.4-5.3,5.3-5.3s5.3,2.4,5.3,5.3C1150.4,32,1148,34.4,1145.1,34.4z"/>
	</g>
</g>
<g>
	<g>
		<path class="st3" d="M873.6,37.5l26.9-26.7L900.4,26c0,1.3,1,2.4,2.2,2.3h1.6c1.3,0,2.3-0.8,2.3-2l0.1-22.6c0,0-0.1,0-0.1-0.1
			l0.1-1.1c0-0.6-0.1-1.2-0.5-1.6s-1-0.7-1.6-0.6h-1.1c0,0,0,0-0.1,0l-22.5-0.1c-1.3,0-2.3,1.1-2.3,2.3v1.6c0.2,1.5,1.4,2.4,2.6,2.3
			h14.8l-26.8,26.7c-1.2,1.2-1.2,3.2,0,4.4C870.4,38.7,872.4,38.7,873.6,37.5z"/>
		<path class="st3" d="M839.7,62.7l-26.9,26.7l0.1-15.1c0-1.3-1-2.4-2.2-2.3H809c-1.3,0-2.3,0.8-2.3,2l-0.1,22.6c0,0,0.1,0,0.1,0.1
			l-0.1,1.2c0,0.6,0.1,1.2,0.5,1.6c0.4,0.4,1,0.7,1.6,0.6h1.1c0,0,0,0,0.1,0l22.5,0.1c1.3,0,2.3-1.1,2.3-2.3v-1.6
			c-0.2-1.5-1.4-2.4-2.6-2.3l-14.8-0.1l26.8-26.6c1.2-1.2,1.2-3.2,0-4.4C842.9,61.5,840.9,61.5,839.7,62.7z"/>
		<path class="st3" d="M906.7,96.6L906.6,74c0-1.3-1.1-2-2.3-2h-1.6c-1.3,0-2.3,1.1-2.2,2.3l0.1,15.2l-26.9-26.7
			c-1.2-1.2-3.2-1.2-4.4,0s-1.2,3.2,0,4.4l26.8,26.6h-14.8c-1.3,0-2.4,0.8-2.6,2.3v1.6c0,1.3,1.1,2.3,2.3,2.3l22.4-0.1
			c0,0,0,0,0.1,0h1.1c0.6,0,1.2-0.2,1.6-0.6c0.4-0.4,0.6-1,0.5-1.6l-0.1-1.1C906.6,96.6,906.7,96.6,906.7,96.6z"/>
		<path class="st3" d="M817.3,6.4h14.8c1.3,0,2.4-0.8,2.6-2.3V2.5c0-1.3-1.1-2.3-2.3-2.3l-22.6,0.1c0,0,0,0-0.1,0h-1.1
			c-0.6,0-1.2,0.2-1.6,0.6c-0.4,0.4-0.6,1-0.5,1.6l0.1,1.1c0,0-0.1,0-0.1,0.1l0.1,22.6c0,1.3,1.1,2,2.3,2h1.7c1.3,0,2.3-1.1,2.2-2.3
			l-0.1-15.1l26.9,26.7c1.2,1.2,3.2,1.2,4.4,0c1.2-1.2,1.2-3.2,0-4.4L817.3,6.4z"/>
	</g>
</g>
<g>
	<path class="st3" d="M1011.7,1l-26.9,26.7l0.1-15.2c0-1.3-1-2.4-2.2-2.3H981c-1.3,0-2.3,0.8-2.3,2l-0.1,22.6c0,0,0.1,0,0.1,0.1
		l-0.1,1.1c0,0.6,0.1,1.2,0.5,1.6s1,0.7,1.6,0.6h1.1c0,0,0,0,0.1,0l22.5,0.1c1.3,0,2.3-1.1,2.3-2.3v-1.6c-0.2-1.5-1.4-2.4-2.6-2.3
		h-14.8l26.8-26.7c1.2-1.2,1.2-3.2,0-4.4C1014.9-0.2,1012.9-0.2,1011.7,1z"/>
	<path class="st3" d="M922.1,99.2L949,72.5l-0.1,15.1c0,1.3,1,2.4,2.2,2.3h1.7c1.3,0,2.3-0.8,2.3-2l0.1-22.6c0,0-0.1,0-0.1-0.1
		l0.1-1.2c0-0.6-0.1-1.2-0.5-1.6s-1-0.7-1.6-0.6H952c0,0,0,0-0.1,0l-22.5-0.1c-1.3,0-2.3,1.1-2.3,2.3v1.6c0.2,1.5,1.4,2.4,2.6,2.3
		l14.8,0.1l-26.8,26.6c-1.2,1.2-1.2,3.2,0,4.4C918.9,100.4,920.9,100.4,922.1,99.2z"/>
	<path class="st3" d="M978.6,65.3l0.1,22.6c0,1.3,1.1,2,2.3,2h1.6c1.3,0,2.3-1.1,2.2-2.3l-0.1-15.2l26.9,26.7c1.2,1.2,3.2,1.2,4.4,0
		s1.2-3.2,0-4.4l-26.8-26.6h14.8c1.3,0,2.4-0.8,2.6-2.3v-1.6c0-1.3-1.1-2.3-2.3-2.3L981.9,62c0,0,0,0-0.1,0h-1.1
		c-0.6,0-1.2,0.2-1.6,0.6c-0.4,0.4-0.6,1-0.5,1.6l0.1,1.1C978.6,65.2,978.6,65.2,978.6,65.3z"/>
	<path class="st3" d="M944.5,32.1h-14.8c-1.3,0-2.4,0.8-2.6,2.3V36c0,1.3,1.1,2.3,2.3,2.3l22.6-0.1c0,0,0,0,0.1,0h1.1
		c0.6,0,1.2-0.2,1.6-0.6c0.4-0.4,0.6-1,0.5-1.6l-0.1-1.1c0,0,0.1,0,0.1-0.1l-0.1-22.6c0-1.3-1.1-2-2.3-2h-1.7
		c-1.3,0-2.3,1.1-2.2,2.3l0.1,15.1L922.2,0.9c-1.2-1.2-3.2-1.2-4.4,0s-1.2,3.2,0,4.4L944.5,32.1z"/>
</g>
<g id="Group_102" transform="translate(4050)">
	<g id="Subtraction_9" transform="translate(214.216 583)">
		<path class="st3" d="M-2954.7-489.4h-51.3v-4.5h40.5h6.3v-6.5v-65.2v-6.5h-6.3h-40.5v-4.5h51.3V-489.4z"/>
		<path class="st3" d="M-2948.4-483L-2948.4-483h-63.9v-17.4h46.9v-65.2h-46.9V-583h63.9V-483L-2948.4-483z"/>
	</g>
	<g id="Group_76" transform="translate(194 587.785)">
		<path id="Subtraction_10" class="st3" d="M-3015.5-504.7L-3015.5-504.7l-8.5-8.7l24.6-25.1l-24.6-25.1l8.5-8.7l33.1,33.8
			L-3015.5-504.7L-3015.5-504.7z"/>
		<rect id="Rectangle_163" x="-3056" y="-544.3" class="st3" width="63.9" height="13"/>
	</g>
</g>
<g id="Group_101" transform="translate(4053 -1)">
	<g id="Group_77" transform="translate(191 628)">
		<g id="Subtraction_9_1_" transform="translate(20.217 31) rotate(180)">
			<path class="st3" d="M2915.8,652h-52.3v-4.5h41.4h6.5v-6.5v-65.2v-6.5h-6.5h-41.4V565h52.3V652z"/>
			<path class="st3" d="M2922.2,658.5L2922.2,658.5H2857v-17.4h47.8v-65.2H2857v-17.4h65.2V658.5L2922.2,658.5z"/>
		</g>
		<g id="Group_76_1_" transform="translate(17.147 5.248)">
			<path id="Subtraction_10_1_" class="st3" d="M-2822.5-548.2L-2822.5-548.2l-8.7-8.7l25.1-25.1l-25.1-25.1l8.7-8.7l33.8,33.8
				L-2822.5-548.2L-2822.5-548.2z"/>
			<rect id="Rectangle_163_1_" x="-2863.8" y="-587.8" class="st3" width="65.2" height="13"/>
		</g>
	</g>
</g>
<path id="Subtraction_8" class="st3" d="M1540,98.5c-13.3,0-26-5.2-35.4-14.6c-9.4-9.4-14.7-22.1-14.6-35.4c0-13.3,5.2-26,14.6-35.4
	c9.4-9.4,22.1-14.7,35.4-14.6c13.3,0,26,5.2,35.4,14.6c9.4,9.4,14.7,22.1,14.6,35.4c0,13.3-5.2,26-14.6,35.4
	C1566,93.3,1553.3,98.5,1540,98.5z M1515.8,56.6L1515.8,56.6l23.1,23.1l23.1-23.1h-13.9V21.1h-19.4v35.5H1515.8z"/>
</svg>
