<?xml version="1.0" encoding="utf-8"?>
<!-- Generator: Adobe Illustrator 19.1.0, SVG Export Plug-In . SVG Version: 6.00 Build 0)  -->
<!DOCTYPE svg PUBLIC "-//W3C//DTD SVG 1.1//EN" "http://www.w3.org/Graphics/SVG/1.1/DTD/svg11.dtd">
<svg version="1.1" id="Layer_1" xmlns="http://www.w3.org/2000/svg" xmlns:xlink="http://www.w3.org/1999/xlink" x="0px" y="0px"
	 width="53.5px" height="1013.2px" viewBox="-456.1 313 53.5 1013.2" style="enable-background:new -456.1 313 53.5 1013.2;"
	 xml:space="preserve">
<style type="text/css">
	.st0{fill:#3C8A2E;}
	.st1{fill:#FFFFFF;}
</style>
<g id="XMLID_126_">
	<g id="XMLID_127_">
		<path id="XMLID_130_" class="st0" d="M-456,747.9c0,0.4,0.3,0.7,0.8,0.7h2.8c0.4,0,0.8-0.3,0.8-0.7s0-0.7,0-0.7h44.6v0.7
			c0,0.4,0.3,0.7,0.8,0.7h2.8c0.4,0,0.8-0.3,0.8-0.7v-2.1H-456V747.9z"/>
		<rect id="XMLID_129_" x="-405.6" y="723.2" class="st0" width="2.7" height="21.3"/>
		<path id="XMLID_128_" class="st0" d="M-451.8,744.3h44.8v-19.1h-49v13.5c0,0.4,0.2,1,0.5,1.3L-451.8,744.3z"/>
	</g>
</g>
<path class="st0" d="M-412.4,1040.6c0.4,0.1,0.4,0.4,0.4,0.8v1.5c0,0.4-0.4,0.6-0.8,0.5l-0.6-0.2v19c0,0.5-0.4,0.9-0.9,0.9h-38.9
	c-0.5,0-0.9-0.4-0.9-0.9v-31.7c-1.1-0.3-2-1.3-2-2.5c0-1.4,1.1-2.6,2.6-2.6c0.3,0,0.7,0.1,0.9,0.2L-412.4,1040.6z M-452.2,1027.9
	c0-0.7-0.6-1.3-1.3-1.3c-0.7,0-1.3,0.6-1.3,1.3c0,0.7,0.6,1.3,1.3,1.3C-452.7,1029.2-452.2,1028.7-452.2,1027.9"/>
<path class="st0" d="M-449.4,352.3c-3.6,0-6.6,3-6.6,6.6c0,3.6,3,6.6,6.6,6.6s6.6-2.9,6.6-6.6C-442.8,355.3-445.8,352.3-449.4,352.3
	 M-449.4,362.1c-1.8,0-3.2-1.4-3.2-3.2c0-1.8,1.4-3.2,3.2-3.2c1.8,0,3.2,1.4,3.2,3.2C-446.2,360.7-447.6,362.1-449.4,362.1
	 M-421.3,317v-0.8c0-1.8-1.4-3.2-3.2-3.2h-24.3c-1.8,0-3.3,1.4-3.3,3.2v0.8c-1.6,0.2-2.9,1.5-2.9,3.2c0,1.7,1.3,3.1,2.9,3.2v3.2
	l1.4,23.9h1.2c4.6,0,8.4,3.7,8.4,8.4c0,2.3-0.9,4.4-2.5,5.9h17.8c1.3,0,2.3-0.8,2.4-2.1l2-35.7v-3.5c0.9,0,1.6-0.7,1.6-1.6v-3.3
	C-419.7,317.7-420.4,317-421.3,317 M-451.7,321.8c-0.9,0-1.6-0.7-1.6-1.6c0-0.9,0.7-1.6,1.6-1.6s1.6,0.7,1.6,1.6
	C-450.1,321.1-450.8,321.8-451.7,321.8"/>
<g>
	<g id="XMLID_131_">
		<g id="XMLID_132_">
			<path id="XMLID_135_" class="st0" d="M-456,899c0,0.4,0.3,0.7,0.8,0.7h2.8c0.4,0,0.8-0.3,0.8-0.7c0-0.4,0-0.7,0-0.7h44.6v0.7
				c0,0.4,0.3,0.7,0.8,0.7h2.8c0.4,0,0.8-0.3,0.8-0.7v-2.1H-456V899z"/>
			<rect id="XMLID_134_" x="-405.6" y="874.2" class="st0" width="2.7" height="21.3"/>
			<path id="XMLID_133_" class="st0" d="M-451.8,895.4h44.8v-19.1h-49v13.5c0,0.4,0.2,1,0.5,1.3L-451.8,895.4z"/>
		</g>
	</g>
	<path class="st1" d="M-437.8,884.2h3.3l1.6,2.9l-1.1-0.6l-1,1.8c-0.1,0.2,0,0.3,0.2,0.3c0.1,0,3.7,0,3.7,0v3.3c0,0-2.7,0-2.9,0
		c-0.7,0-1.1-0.2-1.5-0.8l-2-3.4c-0.4-0.6-0.3-1.1,0-1.7l0.7-1.2L-437.8,884.2z M-425.5,880.8l-1.7,2.9h-3.3l1.1-0.6l-1-1.8
		c-0.1-0.2-0.3-0.2-0.4,0c-0.1,0.1-1.8,3.2-1.8,3.2l-2.8-1.6c0,0,1.4-2.3,1.5-2.5c0.3-0.6,0.7-0.9,1.4-0.9h3.9
		c0.7,0,1.1,0.3,1.4,0.9l0.7,1.1L-425.5,880.8z M-428.7,893l-1.7-2.9l1.7-2.9v1.2h2.1c0.2,0,0.3-0.2,0.2-0.3s-1.8-3.2-1.8-3.2
		l2.8-1.6c0,0,1.4,2.3,1.5,2.5c0.3,0.6,0.4,1.1,0,1.7l-2,3.4c-0.4,0.6-0.8,0.8-1.5,0.8h-1.3V893z"/>
</g>
<g>
	<path class="st0" d="M-449.4,557.4c-3.6,0-6.6,2.9-6.6,6.6c0,3.6,3,6.6,6.6,6.6s6.6-2.9,6.6-6.6S-445.8,557.4-449.4,557.4
		 M-449.4,567.2c-1.8,0-3.2-1.4-3.2-3.2s1.4-3.2,3.2-3.2c1.8,0,3.2,1.4,3.2,3.2C-446.2,565.8-447.6,567.2-449.4,567.2 M-421.3,522.2
		v-0.8c0-1.8-1.4-3.2-3.2-3.2h-24.3c-1.8,0-3.2,1.4-3.2,3.2v0.8c-1.6,0.2-2.9,1.6-2.9,3.2c0,1.7,1.3,3.1,2.9,3.2v3.2l1.4,23.9h1.2
		c4.6,0,8.4,3.7,8.4,8.4c0,2.3-0.9,4.4-2.5,5.9h17.8c1.3,0,2.3-0.8,2.4-2.1l2-35.7v-3.6c0.9,0,1.6-0.7,1.6-1.6v-3.2
		C-419.7,522.8-420.4,522.2-421.3,522.2 M-451.7,526.9c-0.9,0-1.6-0.7-1.6-1.6s0.7-1.6,1.6-1.6s1.6,0.7,1.6,1.6
		C-450.1,526.2-450.8,526.9-451.7,526.9"/>
	<path class="st1" d="M-444,540.8h3.5l1.7,3l-1.1-0.6l-1.1,1.9c-0.1,0.2,0,0.3,0.2,0.3c0.1,0,3.9,0,3.9,0v3.5c0,0-2.9,0-3.1,0
		c-0.7,0-1.2-0.2-1.6-0.9l-2.1-3.6c-0.4-0.7-0.3-1.2,0-1.8l0.7-1.2L-444,540.8z M-431,537.2l-1.7,3h-3.5l1.1-0.6l-1.1-1.9
		c-0.1-0.2-0.3-0.2-0.4,0c-0.1,0.1-1.9,3.3-1.9,3.3l-3-1.7c0,0,1.4-2.5,1.5-2.6c0.3-0.6,0.8-0.9,1.5-0.9h4.1c0.8,0,1.2,0.3,1.5,0.9
		l0.7,1.2L-431,537.2z M-434.3,550.2l-1.7-3l1.7-3v1.3h2.2c0.2,0,0.3-0.2,0.2-0.3s-1.9-3.3-1.9-3.3l3-1.7c0,0,1.4,2.5,1.5,2.6
		c0.4,0.6,0.4,1.1,0,1.8l-2.1,3.6c-0.4,0.7-0.8,0.9-1.6,0.9h-1.4L-434.3,550.2L-434.3,550.2z"/>
</g>
<g>
	<path class="st0" d="M-412.4,1216c0.4,0.1,0.4,0.4,0.4,0.8v1.5c0,0.4-0.4,0.6-0.8,0.5l-0.6-0.2v19c0,0.5-0.4,0.9-0.9,0.9h-38.9
		c-0.5,0-0.9-0.4-0.9-0.9v-31.7c-1.1-0.3-2-1.3-2-2.5c0-1.4,1.1-2.6,2.6-2.6c0.3,0,0.7,0.1,0.9,0.2L-412.4,1216z M-452.2,1203.4
		c0-0.7-0.6-1.3-1.3-1.3c-0.7,0-1.3,0.6-1.3,1.3c0,0.7,0.6,1.3,1.3,1.3C-452.7,1204.7-452.2,1204.1-452.2,1203.4"/>
	<path class="st1" d="M-441.7,1222.9h3.5l1.7,3l-1.1-0.6l-1.1,1.9c-0.1,0.2,0,0.3,0.2,0.3c0.1,0,3.9,0,3.9,0v3.5c0,0-2.9,0-3.1,0
		c-0.7,0-1.2-0.2-1.6-0.9l-2.1-3.6c-0.4-0.7-0.3-1.2,0-1.8l0.7-1.2L-441.7,1222.9z M-428.7,1219.2l-1.7,3h-3.5l1.1-0.6l-1.1-1.9
		c-0.1-0.2-0.3-0.2-0.4,0c-0.1,0.1-1.9,3.3-1.9,3.3l-3-1.7c0,0,1.4-2.5,1.5-2.6c0.3-0.6,0.8-0.9,1.5-0.9h4.1c0.8,0,1.2,0.3,1.5,0.9
		l0.7,1.2L-428.7,1219.2z M-432,1232.2l-1.7-3l1.7-3v1.3h2.2c0.2,0,0.3-0.2,0.2-0.3s-1.9-3.3-1.9-3.3l3-1.7c0,0,1.4,2.5,1.5,2.6
		c0.4,0.6,0.4,1.1,0,1.8l-2.1,3.6c-0.4,0.7-0.8,0.9-1.6,0.9h-1.3V1232.2L-432,1232.2z"/>
</g>
<g id="XMLID_6_">
	<g id="XMLID_7_">
		<path id="XMLID_10_" class="st1" d="M-456.1,823.4c0,0.4,0.3,0.7,0.8,0.7h2.8c0.4,0,0.8-0.3,0.8-0.7s0-0.7,0-0.7h44.6v0.7
			c0,0.4,0.3,0.7,0.8,0.7h2.8c0.4,0,0.8-0.3,0.8-0.7v-2.1h-53.4V823.4z"/>
		<rect id="XMLID_9_" x="-405.7" y="798.7" class="st1" width="2.7" height="21.3"/>
		<path id="XMLID_8_" class="st1" d="M-451.9,819.8h44.8v-19.1h-49v13.5c0,0.4,0.2,1,0.5,1.3L-451.9,819.8z"/>
	</g>
</g>
<path class="st1" d="M-412.4,1128.2c0.4,0.1,0.4,0.4,0.4,0.8v1.5c0,0.4-0.4,0.6-0.8,0.5l-0.6-0.2v19c0,0.5-0.4,0.9-0.9,0.9h-38.9
	c-0.5,0-0.9-0.4-0.9-0.9v-31.7c-1.1-0.3-2-1.3-2-2.5c0-1.4,1.1-2.6,2.6-2.6c0.3,0,0.7,0.1,0.9,0.2L-412.4,1128.2z M-452.2,1115.7
	c0-0.7-0.6-1.3-1.3-1.3s-1.3,0.6-1.3,1.3c0,0.7,0.6,1.3,1.3,1.3C-452.7,1116.8-452.2,1116.3-452.2,1115.7"/>
<path class="st1" d="M-449.5,454.8c-3.6,0-6.6,3-6.6,6.6s3,6.6,6.6,6.6s6.6-2.9,6.6-6.6C-442.9,457.8-445.9,454.8-449.5,454.8
	 M-449.5,464.6c-1.8,0-3.2-1.4-3.2-3.2s1.4-3.2,3.2-3.2s3.2,1.4,3.2,3.2C-446.3,463.2-447.7,464.6-449.5,464.6 M-421.4,419.5v-0.8
	c0-1.8-1.4-3.2-3.2-3.2h-24.3c-1.8,0-3.3,1.4-3.3,3.2v0.8c-1.6,0.2-2.9,1.5-2.9,3.2s1.3,3.1,2.9,3.2v3.2l1.4,23.9h1.2
	c4.6,0,8.4,3.7,8.4,8.4c0,2.3-0.9,4.4-2.5,5.9h17.8c1.3,0,2.3-0.8,2.4-2.1l2-35.7V426c0.9,0,1.6-0.7,1.6-1.6v-3.3
	C-419.8,420.2-420.5,419.5-421.4,419.5 M-451.8,424.3c-0.9,0-1.6-0.7-1.6-1.6c0-0.9,0.7-1.6,1.6-1.6c0.9,0,1.6,0.7,1.6,1.6
	S-450.9,424.3-451.8,424.3"/>
<g>
	<g id="XMLID_1_">
		<g id="XMLID_2_">
			<path id="XMLID_5_" class="st1" d="M-456.1,974.7c0,0.4,0.3,0.7,0.8,0.7h2.8c0.4,0,0.8-0.3,0.8-0.7s0-0.7,0-0.7h44.6v0.7
				c0,0.4,0.3,0.7,0.8,0.7h2.8c0.4,0,0.8-0.3,0.8-0.7v-2.1h-53.4V974.7z"/>
			<rect id="XMLID_4_" x="-405.7" y="949.8" class="st1" width="2.7" height="21.3"/>
			<path id="XMLID_3_" class="st1" d="M-451.9,971h44.8v-19.1h-49v13.5c0,0.4,0.2,1,0.5,1.3L-451.9,971z"/>
		</g>
	</g>
	<path class="st0" d="M-437.9,959.8h3.3l1.6,2.9l-1.1-0.6l-1,1.8c-0.1,0.2,0,0.3,0.2,0.3c0.1,0,3.7,0,3.7,0v3.3c0,0-2.7,0-2.9,0
		c-0.7,0-1.1-0.2-1.5-0.8l-2-3.4c-0.4-0.6-0.3-1.1,0-1.7l0.7-1.2L-437.9,959.8z M-425.6,956.3l-1.7,2.9h-3.3l1.1-0.6l-1-1.8
		c-0.1-0.2-0.3-0.2-0.4,0c-0.1,0.1-1.8,3.2-1.8,3.2l-2.8-1.6c0,0,1.4-2.3,1.5-2.5c0.3-0.6,0.7-0.9,1.4-0.9h3.9
		c0.7,0,1.1,0.3,1.4,0.9l0.7,1.1L-425.6,956.3z M-428.8,968.7l-1.7-2.9l1.7-2.9v1.2h2.1c0.2,0,0.3-0.2,0.2-0.3
		c-0.1-0.1-1.8-3.2-1.8-3.2l2.8-1.6c0,0,1.4,2.3,1.5,2.5c0.3,0.6,0.4,1.1,0,1.7l-2,3.4c-0.4,0.6-0.8,0.8-1.5,0.8h-1.3V968.7z"/>
</g>
<g>
	<path class="st1" d="M-449.5,659.9c-3.6,0-6.6,2.9-6.6,6.6c0,3.6,3,6.6,6.6,6.6s6.6-2.9,6.6-6.6S-445.9,659.9-449.5,659.9
		 M-449.5,669.8c-1.8,0-3.2-1.4-3.2-3.2s1.4-3.2,3.2-3.2s3.2,1.4,3.2,3.2C-446.3,668.2-447.7,669.8-449.5,669.8 M-421.4,624.7v-0.8
		c0-1.8-1.4-3.2-3.2-3.2h-24.3c-1.8,0-3.2,1.4-3.2,3.2v0.8c-1.6,0.2-2.9,1.6-2.9,3.2c0,1.7,1.3,3.1,2.9,3.2v3.2l1.4,23.9h1.2
		c4.6,0,8.4,3.7,8.4,8.4c0,2.3-0.9,4.4-2.5,5.9h17.8c1.3,0,2.3-0.8,2.4-2.1l2-35.7V631c0.9,0,1.6-0.7,1.6-1.6v-3.2
		C-419.8,625.3-420.5,624.7-421.4,624.7 M-451.8,629.4c-0.9,0-1.6-0.7-1.6-1.6s0.7-1.6,1.6-1.6c0.9,0,1.6,0.7,1.6,1.6
		C-450.2,628.7-450.9,629.4-451.8,629.4"/>
	<path class="st0" d="M-444.1,643.3h3.5l1.7,3l-1.1-0.6l-1.1,1.9c-0.1,0.2,0,0.3,0.2,0.3c0.1,0,3.9,0,3.9,0v3.5c0,0-2.9,0-3.1,0
		c-0.7,0-1.2-0.2-1.6-0.9l-2.1-3.6c-0.4-0.7-0.3-1.2,0-1.8l0.7-1.2L-444.1,643.3z M-431.1,639.8l-1.7,3h-3.5l1.1-0.6l-1.1-1.9
		c-0.1-0.2-0.3-0.2-0.4,0c-0.1,0.1-1.9,3.3-1.9,3.3l-3-1.7c0,0,1.4-2.5,1.5-2.6c0.3-0.6,0.8-0.9,1.5-0.9h4.1c0.8,0,1.2,0.3,1.5,0.9
		l0.7,1.2L-431.1,639.8z M-434.4,652.8l-1.7-3l1.7-3v1.3h2.2c0.2,0,0.3-0.2,0.2-0.3s-1.9-3.3-1.9-3.3l3-1.7c0,0,1.4,2.5,1.5,2.6
		c0.4,0.6,0.4,1.1,0,1.8l-2.1,3.6c-0.4,0.7-0.8,0.9-1.6,0.9h-1.4L-434.4,652.8L-434.4,652.8z"/>
</g>
<g>
	<path class="st1" d="M-412.4,1303.7c0.4,0.1,0.4,0.4,0.4,0.8v1.5c0,0.4-0.4,0.6-0.8,0.5l-0.6-0.2v19c0,0.5-0.4,0.9-0.9,0.9h-38.9
		c-0.5,0-0.9-0.4-0.9-0.9v-31.7c-1.1-0.3-2-1.3-2-2.5c0-1.4,1.1-2.6,2.6-2.6c0.3,0,0.7,0.1,0.9,0.2L-412.4,1303.7z M-452.2,1291.1
		c0-0.7-0.6-1.3-1.3-1.3s-1.3,0.6-1.3,1.3c0,0.7,0.6,1.3,1.3,1.3C-452.7,1292.4-452.2,1291.8-452.2,1291.1"/>
	<path class="st0" d="M-441.7,1310.6h3.5l1.7,3l-1.1-0.6l-1.1,1.9c-0.1,0.2,0,0.3,0.2,0.3c0.1,0,3.9,0,3.9,0v3.5c0,0-2.9,0-3.1,0
		c-0.7,0-1.2-0.2-1.6-0.9l-2.1-3.6c-0.4-0.7-0.3-1.2,0-1.8l0.7-1.2L-441.7,1310.6z M-428.7,1306.9l-1.7,3h-3.5l1.1-0.6l-1.1-1.9
		c-0.1-0.2-0.3-0.2-0.4,0c-0.1,0.1-1.9,3.3-1.9,3.3l-3-1.7c0,0,1.4-2.5,1.5-2.6c0.3-0.6,0.8-0.9,1.5-0.9h4.1c0.8,0,1.2,0.3,1.5,0.9
		l0.7,1.2L-428.7,1306.9z M-432,1319.9l-1.7-3l1.7-3v1.3h2.2c0.2,0,0.3-0.2,0.2-0.3s-1.9-3.3-1.9-3.3l3-1.7c0,0,1.4,2.5,1.5,2.6
		c0.4,0.6,0.4,1.1,0,1.8l-2.1,3.6c-0.4,0.7-0.8,0.9-1.6,0.9h-1.3V1319.9z"/>
</g>
</svg>
