<?xml version="1.0" encoding="utf-8"?>
<!-- Generator: Adobe Illustrator 22.0.1, SVG Export Plug-In . SVG Version: 6.00 Build 0)  -->
<svg version="1.1" id="Layer_1" xmlns="http://www.w3.org/2000/svg" xmlns:xlink="http://www.w3.org/1999/xlink" x="0px" y="0px"
	 width="54" height="282" viewBox="0 0 54 282" style="enable-background:new 0 0 54 282;" xml:space="preserve">
<style type="text/css">
	.st0{fill:#585950;}
</style>
<g>
	<g>
		<path class="st0" d="M20.4,20.8h3.1c0.5,0,0.8-0.4,0.8-0.8v-1.2c-0.8,0-1.6,0-2.4,0s-1.6,0-2.4,0V20C19.6,20.4,20,20.8,20.4,20.8z
			"/>
		<path class="st0" d="M25.4,18.7v1.2c0,1-0.8,1.8-1.8,1.8h-3.1c-1,0-1.8-0.8-1.8-1.8v-1.2C12.1,18.6,5.9,18,0.1,17.2V31
			c0,2.5,2,4.5,4.6,4.5h34.9c2.5,0,4.6-2,4.6-4.5V17.2C38.2,18.1,32,18.6,25.4,18.7z"/>
	</g>
	<g>
		<path class="st0" d="M23.6,16.1h-3.1c-0.5,0-0.8,0.4-0.8,0.8v0.8c0.8,0,1.6,0,2.4,0s1.6,0,2.4,0v-0.8C24.4,16.5,24,16.1,23.6,16.1
			z"/>
		<path class="st0" d="M39.4,6h-9V5.4c0-2.7-2.3-5-5.1-5h-6.8c-2.8,0-5.1,2.2-5.1,5V6h-9c-2.5,0-4.6,2-4.6,4.5v5.7
			c5.8,0.9,12,1.4,18.6,1.5v-0.8c0-1,0.8-1.8,1.8-1.8h3.1c1,0,1.8,0.8,1.8,1.8v0.8c6.6-0.1,12.8-0.7,18.6-1.5v-5.7C44,8,42,6,39.4,6
			z M28.4,6H15.6V5.4c0-1.6,1.3-2.9,3-2.9h6.8c1.7,0,3,1.3,3,2.9C28.4,5.4,28.4,6,28.4,6z"/>
	</g>
</g>
<g>
	<path class="st0" d="M50.4,104.2h-35c-2.3,0-5.1,1.3-6.2,2.9l-6.9,10.3c-0.3,0.4-0.5,1-0.3,1.5c0.3,0.5,1.1,0.9,2.2,0.9h35
		c2.3,0,5.1-1.3,6.2-2.9l6.9-10.3c0.3-0.4,0.5-1,0.3-1.5C52.4,104.5,51.5,104.2,50.4,104.2z"/>
	<path class="st0" d="M1.5,116.8l6.9-10.3c1.3-1.9,4.3-3.4,7-3.4H44V96c0-2.5-2-4.5-4.5-4.5h-9v-0.6c0-2.7-2.3-5-5.1-5h-6.8
		c-2.8,0-5.1,2.2-5.1,5v0.6h-9C2,91.5,0,93.5,0,96v20c0,1.1,0.4,2.1,1.1,2.9C0.9,118.3,1,117.6,1.5,116.8z M15.7,91
		c0-1.6,1.3-2.9,3-2.9h6.8c1.7,0,3,1.3,3,2.9v0.6H15.7V91z"/>
</g>
<g>
	<g>
		<path class="st0" d="M41.8,177.3l-6.1-0.9l-1.1,1.4l3.2,5.5l-2.9,3.8l2.4,3.4l-1,1.2l3.3,0.5c0.5,0.1,1-0.3,1.1-0.9l1.8-12.9
			C42.7,178,42.3,177.4,41.8,177.3z"/>
		<path class="st0" d="M47.7,185.8c0.3-2.1,2.2-3.7,4.4-3.4c0.1,0,0.1,0,0.2,0l0.9-5.8c0.2-1.1-0.6-2.1-1.7-2.3l-12.6-1.8l-2.4,3
			l5.4,0.8c1.1,0.2,1.9,1.2,1.7,2.3l-1.7,12.9c-0.2,1.1-1.2,1.9-2.3,1.7l-4-0.6l-2.7,3.2l15.3,2.2c1.1,0.2,2.1-0.6,2.3-1.7l0.8-5.8
			c-0.1,0-0.2-0.1-0.3-0.1C48.8,189.9,47.4,187.9,47.7,185.8z"/>
	</g>
	<g>
		<path class="st0" d="M36,190.3H11c-1.1,0-2-0.9-2-2v-13c0-1.1,0.9-2,2-2h24.1l2-3.3H2c-1.1,0-2,0.9-2,2v6c2.2,0,3.9,1.8,3.9,3.9
			s-1.8,3.9-3.9,3.9v6c0,1.1,0.9,2,2,2h31.3L36,190.3z"/>
		<path class="st0" d="M33.7,187.1l2.7-4.2l-3-5.1l0.8-1l-0.7-0.9l0.9-1.6H11c-0.5,0-1,0.4-1,1v13c0,0.5,0.4,1,1,1h24.3L33.7,187.1z
			"/>
	</g>
</g>
<g>
	<path class="st0" d="M52.6,267.1c-0.2-0.6-1.1-0.9-2.2-0.9h-19c-1.1,3.7-3.9,4.1-4.1,4.2l-0.1-0.7l-0.1-0.7c0.1,0,1.8-0.3,2.7-2.7
		H15.4c-2.3,0-5.1,1.3-6.2,2.9l-6.9,10.3c-0.3,0.4-0.5,1-0.3,1.5c0.3,0.5,1.1,0.9,2.2,0.9h35c2.3,0,5.1-1.3,6.2-2.9l6.9-10.3
		C52.6,268.2,52.8,267.6,52.6,267.1z"/>
	<g>
		<path class="st0" d="M29.4,260.8L29.4,260.8L29.4,260.8z"/>
		<path class="st0" d="M39.5,253.5h-9v-0.6c0-2.7-2.3-5-5.1-5h-6.8c-2.8,0-5.1,2.2-5.1,5v0.6h-9c-2.5,0-4.5,2-4.5,4.5v20
			c0,1.1,0.4,2.1,1.1,2.9c-0.2-0.6-0.1-1.3,0.4-2.1l6.9-10.3c1.3-1.9,4.3-3.4,7-3.4h14.7c0.2-1.3-0.2-2.5-1-3.5l-0.8,2l-1.4-0.6
			l1.8-4.3l4.3,2.4l-0.7,1.3l-1.4-0.8c0.6,1.1,0.8,2.3,0.7,3.5H44V258C44,255.5,42,253.5,39.5,253.5z M28.5,253.6H15.7V253
			c0-1.6,1.3-2.9,3-2.9h6.8c1.7,0,3,1.3,3,2.9V253.6z"/>
	</g>
</g>
</svg>
