<?xml version="1.0" encoding="utf-8"?>
<!-- Generator: Adobe Illustrator 21.1.0, SVG Export Plug-In . SVG Version: 6.00 Build 0)  -->
<svg version="1.1" id="Layer_1" xmlns="http://www.w3.org/2000/svg" xmlns:xlink="http://www.w3.org/1999/xlink" x="0px" y="0px"
	 viewBox="0 0 792 612" style="enable-background:new 0 0 792 612;" xml:space="preserve">
<style type="text/css">
	.st0{fill:#DA9C28;}
	.st1{fill:url(#SVGID_1_);}
	.st2{fill:#1E2321;}
	.st3{fill:url(#SVGID_2_);}
	.st4{fill:url(#SVGID_3_);}
	.st5{fill:url(#SVGID_4_);}
	.st6{fill:#3A3A3A;}
	.st7{fill:url(#SVGID_5_);}
	.st8{fill:#102F1F;}
	.st9{fill:url(#SVGID_6_);}
	.st10{fill:url(#SVGID_7_);}
	.st11{fill:url(#SVGID_8_);}
	.st12{fill:#FFFFFF;}
	.st13{fill:url(#SVGID_9_);}
	.st14{fill:#F0BD3F;}
	.st15{fill:#9A3535;}
	.st16{fill:#024C2D;}
	.st17{fill:url(#SVGID_10_);}
	.st18{fill:url(#SVGID_11_);}
	.st19{fill:url(#SVGID_12_);}
	.st20{fill:url(#SVGID_13_);}
	.st21{fill:url(#SVGID_14_);}
	.st22{fill:url(#SVGID_15_);}
	.st23{fill:url(#SVGID_16_);}
	.st24{fill:url(#SVGID_17_);}
	.st25{fill:#015736;}
	.st26{fill:#037B4A;}
	.st27{fill:url(#SVGID_18_);}
	.st28{fill:url(#SVGID_19_);}
	.st29{fill:#333435;}
	.st30{fill:url(#SVGID_20_);}
	.st31{fill:#95979A;}
	.st32{fill:#C3C0B1;}
	.st33{fill:#2C2D28;}
	.st34{fill:#D4D2C2;}
	.st35{fill:#E1E1D5;}
	.st36{fill:#666766;}
	.st37{fill:#333333;}
	.st38{fill:none;stroke:#333333;stroke-miterlimit:10;}
	.st39{fill:#F8991D;}
	.st40{fill:none;stroke:#C3C0B1;stroke-miterlimit:10;}
	.st41{fill-rule:evenodd;clip-rule:evenodd;fill:#006940;}
	.st42{fill-rule:evenodd;clip-rule:evenodd;fill:#EEB310;}
</style>
<g>
	<path class="st0" d="M187.4,322.6c0,0-0.3,0-0.8,0c-6.2-0.1-48.5-0.5-61.2-0.6c-2,0-3.6,1.6-3.6,3.6V337c0,0.5-0.1,1-0.3,1.4
		c-1.7,3.9-9.6,24.6,4.9,45.4c0.8,1.1,2.1,1.7,3.4,1.6l11.6-1.3c0.2,0,0.5,0,0.7,0l19.7,1.5c0.1,0,0.2,0,0.3,0l18,2.7
		c1.6,0.2,3.2-0.6,3.8-2.1l26.6-59.1"/>
	<g>
		<linearGradient id="SVGID_1_" gradientUnits="userSpaceOnUse" x1="310.7807" y1="350.912" x2="310.7807" y2="409.2464">
			<stop  offset="5.008013e-04" style="stop-color:#000000"/>
			<stop  offset="0.5208" style="stop-color:#737577"/>
			<stop  offset="0.5568" style="stop-color:#636466"/>
			<stop  offset="0.6463" style="stop-color:#3F4042"/>
			<stop  offset="0.7361" style="stop-color:#242425"/>
			<stop  offset="0.8253" style="stop-color:#101010"/>
			<stop  offset="0.9136" style="stop-color:#040404"/>
			<stop  offset="1" style="stop-color:#000000"/>
		</linearGradient>
		<path class="st1" d="M310.8,350.9H299v6.6c-4.2,5.3-6.8,13.5-6.8,22.6c0,9.1,2.7,17.2,6.8,22.6v6.6h11.8
			c10.3,0,18.6-13.1,18.6-29.2S321.1,350.9,310.8,350.9z"/>
		<ellipse class="st2" cx="299.6" cy="380.1" rx="18.6" ry="29.2"/>
	</g>
	<g>
		<linearGradient id="SVGID_2_" gradientUnits="userSpaceOnUse" x1="363.5316" y1="352.3394" x2="363.5316" y2="413.9964">
			<stop  offset="5.008013e-04" style="stop-color:#000000"/>
			<stop  offset="0.5208" style="stop-color:#737577"/>
			<stop  offset="0.5568" style="stop-color:#636466"/>
			<stop  offset="0.6463" style="stop-color:#3F4042"/>
			<stop  offset="0.7361" style="stop-color:#242425"/>
			<stop  offset="0.8253" style="stop-color:#101010"/>
			<stop  offset="0.9136" style="stop-color:#040404"/>
			<stop  offset="1" style="stop-color:#000000"/>
		</linearGradient>
		<path class="st3" d="M363.5,352.3h-12.4v7c-4.4,5.7-7.2,14.2-7.2,23.9c0,9.6,2.8,18.2,7.2,23.9v7h12.4c10.9,0,19.7-13.8,19.7-30.8
			C383.2,366.1,374.4,352.3,363.5,352.3z"/>
		<ellipse class="st2" cx="351.7" cy="383.2" rx="19.7" ry="30.8"/>
	</g>
	<g>
		<linearGradient id="SVGID_3_" gradientUnits="userSpaceOnUse" x1="349.7692" y1="352.3394" x2="349.7692" y2="413.9964">
			<stop  offset="5.008013e-04" style="stop-color:#000000"/>
			<stop  offset="0.5208" style="stop-color:#737577"/>
			<stop  offset="0.5568" style="stop-color:#636466"/>
			<stop  offset="0.6463" style="stop-color:#3F4042"/>
			<stop  offset="0.7361" style="stop-color:#242425"/>
			<stop  offset="0.8253" style="stop-color:#101010"/>
			<stop  offset="0.9136" style="stop-color:#040404"/>
			<stop  offset="1" style="stop-color:#000000"/>
		</linearGradient>
		<path class="st4" d="M349.8,352.3h-12.4v7c-4.4,5.7-7.2,14.2-7.2,23.9c0,9.6,2.8,18.2,7.2,23.9v7h12.4c10.9,0,19.7-13.8,19.7-30.8
			C369.4,366.1,360.6,352.3,349.8,352.3z"/>
		<ellipse class="st2" cx="338" cy="383.2" rx="19.7" ry="30.8"/>
	</g>
	<g>
		<linearGradient id="SVGID_4_" gradientUnits="userSpaceOnUse" x1="563.3942" y1="352.3394" x2="563.3942" y2="429.7047">
			<stop  offset="5.008013e-04" style="stop-color:#000000"/>
			<stop  offset="0.5208" style="stop-color:#737577"/>
			<stop  offset="0.5568" style="stop-color:#636466"/>
			<stop  offset="0.6463" style="stop-color:#3F4042"/>
			<stop  offset="0.7361" style="stop-color:#242425"/>
			<stop  offset="0.8253" style="stop-color:#101010"/>
			<stop  offset="0.9136" style="stop-color:#040404"/>
			<stop  offset="1" style="stop-color:#000000"/>
		</linearGradient>
		<path class="st5" d="M563.4,352.3h-15.6v8.7c-5.5,7.1-9.1,17.9-9.1,30c0,12.1,3.5,22.9,9.1,30v8.7h15.6
			c13.6,0,24.7-17.3,24.7-38.7S577,352.3,563.4,352.3z"/>
		<ellipse class="st2" cx="548.6" cy="391" rx="24.7" ry="38.7"/>
	</g>
	<path class="st6" d="M542.6,420.4c-12.7-0.7-86-11.5-108.1-18.4L204,381.1l-22-33.5l23-21.5l300.9,1.7l21.4,52.2L542.6,420.4z"/>
	<linearGradient id="SVGID_5_" gradientUnits="userSpaceOnUse" x1="404.5373" y1="409.6594" x2="406.9194" y2="364.2048">
		<stop  offset="5.008013e-04" style="stop-color:#000000"/>
		<stop  offset="0.5281" style="stop-color:#737577"/>
		<stop  offset="0.7677" style="stop-color:#3A3B3C"/>
		<stop  offset="1" style="stop-color:#000000"/>
	</linearGradient>
	<path class="st7" d="M432.5,365.6l-51.2-2.3c-0.6-0.1-1.1-0.1-1.7-0.1c-8.9,0-16,9.9-16,22s7.2,22,16,22l50.6,3.9l0-0.1
		c0.6,0.1,1.1,0.1,1.7,0.1c8.9,0,16-9.9,16-22S441.4,365.6,432.5,365.6z"/>
	<path class="st8" d="M289.5,204.9c0-0.3,0-7.1,0-10.5c0-1.2,0.7-2.3,1.7-2.9c1.5-0.8,3.6-1.9,5.1-2.6c1.1-0.6,2.4-0.4,3.4,0.4
		l2.1,1.8c0.6,0.6,1,1.4,1,2.2v12.2L289.5,204.9z"/>
	
		<linearGradient id="SVGID_6_" gradientUnits="userSpaceOnUse" x1="439.3092" y1="65.4184" x2="439.3213" y2="71.0492" gradientTransform="matrix(1.086 -0.1694 0.1541 0.9881 -126.003 190.0059)">
		<stop  offset="5.008013e-04" style="stop-color:#808285"/>
		<stop  offset="1" style="stop-color:#E6E7E8"/>
	</linearGradient>
	<path class="st9" d="M426,170.2l-129.6,20.2c-0.6,0.1-0.9,1.4-0.7,2.8s0.9,2.6,1.5,2.5l129.6-20.2c0.6-0.1,0.9-1.4,0.7-2.8
		S426.6,170.2,426,170.2z"/>
	
		<linearGradient id="SVGID_7_" gradientUnits="userSpaceOnUse" x1="440.1678" y1="-130.0876" x2="440.1798" y2="-124.4567" gradientTransform="matrix(1.086 -0.1694 7.410780e-02 0.4751 -105.2732 322.9136)">
		<stop  offset="5.008013e-04" style="stop-color:#808285"/>
		<stop  offset="1" style="stop-color:#E6E7E8"/>
	</linearGradient>
	<path class="st10" d="M427.9,176.5l-129.6,20.2c-0.6,0.1-1,0.7-0.9,1.4c0.1,0.7,0.7,1.2,1.3,1.1l129.6-20.2c0.6-0.1,1-0.7,0.9-1.4
		C429.1,176.9,428.5,176.4,427.9,176.5z"/>
	<path class="st8" d="M421.8,184.4c0-0.3,0-7.1,0-10.5c0-1.2,0.7-2.3,1.7-2.9c1.5-0.8,3.6-1.9,5.1-2.6c1.1-0.6,2.4-0.4,3.4,0.4
		l2.1,1.8c0.6,0.6,1,1.4,1,2.2v12.2L421.8,184.4z"/>
	<g>
		<linearGradient id="SVGID_8_" gradientUnits="userSpaceOnUse" x1="152.4677" y1="352.5626" x2="152.4677" y2="392.981">
			<stop  offset="5.008013e-04" style="stop-color:#000000"/>
			<stop  offset="0.5208" style="stop-color:#737577"/>
			<stop  offset="0.5568" style="stop-color:#636466"/>
			<stop  offset="0.6463" style="stop-color:#3F4042"/>
			<stop  offset="0.7361" style="stop-color:#242425"/>
			<stop  offset="0.8253" style="stop-color:#101010"/>
			<stop  offset="0.9136" style="stop-color:#040404"/>
			<stop  offset="1" style="stop-color:#000000"/>
		</linearGradient>
		<path class="st11" d="M152.5,352.6h-9.3v4.6c-3.3,3.7-5.4,9.3-5.4,15.7c0,6.3,2.1,11.9,5.4,15.7v4.6h9.3c8.1,0,14.7-9,14.7-20.2
			C167.2,361.6,160.6,352.6,152.5,352.6z"/>
		<ellipse class="st2" cx="143.6" cy="372.8" rx="14.7" ry="20.2"/>
		<ellipse class="st12" cx="143.6" cy="372.8" rx="7.4" ry="11"/>
	</g>
	<linearGradient id="SVGID_9_" gradientUnits="userSpaceOnUse" x1="141.2183" y1="383.7745" x2="141.2183" y2="361.769">
		<stop  offset="5.008013e-04" style="stop-color:#BCBEC0"/>
		<stop  offset="3.632151e-02" style="stop-color:#C4C6C8"/>
		<stop  offset="0.1402" style="stop-color:#D8D9DB"/>
		<stop  offset="0.2508" style="stop-color:#E6E7E8"/>
		<stop  offset="0.3717" style="stop-color:#EEEFF0"/>
		<stop  offset="0.5222" style="stop-color:#F1F2F2"/>
		<stop  offset="0.6601" style="stop-color:#EEEFF0"/>
		<stop  offset="0.7708" style="stop-color:#E6E7E8"/>
		<stop  offset="0.8721" style="stop-color:#D8D9DB"/>
		<stop  offset="0.9672" style="stop-color:#C4C6C8"/>
		<stop  offset="1" style="stop-color:#BCBEC0"/>
	</linearGradient>
	<path class="st13" d="M141.6,372.8c0-4.7,2-8.6,4.8-10.2c-0.9-0.5-1.8-0.8-2.8-0.8c-4.2,0-7.6,4.9-7.6,11s3.4,11,7.6,11
		c1,0,1.9-0.3,2.8-0.8C143.6,381.4,141.6,377.4,141.6,372.8z"/>
	<path class="st14" d="M184.5,320.3c-1,0.2-24.8,9.1-38.1,14c-8.2,3.1-14.7,9.7-17.2,18.1c-0.9,2.9-1.2,5.9-0.5,8.7
		c0.2,0.8,1.2,1.1,1.8,0.5c2.7-3.1,10.1-9.9,18.7-6.1c11,4.9,9.4,24.1,12.1,27.8s6.7,2.5,7.6,2.3c4.4-1.3,2.5-13.8-2.6-27.4
		s4.5-26,4.5-26l11.7-5.2L184.5,320.3z"/>
	<g>
		
			<rect x="140.6" y="332" transform="matrix(0.9345 -0.356 0.356 0.9345 -108.9615 77.1119)" class="st12" width="28.8" height="5.2"/>
		
			<rect x="141.4" y="335.9" transform="matrix(0.9345 -0.356 0.356 0.9345 -111.0432 73.6858)" class="st15" width="6.6" height="5.2"/>
		
			<rect x="154.4" y="330.7" transform="matrix(0.9345 -0.356 0.356 0.9345 -108.2812 78.2316)" class="st15" width="8.1" height="5.2"/>
	</g>
	<path class="st16" d="M206.5,327.1l86.8-122.2l-53.7-6.5c0,0-15.3-2.5-25.6,11.1c-2.8,3.6-33.9,4.9-57.6,50s-21.5,63.2-21.5,63.2
		L206.5,327.1z"/>
	<g>
		<linearGradient id="SVGID_10_" gradientUnits="userSpaceOnUse" x1="230.2654" y1="353.797" x2="230.2654" y2="416.1727">
			<stop  offset="5.008013e-04" style="stop-color:#000000"/>
			<stop  offset="0.5208" style="stop-color:#737577"/>
			<stop  offset="0.5568" style="stop-color:#636466"/>
			<stop  offset="0.6463" style="stop-color:#3F4042"/>
			<stop  offset="0.7361" style="stop-color:#242425"/>
			<stop  offset="0.8253" style="stop-color:#101010"/>
			<stop  offset="0.9136" style="stop-color:#040404"/>
			<stop  offset="1" style="stop-color:#000000"/>
		</linearGradient>
		<path class="st17" d="M230.3,353.8h-12.6v7c-4.5,5.7-7.3,14.4-7.3,24.2s2.8,18.4,7.3,24.2v7h12.6c11,0,19.9-14,19.9-31.2
			S241.3,353.8,230.3,353.8z"/>
		<ellipse class="st2" cx="218.3" cy="385" rx="19.9" ry="31.2"/>
		<ellipse class="st12" cx="218.3" cy="385" rx="10" ry="17"/>
	</g>
	<linearGradient id="SVGID_11_" gradientUnits="userSpaceOnUse" x1="212.7227" y1="353.797" x2="212.7227" y2="416.1727">
		<stop  offset="5.008013e-04" style="stop-color:#000000"/>
		<stop  offset="0.5208" style="stop-color:#737577"/>
		<stop  offset="0.5568" style="stop-color:#636466"/>
		<stop  offset="0.6463" style="stop-color:#3F4042"/>
		<stop  offset="0.7361" style="stop-color:#242425"/>
		<stop  offset="0.8253" style="stop-color:#101010"/>
		<stop  offset="0.9136" style="stop-color:#040404"/>
		<stop  offset="1" style="stop-color:#000000"/>
	</linearGradient>
	<path class="st18" d="M212.7,353.8h-12.6v7c-4.5,5.7-7.3,14.4-7.3,24.2s2.8,18.4,7.3,24.2v7h12.6c11,0,19.9-14,19.9-31.2
		S223.7,353.8,212.7,353.8z"/>
	<ellipse class="st2" cx="200.8" cy="385" rx="19.9" ry="31.2"/>
	<ellipse class="st12" cx="200.8" cy="385" rx="10" ry="17"/>
	<g>
		<linearGradient id="SVGID_12_" gradientUnits="userSpaceOnUse" x1="282.9314" y1="352.3394" x2="282.9314" y2="422.1356">
			<stop  offset="5.008013e-04" style="stop-color:#000000"/>
			<stop  offset="0.5208" style="stop-color:#737577"/>
			<stop  offset="0.5568" style="stop-color:#636466"/>
			<stop  offset="0.6463" style="stop-color:#3F4042"/>
			<stop  offset="0.7361" style="stop-color:#242425"/>
			<stop  offset="0.8253" style="stop-color:#101010"/>
			<stop  offset="0.9136" style="stop-color:#040404"/>
			<stop  offset="1" style="stop-color:#000000"/>
		</linearGradient>
		<path class="st19" d="M282.9,352.3h-14.1v7.9c-5,6.4-8.2,16.1-8.2,27s3.2,20.6,8.2,27v7.9h14.1c12.3,0,22.3-15.6,22.3-34.9
			S295.2,352.3,282.9,352.3z"/>
		<ellipse class="st2" cx="269.6" cy="387.2" rx="22.3" ry="34.9"/>
		<ellipse class="st12" cx="269.6" cy="387.2" rx="11.2" ry="19"/>
	</g>
	<g>
		<linearGradient id="SVGID_13_" gradientUnits="userSpaceOnUse" x1="263.3017" y1="352.3394" x2="263.3017" y2="422.1356">
			<stop  offset="5.008013e-04" style="stop-color:#000000"/>
			<stop  offset="0.5208" style="stop-color:#737577"/>
			<stop  offset="0.5568" style="stop-color:#636466"/>
			<stop  offset="0.6463" style="stop-color:#3F4042"/>
			<stop  offset="0.7361" style="stop-color:#242425"/>
			<stop  offset="0.8253" style="stop-color:#101010"/>
			<stop  offset="0.9136" style="stop-color:#040404"/>
			<stop  offset="1" style="stop-color:#000000"/>
		</linearGradient>
		<path class="st20" d="M263.3,352.3h-14.1v7.9c-5,6.4-8.2,16.1-8.2,27s3.2,20.6,8.2,27v7.9h14.1c12.3,0,22.3-15.6,22.3-34.9
			S275.6,352.3,263.3,352.3z"/>
		<ellipse class="st2" cx="249.9" cy="387.2" rx="22.3" ry="34.9"/>
		<ellipse class="st12" cx="249.9" cy="387.2" rx="11.2" ry="19"/>
	</g>
	<g>
		<linearGradient id="SVGID_14_" gradientUnits="userSpaceOnUse" x1="472.3055" y1="359.9648" x2="472.3055" y2="443.9648">
			<stop  offset="5.008013e-04" style="stop-color:#000000"/>
			<stop  offset="0.5208" style="stop-color:#737577"/>
			<stop  offset="0.5568" style="stop-color:#636466"/>
			<stop  offset="0.6463" style="stop-color:#3F4042"/>
			<stop  offset="0.7361" style="stop-color:#242425"/>
			<stop  offset="0.8253" style="stop-color:#101010"/>
			<stop  offset="0.9136" style="stop-color:#040404"/>
			<stop  offset="1" style="stop-color:#000000"/>
		</linearGradient>
		<path class="st21" d="M472.3,360h-19.4v9.5c-6.9,7.7-11.3,19.4-11.3,32.5s4.4,24.8,11.3,32.5v9.5h19.4c16.9,0,30.6-18.8,30.6-42
			C502.9,378.8,489.2,360,472.3,360z"/>
		<ellipse class="st2" cx="453.9" cy="402" rx="30.6" ry="42"/>
		<ellipse class="st12" cx="453.9" cy="402" rx="15.4" ry="22.9"/>
	</g>
	
		<rect x="186.2" y="239.6" transform="matrix(0.546 -0.8378 0.8378 0.546 -105.3577 290.0002)" class="st12" width="57.5" height="5.2"/>
	
		<rect x="196.2" y="258.2" transform="matrix(0.546 -0.8378 0.8378 0.546 -126.355 288.2948)" class="st15" width="13.3" height="5.2"/>
	
		<rect x="211.4" y="234.8" transform="matrix(0.546 -0.8378 0.8378 0.546 -99.856 290.447)" class="st15" width="13.3" height="5.2"/>
	<rect x="132.2" y="274" transform="matrix(0.866 -0.5 0.5 0.866 -114.5806 126.287)" class="st8" width="92.2" height="5.8"/>
	<ellipse transform="matrix(0.8865 -0.4627 0.4627 0.8865 -123.118 98.11)" class="st8" cx="138.4" cy="300" rx="1.7" ry="2.9"/>
	<linearGradient id="SVGID_15_" gradientUnits="userSpaceOnUse" x1="197.5966" y1="401.9648" x2="197.5966" y2="368.0049">
		<stop  offset="5.008013e-04" style="stop-color:#BCBEC0"/>
		<stop  offset="3.632151e-02" style="stop-color:#C4C6C8"/>
		<stop  offset="0.1402" style="stop-color:#D8D9DB"/>
		<stop  offset="0.2508" style="stop-color:#E6E7E8"/>
		<stop  offset="0.3717" style="stop-color:#EEEFF0"/>
		<stop  offset="0.5222" style="stop-color:#F1F2F2"/>
		<stop  offset="0.6601" style="stop-color:#EEEFF0"/>
		<stop  offset="0.7708" style="stop-color:#E6E7E8"/>
		<stop  offset="0.8721" style="stop-color:#D8D9DB"/>
		<stop  offset="0.9672" style="stop-color:#C4C6C8"/>
		<stop  offset="1" style="stop-color:#BCBEC0"/>
	</linearGradient>
	<path class="st22" d="M198.1,385c0-7.2,2.6-13.3,6.4-15.8c-1.1-0.8-2.4-1.2-3.6-1.2c-5.5,0-10,7.6-10,17s4.5,17,10,17
		c1.3,0,2.5-0.4,3.6-1.2C200.7,398.3,198.1,392.2,198.1,385z"/>
	<linearGradient id="SVGID_16_" gradientUnits="userSpaceOnUse" x1="246.0121" y1="406.2375" x2="246.0121" y2="368.2375">
		<stop  offset="5.008013e-04" style="stop-color:#BCBEC0"/>
		<stop  offset="3.632151e-02" style="stop-color:#C4C6C8"/>
		<stop  offset="0.1402" style="stop-color:#D8D9DB"/>
		<stop  offset="0.2508" style="stop-color:#E6E7E8"/>
		<stop  offset="0.3717" style="stop-color:#EEEFF0"/>
		<stop  offset="0.5222" style="stop-color:#F1F2F2"/>
		<stop  offset="0.6601" style="stop-color:#EEEFF0"/>
		<stop  offset="0.7708" style="stop-color:#E6E7E8"/>
		<stop  offset="0.8721" style="stop-color:#D8D9DB"/>
		<stop  offset="0.9672" style="stop-color:#C4C6C8"/>
		<stop  offset="1" style="stop-color:#BCBEC0"/>
	</linearGradient>
	<path class="st23" d="M246.5,387.2c0-8,3-14.9,7.1-17.7c-1.3-0.8-2.6-1.3-4.1-1.3c-6.2,0-11.2,8.5-11.2,19s5,19,11.2,19
		c1.4,0,2.8-0.5,4.1-1.3C249.5,402.1,246.5,395.3,246.5,387.2z"/>
	<linearGradient id="SVGID_17_" gradientUnits="userSpaceOnUse" x1="448.9264" y1="424.8314" x2="448.9264" y2="379.0983">
		<stop  offset="5.008013e-04" style="stop-color:#BCBEC0"/>
		<stop  offset="3.632151e-02" style="stop-color:#C4C6C8"/>
		<stop  offset="0.1402" style="stop-color:#D8D9DB"/>
		<stop  offset="0.2508" style="stop-color:#E6E7E8"/>
		<stop  offset="0.3717" style="stop-color:#EEEFF0"/>
		<stop  offset="0.5222" style="stop-color:#F1F2F2"/>
		<stop  offset="0.6601" style="stop-color:#EEEFF0"/>
		<stop  offset="0.7708" style="stop-color:#E6E7E8"/>
		<stop  offset="0.8721" style="stop-color:#D8D9DB"/>
		<stop  offset="0.9672" style="stop-color:#C4C6C8"/>
		<stop  offset="1" style="stop-color:#BCBEC0"/>
	</linearGradient>
	<path class="st24" d="M449.7,402c0-9.7,4.2-17.9,10-21.3c-1.8-1-3.7-1.6-5.7-1.6c-8.7,0-15.7,10.2-15.7,22.9
		c0,12.6,7,22.9,15.7,22.9c2,0,4-0.6,5.7-1.6C453.8,419.9,449.7,411.7,449.7,402z"/>
	<path class="st25" d="M436.3,350.4c-0.7-0.2-16.7-9.7-16.7-9.7H196.5c0,0-8.3,1.2-16.2,21.5l-4.5-3.3l50.5-146.3L442,180.7
		c0,0,32.6,3.2,58,12c7.7,2.7,11.7,41.2,12.2,51.2s-23.3,96-23.3,96L436.3,350.4z"/>
	<path class="st26" d="M513,244c-0.5-10-4.5-48.5-12.2-51.2c-25.3-8.8-58-12-58-12l-21.6,3.2c-3.7,6.4-9.3,26.2-7.9,88.1
		c0.8,34,3.8,55.3,7.3,68.7c1.6,1,15.9,9.5,16.5,9.6l52.5-10.5C489.7,340,513.5,254,513,244z"/>
	<linearGradient id="SVGID_18_" gradientUnits="userSpaceOnUse" x1="451.7921" y1="203.1089" x2="461.0421" y2="203.1089">
		<stop  offset="5.008013e-04" style="stop-color:#9B8579"/>
		<stop  offset="0.5" style="stop-color:#C2B59B"/>
		<stop  offset="1" style="stop-color:#9B8579"/>
	</linearGradient>
	<rect x="451.8" y="174.2" class="st27" width="9.2" height="57.9"/>
	<polygon class="st26" points="488.5,224.8 493.2,224.8 507.9,224.8 507.9,192.1 501.5,186.1 489.7,184.9 488.2,189.6 	"/>
	<path class="st8" d="M337.7,208.7c-1.8,0.2-105,18.7-105,18.7l-33.8,97.5l12.5-6.3c0,0,2.5-42.3,28.3-83.3L337.7,208.7z"/>
	<path class="st12" d="M260.3,233.6l68.4,1.4c3.3,0.1,5.9,2.7,5.9,6v62.2c0,2.6-2,4.7-4.6,4.8l-69.4,2.7c-4,0.2-7.4-2.9-7.6-6.9
		c-0.7-14.5-1.9-47.4,1.1-65C254.6,235.7,257.2,233.5,260.3,233.6z"/>
	<linearGradient id="SVGID_19_" gradientUnits="userSpaceOnUse" x1="451.7921" y1="174.1825" x2="461.0421" y2="174.1825">
		<stop  offset="5.008013e-04" style="stop-color:#9B8579"/>
		<stop  offset="0.5" style="stop-color:#C2B59B"/>
		<stop  offset="1" style="stop-color:#9B8579"/>
	</linearGradient>
	<ellipse class="st28" cx="456.4" cy="174.2" rx="4.6" ry="1.4"/>
	<path class="st29" d="M474.3,324.7c-3,0-5.9-0.6-8.5-1.7c-9-3.9-14.8-14.4-14.5-26.2l10,0.2c-0.2,7.7,3.3,14.6,8.5,16.8
		c3.2,1.4,7.5,1.1,11.6-0.8c5.6-2.6,9.8-7.8,11.7-14.2l9.6,2.8c-2.7,9.1-8.9,16.6-17.1,20.4C481.9,323.8,478,324.7,474.3,324.7z"/>
	<g>
		<linearGradient id="SVGID_20_" gradientUnits="userSpaceOnUse" x1="442.9171" y1="262.4852" x2="459.6671" y2="262.4852">
			<stop  offset="5.008013e-04" style="stop-color:#808285"/>
			<stop  offset="1" style="stop-color:#E6E7E8"/>
		</linearGradient>
		<path class="st30" d="M459.7,310h-16.8v-91.3c0-2.1,1.7-3.8,3.8-3.8h12.9V310z"/>
		<path class="st31" d="M454.3,310h8.7c2.3,0,4.1-1.9,4.1-4.1v-78.1c0-2.8-2.3-5.1-5.1-5.1h-7.8V310z"/>
	</g>
	<path class="st32" d="M585.6,243l2.2-7.5c0.5-1.6-0.6-3.3-2.3-3.6l-19.3-3.1c-0.3,0-0.6-0.1-0.9,0l-34.8,2.2l-5.7,5.7v2.7l20-1.8
		L585.6,243"/>
	<path class="st33" d="M526.9,239.2c0.6-0.1,0-5.1,0-5.1l5.4-3.8l-1.2-5.6c-0.4-1.7-1.7-3.1-3.4-3.5v0c-4-1-8.2-0.8-12,0.5l0,0
		c-2,0.7-3.5,2.5-3.7,4.7l-0.5,4.5l4.9,4.1l-0.1,5"/>
	<path class="st34" d="M542.6,237.8l-57.9,5.3c-3.8,0.3-6.8,3.5-7,7.3l-4.7,91.3c0,0,30.5,10.5,36.5,76.5l40.7,2.9
		c0.5,0,1,0,1.5-0.1c0.8-0.1,2.3-0.3,4.3-0.6l16.9-89.2L542.6,237.8z"/>
	<path class="st35" d="M668,338.4c0.1-1.7-0.2-3.4-0.8-5l-27.4-79.6c-0.8-2.2-2.7-3.9-5.1-4.2l-90.7-12l-1.4,0.1l30.3,93.4
		l-16.9,89.2c22.1-3.3,109-16.4,109.4-17.7C666,401.3,667.6,350.5,668,338.4z"/>
	<path d="M559.6,248.5l33.2,4c2.4,0.3,4.5,1.9,5.2,4.2l22,65.1c0.9,2.5-1,5.2-3.7,5.2h-33.7c-2.9,0-5.5-1.9-6.4-4.7l-21.5-68
		C553.9,251.1,556.4,248.1,559.6,248.5z"/>
	<path d="M605.7,254.1l28.7,2.9c2,0.2,3.6,1.5,4.3,3.4l21.8,61.8c0.8,2.3-0.9,4.7-3.3,4.7h-24.9c-2.7,0-5-1.7-5.9-4.1l-23.8-64.5
		C601.7,256.1,603.4,253.9,605.7,254.1z"/>
	<path d="M498,268v30.6c0,3.3,2.7,5.9,6,5.8l41.4-1.7c3-0.1,5.2-3,4.4-6l-8.2-32.6c-0.7-2.6-3.1-4.5-5.8-4.4l-30.7,0.7
		C501.1,260.7,498,264,498,268z"/>
	<path class="st6" d="M546.1,374.9h-3.7c-2.1,0-3.9-1.7-3.9-3.9v-19.7c0-2.1,1.7-3.9,3.9-3.9h3.7c2.1,0,3.9,1.7,3.9,3.9V371
		C550,373.2,548.3,374.9,546.1,374.9z"/>
	<path class="st36" d="M585.2,356.6l6.8-0.1c1.3,0,2.3,1.1,2.2,2.5l-1.2,30.5c-0.1,1.5-1.1,2.8-2.5,3l-6.2,0.9
		c-1.9,0.3-3.6-1.4-3.5-3.5l1.2-29.7C582,358.3,583.4,356.8,585.2,356.6z"/>
	<polygon class="st37" points="647.4,341.3 601.5,342.6 599.8,394.5 645.9,389.8 	"/>
	<path class="st36" d="M656.5,351.8l6-0.1c1.1,0,2,1.1,2,2.3l-1.1,28.3c-0.1,1.4-1,2.6-2.3,2.8l-5.5,0.8c-1.7,0.3-3.2-1.3-3.2-3.2
		l1.1-27.5C653.7,353.4,654.9,352,656.5,351.8z"/>
	<path class="st38" d="M574.4,241.7c0.1-0.3,0.1-2.5,0.1-4.8c0-3.3,2.7-6,6-5.9c2.5,0,5.6,0.1,8.4,0.2c6.6,0.1,12.4,4.4,14.4,10.7
		l23.6,73.6c1.5,4.6-0.1,9.6-4,12.4l-5.2,3.8"/>
	<path class="st38" d="M586.5,243.1c0.1-0.3,0.1-2.5,0.1-4.8c0-3.3,2.7-6,6-5.9c2.5,0,5.6,0.1,8.4,0.2c6.6,0.1,12.4,4.4,14.4,10.7
		l23.6,73.6c1.5,4.6-0.1,9.6-4,12.4l-5.2,3.8"/>
	<path class="st39" d="M567.5,345.8h-7.9c-1.1,0-1.9-0.9-1.9-1.9v-0.7c0-1.1,0.9-1.9,1.9-1.9h7.9c1.1,0,1.9,0.9,1.9,1.9v0.7
		C569.4,345,568.5,345.8,567.5,345.8z"/>
	<path d="M579.9,396.8l89.7-9.7c0.7-0.1,1.2,0.5,1.1,1.2l-2.5,13c-0.2,0.8-0.8,1.5-1.7,1.7l-88.9,15.4c-2.2,0.4-4.2-1.6-3.6-3.8
		l3.6-15.7C577.9,397.7,578.8,396.9,579.9,396.8z"/>
	<path class="st6" d="M510,368h-4.6c-1.2,0-2.2-1-2.2-2.2v-4.6c0-1.2,1-2.2,2.2-2.2h4.6c1.2,0,2.2,1,2.2,2.2v4.6
		C512.2,367.1,511.2,368,510,368z"/>
	<line class="st40" x1="555.3" y1="420.7" x2="555.3" y2="323.1"/>
	<rect x="205" y="332" class="st12" width="180.7" height="5.2"/>
	<rect x="205" y="332" class="st15" width="13.3" height="5.2"/>
	<rect x="232.9" y="332" class="st15" width="13.3" height="5.2"/>
	<rect x="260.8" y="332" class="st15" width="13.3" height="5.2"/>
	<rect x="288.7" y="332" class="st15" width="13.3" height="5.2"/>
	<rect x="316.6" y="332" class="st15" width="13.3" height="5.2"/>
	<rect x="344.6" y="332" class="st15" width="13.3" height="5.2"/>
	<rect x="372.5" y="332" class="st15" width="13.3" height="5.2"/>
	<g>
		<polygon class="st41" points="254.8,262.1 263.7,262.1 266.5,275.6 266.6,275.6 270.6,262.1 280.8,262.1 284.7,275.6 284.9,275.6 
			287.7,262.1 295.9,262.1 290.8,283.7 279.3,283.7 275.4,270.6 275.4,270.6 271.4,283.7 259.9,283.7 254.8,262.1 		"/>
		<polygon class="st42" points="295.8,262.1 307.4,262.1 311.3,275.3 311.4,275.3 315.2,262.1 326.7,262.1 331.8,283.8 323.6,283.8 
			320.8,270.3 320.7,270.3 316.7,283.8 306.5,283.8 302.5,270.3 302.5,270.3 299.6,283.8 290.8,283.8 295.8,262.1 		"/>
	</g>
</g>
</svg>
