<svg xmlns="http://www.w3.org/2000/svg" viewBox="592.582 987 36.121 52.906">
  <defs>
    <style>
      .cls-1 {
        fill: #57584f;
      }

      .cls-2 {
        fill: none;
        stroke: #fff;
        stroke-miterlimit: 10;
      }

      .cls-3 {
        fill: #fff;
      }
    </style>
  </defs>
  <g id="Group_13" data-name="Group 13" transform="translate(592.582 987)">
    <path id="Path_2" data-name="Path 2" class="cls-1" d="M6.535,39.524A6.609,6.609,0,0,0,0,46.215a6.711,6.711,0,0,0,6.535,6.691,6.609,6.609,0,0,0,6.535-6.691,6.512,6.512,0,0,0-6.535-6.691m0,9.959a3.268,3.268,0,1,1,0-6.535A3.191,3.191,0,0,1,9.8,46.215a3.287,3.287,0,0,1-3.268,3.268M34.7,4.046V3.268A3.191,3.191,0,0,0,31.433,0H7.158A3.191,3.191,0,0,0,3.89,3.268v.778A3.356,3.356,0,0,0,.934,7.314,3.232,3.232,0,0,0,3.89,10.581v3.268l1.4,24.119H6.535a8.368,8.368,0,0,1,8.4,8.4,8.228,8.228,0,0,1-2.49,5.913H30.188a2.165,2.165,0,0,0,2.334-2.178L34.545,14.16V10.581A1.559,1.559,0,0,0,36.1,9.025V5.757a1.414,1.414,0,0,0-1.4-1.712M4.357,8.87A1.556,1.556,0,1,1,5.913,7.314,1.673,1.673,0,0,1,4.357,8.87"/>
    <path id="Path_3" data-name="Path 3" class="cls-2" d="M12.714,45.381a9.231,9.231,0,0,1-.778,3.579H26.563A1.47,1.47,0,0,0,28.119,47.4l.622-11.359L29.986,3.99A2.332,2.332,0,0,0,27.652,1.5H6.334A2.428,2.428,0,0,0,4,3.99L5.245,36.045l.156.934A8.547,8.547,0,0,1,12.714,45.381Z" transform="translate(2.224 0.834)"/>
    <path id="Path_4" data-name="Path 4" class="cls-3" d="M18,8.658l3.89-2.8,5.757,2.8L29.986,7.1l.156-3.112A2.332,2.332,0,0,0,27.808,1.5H6.334A2.428,2.428,0,0,0,4,3.99l.156,4.2L9.913,5.235Z" transform="translate(2.224 0.834)"/>
  </g>
</svg>
