<?xml version="1.0" encoding="utf-8"?>
<!-- Generator: Adobe Illustrator 18.1.1, SVG Export Plug-In . SVG Version: 6.00 Build 0)  -->
<!DOCTYPE svg PUBLIC "-//W3C//DTD SVG 1.1//EN" "http://www.w3.org/Graphics/SVG/1.1/DTD/svg11.dtd">
<svg version="1.1" id="Layer_1" xmlns="http://www.w3.org/2000/svg" xmlns:xlink="http://www.w3.org/1999/xlink" x="0px" y="0px"
	 viewBox="0 0 572 210" enable-background="new 0 0 572 210" xml:space="preserve">
<polyline fill="#00693C" points="40.5,180.9 49.8,180.9 52.7,195 52.8,195 57,180.9 67.6,180.9 71.8,195 71.9,195 74.8,180.9 
	83.3,180.9 78,203.5 66,203.5 62,189.7 61.9,189.7 57.8,203.5 45.8,203.5 40.5,180.9 "/>
<path fill="#00693C" d="M93.7,180.9h11.8l11.5,22.6h-10.4l-1.6-3.8H93.3l-1.7,3.8h-9.4L93.7,180.9 M102.6,194.7l-3.5-7.8l-3.7,7.8
	H102.6z"/>
<path fill="#00693C" d="M127.4,196.2c0.1,1.2,0.3,2.1,0.9,2.7c0.6,0.5,1.5,0.9,2.8,0.9c1.9,0,4-0.4,4-2.3c0-0.4-0.1-0.7-0.3-1.1
	c-1.3-1.4-12.1-2.5-15.1-5.1c-1.2-1.1-1.6-2.6-1.6-3.9c0-4.9,4.5-7.1,13.5-7.1c9.6,0,12.6,2.6,12.7,7.2h-9.4c0-1.2-0.4-2-1.1-2.5
	c-0.7-0.4-1.7-0.6-2.9-0.6c-1.9,0-3,0.7-3,1.9c0,0.4,0.1,0.8,0.3,1.1c1.5,1.4,11.9,2.4,14.9,5.1c1,0.8,1.8,1.9,1.8,4.1
	c0,4.5-3.9,7.3-14.1,7.3c-12.2,0-12.9-3.6-13.1-7.8H127.4"/>
<polyline fill="#00693C" points="154.7,186.4 147.4,186.4 147.4,180.9 171.7,180.9 171.7,186.4 164.2,186.4 164.2,203.5 
	154.7,203.5 154.7,186.4 "/>
<polyline fill="#00693C" points="175.1,180.9 196.5,180.9 196.5,185.7 184.2,185.7 184.2,189.8 195.8,189.8 195.8,194.6 
	184.2,194.6 184.2,198.7 196.8,198.7 196.8,203.5 175.1,203.5 175.1,180.9 "/>
<polyline fill="#00693C" points="214,180.9 228.5,180.9 233.1,196 233.2,196 237.7,180.9 252.2,180.9 252.2,203.5 243.5,203.5 
	243.5,186.5 243.3,186.5 237.2,203.5 228,203.5 222.2,186.5 222.1,186.5 222.1,203.5 214,203.5 214,180.9 "/>
<path fill="#00693C" d="M265.8,180.9h11.8l11.5,22.6h-10.5l-1.6-3.8h-11.7l-1.7,3.8h-9.3L265.8,180.9 M274.5,194.7l-3.5-7.8
	l-3.6,7.8H274.5z"/>
<polyline fill="#00693C" points="291,180.9 304.9,180.9 312.5,196 312.6,196 312.6,180.9 320.9,180.9 320.9,203.5 307.4,203.5 
	299.3,187.4 299.3,203.5 291,203.5 291,180.9 "/>
<path fill="#00693C" d="M334.3,180.9h11.8l11.5,22.6h-10.4l-1.6-3.8h-11.7l-1.7,3.8h-9.4L334.3,180.9 M343.4,194.7l-3.5-7.8
	l-3.7,7.8H343.4z"/>
<path fill="#00693C" d="M377.1,187.8c-0.2-0.6-0.5-1.2-1.3-1.8c-0.6-0.5-1.7-1-3.2-1c-4,0-6.3,2.7-6.3,6.8c0,4.3,2,7.5,6.7,7.5
	c2,0,3.5-0.4,4.4-0.8v-3.4h-5.4v-4.8h14.9v11.9c-4.4,1.1-10.2,1.8-15.2,1.8c-11.3,0-14.8-4.9-14.8-11.6c0-8.5,6-12.1,15.8-12.1
	c8.2,0,14,1.8,14.1,7.4H377.1"/>
<polyline fill="#00693C" points="392,180.9 413.6,180.9 413.6,185.7 401.2,185.7 401.2,189.8 412.8,189.8 412.8,194.6 401.2,194.6 
	401.2,198.7 413.7,198.7 413.7,203.5 392,203.5 392,180.9 "/>
<polyline fill="#00693C" points="417.9,180.9 432.4,180.9 437,196 437.1,196 441.6,180.9 456.1,180.9 456.1,203.5 447.3,203.5 
	447.3,186.5 441.1,203.5 431.9,203.5 426.1,186.5 426,186.5 426,203.5 417.9,203.5 417.9,180.9 "/>
<polyline fill="#00693C" points="461.4,180.9 483,180.9 483,185.7 470.5,185.7 470.5,189.8 482.1,189.8 482.1,194.6 470.5,194.6 
	470.5,198.7 483.1,198.7 483.1,203.5 461.4,203.5 461.4,180.9 "/>
<polyline fill="#00693C" points="487.3,180.9 501.1,180.9 508.7,196 508.8,196 508.8,180.9 517,180.9 517,203.5 503.6,203.5 
	495.5,187.4 495.4,187.4 495.4,203.5 487.3,203.5 487.3,180.9 "/>
<polyline fill="#00693C" points="526.8,186.4 519.5,186.4 519.5,180.9 543.7,180.9 543.7,186.4 536.3,186.4 536.3,203.5 
	526.8,203.5 526.8,186.4 "/>
<polyline fill="#00693C" points="5.3,6 66.9,6 86.9,100.4 87.5,100.4 115.8,6 186.8,6 214.6,100.4 215.2,100.4 235,6 292.2,6 
	256.4,157.1 176.3,157.1 149.3,65.3 148.7,65.3 121.5,157.1 40.7,157.1 5.3,6 "/>
<polyline fill="#EBAB00" points="292,6 372.7,6 399.9,97.9 400.6,97.9 427.6,6 507.7,6 543.5,157.1 486.4,157.1 466.5,62.7 
	465.9,62.7 438,157.1 367.1,157.1 338.8,62.7 338.2,62.7 318.1,157.1 256.5,157.1 292,6 "/>
<path fill="#00693C" d="M550,148.4c0-4.3,3.2-7.6,7.4-7.6c4.1,0,7.3,3.3,7.3,7.6c0,4.4-3.2,7.7-7.3,7.7
	C553.2,156.1,550,152.9,550,148.4 M557.4,157.6c5,0,9.3-3.8,9.3-9.2c0-5.2-4.3-9.1-9.3-9.1c-5.1,0-9.4,3.9-9.4,9.1
	C548.1,153.8,552.3,157.6,557.4,157.6z M555.4,149.2h1.9l2.8,4.6h1.8l-3-4.7c1.5-0.2,2.7-1.1,2.7-2.9c0-2.1-1.2-3-3.7-3h-3.9v10.6
	h1.5V149.2z M555.4,147.8v-3.3h2.2c1.1,0,2.3,0.3,2.3,1.6c0,1.6-1.3,1.7-2.7,1.7H555.4z"/>
</svg>
