<?xml version="1.0" standalone="no"?>
<!DOCTYPE svg PUBLIC "-//W3C//DTD SVG 1.1//EN" "http://www.w3.org/Graphics/SVG/1.1/DTD/svg11.dtd" >
<svg xmlns="http://www.w3.org/2000/svg">
<metadata>
Created by FontPrep 20130207 at Wed Apr 15 10:44:42 2015
 By Valek, Alan
Copyright (c) The digitally encoded machine readable outline data for producing the typefaces licensed to you is copyrighted (c), 2009 by The Foundry, London. All rights reserved.
</metadata>
<defs>
<font id="12595969908c676b8d35f3d84fdba4da" horiz-adv-x='1024' >
  <font-face 
    font-family="FoundrySterling-Bold"
    font-weight="700"
    font-stretch="normal"
    units-per-em="2048"
    panose-1="2 0 8 0 4 0 0 2 0 4"
    ascent="1638"
    descent="-410"
    x-height="1008"
    cap-height="1366"
    bbox="-573 -719 2806 1911.01"
    underline-thickness="102"
    underline-position="-102"
    unicode-range="U+000D-FFF3"
  />
<missing-glyph horiz-adv-x="1486" 
d="M193 -258v1624h1101v-1624h-1101zM1020 -29v1166h-553v-1166h553z" />
    <glyph glyph-name="IJ" unicode="IJ" horiz-adv-x="1427" 
d="M1294 455q0 -95 -3 -145t-29 -122q-78 -219 -365 -221q-78 0 -169 29t-134 65l98 203q100 -45 167 -45t98 31t38 71q8 40 9 130v915h290v-911zM436 0h-291v1366h291v-1366z" />
    <glyph glyph-name="ij" unicode="ij" horiz-adv-x="1046" 
d="M401 0h-276v1008h276v-1008zM420 1290q0 -66 -46 -112t-112 -45q-66 0 -112 46q-46 45 -46 111t46 112t112 46t112 -46t46 -112zM924 -49q0 -119 -20 -195t-87 -141q-92 -92 -266 -92q-98 0 -183 37q-30 12 -36 20l74 193q58 -23 112 -23t92 38t37 146v1074h277v-1057z
M942 1290q0 -66 -46 -112t-112 -45q-66 0 -112 46q-46 45 -45 111q0 66 46 112q45 46 111 46t112 -46t46 -112z" />
    <glyph glyph-name="f_j" unicode="fj" horiz-adv-x="1251" 
d="M1126 -49q0 -119 -20 -195t-86 -141q-92 -92 -266 -92q-99 0 -184 37q-30 12 -35 20l73 193q59 -23 113 -23q53 0 91 38t38 146v844h-334v-778h-276v778h-164v230h164v49q0 131 22 210q23 79 84 140q100 100 281 100q79 1 151 -23t103 -44t34 -29l-104 -180
q-82 49 -135 49q-92 0 -124 -42t-34 -90q-2 -47 -2 -87v-53h610v-1057z" />
    <glyph glyph-name="IJsmall" unicode="&#xf769;&#xf76a;" horiz-adv-x="1312" 
d="M1188 393q0 -82 -3 -126t-25 -105q-70 -193 -318 -193q-156 0 -264 82l94 182q86 -37 130 -37t74 30t29 145v708h283v-686zM420 0h-283v1079h283v-1079z" />
    <glyph glyph-name="f_f" unicode="ff" horiz-adv-x="1517" 
d="M1286 1280q-92 0 -127 -47q-25 -33 -29 -82q-4 -50 -4 -90v-53h297v-230h-297v-778h-276v778h-334v-778h-276v778h-164v230h164v49q0 131 22 210q23 79 84 140q100 100 262 100q104 0 183 -39l-68 -202q-43 14 -79 14q-86 0 -109 -74q-19 -59 -19 -145v-53h334v49
q0 131 22 210q23 79 84 140q100 100 281 100q80 1 152 -23q73 -24 103 -44t34 -29l-105 -180q-82 49 -135 49z" />
    <glyph glyph-name="fi" unicode="fi" horiz-adv-x="1251" 
d="M1126 0h-276v778h-334v-778h-276v778h-164v230h164v49q0 131 22 210q23 79 84 140q100 100 281 100q79 1 151 -23t103 -44t34 -29l-104 -180q-82 49 -135 49q-92 0 -124 -42t-34 -90q-2 -47 -2 -87v-53h610v-1008z" />
    <glyph glyph-name="fl" unicode="fl" horiz-adv-x="1251" 
d="M1126 0h-276v778h-334v-778h-276v778h-164v230h164v49q0 131 22 210q23 79 84 140q100 100 262 100q104 0 183 -39l-68 -202q-43 14 -79 14q-86 0 -109 -74q-19 -59 -19 -145v-53h334v475h276v-1483z" />
    <glyph glyph-name="f_f_i" unicode="ffi" horiz-adv-x="1861" 
d="M1737 0h-277v778h-334v-778h-276v778h-334v-778h-276v778h-164v230h164v49q0 131 22 210q23 79 84 140q100 100 262 100q104 0 183 -39l-68 -202q-43 14 -79 14q-86 0 -109 -74q-19 -59 -19 -145v-53h334v49q0 131 22 210q23 79 84 140q100 100 281 100q80 1 152 -23
q73 -24 103 -44t34 -29l-105 -180q-82 49 -135 49q-92 0 -127 -47q-25 -33 -29 -82q-4 -50 -4 -90v-53h611v-1008z" />
    <glyph glyph-name="f_f_l" unicode="ffl" horiz-adv-x="1861" 
d="M1737 0h-277v778h-334v-778h-276v778h-334v-778h-276v778h-164v230h164v49q0 131 22 210q23 79 84 140q100 100 262 100q104 0 183 -39l-68 -202q-43 14 -79 14q-86 0 -109 -74q-19 -59 -19 -145v-53h334v49q0 131 22 210q23 79 84 140q100 100 263 100q104 0 182 -39
l-68 -202q-43 14 -79 14q-86 0 -109 -74q-19 -59 -19 -145v-53h334v475h277v-1483z" />
    <glyph glyph-name="f_t" unicode="ft" horiz-adv-x="1529" 
d="M516 1061v-53h334v280h276v-280h287v-230h-287v-403q0 -73 14 -109q26 -64 113 -63q53 0 127 24l70 -190q-31 -25 -109 -45q-77 -20 -145 -21q-170 0 -260 90q-57 57 -72 126q-14 69 -14 198v393h-334v-778h-276v778h-164v230h164v49q0 131 22 210q23 79 84 140
q100 100 262 100q104 0 183 -39l-68 -202q-43 14 -79 14q-86 0 -109 -74q-19 -59 -19 -145z" />
    <glyph glyph-name=".notdef" horiz-adv-x="1486" 
d="M193 -258v1624h1101v-1624h-1101zM1020 -29v1166h-553v-1166h553z" />
    <glyph glyph-name=".notdef" horiz-adv-x="1486" 
d="M193 -258v1624h1101v-1624h-1101zM1020 -29v1166h-553v-1166h553z" />
    <glyph glyph-name=".null" horiz-adv-x="0" 
 />
    <glyph glyph-name="nonmarkingreturn" horiz-adv-x="681" 
 />
    <glyph glyph-name="CR" unicode="&#xd;" horiz-adv-x="1071" 
 />
    <glyph glyph-name="space" unicode=" " horiz-adv-x="485" 
 />
    <glyph glyph-name="exclam" unicode="!" horiz-adv-x="794" 
d="M567 155q0 -71 -49 -120t-120 -49q-72 0 -120 50t-49 120t49 118t122 50q72 0 119 -49q48 -49 48 -120zM555 1366l-43 -950h-227l-43 950h313z" />
    <glyph glyph-name="quotedbl" unicode="&#x22;" horiz-adv-x="833" 
d="M391 1366l-37 -518h-223l-37 518h297zM739 1366l-37 -518h-223l-37 518h297z" />
    <glyph glyph-name="numbersign" unicode="#" horiz-adv-x="1243" 
d="M723 881h-172l-25 -172h172zM1098 1063l-25 -182h-176l-25 -172h179l-25 -183h-178l-47 -336h-176l47 336h-170l-47 -336h-176l47 336h-181l23 183h184l25 172h-184l24 182h184l43 303h177l-43 -303h167l46 303h174l-43 -303h176z" />
    <glyph glyph-name="dollar" unicode="$" 
d="M1124 393q0 -173 -112 -283t-273 -133v-178h-194v172q-106 10 -218 55t-159 99l127 197q2 0 13 -8q10 -8 22 -15q12 -6 31 -17q123 -71 236 -71t174 45q60 46 60 112q-1 66 -37 104t-215 112t-260 151q-109 109 -109 267t103 258q102 98 232 124v175h194v-162
q104 -6 213 -50t162 -98l-131 -186q-56 43 -137 73q-82 30 -159 30t-134 -41q-57 -40 -57 -95t30 -86q30 -30 123 -68q279 -114 377 -213q98 -98 98 -270z" />
    <glyph glyph-name="percent" unicode="%" horiz-adv-x="1687" 
d="M1409 348q0 113 -39 170t-102 57q-62 0 -104 -58t-42 -168t38 -167t102 -57q147 0 147 223zM1577 351q0 -165 -84 -265t-228 -100t-228 100q-83 100 -83 265t83 265t227 100t228 -100q85 -100 85 -265zM1374 1346l-938 -1436l-141 96l938 1434zM565 1012q0 113 -39 170
t-102 57q-62 0 -104 -58t-42 -168t38 -167t102 -58q147 1 147 224zM733 1015q0 -165 -84 -265t-228 -100t-227 100t-83 265t83 265t226 100t228 -100t85 -265z" />
    <glyph glyph-name="ampersand" unicode="&#x26;" horiz-adv-x="1435" 
d="M815 274l-313 344q-145 -80 -146 -210q0 -88 67 -148t185 -60t207 74zM772 1075q0 109 -127 109q-71 0 -111 -37t-40 -94t94 -168q106 49 145 93t39 97zM94 401q0 127 72 227t192 154q-61 78 -94 138t-33 131q0 149 120 245t291 96t280 -85q109 -86 108 -230
q0 -231 -295 -360l246 -262q27 39 54 140q28 101 28 175h235q-6 -268 -145 -485q49 -43 84 -55t90 -13v-219l-24 -2q-209 0 -322 115q-171 -137 -391 -137t-358 122q-138 123 -138 305z" />
    <glyph glyph-name="quotesingle" unicode="'" horiz-adv-x="487" 
d="M393 1366l-37 -518h-225l-37 518h299z" />
    <glyph glyph-name="parenleft" unicode="(" horiz-adv-x="903" 
d="M803 1317q-375 -273 -375 -716q0 -155 69 -334q42 -105 147 -229q56 -68 159 -142l-135 -183q-279 162 -416 414q-117 217 -117 475q0 168 52 321t118 245t172 191q106 98 191 140z" />
    <glyph glyph-name="parenright" unicode=")" horiz-adv-x="903" 
d="M100 -104q375 273 375 714q0 161 -68 335q-39 98 -148 230q-48 59 -130 120q-4 3 -29 22l136 182q279 -162 415 -414q117 -217 117 -475q0 -168 -52 -320t-118 -246q-66 -93 -173 -192t-189 -139z" />
    <glyph glyph-name="asterisk" unicode="*" horiz-adv-x="884" 
d="M350 1366h185v-211l194 64l55 -168l-202 -66l147 -194l-143 -103l-144 180l-143 -180l-143 103l147 194l-203 66l56 168l194 -64v211z" />
    <glyph glyph-name="plus" unicode="+" 
d="M1198 424h-424v-424h-229v424h-424v229h424v424h229v-424h424v-229z" />
    <glyph glyph-name="comma" unicode="," horiz-adv-x="657" 
d="M528 207q0 -291 -297 -496l-151 144q2 2 18 20l24 27q36 41 46 58t34 55t34 95q10 56 10 82t-4 82h284q2 -22 2 -67z" />
    <glyph glyph-name="hyphen" unicode="-" horiz-adv-x="1015" 
d="M864 424h-712v229h712v-229z" />
    <glyph glyph-name="period" unicode="." horiz-adv-x="587" 
d="M125 156q0 70 49 118t120 50q71 0 120 -49t49 -120t-49 -120t-119 -49t-120 50t-50 120z" />
    <glyph glyph-name="slash" unicode="/" horiz-adv-x="1052" 
d="M911 1366l-628 -1694l-199 72l627 1694z" />
    <glyph glyph-name="zero" unicode="0" 
d="M942 682q0 236 -76 360t-206 123q-130 0 -207 -126q-78 -125 -78 -359t75 -356q74 -122 206 -121q132 -1 209 121t77 358zM1227 682q0 -326 -152 -520t-416 -195q-263 0 -415 195q-152 194 -152 520t154 522t412 195q258 0 414 -196q155 -195 155 -521z" />
    <glyph glyph-name="one" unicode="1" 
d="M907 0h-286v1030l-302 -199l-131 201l498 334h221v-1366z" />
    <glyph glyph-name="two" unicode="2" 
d="M1153 0h-965v211q233 186 465 418q184 184 185 332q0 90 -58 145t-155 55q-147 0 -314 -145l-145 168q11 22 68 68t110 74q137 73 324 73q188 0 321 -118t133 -314q0 -135 -57 -239t-189 -236t-296 -254h573v-238z" />
    <glyph glyph-name="three" unicode="3" 
d="M1137 403q1 -197 -143 -317t-392 -119q-133 0 -246 38q-112 38 -152 68t-57 48l129 182l11 -8l20 -12q133 -80 266 -80t201 53q68 54 68 130t-29 118q-58 82 -293 82h-59v227h33q74 0 106 1q32 0 85 18q54 18 93 57t39 107t-60 118q-60 49 -159 49q-143 0 -291 -110
l-137 161q184 184 473 185q199 0 328 -108t129 -277q0 -102 -60 -196t-159 -109q119 -15 187 -103t69 -203z" />
    <glyph glyph-name="four" unicode="4" 
d="M778 494v528l-362 -528h362zM1219 264h-168v-264h-273v264h-663v199l651 903h285v-872h168v-230z" />
    <glyph glyph-name="five" unicode="5" 
d="M676 911q203 1 330 -121t127 -336q1 -214 -147 -350t-404 -137q-127 0 -260 48t-181 108l131 180l19 -12q18 -10 43 -25t89 -38t144 -23q127 1 204 65t77 176t-70 178t-201 66t-219 -59l-8 -4l-90 55v684h827v-233h-565v-242q41 20 154 20z" />
    <glyph glyph-name="six" unicode="6" 
d="M924 460q0 112 -65 178t-171 67q-106 0 -176 -69q-70 -70 -70 -180t70 -180t175 -70t171 72q66 70 66 182zM1188 463q0 -213 -141 -354t-380 -141t-386 186q-147 188 -147 514t159 529q160 202 440 202q242 0 403 -115q13 -10 21 -18l-119 -185q-134 88 -298 88
t-252 -106t-95 -287q47 76 143 120t193 44q203 0 331 -132t128 -345z" />
    <glyph glyph-name="seven" unicode="7" 
d="M156 1128v238h1013v-219l-532 -1147h-307l536 1128h-710z" />
    <glyph glyph-name="eight" unicode="8" 
d="M663 199q125 0 191 56t66 145q0 90 -67 144t-193 54t-192 -53q-67 -53 -67 -143t69 -146q69 -57 193 -57zM664 813q102 0 158 50t57 127t-57 127t-160 50t-160 -52q-60 -52 -60 -126t60 -125t162 -51zM1184 393q0 -199 -142 -313t-380 -113q-238 0 -382 115t-145 313
q1 111 59 200t160 120q-88 31 -132 109t-44 173q0 182 132 291t348 109t350 -109t135 -289q0 -104 -47 -180t-129 -104q105 -35 161 -120t56 -202z" />
    <glyph glyph-name="nine" unicode="9" 
d="M395 906q0 -112 65 -178q66 -66 172 -66t176 68t69 180q0 110 -70 180t-175 70t-171 -72q-66 -70 -66 -182zM1186 698q0 -326 -160 -529q-160 -202 -440 -202q-209 0 -352 83q-52 30 -72 50l119 185q131 -88 297 -88t253 106q88 106 95 287q-48 -76 -144 -120t-192 -44
q-203 0 -331 132t-128 345t141 354t380 141q238 0 386 -186q148 -188 148 -514z" />
    <glyph glyph-name="colon" unicode=":" horiz-adv-x="587" 
d="M125 156q0 70 49 118t120 50q71 0 120 -49t49 -120t-49 -120t-119 -49t-120 50t-50 120zM463 846q0 -72 -49 -121t-119 -49t-120 49t-50 120t49 120t120 49t120 -48t49 -120z" />
    <glyph glyph-name="semicolon" unicode=";" horiz-adv-x="657" 
d="M528 207q0 -291 -297 -496l-151 144q2 2 18 20l24 27q36 41 46 58t34 55t34 95q10 56 10 82t-4 82h284q2 -22 2 -67zM532 846q0 -72 -49 -121t-119 -49t-119 49q-50 49 -50 120t49 120t120 49q72 0 120 -48t48 -120z" />
    <glyph glyph-name="less" unicode="&#x3c;" horiz-adv-x="1320" 
d="M1200 205l-90 -205l-989 451v178l989 450l90 -213l-723 -327z" />
    <glyph glyph-name="equal" unicode="=" horiz-adv-x="1320" 
d="M1221 244h-1121v229h1121v-229zM1221 604h-1121v230h1121v-230z" />
    <glyph glyph-name="greater" unicode="&#x3e;" horiz-adv-x="1320" 
d="M1200 451l-989 -451l-90 205l723 334l-723 327l90 213l989 -450v-178z" />
    <glyph glyph-name="question" unicode="?" horiz-adv-x="1101" 
d="M309 156q0 70 49 118t120 50q71 0 120 -49t49 -120t-49 -120t-119 -49t-120 50t-50 120zM551 1399q203 1 327 -105t123 -271q0 -165 -96 -261q-47 -47 -155 -114t-115 -73q-29 -29 -29 -143v-16h-250q-8 49 -8 94q0 135 62 197q33 33 125 89t137 101t45 116t-53 113
t-148 43q-150 0 -301 -108l-117 176q27 20 69 48t158 71t226 43z" />
    <glyph glyph-name="at" unicode="@" horiz-adv-x="1654" 
d="M948 913q-125 0 -216 -89t-91 -212q0 -53 31 -87t76 -33q94 0 188 90l63 327q-33 4 -51 4zM1561 848q0 -230 -162 -370q-162 -138 -414 -138q-29 0 -61 4l10 74q-120 -82 -224 -82t-174 77t-71 195q0 193 139 324t344 131q113 0 192 -30q22 -7 58 -19l-102 -520
q131 22 211 114t79 228q0 172 -134 280t-353 109q-270 0 -445 -169t-175 -429q0 -223 147 -357q146 -134 366 -133q220 0 447 133l86 -129q-240 -168 -537 -168q-298 1 -496 185t-198 490t232 522q232 218 575 219q281 1 471 -155t189 -386z" />
    <glyph glyph-name="A" unicode="A" horiz-adv-x="1349" 
d="M842 508l-172 549l-172 -549h344zM1317 0h-299l-100 285h-492l-100 -285h-293l495 1366h291z" />
    <glyph glyph-name="B" unicode="B" horiz-adv-x="1228" 
d="M834 410q0 74 -40 114t-88 49q-48 10 -153 11h-133v-353h155q95 1 139 15t82 52t38 112zM752 1100q-47 39 -181 39h-151v-342h116q104 0 124 7t48 14q28 6 38 20t32 39q21 25 21 104q0 80 -47 119zM1128 410q0 -172 -95 -268t-208 -118q-113 -24 -295 -24h-385v1366h445
q141 0 233 -22t160 -89q102 -102 102 -262q0 -225 -186 -293q-2 -2 -4 -2q233 -68 233 -288z" />
    <glyph glyph-name="C" unicode="C" horiz-adv-x="1329" 
d="M94 678q0 328 203 524t516 197q230 0 383 -96q48 -30 80 -62l-125 -190q-74 50 -110 62q-36 13 -83 27t-133 15q-190 0 -315 -126t-125 -340t116 -342t310 -128q85 0 159 25t109 43q36 18 57 31q21 14 23 14l121 -195q-22 -22 -82 -58q-184 -109 -422 -112
q-294 -1 -488 191t-194 520z" />
    <glyph glyph-name="D" unicode="D" horiz-adv-x="1421" 
d="M1038 691q0 218 -116 335q-55 55 -129 81t-122 29t-157 3h-82v-908h137q229 0 350 121q119 121 119 339zM1327 694q0 -303 -186 -489q-144 -144 -325 -175q-181 -30 -390 -30h-281v1366h377q117 0 174 -3q199 -10 309 -74q71 -40 136 -105q186 -187 186 -490z" />
    <glyph glyph-name="E" unicode="E" horiz-adv-x="1087" 
d="M989 0h-844v1366h828v-233h-541v-318h508v-229h-508v-348h557v-238z" />
    <glyph glyph-name="F" unicode="F" horiz-adv-x="1054" 
d="M961 1133h-529v-318h502v-229h-502v-586h-287v1366h816v-233z" />
    <glyph glyph-name="G" unicode="G" horiz-adv-x="1427" 
d="M776 -33q-294 -1 -488 191t-194 520t203 524t516 197q230 0 383 -96q48 -30 80 -62l-125 -190q-74 50 -110 62q-36 13 -83 27t-133 15q-190 0 -315 -126t-125 -340t119 -346t317 -132q115 0 203 33v235h-256v221h528v-591q-77 -58 -234 -100t-286 -42z" />
    <glyph glyph-name="H" unicode="H" horiz-adv-x="1372" 
d="M1227 0h-291v592h-500v-592h-291v1366h291v-537h500v537h291v-1366z" />
    <glyph glyph-name="I" unicode="I" horiz-adv-x="581" 
d="M436 0h-291v1366h291v-1366z" />
    <glyph glyph-name="J" unicode="J" horiz-adv-x="847" 
d="M715 455q0 -95 -3 -145t-29 -122q-79 -219 -366 -221q-78 0 -170 29t-133 65l99 203q101 -45 167 -45t97 31t39 71t8 130v915h291v-911z" />
    <glyph glyph-name="K" unicode="K" horiz-adv-x="1263" 
d="M436 0h-291v1366h291v-639l453 639h319l-495 -664l522 -702h-348l-451 637v-637z" />
    <glyph glyph-name="L" unicode="L" horiz-adv-x="1064" 
d="M965 0h-820v1366h291v-1128h529v-238z" />
    <glyph glyph-name="M" unicode="M" horiz-adv-x="1771" 
d="M1659 0h-273l-75 961l-316 -961h-237l-326 961l-63 -961h-256l123 1366h311l344 -989l326 989h311z" />
    <glyph glyph-name="N" unicode="N" horiz-adv-x="1372" 
d="M1227 0h-248l-576 911l7 -911h-265v1366h263l561 -905l-6 905h264v-1366z" />
    <glyph glyph-name="O" unicode="O" horiz-adv-x="1519" 
d="M1133 696q-1 205 -107 335t-273 130t-267 -135t-99 -348q0 -213 108 -340t271 -127q100 0 175 44q129 76 173 272q19 81 19 169zM1425 684q0 -320 -184 -518t-480 -199q-296 0 -481 202q-186 202 -186 521t184 514t483 195q298 0 481 -197q183 -198 183 -518z" />
    <glyph glyph-name="P" unicode="P" horiz-adv-x="1218" 
d="M530 731q182 -1 234 51t51 154q0 170 -130 194q-48 8 -142 9h-113v-408h100zM1108 944q0 -188 -121 -307q-86 -86 -188 -112t-262 -25h-107v-500h-285v1366h385q178 0 284 -23t183 -100q111 -111 111 -299z" />
    <glyph glyph-name="Q" unicode="Q" horiz-adv-x="1509" 
d="M1133 696q-1 205 -107 335t-273 130t-267 -135t-99 -348q0 -213 108 -340t271 -127q100 0 175 44q129 76 173 272q19 81 19 169zM1137 -281q-168 -1 -300 61t-241 208q-202 37 -352 222t-150 492t184 502t483 195q298 0 481 -197q183 -196 183 -524t-204 -533
q-131 -131 -293 -145q80 -70 289 -70q104 0 176 15l37 -193q-125 -33 -293 -33z" />
    <glyph glyph-name="R" unicode="R" horiz-adv-x="1222" 
d="M784 961q0 136 -105 164q-38 11 -66 13t-99 1h-84v-375h115q129 0 184 56t55 141zM430 541v-541h-285v1366h351q282 0 372 -48q49 -26 95 -71q111 -111 111 -258t-78 -243q-77 -96 -224 -119q62 -4 96 -37t48 -50q14 -18 34 -54t40 -74t34 -78l150 -334h-308l-166 371
q-38 87 -84 136q-32 34 -153 34h-33z" />
    <glyph glyph-name="S" unicode="S" horiz-adv-x="1124" 
d="M1022 386q0 -178 -136 -298t-360 -121q-131 0 -267 47t-193 111l127 197q172 -111 317 -111q100 0 160 45q59 46 59 112t-37 104t-216 112t-259 151q-109 109 -108 258q0 182 132 294t341 112q120 0 228 -38t144 -65t58 -47l-131 -186q-55 43 -137 73q-84 30 -160 30
t-133 -41q-57 -40 -57 -95t29 -85q30 -31 123 -69q92 -38 200 -90t169 -114q107 -108 107 -286z" />
    <glyph glyph-name="T" unicode="T" horiz-adv-x="1148" 
d="M1094 1133h-373v-1133h-291v1133h-375v233h1039v-233z" />
    <glyph glyph-name="U" unicode="U" horiz-adv-x="1343" 
d="M1210 596q0 -193 -26 -296t-105 -181q-151 -152 -407 -152t-410 154q-84 83 -106 191t-23 292v762h291v-852q0 -162 66 -227t182 -65q117 0 190 73q43 43 54 112t12 234v725h282v-770z" />
    <glyph glyph-name="V" unicode="V" horiz-adv-x="1316" 
d="M1274 1366l-475 -1366h-283l-473 1366h293l323 -1026l330 1026h285z" />
    <glyph glyph-name="W" unicode="W" horiz-adv-x="1865" 
d="M1786 1366l-318 -1366h-301l-227 1026l-246 -1026h-301l-313 1366h282l189 -1008l246 1008h299l231 -1008l199 1008h260z" />
    <glyph glyph-name="X" unicode="X" horiz-adv-x="1290" 
d="M1233 0h-311l-281 479l-285 -479h-299l443 707l-414 659h313l258 -444l267 444h293l-416 -655z" />
    <glyph glyph-name="Y" unicode="Y" horiz-adv-x="1249" 
d="M764 0h-279v545l-430 821h295l289 -592l289 592h266l-430 -821v-545z" />
    <glyph glyph-name="Z" unicode="Z" horiz-adv-x="1169" 
d="M1079 0h-989v203l619 930h-592v233h942v-213l-602 -915h622v-238z" />
    <glyph glyph-name="bracketleft" unicode="[" horiz-adv-x="878" 
d="M743 -258h-550v1624h550v-229h-276v-1166h276v-229z" />
    <glyph glyph-name="backslash" unicode="\" horiz-adv-x="1052" 
d="M969 -256l-199 -72l-629 1694l201 72z" />
    <glyph glyph-name="bracketright" unicode="]" horiz-adv-x="878" 
d="M686 -258h-551v229h277v1166h-277v229h551v-1624z" />
    <glyph glyph-name="asciicircum" unicode="^" horiz-adv-x="1316" 
d="M1178 496h-250l-264 579l-265 -579h-260l420 870h207z" />
    <glyph glyph-name="underscore" unicode="_" horiz-adv-x="1062" 
d="M1067 -258h-1071v229h1071v-229z" />
    <glyph glyph-name="grave" unicode="`" horiz-adv-x="856" 
d="M707 1266l-84 -150l-473 195l104 207z" />
    <glyph glyph-name="a" unicode="a" horiz-adv-x="1042" 
d="M672 477h-43q-147 0 -227 -35t-78 -115q0 -81 47 -111t113 -30t105 17q38 17 83 45v229zM932 0h-240v72q-142 -94 -288 -94t-234 88q-88 90 -88 235q0 202 183 294q142 71 378 71h29q0 88 -36 124t-156 35q-120 0 -251 -73l-92 176q50 44 164 76q115 33 219 32
q217 0 330 -112q39 -40 58 -96q20 -56 22 -96t2 -128v-604z" />
    <glyph glyph-name="b" unicode="b" horiz-adv-x="1165" 
d="M549 193q119 -1 187 89t69 236q0 146 -65 221q-66 74 -156 74t-183 -61v-539q61 -20 148 -20zM649 1036q186 0 310 -138t124 -380t-145 -394t-389 -153q-184 0 -424 80v1432h276v-516q4 2 22 12q19 10 37 17l37 15q68 25 152 25z" />
    <glyph glyph-name="c" unicode="c" horiz-adv-x="1019" 
d="M598 -29q-232 1 -374 149t-142 378t152 385q153 154 382 153q96 0 200 -34t149 -89l-111 -170q-98 70 -220 70t-199 -93t-77 -221t71 -214t189 -86t199 43l28 14q26 14 29 16l107 -176q-49 -49 -163 -87q-113 -38 -220 -38z" />
    <glyph glyph-name="d" unicode="d" horiz-adv-x="1171" 
d="M616 809q-116 0 -186 -81t-70 -225t69 -224t160 -80t154 35q21 12 27 18v516q-82 41 -154 41zM1047 0h-242v61q-111 -88 -270 -88q-205 -1 -329 143t-124 378t143 389q143 154 342 153q86 0 203 -39v486h277v-1483z" />
    <glyph glyph-name="e" unicode="e" horiz-adv-x="1099" 
d="M762 612q0 68 -24 118q-50 103 -167 101q-90 0 -148 -60t-75 -159h414zM600 186q124 0 277 72l90 -176q-41 -41 -162 -76t-221 -35q-238 1 -370 149t-132 380t135 384t350 152t333 -143t118 -393l-4 -86h-664q-4 -74 61 -151t189 -77z" />
    <glyph glyph-name="f" unicode="f" horiz-adv-x="907" 
d="M676 1280q-92 0 -124 -42t-34 -90q-2 -47 -2 -87v-53h297v-230h-297v-778h-276v778h-164v230h164v49q0 131 22 210q23 79 84 140q100 100 281 100q79 1 151 -23t102 -44t35 -29l-104 -180q-82 49 -135 49z" />
    <glyph glyph-name="g" unicode="g" horiz-adv-x="1167" 
d="M602 815q-96 0 -170 -83t-74 -220t69 -214t159 -77t157 36q23 11 27 15v512q-72 31 -168 31zM1042 14q0 -90 -4 -135t-28 -108t-76 -115q-133 -133 -373 -133q-127 0 -239 37q-112 36 -152 64q-41 28 -61 48l110 181q15 -10 29 -18q14 -7 63 -34t119 -38t125 -11t107 22
q108 46 108 224v63q-106 -61 -235 -61q-217 0 -335 146t-118 364t149 372q150 155 392 154q207 0 419 -106v-916z" />
    <glyph glyph-name="h" unicode="h" horiz-adv-x="1126" 
d="M1016 0h-277v530q0 190 -40 230q-41 40 -127 41q-86 0 -171 -64v-737h-276v1483h276v-522q133 76 244 75q164 0 264 -100t106 -288q1 -32 1 -105v-543z" />
    <glyph glyph-name="i" unicode="i" horiz-adv-x="524" 
d="M401 0h-276v1008h276v-1008zM420 1290q0 -66 -46 -112t-112 -45q-66 0 -112 46q-46 45 -46 111t46 112t112 46t112 -46t46 -112z" />
    <glyph glyph-name="j" unicode="j" horiz-adv-x="522" 
d="M399 -49q0 -119 -20 -195t-86 -141q-92 -92 -266 -92q-99 0 -184 37q-30 12 -36 20l74 193q59 -23 113 -23t92 38t37 146v1074h276v-1057zM418 1290q0 -66 -46 -112t-112 -45q-66 0 -112 46q-46 45 -46 111t46 112t112 46t112 -46t46 -112z" />
    <glyph glyph-name="k" unicode="k" horiz-adv-x="1116" 
d="M401 0h-276v1483h276v-844l367 369h319l-446 -443l451 -565h-328l-363 473v-473z" />
    <glyph glyph-name="l" unicode="l" horiz-adv-x="526" 
d="M401 0h-276v1483h276v-1483z" />
    <glyph glyph-name="m" unicode="m" horiz-adv-x="1693" 
d="M1583 0h-276v551q0 160 -33 204t-109 45t-184 -71q12 -49 12 -223v-506h-276v551q0 162 -34 205t-112 44t-170 -57v-743h-276v1008h235v-76q134 104 282 104t249 -110q141 110 313 110q236 -1 323 -175q24 -48 35 -81q21 -63 21 -220v-560z" />
    <glyph glyph-name="n" unicode="n" horiz-adv-x="1126" 
d="M1016 0h-277v530q0 190 -40 230q-41 40 -127 41q-86 0 -171 -64v-737h-276v1008h235v-76q139 104 294 104t253 -98q53 -53 79 -131t28 -122t2 -142v-543z" />
    <glyph glyph-name="o" unicode="o" horiz-adv-x="1189" 
d="M831 502q0 137 -66 222q-67 85 -173 85t-170 -83t-64 -219t68 -221t175 -85t169 82q61 82 61 219zM1108 506q0 -234 -145 -384t-373 -151t-368 147t-140 382t146 386t372 150q226 0 367 -147q141 -149 141 -383z" />
    <glyph glyph-name="p" unicode="p" horiz-adv-x="1171" 
d="M555 199q115 1 185 81t71 224q0 144 -69 225q-69 80 -171 80q-39 0 -91 -15t-79 -38v-516q82 -41 154 -41zM637 1036q205 0 329 -144t124 -380q0 -234 -144 -388t-342 -153q-86 0 -203 39v-454h-276v1452h242v-62q113 90 270 90z" />
    <glyph glyph-name="q" unicode="q" horiz-adv-x="1165" 
d="M616 815q-120 0 -188 -90q-68 -91 -68 -237t65 -220t156 -74t183 62v539q-61 20 -148 20zM1040 -444h-276v485l-10 -4q-88 -66 -238 -66q-186 -1 -310 137t-124 380t145 396q145 153 389 152q184 0 424 -80v-1400z" />
    <glyph glyph-name="r" unicode="r" horiz-adv-x="841" 
d="M684 807q-184 0 -283 -145v-662h-276v1008h235v-127q8 16 44 48q36 31 118 69t154 38q74 0 96 -10l31 -14l6 -2l-64 -209q-25 6 -61 6z" />
    <glyph glyph-name="s" unicode="s" horiz-adv-x="948" 
d="M408 814q-32 -28 -33 -59q0 -56 48 -80l37 -18q20 -9 52 -21q33 -11 74 -29q104 -46 165 -92q95 -72 95 -220t-108 -236t-292 -88q-102 0 -219 35t-172 80l95 176l49 -25q114 -57 213 -57q156 0 155 99q-1 41 -33 63q-55 38 -151 71q-97 32 -190 101q-93 68 -93 208
t109 227t287 87q98 0 181 -22t118 -45l34 -23l-90 -170q-127 64 -213 65t-118 -27z" />
    <glyph glyph-name="t" unicode="t" horiz-adv-x="894" 
d="M215 385v393h-174v230h174v280h277v-280h286v-230h-286v-403q0 -130 56 -158q28 -14 76 -14t121 24l70 -190q-31 -25 -109 -45q-77 -20 -145 -21q-170 0 -260 90q-57 57 -72 126q-14 69 -14 198z" />
    <glyph glyph-name="u" unicode="u" horiz-adv-x="1126" 
d="M1001 0h-235v76q-139 -104 -294 -104t-255 99q-100 100 -105 288q-1 32 -1 106v543h276v-531q0 -190 40 -230t127 -40t171 63v738h276v-1008z" />
    <glyph glyph-name="v" unicode="v" horiz-adv-x="1101" 
d="M1063 1008l-387 -1008h-266l-381 1008h286l242 -705l238 705h268z" />
    <glyph glyph-name="w" unicode="w" horiz-adv-x="1601" 
d="M1524 1008l-277 -1008h-286l-181 690l-172 -690h-278l-271 1008h265l161 -707l183 707h247l181 -707l174 707h254z" />
    <glyph glyph-name="x" unicode="x" horiz-adv-x="1161" 
d="M1112 0h-309l-230 328l-225 -328h-299l369 504l-350 504h313l211 -295l199 295h288l-338 -498z" />
    <glyph glyph-name="y" unicode="y" horiz-adv-x="1183" 
d="M240 -477q-125 0 -252 63l82 197q82 -35 162 -35t126 47q47 47 105 205l-422 1008h293l270 -707l252 707h272l-399 -1018q-61 -156 -102 -234t-92 -129q-104 -104 -295 -104z" />
    <glyph glyph-name="z" unicode="z" horiz-adv-x="1087" 
d="M971 0h-869v188l504 590h-491v230h839v-199l-499 -580h516v-229z" />
    <glyph glyph-name="braceleft" unicode="{" horiz-adv-x="888" 
d="M774 -258q-225 0 -318 26q-92 26 -148 81t-70 123t-15 184v166q0 94 -19 120t-89 39v217q70 12 89 39t19 121v94q0 117 15 185q29 141 201 196q85 27 143 30t120 3h72v-215q-186 -10 -223 -29t-45 -54q-8 -36 -8 -89v-113q0 -276 -136 -276q135 0 136 -277v-135
q0 -86 4 -121t24 -55q35 -35 224 -43q8 -2 13 -2h11v-215z" />
    <glyph glyph-name="bar" unicode="|" horiz-adv-x="577" 
d="M432 -258h-287v1624h287v-1624z" />
    <glyph glyph-name="braceright" unicode="}" horiz-adv-x="888" 
d="M666 322v-166q0 -117 -14 -185q-14 -69 -66 -119q-51 -50 -136 -77q-86 -27 -144 -30t-120 -3h-71v215q186 10 229 32t46 102q1 24 1 68v154q0 276 135 277q-135 0 -135 276v64q0 86 -4 121t-25 55q-35 35 -223 43q-16 2 -24 2v215q225 0 318 -26t149 -81t69 -123
q14 -68 15 -184v-94q0 -94 19 -121t89 -39v-217q-70 -12 -89 -39t-19 -120z" />
    <glyph glyph-name="asciitilde" unicode="~" 
d="M682 632q131 -58 174 -58t62 10q20 12 29 17t23 19l17 17q13 13 29 33l141 -109q-125 -178 -287 -178q-88 0 -224 58q-136 59 -201 59t-138 -92l-145 100q9 18 18 29q8 10 20 26q35 51 93 82q82 45 170 45t219 -58z" />
    <glyph glyph-name="exclamdown" unicode="&#xa1;" horiz-adv-x="794" 
d="M555 -344h-313l43 950h227zM567 867q0 -71 -49 -119t-120 -50q-72 0 -120 48t-49 120t49 121t120 49t119 -49q50 -49 50 -120z" />
    <glyph glyph-name="cent" unicode="&#xa2;" 
d="M821 -225h-182v211q-180 24 -303 162t-123 356t128 360q128 141 298 170v215h182v-209q74 -8 160 -43t115 -75l-111 -170q-98 70 -220 70t-199 -94q-77 -93 -77 -221t71 -214t189 -86t199 43l28 14q23 13 30 17l106 -177q-33 -33 -122 -70q-89 -38 -169 -48v-211z" />
    <glyph glyph-name="sterling" unicode="&#xa3;" 
d="M828 1165q-118 0 -181 -65q-61 -66 -61 -185q0 -45 14 -159h397v-228h-372q4 -25 4 -47q0 -168 -86 -243h653v-238h-1040v219q199 25 198 252q0 8 -6 57h-186v228h164q-12 106 -13 159q0 225 129 355t342 129q213 0 355 -105q50 -37 73 -65l-135 -166q-131 102 -249 102z
" />
    <glyph glyph-name="currency" unicode="&#xa4;" horiz-adv-x="1251" 
d="M617 352q138 0 209 96t71 244t-83 240q-83 90 -214 90t-210 -93t-79 -248t84 -242t222 -87zM608 137q-174 0 -307 70l-137 -137l-164 163l127 127q-96 138 -96 326t90 324l-121 120l164 164l131 -133q131 72 310 72t319 -78l137 139l164 -164l-133 -131q86 -131 86 -311
t-91 -319l138 -136l-164 -163l-143 143q-136 -76 -310 -76z" />
    <glyph glyph-name="yen" unicode="&#xa5;" 
d="M1092 760v-185h-293v-126h293v-185h-295v-264h-275v264h-309v185h307v126h-307v185h203l-326 606h295l289 -592l289 592h266l-334 -606h197z" />
    <glyph glyph-name="brokenbar" unicode="&#xa6;" horiz-adv-x="577" 
d="M432 -258h-287v627h287v-627zM432 741h-287v625h287v-625z" />
    <glyph glyph-name="section" unicode="&#xa7;" 
d="M844 561q0 39 -37 76t-189 90q-123 -51 -122 -141q0 -43 34 -77t183 -89q131 65 131 141zM1079 596q0 -188 -184 -281q63 -37 100 -103t37 -146q0 -162 -114 -265q-115 -102 -323 -102t-372 117l105 174q126 -78 240 -78t163 38t49 91t-33 83t-180 86t-213 118
q-94 88 -94 217q0 195 189 268q-154 102 -154 252t108 243q109 93 316 93t330 -103l-99 -163q-104 65 -206 65t-148 -32q-45 -32 -45 -79t34 -77q35 -30 191 -91q156 -60 217 -116q86 -80 86 -209z" />
    <glyph glyph-name="dieresis" unicode="&#xa8;" horiz-adv-x="856" 
d="M373 1309q0 -59 -42 -101q-41 -42 -101 -43q-60 0 -102 42q-42 41 -42 101t42 102t101 42t101 -42t43 -101zM772 1309q0 -59 -42 -101t-101 -43q-59 0 -102 42q-42 41 -42 101t42 102q41 42 101 42t102 -42t42 -101z" />
    <glyph glyph-name="copyright" unicode="&#xa9;" horiz-adv-x="1603" 
d="M827 305q-170 0 -274 108q-104 107 -104 277t112 282q113 112 277 112t247 -85l-69 -104q-78 49 -154 49q-109 0 -171 -76t-62 -178t58 -174q59 -70 153 -70t190 56l68 -109q-30 -30 -115 -59q-84 -29 -156 -29zM1331 682q0 219 -154 374q-155 154 -374 154t-375 -154
t-156 -373q0 -218 156 -373q156 -154 375 -154t374 153q154 154 154 373zM804 1391q292 0 498 -211t207 -501t-207 -497t-500 -207t-500 208t-208 500t209 500t501 208z" />
    <glyph glyph-name="ordfeminine" unicode="&#xaa;" horiz-adv-x="927" 
d="M567 985h-30q-227 0 -228 -119q0 -98 115 -98q84 0 143 45v172zM762 1079v-450h-178v53l-36 -23q-86 -47 -187 -47t-167 68t-65 174q0 270 418 270h20q-1 66 -27 92t-120 27q-94 0 -180 -53l-70 131q109 78 278 79t252 -83q51 -51 60 -142q2 -32 2 -96z" />
    <glyph glyph-name="guillemotleft" unicode="&#xab;" horiz-adv-x="1112" 
d="M594 195l-166 -95l-303 400l305 401l164 -110l-166 -291zM987 195l-166 -95l-303 400l305 401l164 -110l-166 -291z" />
    <glyph glyph-name="logicalnot" unicode="&#xac;" horiz-adv-x="1320" 
d="M1198 354h-250v299h-825v234h1075v-533z" />
    <glyph glyph-name="registered" unicode="&#xae;" horiz-adv-x="1105" 
d="M629 1042q0 41 -37 52q-14 4 -68 4h-32v-117q66 0 86 6q51 14 51 55zM508 895h-16v-188h-91v477h119q109 0 153 -41t44 -103q0 -86 -80 -110q33 -16 47 -56l74 -167h-94l-58 122q-23 49 -36 57t-62 9zM899 940q0 142 -100 242q-99 100 -245 100t-246 -99t-101 -243
q0 -144 100 -242q99 -98 245 -98t247 98q100 99 100 242zM1012 940q0 -193 -133 -325t-326 -132t-326 132t-133 325t133 326t326 133t326 -133t133 -326z" />
    <glyph glyph-name="macron" unicode="&#xaf;" horiz-adv-x="856" 
d="M784 1165h-712v230h712v-230z" />
    <glyph glyph-name="degree" unicode="&#xb0;" horiz-adv-x="1312" 
d="M801 1090q0 63 -43 108q-42 45 -102 45t-103 -45t-43 -108q0 -64 43 -108t102 -44t103 44q43 45 43 108zM975 1090q0 -132 -94 -226q-93 -94 -225 -94t-225 93t-93 225t93 226q93 93 225 93t226 -93t93 -224z" />
    <glyph glyph-name="plusminus" unicode="&#xb1;" 
d="M1198 0h-1077v221h1077v-221zM1198 711h-424v-404h-229v404h-424v229h424v403h229v-403h424v-229z" />
    <glyph glyph-name="twosuperior" unicode="&#xb2;" horiz-adv-x="843" 
d="M670 664h-492v120q316 253 316 367q0 41 -26 66t-79 25t-143 -79l-82 99q96 119 250 118q102 0 171 -62t69 -173t-115 -225q-74 -74 -131 -119h262v-137z" />
    <glyph glyph-name="threesuperior" unicode="&#xb3;" horiz-adv-x="843" 
d="M680 874q0 -104 -74 -166t-220 -62t-224 87l78 109q88 -56 148 -56t91 25t31 57q0 62 -46 76q-46 12 -102 12h-40v129h28q98 0 131 33q17 16 17 46t-27 53t-70 22q-74 0 -145 -61l-84 98q86 104 252 104q102 0 170 -57t68 -147q0 -48 -25 -94t-74 -58q57 -6 87 -52
t30 -98z" />
    <glyph glyph-name="acute" unicode="&#xb4;" horiz-adv-x="856" 
d="M707 1311l-474 -195l-83 150l452 252z" />
    <glyph glyph-name="uni00B5" unicode="&#xb5;" horiz-adv-x="1140" 
d="M1016 0h-236v72q-46 -40 -130 -71q-86 -30 -162 -30t-128 37v-266h-235v1266h276v-531q0 -190 40 -230t106 -40q109 0 192 63v738h277v-1008z" />
    <glyph glyph-name="paragraph" unicode="&#xb6;" horiz-adv-x="1404" 
d="M1331 1153h-166v-1409h-215v1409h-155v-1409h-215v786q-283 6 -399 122q-115 116 -115 296t114 295q78 79 194 101t339 22h618v-213z" />
    <glyph glyph-name="periodcentered" unicode="&#xb7;" horiz-adv-x="587" 
d="M463 523q0 -71 -49 -120t-119 -49t-120 50t-50 120t49 119t120 49t120 -49t49 -120z" />
    <glyph glyph-name="cedilla" unicode="&#xb8;" horiz-adv-x="856" 
d="M403 -197q-45 0 -90 -22l-67 37l28 182h123l-10 -92q31 6 41 6q86 0 140 -48t53 -132q0 -84 -66 -138q-65 -54 -165 -54t-157 50l46 91q47 -31 105 -31t81 26t22 56q0 69 -84 69z" />
    <glyph glyph-name="onesuperior" unicode="&#xb9;" horiz-adv-x="843" 
d="M578 664h-166v507l-150 -96l-80 117l267 174h129v-702z" />
    <glyph glyph-name="ordmasculine" unicode="&#xba;" horiz-adv-x="927" 
d="M295 1004q0 -98 49 -158t125 -62q76 0 120 58t44 156t-48 160t-124 62t-121 -58q-45 -60 -45 -158zM468 1399q170 1 274 -109t104 -284t-109 -288t-279 -114t-273 110t-103 284t108 288q109 113 278 113z" />
    <glyph glyph-name="guillemotright" unicode="&#xbb;" horiz-adv-x="1112" 
d="M594 500l-303 -400l-166 95l166 305l-166 291l164 110zM987 500l-303 -400l-166 95l166 305l-166 291l164 110z" />
    <glyph glyph-name="onequarter" unicode="&#xbc;" horiz-adv-x="1687" 
d="M1315 266v223l-158 -223h158zM1561 131h-86v-131h-160v131h-342v113l340 458h162v-436h86v-135zM1374 1346l-938 -1436l-141 96l938 1434zM578 664h-166v507l-150 -96l-80 117l267 174h129v-702z" />
    <glyph glyph-name="onehalf" unicode="&#xbd;" horiz-adv-x="1687" 
d="M1374 1346l-938 -1436l-141 96l938 1434zM1524 0h-492v121q316 253 316 366q0 41 -26 66t-79 25t-143 -78l-82 98q96 119 250 119q102 -1 171 -63t69 -173t-115 -225q-74 -74 -131 -119h262v-137zM578 664h-166v507l-150 -96l-80 117l267 174h129v-702z" />
    <glyph glyph-name="threequarters" unicode="&#xbe;" horiz-adv-x="1687" 
d="M1315 266v223l-158 -223h158zM1561 131h-86v-131h-160v131h-342v113l340 458h162v-436h86v-135zM1374 1346l-938 -1436l-141 96l938 1434zM680 874q0 -104 -74 -166t-220 -62t-224 87l78 109q88 -56 148 -56t91 25t31 57q0 62 -46 76q-46 12 -102 12h-40v129h28
q98 0 131 33q17 16 17 46t-27 53t-70 22q-74 0 -145 -61l-84 98q86 104 252 104q102 0 170 -57t68 -147q0 -48 -25 -94t-74 -58q57 -6 87 -52t30 -98z" />
    <glyph glyph-name="questiondown" unicode="&#xbf;" horiz-adv-x="1101" 
d="M569 -377q-203 -1 -327 105t-123 271q0 165 96 261q47 47 156 114t114 72q29 29 29 144v16h250q8 -49 8 -94q0 -135 -61 -197q-31 -33 -123 -88t-138 -101t-46 -117t52 -113q54 -42 148 -43q150 0 301 108l117 -176q-27 -20 -69 -48q-41 -28 -157 -71t-227 -43zM811 867
q0 -71 -49 -119t-121 -50q-72 0 -120 48t-48 120t49 121t120 49t120 -49t49 -120z" />
    <glyph glyph-name="Agrave" unicode="&#xc0;" horiz-adv-x="1349" 
d="M942 1610l-84 -150l-473 195l104 207zM842 508l-172 549l-172 -549h344zM1317 0h-299l-100 285h-492l-100 -285h-293l495 1366h291z" />
    <glyph glyph-name="Aacute" unicode="&#xc1;" horiz-adv-x="1349" 
d="M901 1655l-473 -195l-84 150l453 252zM842 508l-172 549l-172 -549h344zM1317 0h-299l-100 285h-492l-100 -285h-293l495 1366h291z" />
    <glyph glyph-name="Acircumflex" unicode="&#xc2;" horiz-adv-x="1349" 
d="M1018 1589l-92 -129l-256 146l-254 -144l-92 140l346 258zM842 508l-172 549l-172 -549h344zM1317 0h-299l-100 285h-492l-100 -285h-293l495 1366h291z" />
    <glyph glyph-name="Atilde" unicode="&#xc3;" horiz-adv-x="1349" 
d="M1034 1640q-132 -165 -260 -165q-49 1 -118 33t-92 32q-72 0 -136 -70l-10 -8l-121 121q18 25 44 53q25 28 91 71q66 42 120 42t123 -32t101 -31q62 0 137 75zM842 508l-172 549l-172 -549h344zM1317 0h-299l-100 285h-492l-100 -285h-293l495 1366h291z" />
    <glyph glyph-name="Adieresis" unicode="&#xc4;" horiz-adv-x="1349" 
d="M612 1606q0 -60 -42 -102t-101 -42t-101 42t-42 102t42 101q42 42 101 42t101 -42t42 -101zM1012 1606q0 -60 -42 -102t-102 -42t-101 42q-42 42 -42 102t42 101q42 42 101 42q60 0 102 -42t42 -101zM842 508l-172 549l-172 -549h344zM1317 0h-299l-100 285h-492
l-100 -285h-293l495 1366h291z" />
    <glyph glyph-name="Aring" unicode="&#xc5;" horiz-adv-x="1349" 
d="M764 1690q0 38 -28 66t-66 28t-67 -28q-28 -28 -28 -66t28 -67q28 -28 67 -28q38 0 66 28t28 67zM895 1688q0 -92 -66 -159q-65 -67 -157 -67t-159 67t-67 159t67 158t159 65q92 1 158 -65t65 -158zM842 508l-172 549l-172 -549h344zM1317 0h-299l-100 285h-492
l-100 -285h-293l495 1366h291z" />
    <glyph glyph-name="AE" unicode="&#xc6;" horiz-adv-x="1880" 
d="M938 526v604l-334 -604h334zM1782 0h-844v289h-461l-160 -289h-297l803 1366h942v-233h-540v-318h508v-229h-508v-348h557v-238z" />
    <glyph glyph-name="Ccedilla" unicode="&#xc7;" horiz-adv-x="1329" 
d="M786 -215q-45 0 -90 -23l-67 37l28 176q-251 37 -407 223t-156 474q0 334 203 530t516 197q230 0 383 -96q48 -30 80 -62l-125 -190q-74 50 -110 62q-36 13 -83 27t-133 15q-190 0 -315 -126t-125 -340t116 -342t310 -128q85 0 159 25t109 43q36 18 57 31q21 14 23 14
l121 -195q-22 -22 -82 -58q-184 -109 -420 -112l-8 -78q31 6 41 7q86 0 139 -48q54 -48 54 -133q0 -84 -66 -138t-166 -54t-156 51l46 90q47 -31 105 -31t81 26t22 56q0 70 -84 70z" />
    <glyph glyph-name="Egrave" unicode="&#xc8;" horiz-adv-x="1087" 
d="M819 1610l-84 -150l-473 195l105 207zM989 0h-844v1366h828v-233h-541v-318h508v-229h-508v-348h557v-238z" />
    <glyph glyph-name="Eacute" unicode="&#xc9;" horiz-adv-x="1087" 
d="M860 1655l-473 -195l-84 150l453 252zM989 0h-844v1366h828v-233h-541v-318h508v-229h-508v-348h557v-238z" />
    <glyph glyph-name="Ecircumflex" unicode="&#xca;" horiz-adv-x="1087" 
d="M891 1589l-92 -129l-256 146l-254 -144l-92 140l346 258zM989 0h-844v1366h828v-233h-541v-318h508v-229h-508v-348h557v-238z" />
    <glyph glyph-name="Edieresis" unicode="&#xcb;" horiz-adv-x="1087" 
d="M508 1606q0 -60 -42 -102t-101 -42t-102 42q-42 42 -42 102t42 101q41 42 101 42t102 -42t42 -101zM907 1606q0 -60 -42 -102t-101 -42t-101 42t-42 102t42 101q42 42 101 42t101 -42t42 -101zM989 0h-844v1366h828v-233h-541v-318h508v-229h-508v-348h557v-238z" />
    <glyph glyph-name="Igrave" unicode="&#xcc;" horiz-adv-x="581" 
d="M596 1610l-84 -150l-473 195l104 207zM461 0h-291v1366h291v-1366z" />
    <glyph glyph-name="Iacute" unicode="&#xcd;" horiz-adv-x="581" 
d="M586 1655l-473 -195l-84 150l452 252zM461 0h-291v1366h291v-1366z" />
    <glyph glyph-name="Icircumflex" unicode="&#xce;" horiz-adv-x="581" 
d="M674 1589l-92 -129l-256 146l-254 -144l-92 140l346 258zM461 0h-291v1366h291v-1366z" />
    <glyph glyph-name="Idieresis" unicode="&#xcf;" horiz-adv-x="581" 
d="M272 1606q0 -60 -42 -102t-101 -42t-101 42t-42 102t42 101q42 42 101 42t101 -42t42 -101zM672 1606q0 -60 -42 -102t-102 -42t-101 42q-42 42 -42 102t42 101q42 42 101 42q60 0 102 -42t42 -101zM461 0h-291v1366h291v-1366z" />
    <glyph glyph-name="Eth" unicode="&#xd0;" horiz-adv-x="1499" 
d="M1116 691q0 218 -117 335q-55 55 -129 81t-122 29t-156 3h-82v-324h356v-229h-356v-355h137q229 0 349 121t120 339zM1405 694q0 -303 -186 -489q-144 -144 -325 -175q-181 -30 -390 -30h-281v586h-205v229h205v551h377q117 0 174 -3q200 -11 308 -74q71 -40 137 -105
q186 -187 186 -490z" />
    <glyph glyph-name="Ntilde" unicode="&#xd1;" horiz-adv-x="1372" 
d="M1044 1640q-132 -165 -274 -165q-34 1 -104 33q-68 32 -92 32q-66 0 -136 -70l-10 -8l-121 121q18 25 44 53q25 28 91 71q66 42 120 42t123 -32q69 -31 93 -31q62 1 117 50q8 7 17 15t12 10zM1227 0h-248l-576 911l7 -911h-265v1366h263l561 -905l-6 905h264v-1366z" />
    <glyph glyph-name="Ograve" unicode="&#xd2;" horiz-adv-x="1519" 
d="M1051 1610l-84 -150l-473 195l104 207zM1133 696q-1 205 -107 335t-273 130t-267 -135t-99 -348q0 -213 108 -340t271 -127q100 0 175 44q129 76 173 272q19 81 19 169zM1425 684q0 -320 -184 -518t-480 -199q-296 0 -481 202q-186 202 -186 521t184 514t483 195
q298 0 481 -197q183 -198 183 -518z" />
    <glyph glyph-name="Oacute" unicode="&#xd3;" horiz-adv-x="1519" 
d="M1020 1655l-473 -195l-84 150l452 252zM1133 696q-1 205 -107 335t-273 130t-267 -135t-99 -348q0 -213 108 -340t271 -127q100 0 175 44q129 76 173 272q19 81 19 169zM1425 684q0 -320 -184 -518t-480 -199q-296 0 -481 202q-186 202 -186 521t184 514t483 195
q298 0 481 -197q183 -198 183 -518z" />
    <glyph glyph-name="Ocircumflex" unicode="&#xd4;" horiz-adv-x="1519" 
d="M1110 1589l-92 -129l-256 146l-254 -144l-92 140l346 258zM1133 696q-1 205 -107 335t-273 130t-267 -135t-99 -348q0 -213 108 -340t271 -127q100 0 175 44q129 76 173 272q19 81 19 169zM1425 684q0 -320 -184 -518t-480 -199q-296 0 -481 202q-186 202 -186 521
t184 514t483 195q298 0 481 -197q183 -198 183 -518z" />
    <glyph glyph-name="Otilde" unicode="&#xd5;" horiz-adv-x="1519" 
d="M1122 1640q-132 -165 -260 -165q-49 1 -118 33t-92 32t-55 -10t-81 -60l-10 -8l-121 121q18 25 44 53q25 28 91 71q66 42 120 42t123 -32t101 -31q62 0 137 75zM1133 696q-1 205 -107 335t-273 130t-267 -135t-99 -348q0 -213 108 -340t271 -127q100 0 175 44
q129 76 173 272q19 81 19 169zM1425 684q0 -320 -184 -518t-480 -199q-296 0 -481 202q-186 202 -186 521t184 514t483 195q298 0 481 -197q183 -198 183 -518z" />
    <glyph glyph-name="Odieresis" unicode="&#xd6;" horiz-adv-x="1519" 
d="M709 1606q0 -60 -42 -102q-41 -42 -101 -42t-102 42t-42 102t42 101q42 42 101 42t101 -42t43 -101zM1108 1606q0 -60 -42 -102t-101 -42t-102 42q-42 42 -42 102t42 101q41 42 101 42t102 -42t42 -101zM1133 696q-1 205 -107 335t-273 130t-267 -135t-99 -348
q0 -213 108 -340t271 -127q100 0 175 44q129 76 173 272q19 81 19 169zM1425 684q0 -320 -184 -518t-480 -199q-296 0 -481 202q-186 202 -186 521t184 514t483 195q298 0 481 -197q183 -198 183 -518z" />
    <glyph glyph-name="multiply" unicode="&#xd7;" 
d="M1190 172l-164 -164l-367 369l-366 -369l-164 164l369 367l-369 366l164 164l366 -369l367 369l164 -164l-369 -366z" />
    <glyph glyph-name="Oslash" unicode="&#xd8;" horiz-adv-x="1519" 
d="M387 690q0 -200 80 -313l428 756q-86 29 -145 28q-164 0 -264 -135q-100 -136 -99 -336zM1133 703q0 95 -25 171t-45 105l-420 -746q51 -23 137 -23t161 45q75 44 115 118q40 75 58 155t19 175zM1425 694q0 -330 -184 -528t-479 -199q-127 0 -242 41l-100 -174l-201 107
l107 182q-231 203 -232 571q0 315 184 510t482 195q150 0 252 -45l98 174l203 -107l-105 -186q88 -76 152 -211t65 -330z" />
    <glyph glyph-name="Ugrave" unicode="&#xd9;" horiz-adv-x="1343" 
d="M938 1610l-84 -150l-473 195l104 207zM1210 596q0 -193 -26 -296t-105 -181q-151 -152 -407 -152t-410 154q-84 83 -106 191t-23 292v762h291v-852q0 -162 66 -227t182 -65q117 0 190 73q43 43 54 112t12 234v725h282v-770z" />
    <glyph glyph-name="Uacute" unicode="&#xda;" horiz-adv-x="1343" 
d="M950 1655l-473 -195l-84 150l453 252zM1210 596q0 -193 -26 -296t-105 -181q-151 -152 -407 -152t-410 154q-84 83 -106 191t-23 292v762h291v-852q0 -162 66 -227t182 -65q117 0 190 73q43 43 54 112t12 234v725h282v-770z" />
    <glyph glyph-name="Ucircumflex" unicode="&#xdb;" horiz-adv-x="1343" 
d="M1018 1589l-92 -129l-256 146l-254 -144l-92 140l346 258zM1210 596q0 -193 -26 -296t-105 -181q-151 -152 -407 -152t-410 154q-84 83 -106 191t-23 292v762h291v-852q0 -162 66 -227t182 -65q117 0 190 73q43 43 54 112t12 234v725h282v-770z" />
    <glyph glyph-name="Udieresis" unicode="&#xdc;" horiz-adv-x="1343" 
d="M614 1606q0 -60 -42 -102t-101 -42t-101 42t-42 102t42 101q42 42 101 42t101 -42t42 -101zM1014 1606q0 -60 -42 -102t-102 -42t-101 42q-42 42 -42 102t42 101q42 42 101 42q60 0 102 -42t42 -101zM1210 596q0 -193 -26 -296t-105 -181q-151 -152 -407 -152t-410 154
q-84 83 -106 191t-23 292v762h291v-852q0 -162 66 -227t182 -65q117 0 190 73q43 43 54 112t12 234v725h282v-770z" />
    <glyph glyph-name="Yacute" unicode="&#xdd;" horiz-adv-x="1249" 
d="M881 1655l-473 -195l-84 150l452 252zM764 0h-279v545l-430 821h295l289 -592l289 592h266l-430 -821v-545z" />
    <glyph glyph-name="Thorn" unicode="&#xde;" horiz-adv-x="1202" 
d="M530 492q182 0 234 51t51 153q0 170 -130 194q-48 9 -142 9h-113v-407h100zM1108 706q0 -188 -121 -309q-86 -85 -188 -111t-262 -26h-107v-260h-285v1366h285v-240h100q178 0 284 -22t183 -100q111 -110 111 -298z" />
    <glyph glyph-name="germandbls" unicode="&#xdf;" horiz-adv-x="1185" 
d="M1104 336q0 -162 -108 -259t-277 -97q-147 0 -233 42q-15 7 -17 7l76 215q87 -29 149 -29t102 31t40 82t-37 88t-125 92t-134 101q-46 45 -46 111t36 118t82 88q45 35 82 91q37 55 37 117t-41 102t-96 40q-104 0 -144 -61t-49 -127q-8 -65 -8 -144v-944h-268v1028
q0 231 120 355q121 124 321 124t319 -102t119 -270q0 -84 -34 -151q-34 -66 -76 -98q-110 -82 -110 -120q0 -16 18 -34t76 -56q60 -39 104 -74q44 -34 83 -106t39 -160z" />
    <glyph glyph-name="agrave" unicode="&#xe0;" horiz-adv-x="1042" 
d="M807 1266l-84 -150l-473 195l104 207zM672 477h-43q-147 0 -227 -35t-78 -115q0 -81 47 -111t113 -30t105 17q38 17 83 45v229zM932 0h-240v72q-142 -94 -288 -94t-234 88q-88 90 -88 235q0 202 183 294q142 71 378 71h29q0 88 -36 124t-156 35q-120 0 -251 -73l-92 176
q50 44 164 76q115 33 219 32q217 0 330 -112q39 -40 58 -96q20 -56 22 -96t2 -128v-604z" />
    <glyph glyph-name="aacute" unicode="&#xe1;" horiz-adv-x="1042" 
d="M811 1311l-473 -195l-84 150l453 252zM672 477h-43q-147 0 -227 -35t-78 -115q0 -81 47 -111t113 -30t105 17q38 17 83 45v229zM932 0h-240v72q-142 -94 -288 -94t-234 88q-88 90 -88 235q0 202 183 294q142 71 378 71h29q0 88 -36 124t-156 35q-120 0 -251 -73l-92 176
q50 44 164 76q115 33 219 32q217 0 330 -112q39 -40 58 -96q20 -56 22 -96t2 -128v-604z" />
    <glyph glyph-name="acircumflex" unicode="&#xe2;" horiz-adv-x="1042" 
d="M866 1249l-92 -129l-256 146l-254 -144l-92 140l346 258zM672 477h-43q-147 0 -227 -35t-78 -115q0 -81 47 -111t113 -30t105 17q38 17 83 45v229zM932 0h-240v72q-142 -94 -288 -94t-234 88q-88 90 -88 235q0 202 183 294q142 71 378 71h29q0 88 -36 124t-156 35
q-120 0 -251 -73l-92 176q50 44 164 76q115 33 219 32q217 0 330 -112q39 -40 58 -96q20 -56 22 -96t2 -128v-604z" />
    <glyph glyph-name="atilde" unicode="&#xe3;" horiz-adv-x="1042" 
d="M641 1384q61 0 137 76l121 -121q-17 -20 -25 -28q-8 -9 -21 -23t-27 -25t-30 -25q-74 -64 -157 -64q-49 0 -118 32t-103 33q-57 0 -135 -78l-121 121q18 26 44 54t92 70t119 42q54 0 123 -32t101 -32zM672 477h-43q-147 0 -227 -35t-78 -115q0 -81 47 -111t113 -30
t105 17q38 17 83 45v229zM932 0h-240v72q-142 -94 -288 -94t-234 88q-88 90 -88 235q0 202 183 294q142 71 378 71h29q0 88 -36 124t-156 35q-120 0 -251 -73l-92 176q50 44 164 76q115 33 219 32q217 0 330 -112q39 -40 58 -96q20 -56 22 -96t2 -128v-604z" />
    <glyph glyph-name="adieresis" unicode="&#xe4;" horiz-adv-x="1042" 
d="M461 1309q0 -59 -42 -101q-41 -42 -101 -43q-60 0 -102 42q-42 41 -42 101t42 102t101 42t101 -42t43 -101zM860 1309q0 -59 -42 -101t-101 -43q-59 0 -102 42q-42 41 -42 101t42 102q41 42 101 42t102 -42t42 -101zM672 477h-43q-147 0 -227 -35t-78 -115q0 -81 47 -111
t113 -30t105 17q38 17 83 45v229zM932 0h-240v72q-142 -94 -288 -94t-234 88q-88 90 -88 235q0 202 183 294q142 71 378 71h29q0 88 -36 124t-156 35q-120 0 -251 -73l-92 176q50 44 164 76q115 33 219 32q217 0 330 -112q39 -40 58 -96q20 -56 22 -96t2 -128v-604z" />
    <glyph glyph-name="aring" unicode="&#xe5;" horiz-adv-x="1042" 
d="M612 1341q0 39 -27 67q-28 28 -67 28q-38 0 -66 -28t-28 -67t28 -67t66 -27q38 -1 66 27t28 67zM743 1339q1 -93 -65 -159t-158 -66t-159 67t-67 159t67 157q67 66 159 66t158 -66t65 -158zM672 477h-43q-147 0 -227 -35t-78 -115q0 -81 47 -111t113 -30t105 17
q38 17 83 45v229zM932 0h-240v72q-142 -94 -288 -94t-234 88q-88 90 -88 235q0 202 183 294q142 71 378 71h29q0 88 -36 124t-156 35q-120 0 -251 -73l-92 176q50 44 164 76q115 33 219 32q217 0 330 -112q39 -40 58 -96q20 -56 22 -96t2 -128v-604z" />
    <glyph glyph-name="ae" unicode="&#xe6;" horiz-adv-x="1697" 
d="M672 469h-43q-147 0 -227 -35t-78 -115q0 -81 47 -111t109 -30t118 21t72 32t43 27q-41 72 -41 211zM1360 612q0 68 -24 118q-50 103 -167 101q-90 0 -148 -60t-75 -159h414zM1198 186q124 0 277 72l90 -176q-41 -41 -162 -76t-221 -35q-244 0 -363 142
q-162 -141 -391 -142q-150 0 -248 84t-98 251t120 246q120 78 233 91q114 14 208 14h29v9q0 88 -36 124t-156 35q-120 0 -251 -73l-92 176q152 108 375 108t340 -116q116 116 322 116t324 -143t118 -393l-4 -86h-664q-4 -74 61 -151t189 -77z" />
    <glyph glyph-name="ccedilla" unicode="&#xe7;" horiz-adv-x="1019" 
d="M604 -197q-45 0 -90 -22l-68 37l27 166q-163 35 -277 168t-114 355t152 376q153 154 382 153q96 0 200 -34t149 -89l-111 -170q-98 70 -220 70t-199 -93t-77 -221t71 -214t189 -86t199 43l28 14q26 14 29 16l107 -176q-49 -49 -164 -87q-114 -38 -223 -38l-6 -63
q31 6 41 6q86 0 139 -48t53 -132q1 -84 -65 -138t-166 -54t-156 50l45 91q47 -31 105 -31t82 26q23 26 22 56q0 69 -84 69z" />
    <glyph glyph-name="egrave" unicode="&#xe8;" horiz-adv-x="1099" 
d="M842 1266l-84 -150l-473 195l104 207zM762 612q0 68 -24 118q-50 103 -167 101q-90 0 -148 -60t-75 -159h414zM600 186q124 0 277 72l90 -176q-41 -41 -162 -76t-221 -35q-238 1 -370 149t-132 380t135 384t350 152t333 -143t118 -393l-4 -86h-664q-4 -74 61 -151
t189 -77z" />
    <glyph glyph-name="eacute" unicode="&#xe9;" horiz-adv-x="1099" 
d="M817 1311l-473 -195l-84 150l453 252zM762 612q0 68 -24 118q-50 103 -167 101q-90 0 -148 -60t-75 -159h414zM600 186q124 0 277 72l90 -176q-41 -41 -162 -76t-221 -35q-238 1 -370 149t-132 380t135 384t350 152t333 -143t118 -393l-4 -86h-664q-4 -74 61 -151
t189 -77z" />
    <glyph glyph-name="ecircumflex" unicode="&#xea;" horiz-adv-x="1099" 
d="M915 1249l-92 -129l-256 146l-254 -144l-92 140l346 258zM762 612q0 68 -24 118q-50 103 -167 101q-90 0 -148 -60t-75 -159h414zM600 186q124 0 277 72l90 -176q-41 -41 -162 -76t-221 -35q-238 1 -370 149t-132 380t135 384t350 152t333 -143t118 -393l-4 -86h-664
q-4 -74 61 -151t189 -77z" />
    <glyph glyph-name="edieresis" unicode="&#xeb;" horiz-adv-x="1099" 
d="M510 1309q0 -59 -42 -101t-101 -43q-59 0 -102 42q-42 41 -42 101t42 102q41 42 101 42t102 -42t42 -101zM909 1309q0 -59 -42 -101t-101 -43q-59 0 -101 42q-42 41 -42 101t42 102t101 42t101 -42t42 -101zM762 612q0 68 -24 118q-50 103 -167 101q-90 0 -148 -60
t-75 -159h414zM600 186q124 0 277 72l90 -176q-41 -41 -162 -76t-221 -35q-238 1 -370 149t-132 380t135 384t350 152t333 -143t118 -393l-4 -86h-664q-4 -74 61 -151t189 -77z" />
    <glyph glyph-name="igrave" unicode="&#xec;" horiz-adv-x="524" 
d="M541 1266l-84 -150l-473 195l104 207zM399 0h-276v1008h276v-1008z" />
    <glyph glyph-name="iacute" unicode="&#xed;" horiz-adv-x="524" 
d="M541 1311l-473 -195l-84 150l452 252zM401 0h-276v1008h276v-1008z" />
    <glyph glyph-name="icircumflex" unicode="&#xee;" horiz-adv-x="524" 
d="M610 1249l-92 -129l-256 146l-254 -144l-92 140l346 258zM401 0h-276v1008h276v-1008z" />
    <glyph glyph-name="idieresis" unicode="&#xef;" horiz-adv-x="524" 
d="M205 1309q0 -59 -42 -101q-41 -42 -101 -43q-60 0 -102 42q-42 41 -42 101t42 102t101 42t101 -42t43 -101zM604 1309q0 -59 -42 -101t-101 -43q-59 0 -102 42q-42 41 -42 101t42 102q41 42 101 42t102 -42t42 -101zM399 0h-276v1008h276v-1008z" />
    <glyph glyph-name="eth" unicode="&#xf0;" horiz-adv-x="1124" 
d="M760 597q0 69 -8 128q-70 49 -170 49t-161 -73q-63 -73 -63 -205t58 -207q58 -76 135 -76q78 0 122 38q87 75 87 346zM1042 606q0 -293 -128 -464t-348 -171t-352 150t-132 381t129 369t344 139q76 0 156 -27q-16 43 -54 97q-37 54 -63 73l-262 -106l-64 155l166 66
q-72 41 -237 61l18 195q293 -39 457 -156l229 88l64 -147l-142 -58q103 -102 161 -276t58 -369z" />
    <glyph glyph-name="ntilde" unicode="&#xf1;" horiz-adv-x="1126" 
d="M950 1339q-132 -165 -260 -165q-49 0 -118 32t-103 33q-57 0 -135 -78l-121 121q18 26 44 54q25 28 91 70t120 42t123 -32t101 -32q61 0 137 76zM1016 0h-277v530q0 190 -40 230q-41 40 -127 41q-86 0 -171 -64v-737h-276v1008h235v-76q139 104 294 104t253 -98
q53 -53 79 -131t28 -122t2 -142v-543z" />
    <glyph glyph-name="ograve" unicode="&#xf2;" horiz-adv-x="1189" 
d="M879 1266l-84 -150l-473 195l104 207zM831 502q0 137 -66 222q-67 85 -173 85t-170 -83t-64 -219t68 -221t175 -85t169 82q61 82 61 219zM1108 506q0 -234 -145 -384t-373 -151t-368 147t-140 382t146 386t372 150q226 0 367 -147q141 -149 141 -383z" />
    <glyph glyph-name="oacute" unicode="&#xf3;" horiz-adv-x="1189" 
d="M874 1311l-473 -195l-84 150l453 252zM831 502q0 137 -66 222q-67 85 -173 85t-170 -83t-64 -219t68 -221t175 -85t169 82q61 82 61 219zM1108 506q0 -234 -145 -384t-373 -151t-368 147t-140 382t146 386t372 150q226 0 367 -147q141 -149 141 -383z" />
    <glyph glyph-name="ocircumflex" unicode="&#xf4;" horiz-adv-x="1189" 
d="M954 1249l-92 -129l-256 146l-254 -144l-92 140l346 258zM831 502q0 137 -66 222q-67 85 -173 85t-170 -83t-64 -219t68 -221t175 -85t169 82q61 82 61 219zM1108 506q0 -234 -145 -384t-373 -151t-368 147t-140 382t146 386t372 150q226 0 367 -147q141 -149 141 -383z
" />
    <glyph glyph-name="otilde" unicode="&#xf5;" horiz-adv-x="1189" 
d="M948 1339q-132 -165 -260 -165q-49 0 -118 32t-103 33q-57 0 -135 -78l-121 121q18 26 44 54q25 28 91 70t120 42t123 -32t101 -32q61 0 137 76zM831 502q0 137 -66 222q-67 85 -173 85t-170 -83t-64 -219t68 -221t175 -85t169 82q61 82 61 219zM1108 506
q0 -234 -145 -384t-373 -151t-368 147t-140 382t146 386t372 150q226 0 367 -147q141 -149 141 -383z" />
    <glyph glyph-name="odieresis" unicode="&#xf6;" horiz-adv-x="1189" 
d="M547 1309q0 -59 -42 -101q-41 -42 -101 -43q-60 0 -102 42q-42 41 -42 101t42 102t101 42t101 -42t43 -101zM946 1309q0 -59 -42 -101t-101 -43q-59 0 -102 42q-42 41 -42 101t42 102q41 42 101 42t102 -42t42 -101zM831 502q0 137 -66 222q-67 85 -173 85t-170 -83
t-64 -219t68 -221t175 -85t169 82q61 82 61 219zM1108 506q0 -234 -145 -384t-373 -151t-368 147t-140 382t146 386t372 150q226 0 367 -147q141 -149 141 -383z" />
    <glyph glyph-name="divide" unicode="&#xf7;" horiz-adv-x="1320" 
d="M494 153q0 73 49 123t119 50t118 -50t49 -123q0 -73 -50 -124q-51 -51 -119 -51t-117 50q-49 52 -49 125zM1221 424h-1121v229h1121v-229zM662 1087q70 0 118 -50t49 -123q0 -74 -50 -124q-51 -50 -119 -50t-117 50q-49 52 -49 124t49 123q49 50 119 50z" />
    <glyph glyph-name="oslash" unicode="&#xf8;" horiz-adv-x="1189" 
d="M602 829q-124 0 -192 -92t-68 -252q0 -82 39 -172l291 502q-35 14 -70 14zM852 512q0 96 -39 174l-289 -496q41 -10 72 -10q124 0 190 89t66 243zM1108 514q0 -242 -145 -392t-379 -151q-106 0 -168 27l-86 -148l-168 93l88 149q-68 54 -118 158t-50 248q0 236 146 388
t376 150q100 0 180 -28l86 145l164 -96l-90 -148q64 -53 114 -155t50 -240z" />
    <glyph glyph-name="ugrave" unicode="&#xf9;" horiz-adv-x="1126" 
d="M827 1266l-84 -150l-473 195l105 207zM1001 0h-235v76q-139 -104 -294 -104t-255 99q-100 100 -105 288q-1 32 -1 106v543h276v-531q0 -190 40 -230t127 -40t171 63v738h276v-1008z" />
    <glyph glyph-name="uacute" unicode="&#xfa;" horiz-adv-x="1126" 
d="M852 1311l-473 -195l-84 150l453 252zM1001 0h-235v76q-139 -104 -294 -104t-255 99q-100 100 -105 288q-1 32 -1 106v543h276v-531q0 -190 40 -230t127 -40t171 63v738h276v-1008z" />
    <glyph glyph-name="ucircumflex" unicode="&#xfb;" horiz-adv-x="1126" 
d="M885 1249l-92 -129l-256 146l-254 -144l-93 140l347 258zM1001 0h-235v76q-139 -104 -294 -104t-255 99q-100 100 -105 288q-1 32 -1 106v543h276v-531q0 -190 40 -230t127 -40t171 63v738h276v-1008z" />
    <glyph glyph-name="udieresis" unicode="&#xfc;" horiz-adv-x="1126" 
d="M479 1309q0 -59 -42 -101t-101 -43q-59 0 -102 42q-42 41 -42 101t42 102t102 42t101 -42q42 -42 42 -101zM879 1309q0 -59 -42 -101q-41 -42 -101 -43q-60 0 -102 42q-42 41 -42 101t42 102t101 42t101 -42t43 -101zM1001 0h-235v76q-139 -104 -294 -104t-255 99
q-100 100 -105 288q-1 32 -1 106v543h276v-531q0 -190 40 -230t127 -40t171 63v738h276v-1008z" />
    <glyph glyph-name="yacute" unicode="&#xfd;" horiz-adv-x="1183" 
d="M852 1311l-473 -195l-84 150l453 252zM240 -477q-125 0 -252 63l82 197q82 -35 162 -35t126 47q47 47 105 205l-422 1008h293l270 -707l252 707h272l-399 -1018q-61 -156 -102 -234t-92 -129q-104 -104 -295 -104z" />
    <glyph glyph-name="thorn" unicode="&#xfe;" horiz-adv-x="1155" 
d="M551 195q84 -1 163 81t79 224q1 142 -59 223q-60 80 -161 80q-52 0 -101 -20t-77 -44v-503q72 -41 156 -41zM629 1036q197 0 321 -142t123 -374q0 -231 -147 -390t-355 -159q-108 0 -157 33l-19 10v-458h-270v1927h256v-531q100 84 248 84z" />
    <glyph glyph-name="ydieresis" unicode="&#xff;" horiz-adv-x="1183" 
d="M547 1309q0 -59 -42 -101q-41 -42 -101 -43q-60 0 -102 42q-42 41 -42 101t42 102t101 42t101 -42t43 -101zM946 1309q0 -59 -42 -101t-101 -43q-59 0 -102 42q-42 41 -42 101t42 102q41 42 101 42t102 -42t42 -101zM240 -477q-125 0 -252 63l82 197q82 -35 162 -35
t126 47q47 47 105 205l-422 1008h293l270 -707l252 707h272l-399 -1018q-61 -156 -102 -234t-92 -129q-104 -104 -295 -104z" />
    <glyph glyph-name="Idotaccent" unicode="&#x130;" horiz-adv-x="581" 
d="M434 1606q0 -60 -42 -102t-101 -42t-102 42q-42 42 -42 102t42 101q41 42 101 42t102 -42t42 -101zM436 0h-291v1366h291v-1366z" />
    <glyph glyph-name="dotlessi" unicode="&#x131;" horiz-adv-x="526" 
d="M401 0h-276v1008h276v-1008z" />
    <glyph glyph-name="Lslash" unicode="&#x141;" horiz-adv-x="1155" 
d="M1116 0h-819v459l-115 -88l-164 204l279 209v582h291v-385l188 141l160 -204l-348 -261v-419h528v-238z" />
    <glyph glyph-name="lslash" unicode="&#x142;" horiz-adv-x="864" 
d="M571 0h-276v526l-115 -88l-162 203l277 209v633h276v-445l111 86l164 -202l-275 -203v-719z" />
    <glyph glyph-name="OE" unicode="&#x152;" horiz-adv-x="1828" 
d="M930 227v908h-78q-229 0 -349 -121t-120 -339t117 -335q55 -55 129 -81t122 -29t156 -3h23zM1731 0h-832q-117 0 -174 3t-147 19q-165 28 -297 160q-187 186 -187 490t187 489q145 145 325 175t389 30h719v-233h-506v-318h473v-229h-473v-348h523v-238z" />
    <glyph glyph-name="oe" unicode="&#x153;" horiz-adv-x="1839" 
d="M825 511q0 146 -66 225q-67 79 -177 79t-178 -86t-68 -227t70 -224t178 -83t174 85q67 85 67 231zM1520 612q0 64 -24 116q-49 105 -167 103q-90 0 -148 -60t-75 -159h414zM1358 186q125 0 276 72l90 -176q-42 -42 -162 -76q-120 -35 -204 -35q-84 1 -147 15
q-62 14 -96 28t-75 46t-47 39t-32 34q-165 -164 -391 -164q-226 -1 -366 147t-140 383t146 387q148 152 380 150q148 0 272 -71q62 -37 96 -80l9 -8l31 33q126 126 334 126t326 -143t118 -393l-4 -86h-664q-4 -74 60 -151t190 -77z" />
    <glyph glyph-name="Scaron" unicode="&#x160;" horiz-adv-x="1124" 
d="M946 1718l-346 -258l-348 271l92 129l256 -146l254 144zM1022 386q0 -178 -136 -298t-360 -121q-131 0 -267 47t-193 111l127 197q172 -111 317 -111q100 0 160 45q59 46 59 112t-37 104t-216 112t-259 151q-109 109 -108 258q0 182 132 294t341 112q120 0 228 -38
t144 -65t58 -47l-131 -186q-55 43 -137 73q-84 30 -160 30t-133 -41q-57 -40 -57 -95t29 -85q30 -31 123 -69q92 -38 200 -90t169 -114q107 -108 107 -286z" />
    <glyph glyph-name="scaron" unicode="&#x161;" horiz-adv-x="948" 
d="M827 1378l-346 -258l-348 271l92 129l256 -146l254 144zM408 814q-32 -28 -33 -59q0 -56 48 -80l37 -18q20 -9 52 -21q33 -11 74 -29q104 -46 165 -92q95 -72 95 -220t-108 -236t-292 -88q-102 0 -219 35t-172 80l95 176l49 -25q114 -57 213 -57q156 0 155 99
q-1 41 -33 63q-55 38 -151 71q-97 32 -190 101q-93 68 -93 208t109 227t287 87q98 0 181 -22t118 -45l34 -23l-90 -170q-127 64 -213 65t-118 -27z" />
    <glyph glyph-name="Ydieresis" unicode="&#x178;" horiz-adv-x="1249" 
d="M582 1606q0 -60 -42 -102t-102 -42t-101 42q-42 42 -42 102t42 101q42 42 101 42q60 0 102 -42t42 -101zM981 1606q0 -60 -42 -102t-101 -42t-102 42q-42 42 -42 102t42 101q42 42 102 42t101 -42q42 -42 42 -101zM764 0h-279v545l-430 821h295l289 -592l289 592h266
l-430 -821v-545z" />
    <glyph glyph-name="Zcaron" unicode="&#x17d;" horiz-adv-x="1169" 
d="M905 1720l-346 -258l-348 271l92 129l256 -146l254 144zM1079 0h-989v203l619 930h-592v233h942v-213l-602 -915h622v-238z" />
    <glyph glyph-name="zcaron" unicode="&#x17e;" horiz-adv-x="1087" 
d="M872 1378l-346 -258l-348 271l92 129l256 -146l254 144zM971 0h-869v188l504 590h-491v230h839v-199l-499 -580h516v-229z" />
    <glyph glyph-name="florin" unicode="&#x192;" 
d="M1069 1161q-86 0 -117 -50t-61 -202l-31 -153h293l-49 -228h-293l-104 -546q-51 -268 -136 -353q-106 -106 -264 -106t-282 78l81 202q175 -71 244 -2q39 39 72 205l106 522h-254l45 228h259l36 194q29 145 55 219t72 121q109 109 267 109t288 -74l-77 -201
q-111 37 -150 37z" />
    <glyph glyph-name="circumflex" unicode="&#x2c6;" horiz-adv-x="856" 
d="M776 1249l-92 -129l-256 146l-254 -144l-92 140l346 258z" />
    <glyph glyph-name="caron" unicode="&#x2c7;" horiz-adv-x="856" 
d="M774 1378l-346 -258l-348 271l92 129l256 -146l254 144z" />
    <glyph glyph-name="breve" unicode="&#x2d8;" horiz-adv-x="856" 
d="M428 1159q-137 0 -219 86t-86 232h184q12 -129 121 -129t121 129h184q-4 -145 -86 -231t-219 -87z" />
    <glyph glyph-name="dotaccent" unicode="&#x2d9;" horiz-adv-x="856" 
d="M571 1309q0 -59 -42 -101t-101 -43q-59 0 -101 42q-42 41 -42 101t42 102t101 42t101 -42t42 -101z" />
    <glyph glyph-name="ring" unicode="&#x2da;" horiz-adv-x="856" 
d="M522 1341q0 39 -27 67q-28 28 -67 28t-67 -28q-27 -28 -27 -67t28 -67t66 -27q38 -1 66 27t28 67zM653 1339q1 -93 -65 -159t-158 -66t-159 67t-67 159t67 157q67 66 159 66t158 -66t65 -158z" />
    <glyph glyph-name="ogonek" unicode="&#x2db;" horiz-adv-x="856" 
d="M436 -459q-108 1 -168 63t-59 167q0 135 137 225l146 -43q-102 -68 -125 -107t-23 -80q0 -42 29 -73t78 -31t78 14q31 14 49 22q18 9 20 9l49 -98q-103 -68 -211 -68z" />
    <glyph glyph-name="tilde" unicode="&#x2dc;" horiz-adv-x="856" 
d="M539 1384q61 0 137 76l121 -121l-25 -28q-8 -9 -21 -23t-27 -25t-30 -25q-77 -64 -160 -64q-46 0 -115 32t-104 33q-57 0 -135 -78l-121 121q18 26 44 54t92 70q65 42 119 42t123 -32t102 -32z" />
    <glyph glyph-name="hungarumlaut" unicode="&#x2dd;" horiz-adv-x="856" 
d="M446 1438l-163 -359l-195 66l123 375zM768 1438l-160 -359l-194 66l123 375z" />
    <glyph glyph-name="Delta" unicode="&#x394;" horiz-adv-x="1478" 
d="M987 227l-256 756l-256 -756h512zM1333 0h-1188l471 1366h244z" />
    <glyph glyph-name="Omega" unicode="&#x3a9;" horiz-adv-x="1703" 
d="M1559 0h-598v199q88 39 139 88q139 141 139 377t-106 364q-107 129 -281 129t-280 -129t-107 -348q0 -106 27 -194q26 -88 58 -134q32 -47 80 -86t66 -47l47 -20v-199h-598v238h234l-30 26q-29 26 -68 86t-53 96q-50 121 -50 269q0 305 186 494t488 189q301 0 487 -188
q186 -190 187 -495q0 -112 -25 -197q-41 -142 -98 -203q-57 -62 -76 -77h232v-238z" />
    <glyph glyph-name="mu" unicode="&#x3bc;" horiz-adv-x="1140" 
d="M1016 0h-236v72q-46 -40 -130 -71q-86 -30 -162 -30t-128 37v-266h-235v1266h276v-531q0 -190 40 -230t106 -40q109 0 192 63v738h277v-1008z" />
    <glyph glyph-name="pi" unicode="&#x3c0;" horiz-adv-x="1396" 
d="M809 253v533h-248v-786h-276v786h-140v222h1090v-222h-150v-424q-1 -59 3 -86q4 -28 26 -50q35 -36 137 -13v-203q-179 -55 -319 -8q-25 8 -45 28q-21 20 -33 34t-21 45t-17 49t-7 95z" />
    <glyph glyph-name="figuredash" unicode="&#x2012;" horiz-adv-x="1320" 
d="M1221 424h-1121v229h1121v-229z" />
    <glyph glyph-name="endash" unicode="&#x2013;" horiz-adv-x="1374" 
d="M1223 424h-1071v229h1071v-229z" />
    <glyph glyph-name="emdash" unicode="&#x2014;" horiz-adv-x="2027" 
d="M1876 424h-1724v229h1724v-229z" />
    <glyph glyph-name="quoteleft" unicode="&#x2018;" horiz-adv-x="618" 
d="M373 879h-291q0 123 36 219t144 205q59 59 119 98l156 -139q-7 -6 -17 -16q-150 -135 -147 -355v-12z" />
    <glyph glyph-name="quoteright" unicode="&#x2019;" horiz-adv-x="618" 
d="M537 1366q0 -123 -36 -219t-145 -205q-59 -59 -118 -98l-156 139q6 6 16 15q150 135 148 356v12h291z" />
    <glyph glyph-name="quotesinglbase" unicode="&#x201a;" horiz-adv-x="618" 
d="M246 274h291q0 -123 -36 -219t-145 -205q-59 -59 -118 -98l-156 139l16 16q10 9 15 13q135 135 133 334v20z" />
    <glyph glyph-name="quotedblleft" unicode="&#x201c;" horiz-adv-x="1011" 
d="M373 879h-291q0 123 36 219t144 205q59 59 119 98l156 -139q-7 -6 -17 -16q-150 -135 -147 -355v-12zM766 879h-291q0 123 36 219t144 205q59 59 119 98l156 -139l-16 -16q-150 -135 -148 -355v-12z" />
    <glyph glyph-name="quotedblright" unicode="&#x201d;" horiz-adv-x="1011" 
d="M537 1366q0 -123 -36 -219t-145 -205q-59 -59 -118 -98l-156 139q6 6 16 15q150 135 148 356v12h291zM930 1366q0 -123 -36 -219t-144 -205q-59 -59 -119 -98l-156 139q7 6 17 15t14 14q135 135 133 342v12h291z" />
    <glyph glyph-name="quotedblbase" unicode="&#x201e;" horiz-adv-x="1015" 
d="M246 274h291q0 -123 -36 -219t-145 -205q-59 -59 -118 -98l-156 139l16 16q10 9 15 13q135 135 133 334v20zM643 274h291q0 -123 -36 -219t-144 -205q-59 -59 -119 -98l-156 139q7 5 17 15q150 135 147 348v20z" />
    <glyph glyph-name="dagger" unicode="&#x2020;" horiz-adv-x="1310" 
d="M1145 680h-361l-20 -938h-223l-21 938h-354v238h350l-10 448h293l-11 -448h357v-238z" />
    <glyph glyph-name="daggerdbl" unicode="&#x2021;" horiz-adv-x="1310" 
d="M1145 680h-365l-2 -180h359v-238h-363l-10 -520h-223l-11 520h-356v238h352l-2 180h-358v238h350l-10 448h293l-11 -448h357v-238z" />
    <glyph glyph-name="bullet" unicode="&#x2022;" horiz-adv-x="909" 
d="M690 569q0 -98 -68 -167q-68 -68 -167 -68q-98 0 -167 68t-69 167q0 98 69 167t167 69q99 0 167 -69t68 -167z" />
    <glyph glyph-name="ellipsis" unicode="&#x2026;" horiz-adv-x="1802" 
d="M473 160q0 -72 -51 -123t-123 -51t-123 51t-51 123t51 123t123 51t123 -51t51 -123zM1075 160q0 -72 -51 -123t-123 -51t-123 51t-51 123t51 123t123 51t123 -51t51 -123zM1677 160q0 -72 -51 -123t-123 -51t-123 51t-51 123t51 123t123 51t123 -51t51 -123z" />
    <glyph glyph-name="perthousand" unicode="&#x2030;" horiz-adv-x="2420" 
d="M1409 348q0 113 -39 170t-102 57q-62 0 -104 -58t-42 -168t38 -167t102 -57q147 0 147 223zM1577 351q0 -165 -84 -265t-228 -100t-228 100q-83 100 -83 265t83 265t227 100t228 -100q85 -100 85 -265zM1374 1346l-938 -1436l-141 96l938 1434zM565 1012q0 113 -39 170
t-102 57q-62 0 -104 -58t-42 -168t38 -167t102 -58q147 1 147 224zM733 1015q0 -165 -84 -265t-228 -100t-227 100t-83 265t83 265t226 100t228 -100t85 -265zM2142 348q0 113 -39 170t-102 57t-105 -58t-41 -168q0 -110 38 -167t102 -57q147 0 147 223zM2310 351
q0 -165 -84 -265t-228 -100t-228 100q-82 100 -82 265t82 265t226 100t229 -100t85 -265z" />
    <glyph glyph-name="guilsinglleft" unicode="&#x2039;" horiz-adv-x="718" 
d="M594 195l-166 -95l-303 400l305 401l164 -110l-166 -291z" />
    <glyph glyph-name="guilsinglright" unicode="&#x203a;" horiz-adv-x="718" 
d="M594 500l-303 -400l-166 95l166 305l-166 291l164 110z" />
    <glyph glyph-name="fraction" unicode="&#x2044;" horiz-adv-x="0" 
d="M506 1346l-938 -1436l-141 96l938 1434z" />
    <glyph glyph-name="zerosuperior" unicode="&#x2070;" horiz-adv-x="843" 
d="M565 1012q0 113 -39 170t-102 57q-62 0 -104 -58t-42 -168t38 -167t102 -58q147 1 147 224zM733 1015q0 -165 -84 -265t-228 -100t-227 100t-83 265t83 265t226 100t228 -100t85 -265z" />
    <glyph glyph-name="foursuperior" unicode="&#x2074;" horiz-adv-x="843" 
d="M471 930v223l-158 -223h158zM717 795h-86v-131h-160v131h-342v112l340 459h162v-436h86v-135z" />
    <glyph glyph-name="fivesuperior" unicode="&#x2075;" horiz-adv-x="843" 
d="M428 1126q108 0 176 -62t68 -172t-76 -176t-211 -67q-66 0 -143 30t-88 58l75 107q63 -55 150 -56q123 0 123 101q0 106 -127 106q-63 0 -115 -34l-57 36v369h432v-141h-277v-109q31 10 70 10z" />
    <glyph glyph-name="sixsuperior" unicode="&#x2076;" horiz-adv-x="843" 
d="M537 897q0 49 -30 80t-77 31t-79 -31t-32 -80t31 -81t79 -32t78 32t30 81zM456 1145q102 0 170 -68q66 -69 66 -179t-74 -182t-198 -71q-124 0 -202 96q-77 96 -77 265q0 170 84 272t230 102q63 0 136 -24t87 -53l-68 -107q-72 47 -147 47q-145 0 -168 -166q59 68 161 68
z" />
    <glyph glyph-name="sevensuperior" unicode="&#x2077;" horiz-adv-x="843" 
d="M172 1229v137h512v-117l-268 -585h-180l276 565h-340z" />
    <glyph glyph-name="eightsuperior" unicode="&#x2078;" horiz-adv-x="843" 
d="M541 872q0 90 -118 90t-118 -90q0 -44 31 -68t87 -24t87 24t31 68zM520 1167q0 37 -25 59q-26 22 -72 22t-72 -24q-26 -22 -25 -57q0 -82 97 -82t97 82zM705 878q0 -112 -78 -172t-203 -60t-204 60t-79 170t103 154q-82 39 -82 137t72 156q73 57 188 57q114 0 188 -57
t74 -153t-90 -138q111 -42 111 -154z" />
    <glyph glyph-name="ninesuperior" unicode="&#x2079;" horiz-adv-x="843" 
d="M307 1124q0 -48 30 -78t77 -30q46 0 78 30t32 79q0 50 -30 83q-31 33 -79 33t-78 -34t-30 -83zM702 1020q0 -170 -82 -272t-229 -103q-63 0 -129 23t-96 53l70 110q70 -47 145 -47q145 0 168 164q-55 -68 -159 -68t-170 68q-66 66 -66 176t73 184q74 72 199 72
q124 0 200 -95t76 -265z" />
    <glyph glyph-name="parenleftsuperior" unicode="&#x207d;" horiz-adv-x="532" 
d="M281 1014q0 -200 190 -352l-82 -107q-279 168 -279 460t279 460l82 -109q-190 -152 -190 -352z" />
    <glyph glyph-name="parenrightsuperior" unicode="&#x207e;" horiz-adv-x="532" 
d="M422 1015q0 -292 -279 -460l-82 107q191 152 191 352t-191 352l82 109q279 -168 279 -460z" />
    <glyph glyph-name="zeroinferior" unicode="&#x2080;" horiz-adv-x="843" 
d="M565 348q0 113 -39 170t-102 57q-62 0 -104 -58t-42 -168t38 -167t102 -57q147 0 147 223zM733 351q0 -165 -84 -265t-228 -100t-227 100t-83 265t83 265t226 100t228 -100t85 -265z" />
    <glyph glyph-name="oneinferior" unicode="&#x2081;" horiz-adv-x="843" 
d="M578 0h-166v508l-150 -96l-80 116l267 174h129v-702z" />
    <glyph glyph-name="twoinferior" unicode="&#x2082;" horiz-adv-x="843" 
d="M670 0h-492v121q316 253 316 366q0 41 -26 66t-79 25t-143 -78l-82 98q96 119 250 119q102 -1 171 -63t69 -173t-115 -225q-74 -74 -131 -119h262v-137z" />
    <glyph glyph-name="threeinferior" unicode="&#x2083;" horiz-adv-x="843" 
d="M680 211q0 -105 -74 -167t-220 -62t-224 88l78 108q88 -55 148 -55q60 1 91 25t31 57q0 61 -46 75t-102 13h-40v129h28q98 0 131 33q17 16 17 46q0 31 -27 53t-70 21q-74 0 -145 -61l-84 98q88 104 252 105q102 1 170 -57t68 -148q0 -49 -25 -94t-74 -58q57 -6 87 -52
t30 -97z" />
    <glyph glyph-name="fourinferior" unicode="&#x2084;" horiz-adv-x="843" 
d="M471 266v223l-158 -223h158zM717 131h-86v-131h-160v131h-342v113l340 458h162v-436h86v-135z" />
    <glyph glyph-name="fiveinferior" unicode="&#x2085;" horiz-adv-x="843" 
d="M428 463q108 1 176 -61t68 -172t-76 -178q-76 -67 -211 -66q-66 0 -144 29t-87 59l75 106q63 -55 150 -55q123 0 123 100q0 106 -127 107q-63 0 -115 -35l-57 37v368h432v-141h-277v-108q31 10 70 10z" />
    <glyph glyph-name="sixinferior" unicode="&#x2086;" horiz-adv-x="843" 
d="M537 234q0 50 -30 80t-77 30t-79 -31t-32 -79t31 -81q31 -32 79 -32t78 32t30 81zM692 236q0 -110 -74 -183q-74 -71 -198 -71t-202 96q-77 96 -77 265t84 271t230 103q63 0 137 -25t86 -53l-68 -107q-72 47 -147 48q-145 0 -168 -166q59 68 161 68t170 -68
q66 -68 66 -178z" />
    <glyph glyph-name="seveninferior" unicode="&#x2087;" horiz-adv-x="843" 
d="M172 565v137h512v-116l-268 -586h-180l276 565h-340z" />
    <glyph glyph-name="eightinferior" unicode="&#x2088;" horiz-adv-x="843" 
d="M541 209q0 90 -118 90t-118 -90q0 -43 31 -68t87 -25t87 26q31 24 31 67zM520 504q0 36 -26 58t-71 22q-46 0 -72 -23t-25 -57q0 -82 97 -82t97 82zM705 216q0 -112 -78 -174q-78 -60 -203 -60t-204 60t-79 171t103 154q-82 39 -82 137t72 155q73 57 188 57
q114 0 188 -56q74 -58 74 -154t-90 -137q111 -41 111 -153z" />
    <glyph glyph-name="nineinferior" unicode="&#x2089;" horiz-adv-x="843" 
d="M524 462q0 50 -30 83q-31 33 -79 33t-78 -34t-30 -83t30 -79t77 -30t79 30q31 30 31 80zM702 356q0 -170 -82 -272t-229 -102q-63 0 -126 21t-99 54l70 111q72 -47 145 -47q145 0 168 164q-55 -68 -159 -68t-170 67q-66 68 -66 178t74 182t198 73q125 0 201 -95
q75 -96 75 -266z" />
    <glyph glyph-name="parenleftinferior" unicode="&#x208d;" horiz-adv-x="532" 
d="M281 354q0 -200 190 -352l-82 -106q-279 168 -279 460t279 459l82 -108q-190 -153 -190 -353z" />
    <glyph glyph-name="parenrightinferior" unicode="&#x208e;" horiz-adv-x="532" 
d="M422 356q0 -292 -279 -460l-82 106q191 152 191 352t-191 353l82 108q279 -167 279 -459z" />
    <glyph glyph-name="franc" unicode="&#x20a3;" horiz-adv-x="1677" 
d="M1520 649q-184 0 -283 -145v-504h-276v850h235v-127q8 16 44 48t118 70t151 38q69 -1 95 -11l41 -16l-64 -209q-25 6 -61 6zM961 1133h-529v-283h438v-229h-438v-621h-287v1366h816v-233z" />
    <glyph glyph-name="lira" unicode="&#x20a4;" 
d="M950 438h-323q-12 -139 -84 -200h653v-238h-1040v219q186 23 196 219h-190v185h186q-20 119 -20 120h-166v185h153q0 221 130 346t341 125t353 -105q50 -37 73 -65l-135 -166q-131 102 -254 102q-123 -1 -177 -67t-60 -170h364v-185h-354q0 -8 22 -120h332v-185z" />
    <glyph glyph-name="peseta" unicode="&#x20a7;" horiz-adv-x="2908" 
d="M2806 297q0 -150 -108 -238t-292 -88q-102 0 -219 35t-172 80l94 176l50 -25q114 -57 213 -57q156 0 155 99q0 41 -33 63q-57 39 -152 71q-96 32 -189 101q-93 68 -93 208t109 227t287 87q98 0 181 -22t118 -45l34 -23l-90 -170q-127 64 -213 65t-119 -27t-33 -59
q1 -56 49 -80l37 -18q20 -9 52 -21q260 -90 311 -212q23 -53 23 -127zM1362 385v393h-174v230h174v280h276v-280h287v-230h-287v-403q0 -73 14 -109q26 -64 113 -63q53 0 127 24l70 -190q-31 -25 -109 -45q-77 -20 -145 -21q-170 0 -260 90q-57 57 -72 126q-14 69 -14 198z
M530 731q182 -1 234 51t51 154q0 170 -130 194q-48 8 -142 9h-113v-408h100zM1108 944q0 -188 -121 -307q-86 -86 -188 -112t-262 -25h-107v-500h-285v1366h385q178 0 284 -23t183 -100q111 -111 111 -299z" />
    <glyph glyph-name="Euro" unicode="&#x20ac;" 
d="M799 -33q-121 0 -219 43q-98 42 -154 102t-104 152q-49 92 -56 174h-153v185h137q-2 31 -2 63t2 57h-137v185h151q12 83 58 172q45 90 99 149t153 105t201 45q102 0 195 -23t158 -70q64 -47 75 -59l22 -24l-129 -156q-37 30 -43 33q-7 4 -27 17q-88 56 -190 57
q-183 3 -250 -112q-43 -75 -54 -134h439v-185h-459q-2 -25 -2 -57l2 -63h459v-185h-434q13 -103 73 -165q29 -31 85 -55t130 -23q158 0 277 98l131 -164q-162 -162 -434 -162z" />
    <glyph glyph-name="afii61289" unicode="&#x2113;" horiz-adv-x="1024" 
d="M788 1214q0 90 -47 91q-23 0 -47 -26q-74 -82 -162 -597q256 287 256 532zM442 138q0 -64 37 -64q53 0 105 110q16 37 41 37t25 -39t-54 -114q-76 -96 -148 -96t-108 47q-37 47 -37 127t21 266q-84 -78 -98 -78t-22 10q-9 10 -9 26t44 55q44 38 99 103q84 442 182 652
t221 209q59 1 95 -45t34 -121q0 -178 -131 -394q-73 -118 -229 -278q-68 -349 -68 -413z" />
    <glyph glyph-name="afii61352" unicode="&#x2116;" horiz-adv-x="2236" 
d="M1604 1004q0 -98 49 -158t125 -62q76 0 120 58t44 156t-48 160t-125 62t-121 -58q-44 -60 -44 -158zM1777 1399q169 1 273 -109t104 -284t-108 -288t-279 -114q-170 0 -273 110t-103 284t108 288q109 113 278 113zM1227 0h-248l-576 911l7 -911h-265v1366h263l561 -905
l-6 905h264v-1366z" />
    <glyph glyph-name="trademark" unicode="&#x2122;" horiz-adv-x="1722" 
d="M694 1217h-209v-576h-180v576h-211v149h600v-149zM1628 641h-170l-35 434l-141 -434h-143l-146 434l-28 -434h-162l67 725h183l166 -477l155 477h185z" />
    <glyph glyph-name="uni2126" unicode="&#x2126;" horiz-adv-x="1703" 
d="M1559 0h-598v199q88 39 139 88q139 141 139 377t-106 364q-107 129 -281 129t-280 -129t-107 -348q0 -106 27 -194q26 -88 58 -134q32 -47 80 -86t66 -47l47 -20v-199h-598v238h234l-30 26q-29 26 -68 86t-53 96q-50 121 -50 269q0 305 186 494t488 189q301 0 487 -188
q186 -190 187 -495q0 -112 -25 -197q-41 -142 -98 -203q-57 -62 -76 -77h232v-238z" />
    <glyph glyph-name="estimated" unicode="&#x212e;" horiz-adv-x="1634" 
d="M1298 686v371q0 25 -20 45q-188 192 -458 192t-464 -198q-20 -20 -20 -47v-363q0 -10 12 -10h940q10 0 10 10zM1575 637h-1227q-12 0 -12 -8v-371q0 -20 18 -43q190 -201 465 -201q143 0 269 60t219 166h110q-104 -123 -263 -195t-337 -72q-313 0 -535 200
q-222 199 -222 481t222 482t535 200t536 -200q222 -200 222 -481v-18z" />
    <glyph glyph-name="onethird" unicode="&#x2153;" horiz-adv-x="1687" 
d="M1524 211q0 -105 -74 -167t-220 -62t-224 88l77 108q89 -55 149 -55q60 1 91 25t31 57q0 60 -46 74t-102 14h-41v129h29q98 0 131 33q16 16 16 46q-1 31 -27 53t-69 21q-74 0 -145 -61l-84 98q86 104 252 105q102 1 170 -57t67 -148q-1 -49 -25 -94t-73 -58q57 -6 87 -52
t30 -97zM1374 1346l-938 -1436l-141 96l938 1434zM578 664h-166v507l-150 -96l-80 117l267 174h129v-702z" />
    <glyph glyph-name="twothirds" unicode="&#x2154;" horiz-adv-x="1687" 
d="M1524 211q0 -105 -74 -167t-220 -62t-224 88l77 108q89 -55 149 -55q60 1 91 25t31 57q0 60 -46 74t-102 14h-41v129h29q98 0 131 33q16 16 16 46q-1 31 -27 53t-69 21q-74 0 -145 -61l-84 98q86 104 252 105q102 1 170 -57t67 -148q-1 -49 -25 -94t-73 -58q57 -6 87 -52
t30 -97zM1374 1346l-938 -1436l-141 96l938 1434zM676 664h-492v120q316 253 316 367q0 41 -26 66t-78 25t-144 -79l-82 99q96 119 250 118q102 0 171 -62t69 -173t-115 -225q-74 -74 -131 -119h262v-137z" />
    <glyph glyph-name="oneeighth" unicode="&#x215b;" horiz-adv-x="1687" 
d="M1384 209q0 90 -118 90t-117 -90q0 -43 31 -68t87 -25t87 25q30 25 30 68zM1364 504q0 36 -26 58t-72 22t-71 -23q-26 -23 -26 -57q-1 -82 97 -82t98 82zM1548 216q0 -112 -78 -174q-78 -60 -202 -60t-204 60q-79 60 -79 171t102 154q-81 39 -81 137t72 155q73 57 188 57
q114 0 188 -56q74 -58 74 -154t-90 -137q110 -41 110 -153zM1374 1346l-938 -1436l-141 96l938 1434zM578 664h-166v507l-150 -96l-80 117l267 174h129v-702z" />
    <glyph glyph-name="threeeighths" unicode="&#x215c;" horiz-adv-x="1687" 
d="M1384 209q0 90 -118 90t-117 -90q0 -43 31 -68t87 -25t87 25q30 25 30 68zM1364 504q0 36 -26 58t-72 22t-71 -23q-26 -23 -26 -57q-1 -82 97 -82t98 82zM1548 216q0 -112 -78 -174q-78 -60 -202 -60t-204 60q-79 60 -79 171t102 154q-81 39 -81 137t72 155q73 57 188 57
q114 0 188 -56q74 -58 74 -154t-90 -137q110 -41 110 -153zM1374 1346l-938 -1436l-141 96l938 1434zM680 874q0 -104 -74 -166t-220 -62t-224 87l78 109q88 -56 148 -56t91 25t31 57q0 62 -46 76q-46 12 -102 12h-40v129h28q98 0 131 33q17 16 17 46t-27 53t-70 22
q-74 0 -145 -61l-84 98q86 104 252 104q102 0 170 -57t68 -147q0 -48 -25 -94t-74 -58q57 -6 87 -52t30 -98z" />
    <glyph glyph-name="fiveeighths" unicode="&#x215d;" horiz-adv-x="1687" 
d="M1384 209q0 90 -118 90t-117 -90q0 -43 31 -68t87 -25t87 25q30 25 30 68zM1364 504q0 36 -26 58t-72 22t-71 -23q-26 -23 -26 -57q-1 -82 97 -82t98 82zM1548 216q0 -112 -78 -174q-78 -60 -202 -60t-204 60q-79 60 -79 171t102 154q-81 39 -81 137t72 155q73 57 188 57
q114 0 188 -56q74 -58 74 -154t-90 -137q110 -41 110 -153zM1374 1346l-938 -1436l-141 96l938 1434zM428 1126q108 0 176 -62t68 -172t-76 -176t-211 -67q-66 0 -143 30t-88 58l75 107q63 -55 150 -56q123 0 123 101q0 106 -127 106q-63 0 -115 -34l-57 36v369h432v-141
h-277v-109q31 10 70 10z" />
    <glyph glyph-name="seveneighths" unicode="&#x215e;" horiz-adv-x="1687" 
d="M1384 209q0 90 -118 90t-117 -90q0 -43 31 -68t87 -25t87 25q30 25 30 68zM1364 504q0 36 -26 58t-72 22t-71 -23q-26 -23 -26 -57q-1 -82 97 -82t98 82zM1548 216q0 -112 -78 -174q-78 -60 -202 -60t-204 60q-79 60 -79 171t102 154q-81 39 -81 137t72 155q73 57 188 57
q114 0 188 -56q74 -58 74 -154t-90 -137q110 -41 110 -153zM1374 1346l-938 -1436l-141 96l938 1434zM172 1229v137h512v-117l-268 -585h-180l276 565h-340z" />
    <glyph glyph-name="partialdiff" unicode="&#x2202;" horiz-adv-x="1277" 
d="M848 657q0 57 -6 101q-68 45 -180 45t-175 -81t-63 -219t55 -219t151 -81q96 -1 158 113q60 114 60 341zM1133 700q1 -340 -133 -536t-360 -197q-226 1 -360 147t-134 378t130 389q131 156 349 155q117 0 206 -45q0 100 -77 192q-78 91 -222 91q-53 0 -130 -25t-134 -63
l-108 186q76 59 184 98q108 38 199 37q279 -1 435 -201t155 -606z" />
    <glyph glyph-name="uni2206" unicode="&#x2206;" horiz-adv-x="1478" 
d="M987 227l-256 756l-256 -756h512zM1333 0h-1188l471 1366h244z" />
    <glyph glyph-name="product" unicode="&#x220f;" horiz-adv-x="1611" 
d="M1466 1130h-159v-1130h-291v1130h-420v-1130h-291v1130h-160v236h1321v-236z" />
    <glyph glyph-name="summation" unicode="&#x2211;" horiz-adv-x="1175" 
d="M1030 0h-885v193l344 499l-344 477v197h885v-236h-516l297 -423l-324 -471h543v-236z" />
    <glyph glyph-name="minus" unicode="&#x2212;" horiz-adv-x="1320" 
d="M1221 424h-1121v229h1121v-229z" />
    <glyph glyph-name="radical" unicode="&#x221a;" horiz-adv-x="1685" 
d="M1540 1438l-543 -1438h-258l-284 725l-240 -82l-70 207l478 164l254 -668l432 1174z" />
    <glyph glyph-name="infinity" unicode="&#x221e;" horiz-adv-x="1714" 
d="M482 692q-56 0 -93 -34t-37 -86t38 -87t91 -34q89 0 198 91q11 9 26 19l12 12q-56 57 -143 101q-36 18 -92 18zM1364 579q0 54 -39 89t-100 34q-100 0 -226 -124q156 -117 236 -117q55 0 92 32t37 86zM1243 893q143 0 235 -87t91 -223q-1 -135 -99 -231t-237 -96
q-72 0 -138 27t-91 44t-45 30t-53 44q-33 30 -46 41q-197 -197 -379 -196q-135 0 -235 95t-100 227t96 224t239 93q184 0 377 -178q186 186 385 186z" />
    <glyph glyph-name="integral" unicode="&#x222b;" horiz-adv-x="1198" 
d="M866 1280q-54 0 -91 -38q-38 -38 -38 -146v-1145q0 -119 -20 -195t-86 -141q-92 -92 -266 -92q-99 0 -184 37q-30 12 -36 20l74 193q59 -23 113 -23t91 38q38 38 38 146v1145q0 119 20 195t86 141q92 92 267 92q98 0 183 -37q30 -12 36 -20l-74 -193q-59 23 -113 23z" />
    <glyph glyph-name="approxequal" unicode="&#x2248;" 
d="M455 319q-81 0 -148 -92l-145 101q10 19 18 29q8 9 20 25q46 66 120 97t153 31q78 0 209 -58t175 -58t63 10q18 12 33 20t26 23l37 42l141 -108q-125 -178 -287 -178q-88 0 -224 58t-191 58zM455 686q-81 0 -140 -84l-8 -8l-145 100q13 25 20 32l18 24q46 66 142 106
q135 54 340 -38q131 -58 175 -58t62 11q19 11 28 16t23 19l17 17q5 5 29 33l141 -108q-125 -178 -287 -179q-88 1 -224 59t-191 58z" />
    <glyph glyph-name="notequal" unicode="&#x2260;" horiz-adv-x="1320" 
d="M1221 244h-619l-131 -201l-154 98l62 103h-279v229h412l80 131h-492v230h625l127 194l156 -98l-58 -96h271v-230h-404l-80 -131h484v-229z" />
    <glyph glyph-name="lessequal" unicode="&#x2264;" horiz-adv-x="1320" 
d="M1198 0h-1077v221h1077v-221zM1200 494l-90 -205l-989 450v179l989 450l90 -213l-723 -328z" />
    <glyph glyph-name="greaterequal" unicode="&#x2265;" horiz-adv-x="1320" 
d="M1200 0h-1077v221h1077v-221zM1200 739l-989 -450l-90 205l723 333l-723 328l90 213l989 -450v-179z" />
    <glyph glyph-name="lozenge" unicode="&#x25ca;" horiz-adv-x="1355" 
d="M948 682l-274 414l-262 -414l262 -408zM1210 682l-446 -682h-182l-437 682l437 684h182z" />
    <glyph glyph-name="Euro.fitted" unicode="&#xe002;" horiz-adv-x="1187" 
d="M729 -33q-121 0 -219 43q-98 42 -154 102t-104 154q-49 94 -55 172h-154v185h137q-2 31 -2 63t2 57h-137v185h152q13 86 57 174q45 88 99 147q53 59 153 105t202 45q179 0 290 -57q103 -51 159 -119l-129 -156q-28 24 -39 31q-11 6 -31 19q-88 56 -190 57
q-184 3 -250 -112q-45 -77 -53 -134h438v-185h-459q-2 -25 -2 -57l2 -63h459v-185h-434q13 -102 74 -165q29 -31 85 -55t130 -23q158 0 276 98l131 -164q-162 -162 -434 -162z" />
    <glyph glyph-name="Dotaccent" unicode="&#xefed;" horiz-adv-x="856" 
d="M571 1606q0 -60 -42 -102t-101 -42t-101 42t-42 102t42 101q42 42 101 42t101 -42t42 -101z" />
    <glyph glyph-name="Breve" unicode="&#xefee;" horiz-adv-x="856" 
d="M428 1462q-137 0 -219 86t-86 232h184q12 -129 121 -129t121 129h184q-4 -146 -86 -232t-219 -86z" />
    <glyph glyph-name="Ogonek" unicode="&#xeff1;" horiz-adv-x="856" 
d="M436 -459q-108 1 -168 63t-59 167q0 135 137 225l146 -43q-102 -68 -125 -107t-23 -80q0 -42 29 -73t78 -31t78 14q31 14 49 22q18 9 20 9l49 -98q-103 -68 -211 -68z" />
    <glyph glyph-name="Cedilla" unicode="&#xeff2;" horiz-adv-x="856" 
d="M403 -197q-45 0 -90 -22l-67 37l28 182h123l-10 -92q31 6 41 6q86 0 140 -48t53 -132q0 -84 -66 -138q-65 -54 -165 -54t-157 50l46 91q47 -31 105 -31t81 26t22 56q0 69 -84 69z" />
    <glyph glyph-name="Tilde" unicode="&#xeff5;" horiz-adv-x="856" 
d="M534 1475q-46 1 -115 33t-93 32q-66 0 -136 -70l-10 -8l-121 121q18 25 44 53t92 71q65 42 119 42t123 -32t102 -31q62 0 137 75l121 -121l-25 -28q-8 -8 -21 -22t-27 -26t-30 -26q-76 -64 -160 -63z" />
    <glyph glyph-name="Circumflex" unicode="&#xeff7;" horiz-adv-x="856" 
d="M776 1589l-92 -129l-256 146l-254 -144l-92 140l346 258z" />
    <glyph glyph-name="parenleft.dnom" unicode="&#xf62c;" horiz-adv-x="532" 
d="M281 354q0 -200 190 -352l-82 -106q-279 168 -279 460t279 459l82 -108q-190 -153 -190 -353z" />
    <glyph glyph-name="parenright.dnom" unicode="&#xf62d;" horiz-adv-x="532" 
d="M422 356q0 -292 -279 -460l-82 106q191 152 191 352t-191 353l82 108q279 -167 279 -459z" />
    <glyph glyph-name="parenleft.numr" unicode="&#xf631;" horiz-adv-x="532" 
d="M281 1014q0 -200 190 -352l-82 -107q-279 168 -279 460t279 460l82 -109q-190 -152 -190 -352z" />
    <glyph glyph-name="parenright.numr" unicode="&#xf632;" horiz-adv-x="532" 
d="M422 1015q0 -292 -279 -460l-82 107q191 152 191 352t-191 352l82 109q279 -168 279 -460z" />
    <glyph glyph-name="zero.fitted" unicode="&#xf639;" horiz-adv-x="1323" 
d="M944 682q0 236 -76 360t-206 123q-130 0 -207 -126q-78 -125 -78 -359t75 -356q74 -122 206 -121q132 -1 209 121t77 358zM1229 682q0 -326 -152 -520t-416 -195q-263 0 -415 195q-152 194 -152 520t154 522t412 195q258 0 414 -196q155 -195 155 -521z" />
    <glyph glyph-name="two.fitted" unicode="&#xf63a;" horiz-adv-x="1114" 
d="M1020 0h-965v211q233 186 465 418q184 184 185 332q-1 90 -59 145t-154 55q-147 0 -314 -145l-145 168q11 22 68 68t110 74q137 74 324 73q188 0 321 -118t133 -314q0 -135 -57 -239q-58 -104 -190 -236t-296 -254h574v-238z" />
    <glyph glyph-name="three.fitted" unicode="&#xf63b;" horiz-adv-x="1116" 
d="M1022 403q0 -197 -143 -317t-392 -119q-133 0 -245 38t-153 68q-40 30 -56 48l129 182q12 -10 65 -40q107 -60 236 -60t197 53q68 54 67 130q0 76 -29 118q-58 82 -292 82h-60v227h33q73 0 105 1q32 0 86 18t94 57t38 107q0 68 -60 118q-60 49 -159 49q-143 0 -290 -110
l-138 161q184 184 473 185q199 0 328 -108t129 -277q0 -102 -60 -196t-159 -109q120 -15 188 -103t68 -203z" />
    <glyph glyph-name="four.fitted" unicode="&#xf63c;" horiz-adv-x="1216" 
d="M713 494v528l-363 -528h363zM1153 264h-168v-264h-272v264h-664v199l651 903h285v-872h168v-230z" />
    <glyph glyph-name="five.fitted" unicode="&#xf63d;" horiz-adv-x="1148" 
d="M598 911q203 1 330 -121t127 -336q1 -214 -147 -350t-404 -137q-127 0 -260 48t-181 108l132 180l18 -12q18 -10 43 -25t89 -38t144 -23q127 1 204 65t77 176t-70 178q-70 67 -213 66q-93 0 -189 -48l-26 -15l-90 55v684h828v-233h-566v-242q41 20 154 20z" />
    <glyph glyph-name="six.fitted" unicode="&#xf63e;" horiz-adv-x="1222" 
d="M885 460q0 112 -65 178q-66 66 -172 67q-106 0 -176 -69q-70 -70 -69 -180q0 -110 70 -180t175 -70t171 72q66 70 66 182zM1149 463q0 -213 -141 -354t-380 -141t-386 186q-148 188 -148 514t160 529q160 202 440 202q209 0 352 -83q52 -30 72 -50l-119 -185
q-133 88 -297 88t-253 -106q-88 -106 -95 -287q48 76 144 120t192 44q203 0 331 -132t128 -345z" />
    <glyph glyph-name="seven.fitted" unicode="&#xf63f;" horiz-adv-x="1089" 
d="M33 1128v238h1014v-219l-533 -1147h-307l536 1128h-710z" />
    <glyph glyph-name="eight.fitted" unicode="&#xf640;" horiz-adv-x="1236" 
d="M622 199q124 0 190 56t67 145q0 90 -67 144q-66 54 -192 54t-193 -53t-67 -143t69 -146q69 -57 193 -57zM622 813q102 0 160 50q56 50 56 127t-58 127t-158 50q-102 0 -161 -52t-59 -126t58 -125q60 -51 162 -51zM1143 393q-1 -199 -143 -313t-380 -113q-238 0 -381 115
q-144 115 -145 313q0 111 58 200t161 120q-88 31 -132 109t-44 173q0 182 132 291t348 109q217 0 351 -109t134 -289q0 -104 -47 -180t-129 -104q104 -35 160 -120t57 -202z" />
    <glyph glyph-name="nine.fitted" unicode="&#xf641;" horiz-adv-x="1222" 
d="M819 910q0 110 -69 180q-70 70 -176 70t-171 -72q-65 -70 -65 -182t64 -178t172 -66q106 0 176 68q69 70 69 180zM1128 698q0 -326 -160 -529q-160 -202 -440 -202q-208 0 -351 83q-48 28 -73 50l119 185q133 -88 298 -88t253 106t94 287q-47 -76 -143 -120t-193 -44
q-202 0 -330 132t-128 345t141 354t380 141t386 -186q147 -188 147 -514z" />
    <glyph glyph-name="zero.taboldstyle" unicode="&#xf643;" 
d="M952 546q0 151 -84 250t-213 99t-209 -102q-80 -101 -80 -259t86 -254q85 -96 222 -96q138 0 208 106t70 256zM86 544q0 254 159 408t415 154t415 -156q158 -156 158 -410q0 -253 -160 -412q-159 -159 -413 -159t-414 161t-160 414z" />
    <glyph glyph-name="one.taboldstyle" unicode="&#xf644;" 
d="M907 0h-282v780l-254 -166l-127 174l446 291h217v-1079z" />
    <glyph glyph-name="two.taboldstyle" unicode="&#xf645;" 
d="M1081 0h-882v188q59 41 211 160t248 216q96 96 98 174q0 78 -46 114t-114 35q-106 0 -254 -125l-145 156q29 38 98 88q135 100 319 100t304 -95t118 -249q0 -154 -143 -299q-82 -82 -295 -242h483v-221z" />
    <glyph glyph-name="three.taboldstyle" unicode="&#xf646;" 
d="M1071 154q0 -188 -133 -304t-367 -116q-117 0 -245 43t-179 108l127 170q142 -104 268 -104t190 55q64 56 65 130q0 74 -42 118q-41 44 -97 59q-56 14 -160 15h-56v213h45q172 0 246 73q39 41 39 107t-55 116t-131 50t-151 -33t-128 -86l-141 158q55 68 171 124
q117 56 288 56t291 -104t120 -267q0 -94 -56 -179t-169 -114q129 -25 195 -102t65 -186z" />
    <glyph glyph-name="four.taboldstyle" unicode="&#xf647;" 
d="M731 236v526l-342 -526h342zM1200 29h-201v-287h-268v287h-620v180l600 870h288v-843h201v-207z" />
    <glyph glyph-name="five.taboldstyle" unicode="&#xf648;" 
d="M782 20q64 70 64 164t-47 165q-25 38 -77 63t-124 24q-111 0 -213 -74l-92 58v659h778v-215h-524v-246q53 27 143 27q190 0 311 -119q121 -120 121 -326t-139 -336t-383 -130q-119 0 -223 38t-138 64t-55 45l125 172q127 -102 268 -102q141 -1 205 69z" />
    <glyph glyph-name="six.taboldstyle" unicode="&#xf649;" 
d="M686 190q96 0 156 70t61 182q0 111 -59 178q-58 66 -156 66t-163 -69t-65 -177t66 -180q64 -70 160 -70zM725 903q190 -1 312 -127t122 -331t-133 -341q-134 -136 -360 -135t-365 181t-139 492t152 508q152 194 414 194q263 0 405 -132l-115 -178q-144 92 -266 92
t-198 -58t-108 -140q-31 -82 -34 -187q43 80 132 121t181 41z" />
    <glyph glyph-name="seven.taboldstyle" unicode="&#xf64a;" 
d="M162 856v223h952v-219l-493 -1118h-289l512 1114h-682z" />
    <glyph glyph-name="eight.taboldstyle" unicode="&#xf64b;" 
d="M907 385q0 84 -64 139q-65 56 -183 56t-182 -54t-64 -139q0 -84 66 -142q66 -59 183 -59q118 0 181 58t63 141zM868 951q0 73 -55 124t-151 51t-153 -52q-56 -52 -56 -124t56 -123q55 -51 153 -51t152 51t54 124zM1157 379q0 -190 -135 -300t-360 -110t-363 111
q-137 111 -137 301q0 109 57 193t170 112q-94 29 -140 104t-46 168q0 174 125 278q126 104 330 105q204 0 332 -104t128 -276q0 -211 -188 -275q227 -71 227 -307z" />
    <glyph glyph-name="nine.taboldstyle" unicode="&#xf64c;" 
d="M858 636q0 108 -64 178t-161 71q-97 0 -157 -71q-60 -72 -60 -182t59 -176t157 -67q98 0 162 69q64 70 64 178zM652 1106q226 0 366 -180q139 -180 139 -494q1 -312 -151 -506t-415 -194t-405 131l115 178q145 -92 266 -92t198 58t107 140q31 82 35 187
q-43 -80 -132 -121t-181 -41q-190 0 -312 127t-122 332t133 340t359 135z" />
    <glyph glyph-name="Euro.taboldstyle" unicode="&#xf64e;" 
d="M786 -33q-121 0 -219 43q-98 42 -153 102t-105 155t-55 171h-154v185h138q-2 31 -2 63t2 57h-138v185h152q13 86 57 174q45 88 99 147t154 105q98 46 200 45q102 0 196 -22t158 -70t75 -60t21 -24l-129 -156q-28 24 -39 31q-10 6 -30 19q-86 56 -190 57q-182 3 -250 -112
q-42 -72 -54 -134h438v-185h-458q-2 -25 -2 -57l2 -63h458v-185h-434q13 -102 74 -165q29 -31 85 -55t130 -23q158 0 277 98l131 -164q-162 -162 -435 -162z" />
    <glyph glyph-name="florin.taboldstyle" unicode="&#xf64f;" 
d="M1069 1161q-86 0 -117 -50t-61 -202l-31 -153h293l-49 -228h-293l-104 -546q-51 -268 -136 -353q-106 -106 -264 -106t-282 78l81 202q175 -71 244 -2q39 39 72 205l106 522h-254l45 228h259l36 194q29 145 55 219t72 121q109 109 267 109t288 -74l-77 -201
q-111 37 -150 37z" />
    <glyph glyph-name="sterling.taboldstyle" unicode="&#xf651;" 
d="M804 1165q-118 0 -181 -65q-61 -66 -62 -185q0 -45 14 -159h398v-228h-373q4 -25 4 -47q0 -168 -86 -243h653v-238h-1040v219q199 25 199 252q0 8 -6 57h-187v228h164q-12 106 -12 159q0 225 129 355t358 129q144 0 250 -51t162 -119l-135 -166q-131 102 -249 102z" />
    <glyph glyph-name="yen.taboldstyle" unicode="&#xf652;" 
d="M1092 760v-185h-293v-126h293v-185h-295v-264h-275v264h-309v185h307v126h-307v185h203l-326 606h295l289 -592l289 592h266l-334 -606h197z" />
    <glyph glyph-name="dollar.taboldstyle" unicode="&#xf653;" 
d="M1139 393q0 -173 -113 -283t-272 -133v-178h-195v172q-106 10 -218 55t-159 99l127 197q1 0 13 -8t23 -15q11 -6 31 -17q126 -71 267 -71q82 0 142 45q61 46 61 112t-38 104t-216 112t-258 151q-109 109 -109 267q1 158 103 258q102 98 231 124v175h195v-162
q104 -6 212 -50t162 -98l-131 -186q-56 43 -137 73q-181 66 -293 -11q-57 -40 -57 -95t31 -86q31 -30 123 -68q278 -113 376 -212q99 -99 99 -271z" />
    <glyph glyph-name="cent.taboldstyle" unicode="&#xf654;" 
d="M834 -225h-183v211q-180 24 -303 162t-123 356t128 360q128 141 298 170v215h183v-209q74 -8 159 -43t115 -75l-111 -170q-98 70 -220 70q-123 0 -199 -94q-76 -93 -76 -221t70 -214t191 -86q120 0 225 57q26 14 30 17l106 -177q-34 -34 -122 -71q-89 -37 -168 -47v-211z
" />
    <glyph glyph-name="zero.dnom" unicode="&#xf655;" horiz-adv-x="843" 
d="M565 348q0 113 -39 170t-102 57q-62 0 -104 -58t-42 -168t38 -167t102 -57q147 0 147 223zM733 351q0 -165 -84 -265t-228 -100t-227 100t-83 265t83 265t226 100t228 -100t85 -265z" />
    <glyph glyph-name="one.dnom" unicode="&#xf656;" horiz-adv-x="843" 
d="M578 0h-166v508l-150 -96l-80 116l267 174h129v-702z" />
    <glyph glyph-name="two.dnom" unicode="&#xf657;" horiz-adv-x="843" 
d="M670 0h-492v121q316 253 316 366q0 41 -26 66t-79 25t-143 -78l-82 98q96 119 250 119q102 -1 171 -63t69 -173t-115 -225q-74 -74 -131 -119h262v-137z" />
    <glyph glyph-name="three.dnom" unicode="&#xf658;" horiz-adv-x="843" 
d="M680 211q0 -105 -74 -167t-220 -62t-224 88l78 108q88 -55 148 -55q60 1 91 25t31 57q0 61 -46 75t-102 13h-40v129h28q98 0 131 33q17 16 17 46q0 31 -27 53t-70 21q-74 0 -145 -61l-84 98q88 104 252 105q102 1 170 -57t68 -148q0 -49 -25 -94t-74 -58q57 -6 87 -52
t30 -97z" />
    <glyph glyph-name="four.dnom" unicode="&#xf659;" horiz-adv-x="843" 
d="M471 266v223l-158 -223h158zM717 131h-86v-131h-160v131h-342v113l340 458h162v-436h86v-135z" />
    <glyph glyph-name="five.dnom" unicode="&#xf65a;" horiz-adv-x="843" 
d="M428 463q108 1 176 -61t68 -172t-76 -178q-76 -67 -211 -66q-66 0 -144 29t-87 59l75 106q63 -55 150 -55q123 0 123 100q0 106 -127 107q-63 0 -115 -35l-57 37v368h432v-141h-277v-108q31 10 70 10z" />
    <glyph glyph-name="six.dnom" unicode="&#xf65b;" horiz-adv-x="843" 
d="M537 234q0 50 -30 80t-77 30t-79 -31t-32 -79t31 -81q31 -32 79 -32t78 32t30 81zM692 236q0 -110 -74 -183q-74 -71 -198 -71t-202 96q-77 96 -77 265t84 271t230 103q63 0 137 -25t86 -53l-68 -107q-72 47 -147 48q-145 0 -168 -166q59 68 161 68t170 -68
q66 -68 66 -178z" />
    <glyph glyph-name="seven.dnom" unicode="&#xf65c;" horiz-adv-x="843" 
d="M172 565v137h512v-116l-268 -586h-180l276 565h-340z" />
    <glyph glyph-name="eight.dnom" unicode="&#xf65d;" horiz-adv-x="843" 
d="M541 209q0 90 -118 90t-118 -90q0 -43 31 -68t87 -25t87 26q31 24 31 67zM520 504q0 36 -26 58t-71 22q-46 0 -72 -23t-25 -57q0 -82 97 -82t97 82zM705 216q0 -112 -78 -174q-78 -60 -203 -60t-204 60t-79 171t103 154q-82 39 -82 137t72 155q73 57 188 57
q114 0 188 -56q74 -58 74 -154t-90 -137q111 -41 111 -153z" />
    <glyph glyph-name="nine.dnom" unicode="&#xf65e;" horiz-adv-x="843" 
d="M524 462q0 50 -30 83q-31 33 -79 33t-78 -34t-30 -83t30 -79t77 -30t79 30q31 30 31 80zM702 356q0 -170 -82 -272t-229 -102q-63 0 -126 21t-99 54l70 111q72 -47 145 -47q145 0 168 164q-55 -68 -159 -68t-170 67q-66 68 -66 178t74 182t198 73q125 0 201 -95
q75 -96 75 -266z" />
    <glyph glyph-name="zero.numr" unicode="&#xf661;" horiz-adv-x="843" 
d="M565 1012q0 113 -39 170t-102 57q-62 0 -104 -58t-42 -168t38 -167t102 -58q147 1 147 224zM733 1015q0 -165 -84 -265t-228 -100t-227 100t-83 265t83 265t226 100t228 -100t85 -265z" />
    <glyph glyph-name="one.numr" unicode="&#xf662;" horiz-adv-x="843" 
d="M578 664h-166v507l-150 -96l-80 117l267 174h129v-702z" />
    <glyph glyph-name="two.numr" unicode="&#xf663;" horiz-adv-x="843" 
d="M670 664h-492v120q316 253 316 367q0 41 -26 66t-79 25t-143 -79l-82 99q96 119 250 118q102 0 171 -62t69 -173t-115 -225q-74 -74 -131 -119h262v-137z" />
    <glyph glyph-name="three.numr" unicode="&#xf664;" horiz-adv-x="843" 
d="M680 874q0 -104 -74 -166t-220 -62t-224 87l78 109q88 -56 148 -56t91 25t31 57q0 62 -46 76q-46 12 -102 12h-40v129h28q98 0 131 33q17 16 17 46t-27 53t-70 22q-74 0 -145 -61l-84 98q86 104 252 104q102 0 170 -57t68 -147q0 -48 -25 -94t-74 -58q57 -6 87 -52
t30 -98z" />
    <glyph glyph-name="four.numr" unicode="&#xf665;" horiz-adv-x="843" 
d="M471 930v223l-158 -223h158zM717 795h-86v-131h-160v131h-342v112l340 459h162v-436h86v-135z" />
    <glyph glyph-name="five.numr" unicode="&#xf666;" horiz-adv-x="843" 
d="M428 1126q108 0 176 -62t68 -172t-76 -176t-211 -67q-66 0 -143 30t-88 58l75 107q63 -55 150 -56q123 0 123 101q0 106 -127 106q-63 0 -115 -34l-57 36v369h432v-141h-277v-109q31 10 70 10z" />
    <glyph glyph-name="six.numr" unicode="&#xf667;" horiz-adv-x="843" 
d="M537 897q0 49 -30 80t-77 31t-79 -31t-32 -80t31 -81t79 -32t78 32t30 81zM456 1145q102 0 170 -68q66 -69 66 -179t-74 -182t-198 -71q-124 0 -202 96q-77 96 -77 265q0 170 84 272t230 102q63 0 136 -24t87 -53l-68 -107q-72 47 -147 47q-145 0 -168 -166q59 68 161 68
z" />
    <glyph glyph-name="seven.numr" unicode="&#xf668;" horiz-adv-x="843" 
d="M172 1229v137h512v-117l-268 -585h-180l276 565h-340z" />
    <glyph glyph-name="eight.numr" unicode="&#xf669;" horiz-adv-x="843" 
d="M541 872q0 90 -118 90t-118 -90q0 -44 31 -68t87 -24t87 24t31 68zM520 1167q0 37 -25 59q-26 22 -72 22t-72 -24q-26 -22 -25 -57q0 -82 97 -82t97 82zM705 878q0 -112 -78 -172t-203 -60t-204 60t-79 170t103 154q-82 39 -82 137t72 156q73 57 188 57q114 0 188 -57
t74 -153t-90 -138q111 -42 111 -154z" />
    <glyph glyph-name="nine.numr" unicode="&#xf66a;" horiz-adv-x="843" 
d="M307 1124q0 -48 30 -78t77 -30q46 0 78 30t32 79q0 50 -30 83q-31 33 -79 33t-78 -34t-30 -83zM702 1020q0 -170 -82 -272t-229 -103q-63 0 -129 23t-96 53l70 110q70 -47 145 -47q145 0 168 164q-55 -68 -159 -68t-170 68q-66 66 -66 176t73 184q74 72 199 72
q124 0 200 -95t76 -265z" />
    <glyph glyph-name="Acute" unicode="&#xf6c9;" horiz-adv-x="856" 
d="M707 1655l-474 -195l-83 150l452 252z" />
    <glyph glyph-name="Caron" unicode="&#xf6ca;" horiz-adv-x="856" 
d="M80 1731l92 129l256 -146l254 144l92 -140l-346 -258z" />
    <glyph glyph-name="Dieresis" unicode="&#xf6cb;" horiz-adv-x="856" 
d="M373 1606q0 -60 -42 -102q-41 -42 -101 -42t-102 42t-42 102t42 101q42 42 101 42t101 -42t43 -101zM772 1606q0 -60 -42 -102t-101 -42t-102 42q-42 42 -42 102t42 101q41 42 101 42t102 -42t42 -101z" />
    <glyph glyph-name="Grave" unicode="&#xf6ce;" horiz-adv-x="856" 
d="M623 1460l-473 195l104 207l453 -252z" />
    <glyph glyph-name="Hungarumlaut" unicode="&#xf6cf;" horiz-adv-x="856" 
d="M446 1819l-163 -359l-195 66l123 375zM768 1819l-160 -359l-194 66l123 375z" />
    <glyph glyph-name="Macron" unicode="&#xf6d0;" horiz-adv-x="856" 
d="M784 1462h-712v230h712v-230z" />
    <glyph glyph-name="one.fitted" unicode="&#xf6dc;" horiz-adv-x="882" 
d="M737 0h-286v1030l-301 -199l-132 201l498 334h221v-1366z" />
    <glyph glyph-name="Lslashsmall" unicode="&#xf6f9;" horiz-adv-x="1032" 
d="M940 0h-704v344l-95 -68l-131 170l226 160v473h282v-293l131 93l123 -174l-254 -179v-309h422v-217z" />
    <glyph glyph-name="OEsmall" unicode="&#xf6fa;" horiz-adv-x="1581" 
d="M756 207v663h-19q-180 0 -275 -91t-95 -248q0 -234 180 -300q57 -20 92 -22t100 -2h17zM1479 0h-707q-305 0 -420 65q-61 34 -119 91q-147 150 -147 376t152 377q117 117 272 144q155 26 340 26h616v-213h-438v-209h412v-208h-412v-232h451v-217z" />
    <glyph glyph-name="Scaronsmall" unicode="&#xf6fd;" horiz-adv-x="980" 
d="M838 1436l-346 -258l-349 270l93 129l256 -145l253 143zM887 308q0 -142 -120 -240t-308 -99q-111 0 -227 38t-175 99l121 177q152 -95 248 -95t139 33t43 77t-26 70t-178 82q-153 56 -216 119q-90 90 -90 223q0 134 116 224t292 90q106 0 198 -32t126 -56q32 -24 51 -41
l-127 -170q-123 88 -234 88q-70 0 -110 -28q-40 -27 -41 -63q0 -36 21 -58t98 -49q236 -86 317 -167q82 -80 82 -222z" />
    <glyph glyph-name="Zcaronsmall" unicode="&#xf6ff;" horiz-adv-x="1058" 
d="M883 1436l-346 -258l-349 270l93 129l256 -145l254 143zM956 0h-854v180l500 686h-477v213h815v-190l-485 -672h501v-217z" />
    <glyph glyph-name="ampersandsmall" unicode="&#xf726;" horiz-adv-x="1251" 
d="M544 182q100 0 148 39l-243 254q-31 -14 -44 -27l-22 -22q-8 -8 -13 -18l-11 -22q-11 -24 -11 -70t48 -90t148 -44zM655 839q-1 35 -23 57t-74 22t-79 -30t-27 -68t70 -111q2 0 18 9l28 15q87 47 87 106zM94 322q0 188 213 301q-102 102 -102 194q0 129 105 209
q106 80 252 80t244 -72t97 -194q0 -65 -31 -117q-41 -79 -191 -148q-24 -10 -28 -12l187 -190q53 57 61 219h207q0 -96 -31 -199t-86 -160q70 -47 152 -47v-192l-45 -4q-76 0 -135 18t-77 30t-48 38q-126 -106 -314 -106t-309 100t-121 252z" />
    <glyph glyph-name="zerooldstyle" unicode="&#xf730;" horiz-adv-x="1251" 
d="M661 895q-129 0 -209 -102q-80 -101 -79 -259q0 -158 85 -254t222 -96q138 0 208 106t70 256q0 151 -84 250t-213 99zM92 544q0 254 159 408t416 154t415 -156t157 -410q0 -253 -160 -412q-159 -159 -413 -159t-414 161t-160 414z" />
    <glyph glyph-name="oneoldstyle" unicode="&#xf731;" horiz-adv-x="847" 
d="M705 0h-283v780l-254 -166l-127 174l446 291h218v-1079z" />
    <glyph glyph-name="twooldstyle" unicode="&#xf732;" horiz-adv-x="1007" 
d="M936 0h-883v188q59 41 211 160t249 216q97 96 97 174t-46 114t-113 35q-106 0 -254 -125l-146 156q28 36 98 87q137 101 319 101q183 0 303 -95t120 -249t-143 -299q-82 -82 -295 -242h483v-221z" />
    <glyph glyph-name="threeoldstyle" unicode="&#xf733;" horiz-adv-x="1030" 
d="M938 154q0 -188 -133 -304t-367 -116q-117 0 -245 43t-179 108l127 170q143 -104 269 -104t190 55q64 56 64 130t-42 118t-98 59q-55 14 -159 15h-56v213h45q172 0 246 73q39 41 39 107t-55 116t-131 50t-151 -33t-128 -86l-141 158q55 68 171 124q117 56 288 56
t291 -104t120 -267q0 -94 -56 -179t-169 -114q128 -25 194 -102t66 -186z" />
    <glyph glyph-name="fouroldstyle" unicode="&#xf734;" horiz-adv-x="1200" 
d="M682 236v526l-342 -526h342zM1151 29h-201v-287h-268v287h-621v180l601 870h288v-843h201v-207z" />
    <glyph glyph-name="fiveoldstyle" unicode="&#xf735;" horiz-adv-x="1071" 
d="M989 200q0 -206 -139 -336t-383 -130q-119 0 -223 38t-138 64t-55 45l125 172l17 -12q14 -10 21 -14t42 -28t97 -36q61 -12 106 -12q125 -1 189 69t65 162q0 92 -47 167q-25 38 -77 63t-124 24q-111 0 -213 -74l-92 58v659h778v-215h-524v-246q53 27 143 27
q190 0 311 -119q121 -120 121 -326z" />
    <glyph glyph-name="sixoldstyle" unicode="&#xf736;" horiz-adv-x="1202" 
d="M637 190q97 0 157 70t60 182q0 111 -59 178q-59 66 -157 66t-162 -69t-64 -177t64 -180q64 -70 161 -70zM676 903q190 -1 312 -127t122 -331t-133 -341t-359 -135t-366 181q-139 180 -139 492q-1 312 151 508q152 194 415 194t404 -132l-114 -178q-145 92 -267 92
t-198 -58t-107 -140t-35 -187q42 80 132 121t182 41z" />
    <glyph glyph-name="sevenoldstyle" unicode="&#xf737;" horiz-adv-x="1042" 
d="M25 856v223h952v-219l-494 -1118h-288l512 1114h-682z" />
    <glyph glyph-name="eightoldstyle" unicode="&#xf738;" horiz-adv-x="1179" 
d="M838 385q0 84 -65 139q-65 56 -183 56t-182 -54t-64 -139q0 -84 66 -142q66 -59 184 -59t180 58q64 58 64 141zM592 776q98 0 152 51t55 124t-55 124t-152 51t-152 -52t-57 -124q0 -72 56 -123q55 -51 153 -51zM1087 379q0 -190 -135 -300t-360 -110t-363 111
q-137 111 -137 301q0 109 58 193t169 112q-94 29 -140 104t-46 168q0 174 125 278t330 105q205 0 333 -104t128 -276q0 -211 -189 -275q227 -71 227 -307z" />
    <glyph glyph-name="nineoldstyle" unicode="&#xf739;" horiz-adv-x="1181" 
d="M791 636q0 108 -65 178t-161 71q-96 0 -156 -71q-61 -72 -61 -182t60 -176t156 -67q97 0 162 69q65 70 65 178zM584 1106q226 0 366 -180t140 -494q0 -312 -152 -506t-415 -194t-404 131l114 178q145 -92 267 -92t198 58t107 140t35 187q-43 -80 -132 -121t-182 -41
q-190 0 -312 127t-122 332t133 340t359 135z" />
    <glyph glyph-name="Asmall" unicode="&#xf761;" horiz-adv-x="1173" 
d="M707 420l-127 368l-127 -368h254zM1149 0h-289l-76 219h-405l-76 -219h-278l419 1079h283z" />
    <glyph glyph-name="Bsmall" unicode="&#xf762;" horiz-adv-x="1067" 
d="M709 332q0 51 -28 79q-28 27 -63 33t-122 7h-95v-242h113q123 0 159 36t36 87zM498 639q120 0 152 33t32 85t-33 85t-139 32h-109v-235h97zM985 332q0 -139 -92 -226q-53 -50 -129 -74t-132 -28t-159 -4h-336v1079h385q119 0 201 -18t141 -78q88 -88 88 -207
q0 -186 -170 -221q203 -38 203 -223z" />
    <glyph glyph-name="Csmall" unicode="&#xf763;" horiz-adv-x="1124" 
d="M646 -31q-238 0 -400 152q-160 153 -160 413t169 416t419 156t397 -148l-123 -172q-123 90 -258 90t-226 -90q-91 -92 -91 -244t84 -245q84 -94 221 -94q96 0 188 46q36 16 97 52l116 -178q-195 -154 -433 -154z" />
    <glyph glyph-name="Dsmall" unicode="&#xf764;" horiz-adv-x="1241" 
d="M874 548q0 235 -180 300q-57 20 -92 22t-100 2h-88v-663h90q180 0 275 91t95 248zM1155 549q0 -227 -151 -379q-116 -116 -275 -143t-338 -27h-254v1079h332q305 0 420 -64q61 -34 119 -91q147 -148 147 -375z" />
    <glyph glyph-name="Esmall" unicode="&#xf765;" horiz-adv-x="964" 
d="M862 0h-725v1079h713v-213h-438v-209h411v-208h-411v-232h450v-217z" />
    <glyph glyph-name="Fsmall" unicode="&#xf766;" horiz-adv-x="933" 
d="M838 866h-426v-209h405v-208h-405v-449h-275v1079h701v-213z" />
    <glyph glyph-name="Gsmall" unicode="&#xf767;" horiz-adv-x="1191" 
d="M655 -31q-245 0 -407 151q-162 150 -162 412t169 418t418 156t396 -148l-123 -172q-123 90 -259 90t-228 -90q-92 -92 -92 -246t82 -246q82 -93 231 -93q66 0 131 16v154h-207v207h471v-490q-213 -119 -420 -119z" />
    <glyph glyph-name="Hsmall" unicode="&#xf768;" horiz-adv-x="1204" 
d="M1067 0h-283v449h-364v-449h-283v1079h283v-407h364v407h283v-1079z" />
    <glyph glyph-name="Ismall" unicode="&#xf769;" horiz-adv-x="557" 
d="M420 0h-283v1079h283v-1079z" />
    <glyph glyph-name="Jsmall" unicode="&#xf76a;" horiz-adv-x="755" 
d="M631 393q0 -82 -3 -126t-25 -105q-70 -193 -318 -193q-156 0 -265 82l95 182q86 -37 130 -37q43 0 73 30t30 145v708h283v-686z" />
    <glyph glyph-name="Ksmall" unicode="&#xf76b;" horiz-adv-x="1150" 
d="M420 0h-283v1079h283v-499l364 499h316l-402 -524l422 -555h-342l-358 496v-496z" />
    <glyph glyph-name="Lsmall" unicode="&#xf76c;" horiz-adv-x="933" 
d="M842 0h-705v1079h283v-862h422v-217z" />
    <glyph glyph-name="Msmall" unicode="&#xf76d;" horiz-adv-x="1562" 
d="M1450 0h-268l-56 662l-239 -662h-228l-243 659l-49 -659h-254l106 1079h293l272 -717l260 717h291z" />
    <glyph glyph-name="Nsmall" unicode="&#xf76e;" horiz-adv-x="1204" 
d="M1067 0h-236l-440 653l6 -653h-260v1079h256l420 -635l-6 635h260v-1079z" />
    <glyph glyph-name="Osmall" unicode="&#xf76f;" 
d="M946 546q0 148 -83 246t-209 97t-204 -101t-77 -254q0 -154 84 -248t217 -96q132 0 202 104t70 252zM86 544q0 254 159 408t415 154t415 -156q158 -156 158 -410q0 -253 -160 -412q-159 -159 -413 -159t-414 161t-160 414z" />
    <glyph glyph-name="Psmall" unicode="&#xf770;" horiz-adv-x="1060" 
d="M692 731q0 68 -36 104t-173 35h-71v-280h61q145 0 182 36t37 105zM969 738q0 -144 -99 -242q-70 -70 -158 -94t-212 -23h-88v-379h-275v1079h338q145 0 239 -18t160 -84q95 -95 95 -239z" />
    <glyph glyph-name="Qsmall" unicode="&#xf771;" horiz-adv-x="1335" 
d="M946 546q0 148 -83 246t-209 97t-204 -101t-77 -254q0 -154 84 -248t217 -96q132 0 202 104t70 252zM86 547q0 251 159 405t415 154t415 -157q158 -157 158 -402q0 -123 -37 -223q-64 -174 -218 -269q-62 -39 -128 -55q66 -39 174 -39t190 16l35 -176q-103 -31 -253 -31
t-270 51q-120 50 -216 169q-149 28 -279 154q-66 65 -105 169q-40 104 -40 234z" />
    <glyph glyph-name="Rsmall" unicode="&#xf772;" horiz-adv-x="1081" 
d="M668 750q0 59 -30 89t-157 29h-69v-252h77q103 0 141 38t38 96zM426 416h-14v-416h-275v1079h309q104 0 150 -2q46 -1 124 -25q79 -24 130 -75q92 -93 92 -207t-59 -185t-176 -89q68 -4 108 -61t65 -110t29 -61l131 -264h-299l-135 287q-57 115 -107 125q-22 4 -73 4z
" />
    <glyph glyph-name="Ssmall" unicode="&#xf773;" horiz-adv-x="980" 
d="M887 308q0 -142 -120 -240t-308 -99q-111 0 -227 38t-175 99l121 177q152 -95 248 -95t139 33t43 77t-26 70t-178 82q-153 56 -216 119q-90 90 -90 223q0 134 116 224t292 90q106 0 198 -32t126 -56q32 -24 51 -41l-127 -170q-123 88 -234 88q-70 0 -110 -28
q-40 -27 -41 -63q0 -36 21 -58t98 -49q236 -86 317 -167q82 -80 82 -222z" />
    <glyph glyph-name="Tsmall" unicode="&#xf774;" horiz-adv-x="1005" 
d="M952 866h-307v-866h-283v866h-309v213h899v-213z" />
    <glyph glyph-name="Usmall" unicode="&#xf775;" horiz-adv-x="1175" 
d="M1051 446q0 -246 -95 -340q-137 -137 -367 -137t-362 131q-68 68 -85 150t-17 223v606h283v-680q0 -111 45 -155t136 -45q91 0 146 55q27 27 34 75t7 167v583h275v-633z" />
    <glyph glyph-name="Vsmall" unicode="&#xf776;" horiz-adv-x="1177" 
d="M1130 1079l-409 -1079h-266l-408 1079h291l254 -751l260 751h278z" />
    <glyph glyph-name="Wsmall" unicode="&#xf777;" horiz-adv-x="1628" 
d="M1556 1079l-278 -1079h-283l-176 721l-190 -721h-283l-274 1079h280l144 -702l188 702h281l180 -700l151 700h260z" />
    <glyph glyph-name="Xsmall" unicode="&#xf778;" horiz-adv-x="1134" 
d="M1092 0h-306l-223 348l-225 -348h-295l379 557l-356 522h309l203 -321l210 321h291l-360 -518z" />
    <glyph glyph-name="Ysmall" unicode="&#xf779;" horiz-adv-x="1097" 
d="M690 0h-282v434l-367 645h293l229 -430l228 430h266l-367 -645v-434z" />
    <glyph glyph-name="Zsmall" unicode="&#xf77a;" horiz-adv-x="1058" 
d="M956 0h-854v180l500 686h-477v213h815v-190l-485 -672h501v-217z" />
    <glyph glyph-name="Agravesmall" unicode="&#xf7e0;" horiz-adv-x="1173" 
d="M868 1327l-84 -149l-473 194l105 207zM707 420l-127 368l-127 -368h254zM1149 0h-289l-76 219h-405l-76 -219h-278l419 1079h283z" />
    <glyph glyph-name="Aacutesmall" unicode="&#xf7e1;" horiz-adv-x="1173" 
d="M852 1372l-473 -194l-84 149l453 252zM707 420l-127 368l-127 -368h254zM1149 0h-289l-76 219h-405l-76 -219h-278l419 1079h283z" />
    <glyph glyph-name="Acircumflexsmall" unicode="&#xf7e2;" horiz-adv-x="1173" 
d="M928 1307l-92 -129l-256 145l-254 -143l-93 139l347 258zM707 420l-127 368l-127 -368h254zM1149 0h-289l-76 219h-405l-76 -219h-278l419 1079h283z" />
    <glyph glyph-name="Atildesmall" unicode="&#xf7e3;" horiz-adv-x="1173" 
d="M471 1280q-57 0 -135 -78l-121 121q18 25 44 53q25 28 91 71q66 42 120 42t123 -32t101 -32q61 0 137 76l121 -121q-127 -159 -260 -166q-49 0 -118 33t-103 33zM707 420l-127 368l-127 -368h254zM1149 0h-289l-76 219h-405l-76 -219h-278l419 1079h283z" />
    <glyph glyph-name="Adieresissmall" unicode="&#xf7e4;" horiz-adv-x="1173" 
d="M524 1366q0 -59 -42 -101t-101 -42t-101 42t-42 101t42 101t101 42t101 -42t42 -101zM924 1366q0 -59 -42 -101t-102 -42t-101 42q-42 42 -42 101t42 101t101 42q60 0 102 -42t42 -101zM707 420l-127 368l-127 -368h254zM1149 0h-289l-76 219h-405l-76 -219h-278
l419 1079h283z" />
    <glyph glyph-name="Aringsmall" unicode="&#xf7e5;" horiz-adv-x="1173" 
d="M674 1382q0 39 -28 67t-66 28t-67 -28q-28 -28 -28 -67q0 -38 28 -66t67 -28q38 0 66 28t28 66zM805 1380q0 -92 -66 -158q-65 -66 -157 -67q-92 0 -159 67q-67 66 -67 158t67 158t159 66t158 -66t65 -158zM707 420l-127 368l-127 -368h254zM1149 0h-289l-76 219h-405
l-76 -219h-278l419 1079h283z" />
    <glyph glyph-name="AEsmall" unicode="&#xf7e6;" horiz-adv-x="1628" 
d="M801 428v432l-252 -432h252zM1526 0h-725v225h-367l-135 -225h-274l684 1079h804v-213h-438v-209h412v-208h-412v-232h451v-217z" />
    <glyph glyph-name="Ccedillasmall" unicode="&#xf7e7;" horiz-adv-x="1124" 
d="M696 -197q-45 0 -90 -22l-67 37l24 157q-189 19 -333 163t-144 400t169 412t419 156t397 -148l-123 -172q-123 90 -258 90t-226 -90q-91 -92 -91 -244t84 -245q84 -94 221 -94q96 0 188 46q36 16 97 52l116 -178q-89 -75 -192 -114q-99 -33 -199 -38l-8 -63q31 6 41 6
q86 0 139 -48t53 -132q1 -84 -65 -138t-166 -54t-156 50l45 91q47 -31 105 -31t82 26q23 26 22 56q0 69 -84 69z" />
    <glyph glyph-name="Egravesmall" unicode="&#xf7e8;" horiz-adv-x="964" 
d="M780 1327l-84 -149l-473 194l105 207zM862 0h-725v1079h713v-213h-438v-209h411v-208h-411v-232h450v-217z" />
    <glyph glyph-name="Eacutesmall" unicode="&#xf7e9;" horiz-adv-x="964" 
d="M776 1372l-473 -194l-84 149l453 252zM862 0h-725v1079h713v-213h-438v-209h411v-208h-411v-232h450v-217z" />
    <glyph glyph-name="Ecircumflexsmall" unicode="&#xf7ea;" horiz-adv-x="964" 
d="M834 1317l-93 -129l-256 145l-254 -143l-92 139l346 258zM862 0h-725v1079h713v-213h-438v-209h411v-208h-411v-232h450v-217z" />
    <glyph glyph-name="Edieresissmall" unicode="&#xf7eb;" horiz-adv-x="964" 
d="M440 1366q0 -59 -42 -101t-101 -42t-101 42t-42 101t42 101t101 42t101 -42t42 -101zM840 1366q0 -59 -42 -101t-102 -42t-101 42q-42 42 -42 101t42 101t101 42q60 0 102 -42t42 -101zM862 0h-725v1079h713v-213h-438v-209h411v-208h-411v-232h450v-217z" />
    <glyph glyph-name="Igravesmall" unicode="&#xf7ec;" horiz-adv-x="557" 
d="M557 1327l-84 -149l-473 194l104 207zM420 0h-283v1079h283v-1079z" />
    <glyph glyph-name="Iacutesmall" unicode="&#xf7ed;" horiz-adv-x="557" 
d="M557 1372l-473 -194l-84 149l453 252zM420 0h-283v1079h283v-1079z" />
    <glyph glyph-name="Icircumflexsmall" unicode="&#xf7ee;" horiz-adv-x="557" 
d="M625 1311l-93 -129l-256 145l-253 -143l-93 139l346 258zM420 0h-283v1079h283v-1079z" />
    <glyph glyph-name="Idieresissmall" unicode="&#xf7ef;" horiz-adv-x="557" 
d="M221 1370q0 -59 -42 -101t-101 -42t-102 42q-42 42 -42 101t42 101t102 42t101 -42q42 -42 42 -101zM621 1370q0 -59 -42 -101q-41 -42 -101 -42t-102 42t-42 101t42 101t101 42t101 -42t43 -101zM420 0h-283v1079h283v-1079z" />
    <glyph glyph-name="Ethsmall" unicode="&#xf7f0;" horiz-adv-x="1329" 
d="M592 209q180 0 276 91t95 248q0 234 -181 300q-57 20 -92 22t-100 2h-88v-221h270v-196h-270v-246h90zM1243 548q0 -226 -151 -378q-116 -116 -275 -143t-338 -27h-254v455h-164v196h164v428h332q305 0 420 -64q61 -34 119 -91q147 -150 147 -376z" />
    <glyph glyph-name="Ntildesmall" unicode="&#xf7f1;" horiz-adv-x="1204" 
d="M479 1280q-57 0 -135 -78l-121 121q18 25 44 53q25 28 91 71q66 42 120 42t123 -32t93 -32q66 0 117 51q8 7 17 15t12 10l121 -121l-25 -28l-22 -22q-102 -110 -214 -116q-50 0 -118 33t-103 33zM1067 0h-236l-440 653l6 -653h-260v1079h256l420 -635l-6 635h260v-1079z
" />
    <glyph glyph-name="Ogravesmall" unicode="&#xf7f2;" 
d="M950 1327l-84 -149l-473 194l105 207zM946 546q0 148 -83 246t-209 97t-204 -101t-77 -254q0 -154 84 -248t217 -96q132 0 202 104t70 252zM86 544q0 254 159 408t415 154t415 -156q158 -156 158 -410q0 -253 -160 -412q-159 -159 -413 -159t-414 161t-160 414z" />
    <glyph glyph-name="Oacutesmall" unicode="&#xf7f3;" 
d="M936 1372l-473 -194l-84 149l452 252zM946 546q0 148 -83 246t-209 97t-204 -101t-77 -254q0 -154 84 -248t217 -96q132 0 202 104t70 252zM86 544q0 254 159 408t415 154t415 -156q158 -156 158 -410q0 -253 -160 -412q-159 -159 -413 -159t-414 161t-160 414z" />
    <glyph glyph-name="Ocircumflexsmall" unicode="&#xf7f4;" 
d="M1008 1307l-93 -129l-256 145l-253 -143l-93 139l346 258zM946 546q0 148 -83 246t-209 97t-204 -101t-77 -254q0 -154 84 -248t217 -96q132 0 202 104t70 252zM86 544q0 254 159 408t415 154t415 -156q158 -156 158 -410q0 -253 -160 -412q-159 -159 -413 -159t-414 161
t-160 414z" />
    <glyph glyph-name="Otildesmall" unicode="&#xf7f5;" 
d="M768 1425q61 0 137 76l121 -121q-16 -20 -24 -28l-22 -22q-12 -14 -26 -26t-31 -26q-71 -60 -157 -64q-49 0 -118 33t-103 33q-57 0 -135 -78l-121 121q18 25 44 53q25 28 91 71q66 42 120 42t123 -32t101 -32zM946 546q0 148 -83 246t-209 97t-204 -101t-77 -254
q0 -154 84 -248t217 -96q132 0 202 104t70 252zM86 544q0 254 159 408t415 154t415 -156q158 -156 158 -410q0 -253 -160 -412q-159 -159 -413 -159t-414 161t-160 414z" />
    <glyph glyph-name="Odieresissmall" unicode="&#xf7f6;" 
d="M604 1366q0 -59 -42 -101t-101 -42t-102 42q-42 42 -42 101t42 101q41 42 101 42t102 -42t42 -101zM1004 1366q0 -59 -42 -101t-102 -42t-101 42q-42 42 -42 101t42 101t101 42q60 0 102 -42t42 -101zM946 546q0 148 -83 246t-209 97t-204 -101t-77 -254q0 -154 84 -248
t217 -96q132 0 202 104t70 252zM86 544q0 254 159 408t415 154t415 -156q158 -156 158 -410q0 -253 -160 -412q-159 -159 -413 -159t-414 161t-160 414z" />
    <glyph glyph-name="Oslashsmall" unicode="&#xf7f8;" 
d="M373 532q0 -98 47 -192l323 534q-43 14 -92 15q-123 -1 -201 -101t-77 -256zM946 526q0 130 -49 219l-324 -542q20 -12 93 -13q140 0 210 104q70 102 70 232zM1233 551q0 -264 -160 -423t-411 -159q-94 0 -209 33l-82 -137l-183 102l88 135q-49 39 -95 106
q-95 137 -95 339q0 251 159 405t414 154q117 0 199 -31l74 131l182 -102l-74 -123q193 -166 193 -430z" />
    <glyph glyph-name="Ugravesmall" unicode="&#xf7f9;" horiz-adv-x="1175" 
d="M862 1327l-84 -149l-473 194l105 207zM1051 446q0 -246 -95 -340q-137 -137 -367 -137t-362 131q-68 68 -85 150t-17 223v606h283v-680q0 -111 45 -155t136 -45q91 0 146 55q27 27 34 75t7 167v583h275v-633z" />
    <glyph glyph-name="Uacutesmall" unicode="&#xf7fa;" horiz-adv-x="1175" 
d="M872 1372l-473 -194l-84 149l453 252zM1051 446q0 -246 -95 -340q-137 -137 -367 -137t-362 131q-68 68 -85 150t-17 223v606h283v-680q0 -111 45 -155t136 -45q91 0 146 55q27 27 34 75t7 167v583h275v-633z" />
    <glyph glyph-name="Ucircumflexsmall" unicode="&#xf7fb;" horiz-adv-x="1175" 
d="M942 1307l-92 -129l-256 145l-254 -143l-92 139l346 258zM1051 446q0 -246 -95 -340q-137 -137 -367 -137t-362 131q-68 68 -85 150t-17 223v606h283v-680q0 -111 45 -155t136 -45q91 0 146 55q27 27 34 75t7 167v583h275v-633z" />
    <glyph glyph-name="Udieresissmall" unicode="&#xf7fc;" horiz-adv-x="1175" 
d="M541 1366q0 -59 -42 -101q-41 -42 -101 -42t-102 42t-42 101t42 101t101 42t101 -42t43 -101zM940 1366q0 -59 -42 -101t-101 -42t-102 42q-42 42 -42 101t42 101q41 42 101 42t102 -42t42 -101zM1051 446q0 -246 -95 -340q-137 -137 -367 -137t-362 131q-68 68 -85 150
t-17 223v606h283v-680q0 -111 45 -155t136 -45q91 0 146 55q27 27 34 75t7 167v583h275v-633z" />
    <glyph glyph-name="Yacutesmall" unicode="&#xf7fd;" horiz-adv-x="1097" 
d="M850 1372l-473 -194l-84 149l452 252zM690 0h-282v434l-367 645h293l229 -430l228 430h266l-367 -645v-434z" />
    <glyph glyph-name="Thornsmall" unicode="&#xf7fe;" horiz-adv-x="1060" 
d="M692 549q0 67 -36 103t-173 36h-71v-280h61q145 0 182 36t37 105zM969 556q0 -144 -99 -243q-70 -69 -158 -93t-212 -23h-88v-197h-275v1079h275v-182h63q145 0 239 -18t160 -84q95 -95 95 -239z" />
    <glyph glyph-name="Ydieresissmall" unicode="&#xf7ff;" horiz-adv-x="1097" 
d="M506 1366q0 -59 -42 -101t-102 -42t-101 42q-42 42 -42 101t42 101t101 42q60 0 102 -42t42 -101zM905 1366q0 -59 -42 -101t-101 -42t-102 42q-42 42 -42 101t42 101t102 42t101 -42q42 -42 42 -101zM690 0h-282v434l-367 645h293l229 -430l228 430h266l-367 -645v-434z
" />
    <glyph glyph-name="Foundry" unicode="&#xf8ff;" horiz-adv-x="1851" 
d="M1540 797q0 254 -180 433t-435 179t-435 -179t-181 -417q0 -238 121 -378q121 -139 252 -197v370h-139v176h139v62q0 112 19 180t73 121q86 86 242 86q70 0 153 -28t95 -56l-90 -154q-16 16 -58 29q-40 12 -76 12q-82 0 -103 -63q-15 -45 -15 -125v-64h254v-176h-254
v-424q258 0 438 180t180 433zM1757 795q0 -344 -243 -584q-242 -240 -588 -240t-589 240t-243 584q0 345 243 585t589 240t588 -240t243 -585z" />
    <glyph glyph-name="Ring" unicode="&#xfff3;" horiz-adv-x="856" 
d="M522 1690q0 38 -28 66t-66 28q-39 0 -67 -28q-27 -28 -27 -66t28 -67q28 -28 66 -28q39 0 67 28q27 28 27 67zM653 1688q1 -92 -65 -159t-158 -67t-159 67t-66 159t67 158t158 65q92 1 158 -65t65 -158z" />
    <glyph glyph-name="dollaroldstyle" horiz-adv-x="1140" 
d="M1049 393q0 -173 -113 -283t-272 -133v-178h-195v172q-106 10 -218 55t-159 99l127 197q2 0 13 -8q10 -8 22 -15q12 -6 32 -17q126 -71 266 -71q82 0 143 45q61 46 61 112t-38 104t-216 112t-258 151q-109 109 -109 267q1 158 103 258q102 98 231 124v175h195v-162
q104 -6 212 -50t162 -98l-131 -186q-56 43 -137 73q-181 66 -293 -11q-57 -40 -57 -95t31 -86q31 -30 123 -68q280 -115 377 -213q98 -98 98 -270z" />
    <glyph glyph-name="centoldstyle" horiz-adv-x="1083" 
d="M700 -225h-182v211q-180 24 -303 162t-123 356t128 360q128 141 298 170v215h182v-209q74 -8 160 -43t115 -75l-111 -170q-98 70 -220 70t-199 -94q-77 -93 -77 -221t72 -214q70 -86 190 -86t197 43l28 14q11 6 22 10l8 7l106 -177q-33 -33 -122 -70q-89 -38 -169 -48
v-211z" />
    <glyph glyph-name="sterlingoldstyle" horiz-adv-x="1241" 
d="M764 1165q-118 0 -180 -65q-61 -66 -62 -185q0 -45 15 -159h397v-228h-373q4 -25 4 -47q0 -168 -86 -243h654v-238h-1041v219q199 25 199 252q0 8 -6 57h-187v228h164q-12 106 -12 159q0 225 129 355t358 129q144 0 250 -51t162 -119l-135 -166q-132 102 -250 102z" />
    <glyph glyph-name="Eurooldstyle" horiz-adv-x="1304" 
d="M778 -33q-121 0 -219 43q-98 42 -153 102t-105 154t-55 172h-154v185h137q-2 31 -2 63t2 57h-137v185h152q13 86 57 174q45 88 99 147t154 105t200 45q230 0 376 -109q49 -37 74 -67l-129 -156q-29 25 -39 31t-30 19q-86 56 -190 57q-185 3 -251 -112q-45 -77 -53 -134
h438v-185h-458q-2 -25 -3 -57l3 -63h458v-185h-434q13 -102 74 -165q29 -31 85 -55t130 -23q158 0 276 98l131 -164q-162 -162 -434 -162z" />
    <glyph glyph-name="florinoldstyle" horiz-adv-x="1312" 
d="M1065 1161q-86 0 -117 -50t-61 -202l-31 -153h293l-49 -228h-293l-105 -546q-51 -268 -135 -353q-106 -106 -264 -106t-283 78l82 202q175 -71 244 -2q39 39 72 205l106 522h-254l45 228h258l37 194q29 145 55 219t72 121q109 109 267 109t288 -74l-78 -201
q-111 37 -149 37z" />
    <glyph glyph-name="yenoldstyle" horiz-adv-x="1323" 
d="M1094 760v-185h-293v-126h293v-185h-295v-264h-275v264h-309v185h307v126h-307v185h203l-326 606h295l289 -592l289 592h266l-334 -606h197z" />
    <glyph glyph-name="germandblssmall" horiz-adv-x="1961" 
d="M1868 308q0 -142 -120 -240t-308 -99q-111 0 -227 38t-175 99l121 177q152 -95 248 -95t139 33t43 77q1 44 -25 70t-179 82t-216 119q-90 90 -90 223q0 134 116 224t292 90q107 0 199 -32t124 -56t52 -41l-127 -170q-123 88 -234 88q-71 0 -111 -28q-40 -27 -40 -63
t21 -58t98 -49q236 -86 317 -167q82 -80 82 -222zM887 308q0 -142 -120 -240t-308 -99q-111 0 -227 38t-175 99l121 177q152 -95 248 -95t139 33t43 77t-26 70t-178 82q-153 56 -216 119q-90 90 -90 223q0 134 116 224t292 90q106 0 198 -32t126 -56q32 -24 51 -41
l-127 -170q-123 88 -234 88q-70 0 -110 -28q-40 -27 -41 -63q0 -36 21 -58t98 -49q236 -86 317 -167q82 -80 82 -222z" />
    <glyph glyph-name="germandbls.small" horiz-adv-x="1961" 
d="M1868 308q0 -142 -120 -240t-308 -99q-111 0 -227 38t-175 99l121 177q152 -95 248 -95t139 33t43 77q1 44 -25 70t-179 82t-216 119q-90 90 -90 223q0 134 116 224t292 90q107 0 199 -32t124 -56t52 -41l-127 -170q-123 88 -234 88q-71 0 -111 -28q-40 -27 -40 -63
t21 -58t98 -49q236 -86 317 -167q82 -80 82 -222zM887 308q0 -142 -120 -240t-308 -99q-111 0 -227 38t-175 99l121 177q152 -95 248 -95t139 33t43 77t-26 70t-178 82q-153 56 -216 119q-90 90 -90 223q0 134 116 224t292 90q106 0 198 -32t126 -56q32 -24 51 -41
l-127 -170q-123 88 -234 88q-70 0 -110 -28q-40 -27 -41 -63q0 -36 21 -58t98 -49q236 -86 317 -167q82 -80 82 -222z" />
    <glyph glyph-name="dotlessismall" horiz-adv-x="557" 
d="M420 0h-283v1079h283v-1079z" />
    <glyph glyph-name="dollar.fitted" horiz-adv-x="1136" 
d="M1034 393q0 -173 -112 -283t-273 -133v-178h-194v172q-106 10 -218 55t-159 99l127 197q2 0 13 -8q10 -8 22 -15q12 -6 31 -17q123 -71 236 -71t174 45q60 46 60 112t-37 104t-217 112t-258 151q-109 109 -109 267t103 258q102 98 232 124v175h194v-162q104 -6 213 -50
t162 -98l-131 -186q-56 44 -138 73q-83 30 -159 30t-133 -41q-57 -40 -57 -95t30 -86q30 -30 123 -68q279 -114 377 -213q98 -98 98 -270z" />
    <glyph glyph-name="cent.fitted" horiz-adv-x="1001" 
d="M674 -225h-182v211q-180 25 -304 162q-122 138 -122 356t128 360q128 141 298 170v215h182v-209q74 -8 159 -43t115 -75l-110 -170q-98 70 -220 70t-199 -94q-77 -93 -77 -221t71 -214t191 -86t224 57q26 14 30 17l107 -177q-33 -33 -123 -71q-89 -37 -168 -47v-211z" />
    <glyph glyph-name="sterling.fitted" horiz-adv-x="1124" 
d="M715 1165q-119 1 -180 -65t-62 -185q0 -45 14 -159h398v-228h-373q4 -25 4 -47q0 -168 -86 -243h653v-238h-1040v219q199 25 199 252q0 8 -6 57h-187v228h164q-12 106 -12 159q0 225 129 355t358 129q144 0 250 -51t162 -119l-135 -166q-131 102 -250 102z" />
    <glyph glyph-name="florin.fitted" horiz-adv-x="1189" 
d="M963 1161q-86 0 -117 -50t-62 -202l-30 -153h293l-50 -228h-292l-105 -546q-51 -268 -135 -353q-106 -106 -264 -106t-283 78l82 202q173 -71 244 -2q39 39 71 205l107 522h-254l45 228h258l37 194q29 145 54 219q26 74 73 121q109 109 267 109t288 -74l-78 -201
q-111 37 -149 37z" />
    <glyph glyph-name="yen.fitted" horiz-adv-x="1200" 
d="M1032 760v-185h-293v-126h293v-185h-295v-264h-274v264h-309v185h307v126h-307v185h202l-325 606h295l288 -592l289 592h266l-333 -606h196z" />
    <glyph glyph-name="commaaccent" horiz-adv-x="856" 
d="M225 -557q139 139 139 301q0 49 -2 59h291q5 -157 -67 -283t-232 -239l-155 139q8 8 24 23h2z" />
    <glyph glyph-name="Commaaccent" horiz-adv-x="856" 
d="M225 -557q139 139 139 301q0 49 -2 59h291q5 -157 -67 -283t-232 -239l-155 139q8 8 24 23h2z" />
    </font>
</defs>
</svg>
