<?xml version="1.0" standalone="no"?>
<!DOCTYPE svg PUBLIC "-//W3C//DTD SVG 1.1//EN" "http://www.w3.org/Graphics/SVG/1.1/DTD/svg11.dtd" >
<svg xmlns="http://www.w3.org/2000/svg">
<metadata>
Created by FontPrep 20130207 at Wed Apr 15 10:44:41 2015
 By Valek, Alan
Copyright (c) The digitally encoded machine readable outline data for producing the typefaces licensed to you is copyrighted (c), 2009 by The Foundry, London. All rights reserved.
</metadata>
<defs>
<font id="fc832ad112ffe0c3181db1d5d168fa76" horiz-adv-x='1024' >
  <font-face 
    font-family="FoundrySterling-BookItalic"
    font-weight="400"
    font-style="italic"
    font-stretch="normal"
    units-per-em="2048"
    panose-1="2 0 5 0 2 0 0 9 0 4"
    ascent="1638"
    descent="-410"
    x-height="983"
    cap-height="1366"
    bbox="-410 -467 2585 1870"
    underline-thickness="102"
    underline-position="-102"
    slope="-11"
    unicode-range="U+000D-FFF3"
  />
<missing-glyph horiz-adv-x="1069" 
d="M518 1257l-237 -1398h559l237 1398h-559zM950 -250h-817l275 1616h817z" />
    <glyph glyph-name="IJ" unicode="IJ" horiz-adv-x="1208" 
d="M907 156q49 66 74 215l168 995h131l-158 -942q-16 -98 -27 -148q-28 -127 -115 -213q-87 -87 -237 -88q-63 0 -132 23t-105 59l63 90q1 0 13 -8q70 -49 173 -49t152 66zM537 1366l-230 -1366h-131l230 1366h131z" />
    <glyph glyph-name="ij" unicode="ij" horiz-adv-x="819" 
d="M352 -467q-113 0 -159 33l-17 10l45 90q49 -24 120 -24t120 49t71 180l189 1112h123l-187 -1098q-12 -67 -18 -97t-30 -82t-60 -89q-84 -84 -197 -84zM920 1315q0 -33 -24 -58t-58 -25t-59 26q-24 24 -23 57q0 33 24 57t58 25q34 -1 58 -25t24 -57zM434 983l-168 -983
h-123l168 983h123zM510 1315q0 -33 -24 -58t-58 -25t-58 26q-24 24 -24 57t24 57t58 25q34 -1 58 -25t24 -57z" />
    <glyph glyph-name="f_j" unicode="fj" horiz-adv-x="1013" 
d="M762 1499q136 0 217 -80l-70 -80q-61 51 -146 51t-143 -58t-88 -216l-22 -133h528l-186 -1098q-12 -67 -18 -97t-30 -82t-61 -89q-84 -84 -199 -84t-155 33l-18 10l45 90q50 -24 120 -24t119 49t72 180l172 1012h-405l-150 -883h-123l150 883h-174l16 100h174l21 123
q10 70 18 106t35 92t67 97q98 98 234 98z" />
    <glyph glyph-name="IJsmall" unicode="&#xf769;&#xf76a;" horiz-adv-x="1064" 
d="M669 88q73 0 115 43t62 162l131 766h127l-123 -729q-17 -106 -37 -164t-67 -105q-82 -82 -209 -81q-74 0 -130 26t-75 47l63 84q70 -49 143 -49zM461 1059l-178 -1059h-127l178 1059h127z" />
    <glyph glyph-name="f_f" unicode="ff" horiz-adv-x="1251" 
d="M754 1499q128 0 176 -43l-56 -92q-47 27 -102 27q-94 -1 -152 -59t-88 -216l-22 -133h405l21 123q10 70 18 106t35 92t68 97q98 98 234 98t216 -80l-69 -80q-60 51 -146 51t-144 -58t-87 -216l-23 -133h316l-17 -100h-315l-150 -883h-122l149 883h-405l-150 -883h-123
l150 883h-174l16 100h174l21 123q10 70 18 106t35 92t67 97q98 98 226 98z" />
    <glyph glyph-name="fi" unicode="fi" horiz-adv-x="1013" 
d="M762 1499q136 0 217 -80l-70 -80q-61 51 -146 51t-143 -58t-88 -216l-22 -133h528l-166 -983h-122l149 883h-405l-150 -883h-123l150 883h-174l16 100h174l21 123q10 70 18 106t35 92t67 97q98 98 234 98z" />
    <glyph glyph-name="fl" unicode="fl" horiz-adv-x="1015" 
d="M754 1499q128 0 176 -43l-56 -92q-47 27 -102 27q-94 -1 -152 -59t-88 -216l-22 -133h405l84 492h123l-250 -1475h-122l149 883h-405l-150 -883h-123l150 883h-174l16 100h174l21 123q10 70 18 106t35 92t67 97q98 98 226 98z" />
    <glyph glyph-name="f_f_i" unicode="ffi" horiz-adv-x="1542" 
d="M754 1499q128 0 176 -43l-56 -92q-47 27 -102 27q-94 -1 -152 -59t-88 -216l-22 -133h405l21 123q10 70 18 106t35 92t68 97q98 98 234 98t216 -80l-69 -80q-60 51 -146 51t-144 -58t-87 -216l-23 -133h529l-166 -983h-123l149 883h-405l-150 -883h-122l149 883h-405
l-150 -883h-123l150 883h-174l16 100h174l21 123q10 70 18 106t35 92t67 97q98 98 226 98z" />
    <glyph glyph-name="f_f_l" unicode="ffl" horiz-adv-x="1544" 
d="M754 1499q128 0 176 -43l-56 -92q-47 27 -102 27q-94 -1 -152 -59t-88 -216l-22 -133h405l21 123q10 70 18 106t35 92t68 97q98 98 225 98t176 -43l-55 -92q-47 27 -103 27q-94 -1 -152 -59t-87 -216l-23 -133h406l84 492h123l-250 -1475h-123l149 883h-405l-150 -883
h-122l149 883h-405l-150 -883h-123l150 883h-174l16 100h174l21 123q10 70 18 106t35 92t67 97q98 98 226 98z" />
    <glyph glyph-name="f_t" unicode="ft" horiz-adv-x="1290" 
d="M907 190q0 -106 121 -106q68 0 132 35q11 6 14 6l40 -88q-227 -112 -367 -12q-67 47 -67 139l23 158l96 561h-405l-150 -883h-123l150 883h-174l16 100h174l21 123q10 70 18 106t35 92t67 97q98 98 226 98t176 -43l-56 -92q-47 27 -102 27q-94 -1 -152 -59t-88 -216
l-22 -133h405l48 279h122l-47 -279h316l-17 -100h-315l-92 -535q-23 -135 -23 -158z" />
    <glyph glyph-name=".notdef" horiz-adv-x="1069" 
d="M518 1257l-237 -1398h559l237 1398h-559zM950 -250h-817l275 1616h817z" />
    <glyph glyph-name=".notdef" horiz-adv-x="1069" 
d="M518 1257l-237 -1398h559l237 1398h-559zM950 -250h-817l275 1616h817z" />
    <glyph glyph-name=".null" horiz-adv-x="0" 
 />
    <glyph glyph-name="nonmarkingreturn" horiz-adv-x="681" 
 />
    <glyph glyph-name="CR" unicode="&#xd;" horiz-adv-x="1040" 
 />
    <glyph glyph-name="space" unicode=" " horiz-adv-x="491" 
 />
    <glyph glyph-name="exclam" unicode="!" horiz-adv-x="593" 
d="M401 76q-1 -39 -27 -66q-26 -26 -65 -26t-65 26t-27 66q0 40 27 66q28 26 66 26t64 -26t27 -66zM604 1366l-194 -1034h-111l147 1034h158z" />
    <glyph glyph-name="quotedbl" unicode="&#x22;" horiz-adv-x="610" 
d="M481 1366l-94 -469h-111l68 469h137zM729 1366l-94 -469h-111l68 469h137z" />
    <glyph glyph-name="numbersign" unicode="#" horiz-adv-x="1159" 
d="M831 950h-202l-76 -241h203zM1169 1059l-32 -109h-187l-76 -241h187l-33 -111h-186l-107 -338h-119l107 338h-203l-106 -338h-119l106 338h-182l33 111h182l76 241h-182l32 109h183l96 307h119l-96 -307h202l97 307h118l-96 -307h186z" />
    <glyph glyph-name="dollar" unicode="$" 
d="M934 389q0 76 -44 129t-126 100l-86 -509q104 9 180 85t76 195zM516 1029q0 -67 18 -93q37 -52 58 -67q20 -15 30 -22l32 -21q22 -13 26 -15l76 446q-106 -11 -188 -103q-52 -58 -52 -125zM385 999q0 154 115 256t274 117l25 152h116l-24 -150q219 -12 315 -141l-84 -78
q-98 98 -250 109l-86 -508q218 -112 265 -221q23 -53 22 -121q0 -170 -116 -286t-300 -136l-32 -197h-117l33 195q-223 10 -353 157l80 84l17 -14q119 -104 274 -115l98 572q-173 99 -216 155q-56 80 -56 170z" />
    <glyph glyph-name="percent" unicode="%" horiz-adv-x="1497" 
d="M1303 449q0 170 -138 169q-142 0 -200 -186q-29 -90 -29 -180q0 -170 135 -170t200 183q32 90 32 184zM1417 465q0 -168 -81 -310q-40 -73 -112 -119t-154 -46q-158 0 -208 91q-41 75 -41 153q-1 78 19 156t60 154q40 75 113 121t165 46q239 0 239 -246zM676 1116
q0 170 -139 170t-199 -186q-29 -90 -29 -180q0 -170 135 -170t200 183q32 89 32 183zM791 1133q0 -163 -81 -311q-40 -73 -112 -119t-155 -46q-159 0 -207 92q-41 75 -41 152q0 165 78 310q40 75 113 121t165 46q240 1 240 -245zM1456 1372l-1218 -1446l-78 60l1218 1450z
" />
    <glyph glyph-name="ampersand" unicode="&#x26;" horiz-adv-x="1359" 
d="M303 334q0 -110 68 -174t188 -64q158 0 332 135l-297 445q-127 -70 -191 -133q-100 -99 -100 -209zM969 1154q0 60 -44 96t-130 36t-160 -66t-74 -156q0 -89 101 -245q42 23 64 33t76 46q167 111 167 256zM1290 719q0 -100 -72 -251t-157 -239q51 -75 99 -99t120 -26
l-16 -104h-15q-100 0 -167 32t-121 107q-190 -164 -426 -164q-173 1 -269 95t-96 246t125 278q76 76 246 168q-113 168 -113 278q0 154 117 252t252 98t221 -58q86 -60 86 -173q0 -236 -371 -416l-16 -8l276 -409q76 86 122 202t59 191h116z" />
    <glyph glyph-name="quotesingle" unicode="'" horiz-adv-x="362" 
d="M481 1366l-94 -469h-111l68 469h137z" />
    <glyph glyph-name="parenleft" unicode="(" horiz-adv-x="739" 
d="M375 360q0 -249 83 -392q40 -70 64 -100t62 -69l-76 -84q-49 37 -68 56q-209 209 -209 568t154 677t434 483l55 -82q-248 -173 -374 -455t-125 -602z" />
    <glyph glyph-name="parenright" unicode=")" horiz-adv-x="739" 
d="M696 876q0 -360 -154 -677t-433 -484l-56 82q248 174 374 456t126 601q0 245 -83 392q-40 69 -63 100q-24 31 -63 69l76 84q49 -37 67 -55q209 -208 209 -568z" />
    <glyph glyph-name="asterisk" unicode="*" horiz-adv-x="913" 
d="M971 1104l-275 -78l142 -227l-115 -68l-125 230l-180 -230l-101 72l195 223l-244 78l51 117l238 -95l41 240h127l-41 -240l242 95z" />
    <glyph glyph-name="plus" unicode="+" 
d="M1114 465h-403v-404h-109v404h-403v108h403v404h109v-404h403v-108z" />
    <glyph glyph-name="comma" unicode="," horiz-adv-x="401" 
d="M365 156q-5 -88 -59 -189q-80 -148 -193 -231l-66 65q59 59 109 155t61 200h148z" />
    <glyph glyph-name="hyphen" unicode="-" horiz-adv-x="1003" 
d="M926 573l-19 -108h-655l18 108h656z" />
    <glyph glyph-name="period" unicode="." horiz-adv-x="442" 
d="M313 76q-1 -39 -27 -66q-26 -26 -65 -26t-65 26t-27 66q0 40 27 66q28 26 66 26t64 -26t27 -66z" />
    <glyph glyph-name="slash" unicode="/" horiz-adv-x="886" 
d="M1042 1366l-901 -1661l-108 49l903 1661z" />
    <glyph glyph-name="zero" unicode="0" 
d="M1092 899q0 106 -23 187q-23 80 -86 138t-166 58q-143 0 -245 -108t-158 -308q-57 -199 -58 -397q0 -383 273 -383q141 0 239 104t161 302t63 407zM1227 907q0 -322 -136 -608q-69 -143 -190 -233t-261 -90t-226 48q-189 109 -193 437q0 255 85 488q46 126 113 223
q67 96 171 158t231 63q203 -1 305 -129t101 -357z" />
    <glyph glyph-name="one" unicode="1" 
d="M969 1366l-230 -1366h-129l205 1212l-371 -221l-57 90l473 285h109z" />
    <glyph glyph-name="two" unicode="2" 
d="M1167 1066q1 -142 -65 -248q-147 -240 -725 -703h665l-20 -115h-829l18 109q354 291 565 501q252 252 252 437q0 97 -69 163t-175 66q-166 0 -327 -129l-68 78q111 111 275 151q66 16 133 17q160 -1 265 -93t105 -234z" />
    <glyph glyph-name="three" unicode="3" 
d="M786 1393q150 0 252 -85q102 -86 103 -230q0 -144 -88 -250t-226 -126q9 -2 25 -5t56 -22t71 -47t55 -83t25 -125q0 -205 -158 -325t-339 -120t-266 58t-108 88l80 84q125 -113 292 -113t264 98q98 98 98 208q1 175 -155 225q-60 18 -105 20t-132 2l17 113h35
q250 0 350 100q78 78 78 192t-72 170t-176 56q-166 0 -316 -125l-67 76q74 79 191 123q116 43 216 43z" />
    <glyph glyph-name="four" unicode="4" 
d="M969 1176l-637 -734h514zM1159 442l-18 -110h-187l-55 -332h-127l55 332h-657l18 106l809 928h131l-155 -924h186z" />
    <glyph glyph-name="five" unicode="5" 
d="M270 211q120 -119 298 -119t290 108t113 275q0 129 -85 203q-84 74 -224 74t-246 -88l-56 38l113 664h731l-18 -111h-604l-72 -438q86 49 192 49q182 0 294 -99t112 -273q0 -226 -150 -372t-372 -147q-115 0 -232 43t-164 109z" />
    <glyph glyph-name="six" unicode="6" 
d="M1028 524q0 117 -60 187t-177 69q-160 0 -270 -126q-109 -126 -109 -272t66 -223t184 -77q166 0 266 136t100 306zM896 1280q-165 0 -284 -123q-82 -84 -137 -218t-67 -206t-17 -127q49 131 161 206t260 75t247 -91q98 -91 98 -261q0 -229 -142 -395t-360 -165
q-166 0 -272 107q-127 128 -127 372t78 453q181 486 579 486q159 0 247 -64q65 -46 85 -76l-78 -79q-106 106 -271 106z" />
    <glyph glyph-name="seven" unicode="7" 
d="M1296 1366l-16 -104l-788 -1262h-148l797 1249h-766l18 117h903z" />
    <glyph glyph-name="eight" unicode="8" 
d="M985 420q0 233 -285 233q-135 0 -238 -90q-104 -89 -104 -231t79 -198t215 -56t234 93q99 93 99 249zM1063 1058q0 118 -69 176q-68 56 -186 56t-216 -87t-98 -226q0 -106 70 -165q72 -58 190 -58t214 93q95 93 95 211zM1192 1088q0 -146 -85 -250t-218 -133
q47 -7 123 -55q46 -28 74 -86t28 -138q0 -211 -139 -331t-346 -120q-164 0 -283 82t-119 244q0 161 92 271t252 133q-96 25 -151 95t-55 173q0 186 141 303q140 117 306 117t273 -80q107 -79 107 -225z" />
    <glyph glyph-name="nine" unicode="9" 
d="M1036 986q0 146 -65 223q-66 77 -185 77q-166 0 -266 -136t-100 -306q0 -117 60 -187t177 -69q159 0 269 126t110 272zM1192 914q0 -244 -78 -453q-181 -486 -579 -486q-159 0 -237 56t-95 84l78 80q106 -107 271 -107t284 123q82 84 137 218t67 206t17 127
q-49 -131 -161 -206t-260 -75t-247 91q-98 91 -98 262q0 229 142 394t360 165q166 0 272 -107q127 -128 127 -372z" />
    <glyph glyph-name="colon" unicode=":" horiz-adv-x="442" 
d="M242 76q0 -39 -27 -66q-27 -26 -65 -26t-66 26q-27 26 -27 66t27 66t66 26q40 0 66 -26t26 -66zM383 915q0 -39 -27 -65q-28 -26 -66 -27q-38 0 -65 27q-27 28 -27 66t27 65t66 27t65 -27t27 -66z" />
    <glyph glyph-name="semicolon" unicode=";" horiz-adv-x="479" 
d="M365 156q-5 -88 -59 -189q-80 -148 -193 -231l-66 65q59 59 109 155t61 200h148zM510 915q0 -39 -27 -65t-65 -27q-38 0 -66 27q-26 28 -26 66t26 65q27 27 66 27q40 0 66 -27t26 -66z" />
    <glyph glyph-name="less" unicode="&#x3c;" 
d="M1124 131l-45 -98l-923 446v82l921 447l47 -99l-819 -391z" />
    <glyph glyph-name="equal" unicode="=" 
d="M1167 336h-972v108h972v-108zM1167 594h-972v108h972v-108z" />
    <glyph glyph-name="greater" unicode="&#x3e;" 
d="M1165 479l-923 -446l-45 98l819 387l-819 391l47 99l921 -447v-82z" />
    <glyph glyph-name="question" unicode="?" horiz-adv-x="1007" 
d="M532 76q0 -39 -26 -66q-26 -26 -66 -26t-66 26t-26 66t27 66t65 26t66 -26q26 -26 26 -66zM893 1050q-1 226 -245 226q-118 0 -277 -98l-62 90q160 125 367 125q147 0 254 -84q106 -85 106 -224q0 -178 -131 -309q-59 -58 -169 -120t-144 -97t-43 -70q-8 -35 -15 -73
t-16 -84h-106q16 185 27 207q25 50 52 77t139 98t175 134q88 88 88 202z" />
    <glyph glyph-name="at" unicode="@" horiz-adv-x="1589" 
d="M1022 954q-138 0 -238 -102t-100 -242q0 -66 39 -110t98 -43q106 0 217 110l70 375q-57 12 -86 12zM322 625q0 -246 156 -396q156 -149 398 -149q241 0 431 127l59 -84l-2 -2q-188 -150 -487 -150q-298 -1 -485 183t-187 492t220 522t550 214q270 0 446 -152t176 -378
q0 -228 -148 -364t-388 -136q-2 0 -43 4l16 95q-123 -99 -231 -99t-171 70q-62 70 -63 182q0 188 130 316t323 129q119 0 215 -41l-107 -557q154 12 257 115t103 287q0 183 -143 305q-144 122 -374 122q-283 0 -467 -185t-184 -470z" />
    <glyph glyph-name="A" unicode="A" horiz-adv-x="1189" 
d="M940 502l-137 737l-387 -737h524zM1167 0h-133l-73 393h-603l-204 -393h-131l729 1366h143z" />
    <glyph glyph-name="B" unicode="B" horiz-adv-x="1136" 
d="M961 401q0 238 -302 238h-245l-88 -530h192q258 -1 350 91t93 201zM1022 1057q0 92 -55 147t-240 56h-207l-88 -515h195q215 1 305 91t90 221zM1155 1071q0 -86 -30 -156q-29 -71 -67 -107t-87 -64t-73 -34l-40 -10q240 -41 240 -274q0 -170 -121 -291q-82 -83 -207 -109
t-297 -26h-297l230 1366h301q141 0 226 -17t140 -73q82 -82 82 -205z" />
    <glyph glyph-name="C" unicode="C" horiz-adv-x="1224" 
d="M991 1274q-289 0 -465 -214t-176 -517q0 -209 114 -328t322 -119q164 0 357 119l47 -96q-186 -143 -433 -143t-395 142t-149 412q0 358 222 610t566 251q258 0 375 -150l-78 -80q-135 113 -307 113z" />
    <glyph glyph-name="D" unicode="D" horiz-adv-x="1380" 
d="M1260 813q0 209 -119 328q-63 63 -165 90t-276 26h-182l-192 -1148h194q178 1 304 33t224 130t156 248q56 150 56 293zM1397 809q0 -356 -246 -602q-127 -127 -280 -167t-386 -40h-309l230 1366h262q215 0 353 -29t228 -118q148 -148 148 -410z" />
    <glyph glyph-name="E" unicode="E" horiz-adv-x="1017" 
d="M1126 1366l-18 -111h-592l-82 -485h555l-18 -108h-555l-92 -547h608l-19 -115h-737l230 1366h720z" />
    <glyph glyph-name="F" unicode="F" horiz-adv-x="958" 
d="M1108 1366l-18 -111h-572l-82 -485h535l-19 -108h-534l-111 -662h-131l230 1366h702z" />
    <glyph glyph-name="G" unicode="G" horiz-adv-x="1335" 
d="M991 1274q-289 0 -465 -214t-176 -517q0 -207 114 -328t294 -121t340 80l63 385h-307l16 107h435l-93 -560q-230 -131 -466 -131q-236 1 -384 143t-149 412q0 358 222 610t566 251q258 0 375 -150l-78 -80q-135 113 -307 113z" />
    <glyph glyph-name="H" unicode="H" horiz-adv-x="1302" 
d="M1358 1366l-230 -1366h-131l111 664h-690l-111 -664h-131l230 1366h131l-99 -594h690l99 594h131z" />
    <glyph glyph-name="I" unicode="I" horiz-adv-x="481" 
d="M537 1366l-230 -1366h-131l230 1366h131z" />
    <glyph glyph-name="J" unicode="J" horiz-adv-x="727" 
d="M258 90q119 0 168 66t74 215l168 995h131l-158 -942q-15 -98 -27 -148q-30 -129 -116 -214q-86 -86 -236 -87q-63 0 -133 23t-104 59l63 90q2 0 13 -8t19 -12t25 -12q50 -25 113 -25z" />
    <glyph glyph-name="K" unicode="K" horiz-adv-x="1101" 
d="M1282 1366l-731 -672l532 -694h-163l-504 659l-111 -659h-129l230 1366h129l-109 -637l702 637h154z" />
    <glyph glyph-name="L" unicode="L" horiz-adv-x="962" 
d="M913 115l-18 -115h-719l230 1366h131l-211 -1251h587z" />
    <glyph glyph-name="M" unicode="M" horiz-adv-x="1767" 
d="M1679 1366l-49 -1366h-131l49 1176l-602 -1176h-108l-209 1176l-344 -1176h-125l405 1366h148l215 -1178l602 1178h149z" />
    <glyph glyph-name="N" unicode="N" horiz-adv-x="1296" 
d="M1352 1366l-230 -1366h-145l-483 1174l-195 -1174h-123l230 1366h139l489 -1184l195 1184h123z" />
    <glyph glyph-name="O" unicode="O" horiz-adv-x="1433" 
d="M1313 800q0 148 -37 246t-126 164t-216 66q-172 0 -308 -113t-205 -281t-69 -350q0 -252 162 -375q88 -67 215 -67q172 0 309 113t206 281t69 316zM960 1391q226 1 359 -147t133 -380t-87 -429q-87 -198 -259 -329t-388 -131q-216 1 -360 147t-145 402q0 215 91 413
t261 326q169 128 395 128z" />
    <glyph glyph-name="P" unicode="P" horiz-adv-x="1103" 
d="M1038 1040q0 100 -48 148t-107 60q-59 11 -168 12h-197l-100 -588h203q139 0 205 24t118 76q94 94 94 268zM1171 1051q0 -203 -147 -351q-82 -82 -187 -108t-266 -27h-172l-94 -565h-129l230 1366h268q172 0 260 -16t147 -76q90 -90 90 -223z" />
    <glyph glyph-name="Q" unicode="Q" horiz-adv-x="1433" 
d="M1313 800q0 148 -37 246t-126 164t-216 66q-172 0 -308 -113t-205 -281t-69 -350q0 -252 162 -375q88 -67 215 -67q172 0 309 113t206 281t69 316zM960 1391q226 1 359 -147t133 -378t-85 -426q-85 -194 -246 -322t-357 -132q109 -168 373 -168q111 0 159 12l-16 -98
q-54 -18 -198 -18t-276 67q-132 68 -200 209q-156 24 -274 158t-119 362q0 228 91 427q91 198 261 326q169 128 395 128z" />
    <glyph glyph-name="R" unicode="R" horiz-adv-x="1124" 
d="M1022 1053q0 94 -56 150t-229 57h-219l-92 -545h145q247 1 349 103t102 235zM1151 1071q0 -182 -119 -301q-98 -98 -282 -121q70 -20 112 -63q63 -63 109 -226l102 -360h-135l-80 299q-47 181 -96 231t-95 64t-135 14h-124l-103 -608h-129l230 1366h270q100 0 155 -4
q157 -11 239 -93q81 -81 81 -198z" />
    <glyph glyph-name="S" unicode="S" horiz-adv-x="1046" 
d="M1034 1165q-103 113 -304 113q-101 0 -195 -71t-95 -185q0 -62 40 -114t100 -84t131 -72q70 -40 130 -79q60 -40 100 -109t40 -156q0 -180 -127 -308q-126 -128 -358 -127q-232 0 -381 168l78 86l33 -31q27 -28 46 -38t39 -22q77 -47 221 -48q144 0 229 85t85 210
q0 78 -50 139t-115 95q-218 114 -294 190t-76 184q0 176 136 288q135 112 331 112t321 -125l17 -23z" />
    <glyph glyph-name="T" unicode="T" horiz-adv-x="1089" 
d="M1255 1366l-18 -111h-414l-211 -1255h-131l211 1255h-413l18 111h958z" />
    <glyph glyph-name="U" unicode="U" horiz-adv-x="1263" 
d="M631 -25q-166 -1 -287 93t-121 260q0 59 39 299l125 739h129l-131 -782q-33 -180 -33 -242q0 -112 73 -182t235 -70t270 106q106 106 135 304l145 866h129l-143 -852q-49 -272 -164 -387q-152 -152 -401 -152z" />
    <glyph glyph-name="V" unicode="V" horiz-adv-x="1206" 
d="M1389 1366l-703 -1366h-164l-241 1366h135l207 -1253l634 1253h132z" />
    <glyph glyph-name="W" unicode="W" horiz-adv-x="1812" 
d="M1964 1366l-543 -1366h-180l-117 1264l-524 -1264h-180l-109 1366h135l80 -1260l521 1260h188l117 -1260l483 1260h129z" />
    <glyph glyph-name="X" unicode="X" horiz-adv-x="1140" 
d="M1272 1366l-514 -655l329 -711h-149l-268 604l-471 -604h-144l557 711l-299 655h152l244 -547l417 547h146z" />
    <glyph glyph-name="Y" unicode="Y" horiz-adv-x="1103" 
d="M1282 1366l-571 -827l-90 -539h-129l90 539l-297 827h141l246 -702l475 702h135z" />
    <glyph glyph-name="Z" unicode="Z" horiz-adv-x="1110" 
d="M1229 1366l-17 -102l-940 -1149h762l-18 -115h-922l17 96l948 1159h-713l19 111h864z" />
    <glyph glyph-name="bracketleft" unicode="[" horiz-adv-x="659" 
d="M815 1366l-18 -109h-279l-237 -1398h278l-18 -109h-408l275 1616h407z" />
    <glyph glyph-name="backslash" unicode="\" horiz-adv-x="882" 
d="M764 -266l-115 -29l-342 1661l115 31z" />
    <glyph glyph-name="bracketright" unicode="]" horiz-adv-x="661" 
d="M717 1366l-275 -1616h-409l18 109h281l237 1398h-280l18 109h410z" />
    <glyph glyph-name="asciicircum" unicode="^" 
d="M1120 518h-133l-315 690l-316 -690h-131l402 848h94z" />
    <glyph glyph-name="underscore" unicode="_" horiz-adv-x="960" 
d="M940 -141l-16 -109h-971l16 109h971z" />
    <glyph glyph-name="grave" unicode="`" horiz-adv-x="778" 
d="M838 1198l-47 -84l-433 162l68 121z" />
    <glyph glyph-name="a" unicode="a" horiz-adv-x="1005" 
d="M688 899q-180 1 -292 -151t-111 -367q0 -117 57 -205t180 -88q68 0 147 38t128 93l102 631q-82 49 -211 49zM160 358q0 270 149 460q150 189 393 190q193 0 328 -90l-147 -918h-113l18 109q-48 -53 -126 -91t-166 -38q-152 0 -244 105t-92 273z" />
    <glyph glyph-name="b" unicode="b" horiz-adv-x="1058" 
d="M940 612q0 129 -68 208t-198 79t-279 -125l-108 -637q115 -49 243 -49t224 80t141 198t45 246zM713 1008q158 0 256 -106t98 -272t-61 -312q-60 -146 -190 -242t-300 -96q-90 0 -180 22t-135 43l-47 21l237 1409h123l-100 -580q59 53 143 83t156 30z" />
    <glyph glyph-name="c" unicode="c" horiz-adv-x="942" 
d="M709 899q-189 0 -307 -156t-117 -350q1 -139 77 -221t209 -82q77 0 139 22q63 22 91 41q28 18 41 25l55 -86q-50 -50 -152 -81q-102 -32 -188 -31q-180 0 -290 108t-109 291q0 252 151 440q152 188 391 189q94 0 188 -33t132 -88l-70 -76q-53 42 -106 65q-54 23 -135 23z
" />
    <glyph glyph-name="d" unicode="d" horiz-adv-x="1060" 
d="M688 899q-125 0 -220 -81q-95 -80 -139 -198t-44 -246q-1 -128 67 -207t198 -79t279 125l101 588q-28 36 -98 67t-144 31zM522 -20q-168 0 -266 105t-98 273q0 260 150 455q151 195 390 195q66 0 141 -27t111 -66l94 560h123l-249 -1475h-109l18 109q-137 -129 -305 -129
z" />
    <glyph glyph-name="e" unicode="e" horiz-adv-x="978" 
d="M885 766q0 66 -48 103q-48 36 -132 36t-165 -44q-81 -43 -131 -113q-103 -144 -120 -283q125 6 289 49t247 127q60 59 60 125zM1004 772q0 -112 -97 -209q-166 -166 -622 -194q4 -127 81 -205t191 -78t187 35q44 18 60 30q17 11 19 11l54 -86q-35 -31 -126 -65t-190 -34
q-182 0 -292 108t-109 294q0 258 158 443q159 185 401 186q121 0 203 -62t82 -174z" />
    <glyph glyph-name="f" unicode="f" horiz-adv-x="722" 
d="M762 1499q136 0 217 -80l-70 -80q-61 51 -146 51t-143 -58t-88 -216l-22 -133h315l-16 -100h-315l-150 -883h-123l150 883h-174l16 100h174l21 123q10 70 18 106t35 92t67 97q98 98 234 98z" />
    <glyph glyph-name="g" unicode="g" horiz-adv-x="1058" 
d="M698 899q-190 0 -300 -160t-109 -356q-1 -125 67 -201t193 -76q86 0 168 41t119 76l102 606q-104 70 -240 70zM455 -465q-96 0 -206 41t-163 100l70 86q143 -118 298 -118t242 88q66 66 99 248l22 122q-133 -104 -296 -104t-261 101t-98 267t63 311q63 144 191 237
q128 94 313 94q184 0 342 -113l-153 -909q-23 -129 -49 -199t-83 -127q-125 -125 -331 -125z" />
    <glyph glyph-name="h" unicode="h" horiz-adv-x="1032" 
d="M1024 766q0 -31 -23 -174l-100 -592h-123l101 573q25 137 25 187t-45 96q-44 45 -146 45q-162 0 -314 -127l-133 -774h-123l252 1475h123l-100 -580q70 55 158 84t163 29q127 0 206 -64t79 -178z" />
    <glyph glyph-name="i" unicode="i" horiz-adv-x="409" 
d="M434 983l-168 -983h-123l168 983h123zM510 1315q0 -33 -24 -58t-58 -25t-58 26q-24 24 -24 57t24 57t58 25q34 -1 58 -25t24 -57z" />
    <glyph glyph-name="j" unicode="j" horiz-adv-x="409" 
d="M-58 -467q-113 0 -159 33l-16 10l45 90q50 -24 120 -24t119 49t72 180l188 1112h123l-186 -1098q-12 -67 -18 -97t-30 -82t-61 -89q-84 -84 -197 -84zM510 1315q0 -33 -24 -58t-58 -25t-58 26q-24 24 -24 57t24 57t58 25q34 -1 58 -25t24 -57z" />
    <glyph glyph-name="k" unicode="k" horiz-adv-x="958" 
d="M1047 983l-553 -455l428 -528h-162l-406 516l-88 -516h-123l250 1475h123l-158 -928l523 436h166z" />
    <glyph glyph-name="l" unicode="l" horiz-adv-x="409" 
d="M516 1475l-250 -1475h-123l250 1475h123z" />
    <glyph glyph-name="m" unicode="m" horiz-adv-x="1622" 
d="M1610 766q0 -31 -23 -174l-100 -592h-123l100 573q25 137 25 190t-42 95t-132 43q-150 0 -314 -131q0 -53 -22 -178l-100 -592h-123l100 573q25 137 25 175q1 76 -49 114t-125 39q-156 0 -308 -127l-133 -774h-123l168 983h117l-16 -92q160 117 324 117t245 -136
q170 135 356 136q139 0 206 -75t67 -167z" />
    <glyph glyph-name="n" unicode="n" horiz-adv-x="1034" 
d="M1024 766q0 -31 -23 -174l-100 -592h-123l101 573q25 137 25 187t-45 96q-44 45 -146 45q-162 0 -314 -127l-133 -774h-123l168 983h117l-16 -92q160 117 327 117q127 0 206 -64t79 -178z" />
    <glyph glyph-name="o" unicode="o" horiz-adv-x="1069" 
d="M948 600q0 131 -64 216q-65 85 -192 85q-184 0 -295 -160t-110 -354q1 -131 65 -216t191 -85q185 0 295 160t110 354zM1075 614q-1 -256 -151 -445t-392 -189q-168 0 -270 106t-102 287q0 256 150 445q151 189 392 190q168 0 270 -107t103 -287z" />
    <glyph glyph-name="p" unicode="p" horiz-adv-x="1062" 
d="M944 613q0 128 -67 207q-68 79 -198 79t-280 -125l-100 -590q95 -96 231 -96t231 81t139 199t44 245zM1071 629q-1 -260 -151 -455t-390 -194q-133 0 -249 88l-88 -504h-123l241 1419h117l-16 -92q145 117 304 117t257 -106t98 -273z" />
    <glyph glyph-name="q" unicode="q" horiz-adv-x="1054" 
d="M694 899q-188 0 -299 -159t-110 -361q-1 -131 67 -211t193 -80q88 0 169 45t115 80l105 616q-104 70 -240 70zM158 358q0 264 150 457q151 193 401 193q200 0 358 -113l-225 -1331h-123l92 528q-143 -112 -300 -112t-255 105t-98 273z" />
    <glyph glyph-name="r" unicode="r" horiz-adv-x="720" 
d="M702 893q-44 0 -117 -34q-74 -34 -170 -141q-19 -22 -34 -42l-115 -676h-123l166 983h117l-25 -149q158 176 340 176q70 0 107 -25l-41 -102q-61 10 -105 10z" />
    <glyph glyph-name="s" unicode="s" horiz-adv-x="817" 
d="M401 86q88 0 162 42t74 139t-147 175q-60 33 -120 68t-104 90q-43 55 -43 127q-1 127 99 205t245 78q193 -1 283 -101l-66 -82q-98 76 -212 76t-177 -63q-41 -40 -41 -96t34 -90t105 -74t127 -74q56 -33 102 -92t46 -133q0 -133 -98 -219t-269 -85q-96 1 -155 21
q-60 20 -77 30t-35 19t-28 17t-20 14l-8 8l63 88q121 -88 260 -88z" />
    <glyph glyph-name="t" unicode="t" horiz-adv-x="757" 
d="M496 84q56 0 88 14t44 21q12 6 13 6l41 -88q-227 -113 -368 -12q-67 47 -66 139l22 158l97 561h-172l16 100h172l47 279h123l-47 -279h315l-16 -100h-316l-92 -535q-23 -135 -22 -158q0 -106 121 -106z" />
    <glyph glyph-name="u" unicode="u" horiz-adv-x="1034" 
d="M176 221q0 31 23 174l100 588h123l-100 -569q-25 -137 -25 -187q0 -49 44 -95t146 -46q162 0 314 127l133 770h123l-168 -983h-109l19 104q-51 -45 -150 -85q-99 -39 -207 -39t-187 64t-79 177z" />
    <glyph glyph-name="v" unicode="v" horiz-adv-x="1011" 
d="M1120 983l-553 -983h-145l-215 983h131l178 -854l475 854h129z" />
    <glyph glyph-name="w" unicode="w" horiz-adv-x="1505" 
d="M1591 983l-454 -983h-152l-94 848l-389 -848h-152l-106 983h127l84 -848l387 848h151l94 -848l377 848h127z" />
    <glyph glyph-name="x" unicode="x" horiz-adv-x="929" 
d="M1008 983l-394 -471l256 -512h-151l-193 410l-340 -410h-141l432 512l-241 471h151l176 -379l305 379h140z" />
    <glyph glyph-name="y" unicode="y" horiz-adv-x="983" 
d="M68 -465q-100 0 -183 49l45 92q76 -33 138 -32q109 0 184 76t147 210l27 47l-233 1006h131l194 -854l451 854h129l-568 -1053q-111 -201 -188 -278q-117 -117 -274 -117z" />
    <glyph glyph-name="z" unicode="z" horiz-adv-x="954" 
d="M987 983l-18 -100l-703 -774h588l-18 -109h-750l16 96l715 783h-543l19 104h694z" />
    <glyph glyph-name="braceleft" unicode="{" horiz-adv-x="686" 
d="M725 1257q-123 1 -159 -35t-58 -169l-37 -219q-2 -10 -11 -74t-20 -82q-10 -18 -19 -34q-24 -44 -75 -60q61 -14 62 -92q0 -29 -23 -158l-45 -271q-14 -81 -14 -127t33 -62q34 -15 108 -15h117l-19 -109h-135q-135 0 -186 40t-51 132q0 8 18 148l45 270q16 115 16 121
q0 70 -79 69l18 107q49 0 78 29t49 161l37 220q12 71 17 99t24 72q38 93 135 127q51 17 82 19t86 2h121l-19 -109h-96z" />
    <glyph glyph-name="bar" unicode="|" horiz-adv-x="520" 
d="M442 -250h-135v1616h135v-1616z" />
    <glyph glyph-name="braceright" unicode="}" horiz-adv-x="686" 
d="M154 -250h-121l18 109h96q123 0 159 36t59 168l36 220q2 10 12 73t27 96t35 52q18 18 51 28q-61 14 -61 93q0 29 22 157l45 271q14 78 14 126t-33 63q-34 15 -107 15h-117l18 109h135q134 0 186 -40t52 -132q0 -10 -18 -147l-46 -271q-16 -115 -16 -121q0 -69 80 -69
l-18 -107q-49 -1 -78 -29t-49 -161l-37 -219q-12 -72 -18 -100q-31 -155 -158 -198q-51 -18 -82 -20t-86 -2z" />
    <glyph glyph-name="asciitilde" unicode="~" 
d="M444 518q-72 0 -145 -80l-94 64q100 137 250 137q84 0 215 -58q130 -59 200 -59t146 84l92 -67q-109 -137 -240 -138q-82 1 -217 59t-207 58z" />
    <glyph glyph-name="exclamdown" unicode="&#xa1;" horiz-adv-x="591" 
d="M446 659l-147 -1034h-158l195 1034h110zM528 915q0 -39 -26 -65t-66 -27q-40 0 -66 27q-26 28 -26 66t27 65t65 27t66 -27q26 -27 26 -66z" />
    <glyph glyph-name="cent" unicode="&#xa2;" 
d="M424 414q0 -131 62 -205t155 -92l137 801q-150 -20 -252 -172t-102 -332zM297 399q0 244 140 427t358 200l28 164h117l-29 -166q164 -17 248 -117l-69 -76q-98 74 -197 87l-135 -805q91 6 209 75l14 11l55 -86q-24 -25 -112 -66t-185 -45l-37 -207h-116l35 209
q-137 20 -231 120t-93 275z" />
    <glyph glyph-name="sterling" unicode="&#xa3;" 
d="M978 1280q-145 0 -235 -93q-89 -93 -119 -229t-26 -249h391l-18 -109h-375v-37q0 -109 -40 -235t-134 -202q-18 -14 -27 -17h701l-17 -109h-891l15 104q92 29 147 86q117 119 117 410h-178l16 109h164q0 360 174 540q135 141 350 141t307 -120l-73 -82q-104 92 -249 92z
" />
    <glyph glyph-name="currency" unicode="&#xa4;" 
d="M1083 801q0 135 -78 232q-79 97 -227 97q-205 0 -334 -171t-129 -388q0 -135 78 -231t225 -96q205 0 335 170t130 387zM784 1235q204 1 316 -115t112 -296t-70 -330t-210 -252q-142 -102 -322 -102t-302 114q-122 115 -122 315q0 258 171 462t427 204z" />
    <glyph glyph-name="yen" unicode="&#xa5;" 
d="M1321 1366l-492 -659h258l-16 -101h-301l-20 -114h301l-17 -99h-299l-65 -393h-129l65 393h-297l17 99h297l20 114h-297l16 101h252l-266 659h141l238 -639l459 639h135z" />
    <glyph glyph-name="brokenbar" unicode="&#xa6;" horiz-adv-x="520" 
d="M442 -250h-135v623h135v-623zM442 745h-135v621h135v-621z" />
    <glyph glyph-name="section" unicode="&#xa7;" horiz-adv-x="1204" 
d="M936 564q0 64 -33 110t-67 65q-34 20 -91 47q-178 -51 -229 -137q-23 -39 -22 -88q0 -80 52 -124t167 -97q127 57 170 100q53 60 53 124zM874 1288q-112 0 -188 -49t-76 -145t162 -175q68 -34 134 -72q160 -92 161 -280q0 -189 -260 -284q71 -45 105 -97t34 -135
q0 -162 -122 -256t-289 -94q-90 0 -183 29t-133 73l64 88q129 -81 252 -81t205 59t81 164q0 55 -45 100t-126 90t-138 74t-102 91t-45 162q1 100 79 174t191 114q-49 34 -75 56t-52 72q-27 50 -27 115q0 147 116 229t269 81q92 0 173 -32t112 -65l-64 -82q-101 76 -213 76z
" />
    <glyph glyph-name="dieresis" unicode="&#xa8;" horiz-adv-x="778" 
d="M492 1260q0 -39 -27 -66t-66 -27t-65 27t-27 66q0 40 27 66q28 26 66 26t65 -26t27 -66zM803 1260q0 -39 -27 -66q-28 -27 -66 -27t-65 27t-27 66q0 40 27 66t66 26t65 -26t27 -66z" />
    <glyph glyph-name="copyright" unicode="&#xa9;" horiz-adv-x="1611" 
d="M915 301q-153 0 -251 101q-98 102 -98 278t102 290t266 113q84 1 147 -29t84 -53l-53 -81q-90 59 -192 59t-170 -82t-68 -209t68 -203t172 -75q101 0 186 49l18 10l48 -84q-16 -23 -92 -53t-167 -31zM1503 685q0 245 -174 416t-417 171q-242 0 -416 -176t-174 -416
t174 -413t418 -173t416 173q173 173 173 418zM1620 679q0 -290 -208 -497t-500 -207t-500 208t-207 500q0 292 209 500q208 208 500 208t499 -211t207 -501z" />
    <glyph glyph-name="ordfeminine" unicode="&#xaa;" horiz-adv-x="768" 
d="M350 823q0 -109 148 -109q74 0 194 66l39 228h-35q-346 0 -346 -185zM860 1206q0 -10 -12 -96l-78 -471h-94l8 51q-117 -66 -214 -66t-160 50q-62 48 -62 126q0 144 90 205q90 60 194 74q105 13 213 13q12 70 13 106q0 104 -144 105q-102 0 -211 -60l-38 68q43 37 119 59
t156 23q79 0 150 -43q70 -44 70 -144z" />
    <glyph glyph-name="guillemotleft" unicode="&#xab;" horiz-adv-x="954" 
d="M645 825l-256 -321l148 -320l-101 -65l-221 385l346 387zM965 825l-256 -321l147 -320l-100 -65l-221 385l346 387z" />
    <glyph glyph-name="logicalnot" unicode="&#xac;" 
d="M1135 295h-119v278h-854v109h973v-387z" />
    <glyph glyph-name="registered" unicode="&#xae;" horiz-adv-x="1097" 
d="M651 977q113 0 113 74q0 29 -22 44t-41 17t-54 2h-39v-137h43zM631 899h-23v-201h-86v494h121q205 0 205 -145q0 -45 -25 -78t-75 -39q39 0 67 -64l78 -168h-90l-62 127q-27 53 -42 63t-68 11zM1038 940q0 150 -103 253t-255 103t-255 -103t-103 -253t103 -252t255 -102
t255 102t103 252zM1130 940q0 -186 -131 -317t-319 -131t-320 131q-131 131 -131 317t131 318q132 132 320 132t319 -132t131 -318z" />
    <glyph glyph-name="macron" unicode="&#xaf;" horiz-adv-x="778" 
d="M915 1315l-20 -111h-614l20 111h614z" />
    <glyph glyph-name="degree" unicode="&#xb0;" 
d="M924 1096q0 84 -58 142t-143 58q-84 0 -143 -58q-60 -58 -60 -142t60 -142t143 -59q85 1 143 59t58 142zM1018 1096q0 -123 -86 -209t-209 -86t-210 86t-87 209t87 209t210 86t209 -86t86 -209z" />
    <glyph glyph-name="plusminus" unicode="&#xb1;" 
d="M1122 0h-915v109h915v-109zM1122 629h-403v-426h-109v426h-403v108h403v434h109v-434h403v-108z" />
    <glyph glyph-name="twosuperior" unicode="&#xb2;" horiz-adv-x="780" 
d="M606 1378q82 0 138 -49t57 -125q0 -76 -34 -131q-69 -111 -310 -315h288l-16 -90h-430l14 80q195 166 291 265t96 181q0 39 -27 66q-28 27 -71 26q-74 0 -158 -69l-53 63q90 98 215 98z" />
    <glyph glyph-name="threesuperior" unicode="&#xb3;" horiz-adv-x="780" 
d="M504 1071q186 0 186 127q0 43 -28 66q-29 23 -72 22q-74 0 -152 -67l-53 61q92 98 217 98q76 0 130 -46t54 -116q0 -139 -110 -192q72 -44 72 -144t-79 -162t-169 -63q-143 0 -211 88l59 64q76 -59 142 -59t112 38q47 38 47 99q0 96 -126 96h-62l12 90h31z" />
    <glyph glyph-name="acute" unicode="&#xb4;" horiz-adv-x="778" 
d="M846 1276l-457 -162l-37 84l441 199z" />
    <glyph glyph-name="uni00B5" unicode="&#xb5;" horiz-adv-x="1044" 
d="M502 86q158 0 309 127l133 770h123l-168 -983h-108l18 104q-50 -44 -148 -85q-98 -40 -180 -39q-156 0 -205 86l-55 -308h-121l209 1225h123l-100 -569q-20 -124 -20 -176t47 -102q48 -50 143 -50z" />
    <glyph glyph-name="paragraph" unicode="&#xb6;" horiz-adv-x="1196" 
d="M262 885q0 205 144 348q80 81 185 107t263 26h451l-19 -109h-125l-256 -1507h-108l256 1507h-101l-256 -1507h-106l139 825q-103 -1 -155 3q-148 10 -230 93t-82 214z" />
    <glyph glyph-name="periodcentered" unicode="&#xb7;" horiz-adv-x="442" 
d="M313 520q-1 -40 -27 -66t-65 -26t-65 27t-27 65q0 38 27 66q28 26 66 26t65 -26q26 -27 26 -66z" />
    <glyph glyph-name="cedilla" unicode="&#xb8;" horiz-adv-x="778" 
d="M537 -258q1 -76 -59 -132t-159 -56t-147 47l47 75q55 -32 105 -32t83 24t33 65q0 39 -22 63t-62 24q-39 0 -77 -29l-43 35l67 174h88l-47 -109q12 13 62 13t90 -43q41 -43 41 -119z" />
    <glyph glyph-name="onesuperior" unicode="&#xb9;" horiz-adv-x="780" 
d="M719 1366l-119 -698h-106l96 567l-176 -98l-49 75l272 154h82z" />
    <glyph glyph-name="ordmasculine" unicode="&#xba;" horiz-adv-x="837" 
d="M827 1083q0 95 -46 157t-136 63q-133 0 -214 -117t-81 -258q0 -94 46 -156t136 -63q133 1 214 117t81 257zM930 1094q0 -188 -112 -330t-292 -143q-126 1 -202 81t-76 216q0 188 111 330q112 142 292 143q125 0 202 -81t77 -216z" />
    <glyph glyph-name="guillemotright" unicode="&#xbb;" horiz-adv-x="952" 
d="M590 506l-346 -387l-84 65l256 322l-148 319l101 66zM909 506l-346 -387l-84 65l256 322l-147 319l100 66z" />
    <glyph glyph-name="onequarter" unicode="&#xbc;" horiz-adv-x="1497" 
d="M1227 545l-273 -293h220zM1370 252l-16 -88h-97l-28 -164h-101l29 164h-340l14 78l426 456h97l-80 -446h96zM662 1366l-119 -698h-107l96 567l-176 -98l-49 75l273 154h82zM1456 1372l-1218 -1446l-78 60l1218 1450z" />
    <glyph glyph-name="onehalf" unicode="&#xbd;" horiz-adv-x="1497" 
d="M1386 537q0 -76 -34 -131q-65 -107 -310 -316h289l-16 -90h-430l14 80q195 166 272 246q115 119 115 200q0 39 -28 66t-70 26q-74 0 -158 -69l-53 63q90 98 215 99q82 0 138 -49t56 -125zM662 1366l-119 -698h-107l96 567l-176 -98l-49 75l273 154h82zM1456 1372
l-1218 -1446l-78 60l1218 1450z" />
    <glyph glyph-name="threequarters" unicode="&#xbe;" horiz-adv-x="1497" 
d="M1227 545l-273 -293h220zM1370 252l-16 -88h-97l-28 -164h-101l29 164h-340l14 78l426 456h97l-80 -446h96zM424 1071q188 0 186 127q0 43 -28 66q-29 23 -72 22q-72 0 -152 -67l-53 61q92 98 217 98q76 0 130 -46t55 -116q0 -138 -111 -192q72 -44 72 -144t-79 -162
t-169 -63q-143 0 -211 88l59 64q76 -59 142 -59t112 38q47 38 47 99q0 96 -126 96h-62l12 90h31zM1456 1372l-1218 -1446l-78 60l1218 1450z" />
    <glyph glyph-name="questiondown" unicode="&#xbf;" horiz-adv-x="1007" 
d="M481 -401q-147 0 -254 84q-106 84 -106 223q0 178 131 309q59 59 169 121t131 82q20 22 30 36t16 24q10 16 21 76t20 105h106q-16 -185 -27 -207q-23 -47 -51 -75q-28 -29 -140 -99t-175 -135q-88 -89 -88 -203t64 -169t181 -55q118 0 277 98l62 -90q-160 -125 -367 -125
zM809 915q0 -39 -27 -65q-28 -26 -66 -27q-38 0 -65 27q-27 28 -27 66t27 65t66 27t65 -27t27 -66z" />
    <glyph glyph-name="Agrave" unicode="&#xc0;" horiz-adv-x="1189" 
d="M1114 1552l-47 -84l-432 162l67 121zM940 502l-137 737l-387 -737h524zM1167 0h-133l-73 393h-603l-204 -393h-131l729 1366h143z" />
    <glyph glyph-name="Aacute" unicode="&#xc1;" horiz-adv-x="1189" 
d="M1118 1628l-456 -162l-37 84l440 199zM940 502l-137 737l-387 -737h524zM1167 0h-133l-73 393h-603l-204 -393h-131l729 1366h143z" />
    <glyph glyph-name="Acircumflex" unicode="&#xc2;" horiz-adv-x="1189" 
d="M1174 1548l-62 -75l-246 139l-276 -139l-53 81l356 197zM940 502l-137 737l-387 -737h524zM1167 0h-133l-73 393h-603l-204 -393h-131l729 1366h143z" />
    <glyph glyph-name="Atilde" unicode="&#xc3;" horiz-adv-x="1189" 
d="M730 1518q-52 0 -130 -50l-57 84q115 86 215 86q49 0 119 -26t108 -27q38 1 61 13t34 18q12 6 24 16t16 13l62 -82q-109 -94 -215 -95q-49 0 -117 25t-120 25zM940 502l-137 737l-387 -737h524zM1167 0h-133l-73 393h-603l-204 -393h-131l729 1366h143z" />
    <glyph glyph-name="Adieresis" unicode="&#xc4;" horiz-adv-x="1189" 
d="M797 1577q0 -39 -27 -66q-28 -27 -66 -27t-65 28q-27 26 -27 65t27 65t66 27q39 -1 65 -27t27 -65zM1108 1577q0 -39 -27 -66t-65 -27t-66 28q-27 26 -26 65q0 39 26 65t66 27q40 -1 66 -27t26 -65zM940 502l-137 737l-387 -737h524zM1167 0h-133l-73 393h-603l-204 -393
h-131l729 1366h143z" />
    <glyph glyph-name="Aring" unicode="&#xc5;" horiz-adv-x="1189" 
d="M993 1669q0 47 -34 82q-35 35 -81 35t-81 -35t-35 -82t35 -81t82 -34t81 34t33 81zM1077 1669q0 -84 -59 -142q-59 -59 -141 -59q-81 0 -141 58t-60 143q0 84 59 142q59 59 141 59t142 -58q59 -58 59 -143zM940 502l-137 737l-387 -737h524zM1167 0h-133l-73 393h-603
l-204 -393h-131l729 1366h143z" />
    <glyph glyph-name="AE" unicode="&#xc6;" horiz-adv-x="1738" 
d="M1098 1255l-549 -751h420zM1835 1366l-18 -111h-592l-82 -485h555l-19 -108h-555l-92 -547h608l-18 -115h-737l65 391h-481l-283 -391h-145l1003 1366h791z" />
    <glyph glyph-name="Ccedilla" unicode="&#xc7;" horiz-adv-x="1224" 
d="M991 1274q-289 0 -465 -214t-176 -517q0 -209 114 -328t322 -119q164 0 357 119l47 -96q-186 -143 -432 -144l-45 -100q11 12 61 12t90 -43q40 -42 41 -118q0 -76 -59 -132q-58 -56 -158 -57q-100 0 -147 47l47 76q55 -33 104 -33t83 25q34 24 34 64t-23 64
q-24 24 -62 24t-77 -29l-43 35l68 172q-201 18 -330 155t-129 393q0 358 222 610t566 251q258 0 375 -150l-78 -80q-135 113 -307 113z" />
    <glyph glyph-name="Egrave" unicode="&#xc8;" horiz-adv-x="1017" 
d="M1036 1552l-47 -84l-432 162l68 121zM1126 1366l-18 -111h-592l-82 -485h555l-18 -108h-555l-92 -547h608l-19 -115h-737l230 1366h720z" />
    <glyph glyph-name="Eacute" unicode="&#xc9;" horiz-adv-x="1017" 
d="M1051 1630l-457 -162l-37 84l440 199zM1126 1366l-18 -111h-592l-82 -485h555l-18 -108h-555l-92 -547h608l-19 -115h-737l230 1366h720z" />
    <glyph glyph-name="Ecircumflex" unicode="&#xca;" horiz-adv-x="1017" 
d="M1102 1548l-62 -75l-245 139l-277 -139l-53 81l356 197zM1126 1366l-18 -111h-592l-82 -485h555l-18 -108h-555l-92 -547h608l-19 -115h-737l230 1366h720z" />
    <glyph glyph-name="Edieresis" unicode="&#xcb;" horiz-adv-x="1017" 
d="M713 1577q0 -39 -27 -66q-28 -27 -66 -27t-65 28q-27 26 -27 65t27 65t66 27q39 -1 65 -27t27 -65zM1024 1577q0 -39 -27 -66t-65 -27t-66 28q-27 26 -26 65q0 39 26 65t66 27q40 -1 66 -27t26 -65zM1126 1366l-18 -111h-592l-82 -485h555l-18 -108h-555l-92 -547h608
l-19 -115h-737l230 1366h720z" />
    <glyph glyph-name="Igrave" unicode="&#xcc;" horiz-adv-x="481" 
d="M750 1552l-48 -84l-432 162l68 121zM537 1366l-230 -1366h-131l230 1366h131z" />
    <glyph glyph-name="Iacute" unicode="&#xcd;" horiz-adv-x="481" 
d="M745 1630l-456 -162l-37 84l440 199zM537 1366l-230 -1366h-131l230 1366h131z" />
    <glyph glyph-name="Icircumflex" unicode="&#xce;" horiz-adv-x="481" 
d="M809 1548l-61 -75l-246 139l-277 -139l-53 81l356 197zM537 1366l-230 -1366h-131l230 1366h131z" />
    <glyph glyph-name="Idieresis" unicode="&#xcf;" horiz-adv-x="481" 
d="M442 1577q0 -39 -26 -66t-66 -27t-66 28q-26 26 -26 65t27 65t65 27q38 -1 66 -27q26 -26 26 -65zM754 1577q0 -39 -27 -66t-65 -27t-66 28q-27 26 -27 65t27 65t66 27q40 -1 66 -27t26 -65zM537 1366l-230 -1366h-131l230 1366h131z" />
    <glyph glyph-name="Eth" unicode="&#xd0;" horiz-adv-x="1402" 
d="M1282 813q0 209 -119 328q-63 63 -165 90t-275 26h-182l-82 -487h413l-18 -108h-414l-92 -553h195q178 1 304 33t224 130q99 98 155 248t56 293zM1419 809q0 -356 -245 -602q-127 -127 -280 -167t-386 -40h-309l110 662h-205l19 108h205l100 596h262q215 0 353 -29
t229 -118q147 -148 147 -410z" />
    <glyph glyph-name="Ntilde" unicode="&#xd1;" horiz-adv-x="1296" 
d="M758 1518q-52 0 -129 -50l-58 84q115 86 215 86q49 0 119 -26t109 -27q39 1 61 13q21 12 33 18t24 16t17 13l61 -82q-109 -94 -215 -95q-47 0 -115 25q-70 25 -122 25zM1352 1366l-230 -1366h-145l-483 1174l-195 -1174h-123l230 1366h139l489 -1184l195 1184h123z" />
    <glyph glyph-name="Ograve" unicode="&#xd2;" horiz-adv-x="1433" 
d="M1219 1552l-48 -84l-432 162l68 121zM1313 800q0 148 -37 246t-126 164t-216 66q-172 0 -308 -113t-205 -281t-69 -350q0 -252 162 -375q88 -67 215 -67q172 0 309 113t206 281t69 316zM960 1391q226 1 359 -147t133 -380t-87 -429q-87 -198 -259 -329t-388 -131
q-216 1 -360 147t-145 402q0 215 91 413t261 326q169 128 395 128z" />
    <glyph glyph-name="Oacute" unicode="&#xd3;" horiz-adv-x="1433" 
d="M1210 1628l-456 -162l-37 84l440 199zM1313 800q0 148 -37 246t-126 164t-216 66q-172 0 -308 -113t-205 -281t-69 -350q0 -252 162 -375q88 -67 215 -67q172 0 309 113t206 281t69 316zM960 1391q226 1 359 -147t133 -380t-87 -429q-87 -198 -259 -329t-388 -131
q-216 1 -360 147t-145 402q0 215 91 413t261 326q169 128 395 128z" />
    <glyph glyph-name="Ocircumflex" unicode="&#xd4;" horiz-adv-x="1433" 
d="M1282 1548l-61 -75l-246 139l-277 -139l-53 81l356 197zM1313 800q0 148 -37 246t-126 164t-216 66q-172 0 -308 -113t-205 -281t-69 -350q0 -252 162 -375q88 -67 215 -67q172 0 309 113t206 281t69 316zM960 1391q226 1 359 -147t133 -380t-87 -429q-87 -198 -259 -329
t-388 -131q-216 1 -360 147t-145 402q0 215 91 413t261 326q169 128 395 128z" />
    <glyph glyph-name="Otilde" unicode="&#xd5;" horiz-adv-x="1433" 
d="M840 1518q-52 0 -129 -50l-58 84q115 86 215 86q49 0 119 -26t108 -27q38 1 61 13q22 12 34 18t24 16t17 13l61 -82q-109 -94 -215 -95q-47 0 -115 25q-70 25 -122 25zM1313 800q0 148 -37 246t-126 164t-216 66q-172 0 -308 -113t-205 -281t-69 -350q0 -252 162 -375
q88 -67 215 -67q172 0 309 113t206 281t69 316zM960 1391q226 1 359 -147t133 -380t-87 -429q-87 -198 -259 -329t-388 -131q-216 1 -360 147t-145 402q0 215 91 413t261 326q169 128 395 128z" />
    <glyph glyph-name="Odieresis" unicode="&#xd6;" horiz-adv-x="1433" 
d="M924 1577q0 -39 -27 -66t-66 -27t-65 28q-26 26 -27 65q0 39 27 65q28 26 66 27q38 -1 65 -27t27 -65zM1235 1577q0 -39 -27 -66q-28 -27 -66 -27t-65 28q-27 26 -26 65t27 65t65 27q39 -1 65 -27t27 -65zM1313 800q0 148 -37 246t-126 164t-216 66q-172 0 -308 -113
t-205 -281t-69 -350q0 -252 162 -375q88 -67 215 -67q172 0 309 113t206 281t69 316zM960 1391q226 1 359 -147t133 -380t-87 -429q-87 -198 -259 -329t-388 -131q-216 1 -360 147t-145 402q0 215 91 413t261 326q169 128 395 128z" />
    <glyph glyph-name="multiply" unicode="&#xd7;" 
d="M1145 131l-76 -76l-389 387l-387 -387l-76 76l387 387l-387 389l76 76l387 -387l389 387l76 -76l-387 -389z" />
    <glyph glyph-name="Oslash" unicode="&#xd8;" horiz-adv-x="1435" 
d="M918 1276q-156 0 -292 -113t-205 -281t-69 -350q0 -82 26 -173t64 -134l723 973q-91 78 -247 78zM1313 826q0 174 -80 298l-715 -970q70 -64 226 -64t294 113q137 113 206 281t69 342zM1452 848q0 -215 -87 -413t-259 -329t-387 -131q-92 0 -171 28t-106 48l-141 -190
l-82 59l143 197q-150 150 -149 407q0 215 91 413t261 326q169 128 361 128t319 -84l144 194l79 -59l-147 -203q18 -18 41 -49q22 -31 56 -129t34 -213z" />
    <glyph glyph-name="Ugrave" unicode="&#xd9;" horiz-adv-x="1263" 
d="M1124 1552l-47 -84l-432 162l68 121zM631 -25q-166 -1 -287 93t-121 260q0 59 39 299l125 739h129l-131 -782q-33 -180 -33 -242q0 -112 73 -182t235 -70t270 106q106 106 135 304l145 866h129l-143 -852q-49 -272 -164 -387q-152 -152 -401 -152z" />
    <glyph glyph-name="Uacute" unicode="&#xda;" horiz-adv-x="1263" 
d="M1151 1630l-457 -162l-37 84l441 199zM631 -25q-166 -1 -287 93t-121 260q0 59 39 299l125 739h129l-131 -782q-33 -180 -33 -242q0 -112 73 -182t235 -70t270 106q106 106 135 304l145 866h129l-143 -852q-49 -272 -164 -387q-152 -152 -401 -152z" />
    <glyph glyph-name="Ucircumflex" unicode="&#xdb;" horiz-adv-x="1263" 
d="M1198 1548l-61 -75l-246 139l-277 -139l-53 81l357 197zM631 -25q-166 -1 -287 93t-121 260q0 59 39 299l125 739h129l-131 -782q-33 -180 -33 -242q0 -112 73 -182t235 -70t270 106q106 106 135 304l145 866h129l-143 -852q-49 -272 -164 -387q-152 -152 -401 -152z" />
    <glyph glyph-name="Udieresis" unicode="&#xdc;" horiz-adv-x="1263" 
d="M838 1577q0 -39 -27 -66t-66 -27t-65 28q-26 26 -27 65q0 39 27 65q28 26 66 27q38 -1 65 -27t27 -65zM1149 1577q0 -39 -27 -66q-28 -27 -66 -27t-65 28q-27 26 -26 65t27 65t65 27q39 -1 65 -27t27 -65zM631 -25q-166 -1 -287 93t-121 260q0 59 39 299l125 739h129
l-131 -782q-33 -180 -33 -242q0 -112 73 -182t235 -70t270 106q106 106 135 304l145 866h129l-143 -852q-49 -272 -164 -387q-152 -152 -401 -152z" />
    <glyph glyph-name="Yacute" unicode="&#xdd;" horiz-adv-x="1103" 
d="M1061 1630l-457 -162l-37 84l441 199zM1282 1366l-571 -827l-90 -539h-129l90 539l-297 827h141l246 -702l475 702h135z" />
    <glyph glyph-name="Thorn" unicode="&#xde;" horiz-adv-x="1112" 
d="M993 774q0 100 -48 148t-107 60q-59 11 -168 11h-197l-100 -587h202q139 0 206 24t118 76q94 94 94 268zM1126 784q0 -203 -147 -350q-82 -82 -187 -108t-266 -27h-172l-49 -299h-129l230 1366h129l-43 -266h137q172 0 260 -16t147 -76q90 -91 90 -224z" />
    <glyph glyph-name="germandbls" unicode="&#xdf;" horiz-adv-x="1075" 
d="M1073 1219q0 -80 -30 -149q-31 -69 -73 -114q-42 -44 -85 -80q-103 -85 -103 -126q0 -25 41 -63t89 -77q48 -40 89 -108t41 -146q0 -164 -114 -272t-282 -109q-167 0 -263 70l57 96q102 -51 207 -51t183 68t79 188q0 62 -42 120t-93 93t-93 83t-42 94q0 78 106 167
q45 37 90 78q105 98 105 225q0 86 -54 133t-132 47t-128 -26q-52 -26 -83 -62q-31 -35 -55 -96t-32 -104t-22 -113l-164 -985h-123l154 911q23 133 33 187t46 142q36 87 89 140q119 119 285 119q129 1 224 -71t95 -209z" />
    <glyph glyph-name="agrave" unicode="&#xe0;" horiz-adv-x="1005" 
d="M985 1198l-47 -84l-432 162l67 121zM688 899q-180 1 -292 -151t-111 -367q0 -117 57 -205t180 -88q68 0 147 38t128 93l102 631q-82 49 -211 49zM160 358q0 270 149 460q150 189 393 190q193 0 328 -90l-147 -918h-113l18 109q-48 -53 -126 -91t-166 -38q-152 0 -244 105
t-92 273z" />
    <glyph glyph-name="aacute" unicode="&#xe1;" horiz-adv-x="1005" 
d="M991 1276l-456 -162l-37 84l440 199zM688 899q-180 1 -292 -151t-111 -367q0 -117 57 -205t180 -88q68 0 147 38t128 93l102 631q-82 49 -211 49zM160 358q0 270 149 460q150 189 393 190q193 0 328 -90l-147 -918h-113l18 109q-48 -53 -126 -91t-166 -38
q-152 0 -244 105t-92 273z" />
    <glyph glyph-name="acircumflex" unicode="&#xe2;" horiz-adv-x="1005" 
d="M1051 1200l-62 -76l-246 140l-276 -140l-53 82l356 197zM688 899q-180 1 -292 -151t-111 -367q0 -117 57 -205t180 -88q68 0 147 38t128 93l102 631q-82 49 -211 49zM160 358q0 270 149 460q150 189 393 190q193 0 328 -90l-147 -918h-113l18 109q-48 -53 -126 -91
t-166 -38q-152 0 -244 105t-92 273z" />
    <glyph glyph-name="atilde" unicode="&#xe3;" horiz-adv-x="1005" 
d="M604 1221q-51 0 -129 -50l-57 84q115 86 215 86q49 -1 119 -27t108 -26t61 12t34 19q11 6 23 16t17 13l62 -82q-109 -94 -215 -95q-49 0 -118 25t-120 25zM688 899q-180 1 -292 -151t-111 -367q0 -117 57 -205t180 -88q68 0 147 38t128 93l102 631q-82 49 -211 49z
M160 358q0 270 149 460q150 189 393 190q193 0 328 -90l-147 -918h-113l18 109q-48 -53 -126 -91t-166 -38q-152 0 -244 105t-92 273z" />
    <glyph glyph-name="adieresis" unicode="&#xe4;" horiz-adv-x="1005" 
d="M686 1260q0 -39 -27 -66t-65 -27t-66 27q-27 27 -26 66q0 40 26 66t66 26t66 -26t26 -66zM997 1260q-1 -39 -27 -66t-65 -27t-65 27t-27 66q0 40 27 66q28 26 66 26t64 -26t27 -66zM688 899q-180 1 -292 -151t-111 -367q0 -117 57 -205t180 -88q68 0 147 38t128 93
l102 631q-82 49 -211 49zM160 358q0 270 149 460q150 189 393 190q193 0 328 -90l-147 -918h-113l18 109q-48 -53 -126 -91t-166 -38q-152 0 -244 105t-92 273z" />
    <glyph glyph-name="aring" unicode="&#xe5;" horiz-adv-x="1005" 
d="M854 1292q0 47 -34 82t-81 35t-82 -35t-35 -82t36 -81q34 -33 81 -33t81 34t34 80zM938 1292q0 -84 -59 -142t-141 -58t-142 58q-59 58 -59 142t59 142t141 59q82 0 142 -58q59 -59 59 -143zM688 899q-180 1 -292 -151t-111 -367q0 -117 57 -205t180 -88q68 0 147 38
t128 93l102 631q-82 49 -211 49zM160 358q0 270 149 460q150 189 393 190q193 0 328 -90l-147 -918h-113l18 109q-48 -53 -126 -91t-166 -38q-152 0 -244 105t-92 273z" />
    <glyph glyph-name="ae" unicode="&#xe6;" horiz-adv-x="1472" 
d="M269 131q54 -43 136 -43t141 26t84 43t37 24t35 28q-29 86 -28 170q0 12 4 74q-177 1 -227 -11q-119 -27 -145 -45q-26 -19 -48 -39q-42 -39 -43 -111q0 -73 54 -116zM1382 777q0 54 -45 91t-112 37q-158 1 -267 -109t-139 -243h15q250 0 336 28q50 15 104 37
q108 47 108 159zM731 733q0 168 -182 168q-145 0 -256 -72l-47 84q129 96 319 97q73 0 135 -28q116 -51 140 -169q27 33 64 69q38 36 132 81t203 45t183 -62t75 -148q0 -168 -135 -243t-251 -86q-183 -16 -247 -16h-69q-4 -20 -4 -66q-1 -137 83 -219t213 -82q90 0 160 35
q23 10 36 17l26 14l12 8l49 -84q-41 -35 -121 -67q-81 -32 -193 -32q-112 -1 -193 51t-111 99q-190 -147 -365 -147q-135 0 -212 74t-77 164q0 88 29 146q48 96 189 147q121 46 386 46q29 116 29 176z" />
    <glyph glyph-name="ccedilla" unicode="&#xe7;" horiz-adv-x="942" 
d="M709 899q-189 0 -307 -156t-117 -350q1 -139 77 -221t209 -82q77 0 139 22q63 22 91 41q28 18 41 25l55 -86q-50 -50 -161 -84q-111 -35 -199 -26l-39 -91q12 13 62 13t90 -43t40 -119t-59 -132t-159 -56t-146 47l47 75q107 -64 187 -8q34 25 34 65q0 39 -23 63t-61 24
t-78 -29l-43 35l64 164q-121 25 -208 121t-87 268q0 252 151 440q152 188 391 189q96 0 178 -31t104 -53q24 -22 38 -37l-70 -76q-53 42 -106 65q-54 23 -135 23z" />
    <glyph glyph-name="egrave" unicode="&#xe8;" horiz-adv-x="978" 
d="M963 1198l-48 -84l-432 162l68 121zM885 766q0 66 -48 103q-48 36 -132 36t-165 -44q-81 -43 -131 -113q-103 -144 -120 -283q125 6 289 49t247 127q60 59 60 125zM1004 772q0 -112 -97 -209q-166 -166 -622 -194q4 -127 81 -205t191 -78t187 35q44 18 60 30q17 11 19 11
l54 -86q-35 -31 -126 -65t-190 -34q-182 0 -292 108t-109 294q0 258 158 443q159 185 401 186q121 0 203 -62t82 -174z" />
    <glyph glyph-name="eacute" unicode="&#xe9;" horiz-adv-x="978" 
d="M987 1276l-457 -162l-36 84l440 199zM885 766q0 66 -48 103q-48 36 -132 36t-165 -44q-81 -43 -131 -113q-103 -144 -120 -283q125 6 289 49t247 127q60 59 60 125zM1004 772q0 -112 -97 -209q-166 -166 -622 -194q4 -127 81 -205t191 -78t187 35q44 18 60 30
q17 11 19 11l54 -86q-35 -31 -126 -65t-190 -34q-182 0 -292 108t-109 294q0 258 158 443q159 185 401 186q121 0 203 -62t82 -174z" />
    <glyph glyph-name="ecircumflex" unicode="&#xea;" horiz-adv-x="978" 
d="M1044 1200l-61 -76l-246 140l-276 -140l-53 82l356 197zM885 766q0 66 -48 103q-48 36 -132 36t-165 -44q-81 -43 -131 -113q-103 -144 -120 -283q125 6 289 49t247 127q60 59 60 125zM1004 772q0 -112 -97 -209q-166 -166 -622 -194q4 -127 81 -205t191 -78t187 35
q44 18 60 30q17 11 19 11l54 -86q-35 -31 -126 -65t-190 -34q-182 0 -292 108t-109 294q0 258 158 443q159 185 401 186q121 0 203 -62t82 -174z" />
    <glyph glyph-name="edieresis" unicode="&#xeb;" horiz-adv-x="978" 
d="M678 1260q0 -39 -27 -66t-65 -27t-66 27q-27 27 -26 66q0 40 26 66t66 26t66 -26t26 -66zM989 1260q-1 -39 -27 -66t-65 -27t-66 27t-26 66q1 40 27 66t65 26t65 -26t27 -66zM885 766q0 66 -48 103q-48 36 -132 36t-165 -44q-81 -43 -131 -113q-103 -144 -120 -283
q125 6 289 49t247 127q60 59 60 125zM1004 772q0 -112 -97 -209q-166 -166 -622 -194q4 -127 81 -205t191 -78t187 35q44 18 60 30q17 11 19 11l54 -86q-35 -31 -126 -65t-190 -34q-182 0 -292 108t-109 294q0 258 158 443q159 185 401 186q121 0 203 -62t82 -174z" />
    <glyph glyph-name="igrave" unicode="&#xec;" horiz-adv-x="409" 
d="M434 983l-168 -983h-123l168 983h123zM649 1198l-47 -84l-432 162l68 121z" />
    <glyph glyph-name="iacute" unicode="&#xed;" horiz-adv-x="409" 
d="M434 983l-168 -983h-123l168 983h123zM662 1276l-457 -162l-37 84l440 199z" />
    <glyph glyph-name="icircumflex" unicode="&#xee;" horiz-adv-x="409" 
d="M729 1200l-61 -76l-246 140l-277 -140l-53 82l357 197zM434 983l-168 -983h-123l168 983h123z" />
    <glyph glyph-name="idieresis" unicode="&#xef;" horiz-adv-x="409" 
d="M356 1260q0 -39 -26 -66t-66 -27t-66 27t-26 66q0 40 27 66t65 26t66 -26q26 -26 26 -66zM668 1260q0 -39 -27 -66t-66 -27t-65 27t-27 66q0 40 27 66q28 26 66 26t65 -26t27 -66zM434 983l-168 -983h-123l168 983h123z" />
    <glyph glyph-name="eth" unicode="&#xf0;" horiz-adv-x="1251" 
d="M657 891q-168 0 -266 -158t-98 -352q0 -74 16 -134q15 -61 69 -109t149 -48t183 80q87 80 136 196q94 223 108 394q-14 16 -40 40t-100 58t-157 33zM1102 903q0 -231 -79 -448t-211 -349t-303 -132t-258 110q-87 111 -87 293q0 281 152 455t350 174q72 0 163 -36t138 -79
l2 39q0 207 -133 340l-267 -119l-41 88l224 100q-104 68 -351 78l27 107q307 -8 455 -125l211 94l43 -88l-174 -80q139 -139 139 -422z" />
    <glyph glyph-name="ntilde" unicode="&#xf1;" horiz-adv-x="1034" 
d="M604 1221q-51 0 -129 -50l-57 84q115 86 215 86q49 -1 119 -27t108 -26t61 12t34 19q11 6 23 16t17 13l62 -82q-109 -94 -215 -95q-49 0 -118 25t-120 25zM1024 766q0 -31 -23 -174l-100 -592h-123l101 573q25 137 25 187t-45 96q-44 45 -146 45q-162 0 -314 -127
l-133 -774h-123l168 983h117l-16 -92q160 117 327 117q127 0 206 -64t79 -178z" />
    <glyph glyph-name="ograve" unicode="&#xf2;" horiz-adv-x="1069" 
d="M975 1198l-47 -84l-432 162l67 121zM948 600q0 131 -64 216q-65 85 -192 85q-184 0 -295 -160t-110 -354q1 -131 65 -216t191 -85q185 0 295 160t110 354zM1075 614q-1 -256 -151 -445t-392 -189q-168 0 -270 106t-102 287q0 256 150 445q151 189 392 190q168 0 270 -107
t103 -287z" />
    <glyph glyph-name="oacute" unicode="&#xf3;" horiz-adv-x="1069" 
d="M997 1276l-456 -162l-37 84l440 199zM948 600q0 131 -64 216q-65 85 -192 85q-184 0 -295 -160t-110 -354q1 -131 65 -216t191 -85q185 0 295 160t110 354zM1075 614q-1 -256 -151 -445t-392 -189q-168 0 -270 106t-102 287q0 256 150 445q151 189 392 190
q168 0 270 -107t103 -287z" />
    <glyph glyph-name="ocircumflex" unicode="&#xf4;" horiz-adv-x="1069" 
d="M1057 1200l-62 -76l-245 140l-277 -140l-53 82l356 197zM948 600q0 131 -64 216q-65 85 -192 85q-184 0 -295 -160t-110 -354q1 -131 65 -216t191 -85q185 0 295 160t110 354zM1075 614q-1 -256 -151 -445t-392 -189q-168 0 -270 106t-102 287q0 256 150 445
q151 189 392 190q168 0 270 -107t103 -287z" />
    <glyph glyph-name="otilde" unicode="&#xf5;" horiz-adv-x="1069" 
d="M620 1221q-51 0 -128 -50l-58 84q115 86 215 86q49 -1 119 -27t108 -26t61 12t35 19q12 6 23 16q12 10 17 13l61 -82q-109 -94 -215 -95q-47 0 -117 25t-121 25zM948 600q0 131 -64 216q-65 85 -192 85q-184 0 -295 -160t-110 -354q1 -131 65 -216t191 -85q185 0 295 160
t110 354zM1075 614q-1 -256 -151 -445t-392 -189q-168 0 -270 106t-102 287q0 256 150 445q151 189 392 190q168 0 270 -107t103 -287z" />
    <glyph glyph-name="odieresis" unicode="&#xf6;" horiz-adv-x="1069" 
d="M682 1260q0 -39 -27 -66t-65 -27t-66 27q-27 27 -26 66q0 40 26 66t66 26t66 -26t26 -66zM993 1260q-1 -39 -27 -66t-65 -27t-65 27t-27 66q0 40 27 66q28 26 66 26t64 -26t27 -66zM948 600q0 131 -64 216q-65 85 -192 85q-184 0 -295 -160t-110 -354q1 -131 65 -216
t191 -85q185 0 295 160t110 354zM1075 614q-1 -256 -151 -445t-392 -189q-168 0 -270 106t-102 287q0 256 150 445q151 189 392 190q168 0 270 -107t103 -287z" />
    <glyph glyph-name="divide" unicode="&#xf7;" 
d="M750 92q0 -40 -27 -66t-66 -26t-67 27t-27 65q0 38 27 66q28 26 66 26t66 -26t28 -66zM1143 465h-973v108h973v-108zM750 950q0 -40 -27 -66t-66 -26t-67 27t-27 65q0 38 27 66q28 26 66 26t66 -26t28 -66z" />
    <glyph glyph-name="oslash" unicode="&#xf8;" horiz-adv-x="1069" 
d="M692 901q-184 0 -295 -160t-110 -354q0 -59 14 -111t27 -71l14 -23l506 668q-51 51 -156 51zM948 600q0 104 -37 170l-495 -655q57 -29 127 -29q185 0 295 160t110 354zM1075 614q-1 -256 -151 -445t-392 -189q-117 0 -188 43l-96 -129l-80 57l98 131q-106 106 -106 291
q0 256 150 445q151 189 392 190q143 0 216 -62l102 133l78 -59l-107 -141q84 -115 84 -265z" />
    <glyph glyph-name="ugrave" unicode="&#xf9;" horiz-adv-x="1034" 
d="M940 1198l-47 -84l-432 162l67 121zM176 221q0 31 23 174l100 588h123l-100 -569q-25 -137 -25 -187q0 -49 44 -95t146 -46q162 0 314 127l133 770h123l-168 -983h-109l19 104q-51 -45 -150 -85q-99 -39 -207 -39t-187 64t-79 177z" />
    <glyph glyph-name="uacute" unicode="&#xfa;" horiz-adv-x="1034" 
d="M971 1276l-457 -162l-37 84l441 199zM176 221q0 31 23 174l100 588h123l-100 -569q-25 -137 -25 -187q0 -49 44 -95t146 -46q162 0 314 127l133 770h123l-168 -983h-109l19 104q-51 -45 -150 -85q-99 -39 -207 -39t-187 64t-79 177z" />
    <glyph glyph-name="ucircumflex" unicode="&#xfb;" horiz-adv-x="1034" 
d="M1036 1200l-61 -76l-246 140l-276 -140l-54 82l357 197zM176 221q0 31 23 174l100 588h123l-100 -569q-25 -137 -25 -187q0 -49 44 -95t146 -46q162 0 314 127l133 770h123l-168 -983h-109l19 104q-51 -45 -150 -85q-99 -39 -207 -39t-187 64t-79 177z" />
    <glyph glyph-name="udieresis" unicode="&#xfc;" horiz-adv-x="1034" 
d="M664 1260q0 -39 -27 -66t-66 -27t-65 27t-27 66q0 40 27 66q28 26 66 26t65 -26t27 -66zM975 1260q0 -39 -27 -66q-28 -27 -66 -27t-65 27t-26 66q1 40 27 66t65 26t65 -26t27 -66zM176 221q0 31 23 174l100 588h123l-100 -569q-25 -137 -25 -187q0 -49 44 -95t146 -46
q162 0 314 127l133 770h123l-168 -983h-109l19 104q-51 -45 -150 -85q-99 -39 -207 -39t-187 64t-79 177z" />
    <glyph glyph-name="yacute" unicode="&#xfd;" horiz-adv-x="983" 
d="M936 1276l-457 -162l-37 84l441 199zM68 -465q-100 0 -183 49l45 92q76 -33 138 -32q109 0 184 76t147 210l27 47l-233 1006h131l194 -854l451 854h129l-568 -1053q-111 -201 -188 -278q-117 -117 -274 -117z" />
    <glyph glyph-name="thorn" unicode="&#xfe;" horiz-adv-x="1062" 
d="M944 613q0 128 -67 207q-68 79 -198 79t-280 -125l-100 -590q95 -96 231 -96t231 81t139 199t44 245zM1071 629q-1 -260 -151 -455t-390 -194q-133 0 -249 88l-88 -504h-123l325 1911h123l-100 -580q141 113 299 113t256 -106t98 -273z" />
    <glyph glyph-name="ydieresis" unicode="&#xff;" horiz-adv-x="983" 
d="M621 1260q0 -39 -27 -66t-66 -27q-40 0 -66 27t-26 66q0 40 27 66t65 26t66 -26q27 -26 27 -66zM932 1260q0 -39 -27 -66t-65 -27t-66 27q-27 27 -26 66q0 40 26 66t66 26t66 -26t26 -66zM68 -465q-100 0 -183 49l45 92q76 -33 138 -32q109 0 184 76t147 210l27 47
l-233 1006h131l194 -854l451 854h129l-568 -1053q-111 -201 -188 -278q-117 -117 -274 -117z" />
    <glyph glyph-name="Idotaccent" unicode="&#x130;" horiz-adv-x="481" 
d="M588 1579q0 -39 -27 -66t-65 -27t-66 28q-27 26 -27 65t27 66t66 27q40 0 66 -28q26 -26 26 -65zM537 1366l-230 -1366h-131l230 1366h131z" />
    <glyph glyph-name="dotlessi" unicode="&#x131;" horiz-adv-x="409" 
d="M434 983l-168 -983h-123l168 983h123z" />
    <glyph glyph-name="Lslash" unicode="&#x141;" horiz-adv-x="1013" 
d="M965 115l-19 -115h-719l101 590l-187 -125l-57 82l266 180l107 639h131l-94 -563l274 180l55 -82l-352 -231l-94 -555h588z" />
    <glyph glyph-name="lslash" unicode="&#x142;" horiz-adv-x="591" 
d="M756 918l-285 -187l-123 -731h-123l111 653l-189 -127l-53 82l264 176l117 691h123l-104 -617l211 141z" />
    <glyph glyph-name="OE" unicode="&#x152;" horiz-adv-x="1800" 
d="M1092 1257q-178 -1 -304 -33t-225 -130q-98 -98 -154 -248t-57 -293q0 -209 119 -328q63 -63 165 -90t275 -26h56l192 1148h-67zM944 0q-215 0 -353 29t-229 118q-147 147 -147 410q0 356 246 602q127 127 279 167t386 40h772l-18 -111h-592l-82 -485h555l-18 -108h-555
l-92 -547h608l-18 -115h-742z" />
    <glyph glyph-name="oe" unicode="&#x153;" horiz-adv-x="1732" 
d="M944 598q0 131 -60 217t-182 86t-214 -82q-91 -83 -134 -197t-43 -241q1 -127 61 -213t183 -86q177 0 283 162t106 354zM1638 766q0 68 -47 103q-47 36 -118 36q-117 1 -211 -71q-176 -134 -207 -369q121 6 283 50t243 126q57 57 57 125zM1479 1008q119 0 199 -62
t79 -174q0 -112 -94 -209q-164 -166 -610 -194q4 -127 79 -204q76 -77 194 -77t255 76l51 -86q-35 -31 -124 -65q-88 -33 -204 -33t-210 61t-136 170q-162 -236 -413 -236q-164 0 -262 108t-99 288q0 256 146 446t381 191q123 0 211 -62t125 -174q166 236 432 236z" />
    <glyph glyph-name="Scaron" unicode="&#x160;" horiz-adv-x="1046" 
d="M1145 1665l-357 -197l-280 203l61 76l246 -139l277 139zM1034 1165q-103 113 -304 113q-101 0 -195 -71t-95 -185q0 -62 40 -114t100 -84t131 -72q70 -40 130 -79q60 -40 100 -109t40 -156q0 -180 -127 -308q-126 -128 -358 -127q-232 0 -381 168l78 86l33 -31
q27 -28 46 -38t39 -22q77 -47 221 -48q144 0 229 85t85 210q0 78 -50 139t-115 95q-218 114 -294 190t-76 184q0 176 136 288q135 112 331 112t321 -125l17 -23z" />
    <glyph glyph-name="scaron" unicode="&#x161;" horiz-adv-x="817" 
d="M965 1317l-357 -197l-280 203l61 76l246 -139l276 139zM401 86q88 0 162 42t74 139t-147 175q-60 33 -120 68t-104 90q-43 55 -43 127q-1 127 99 205t245 78q193 -1 283 -101l-66 -82q-98 76 -212 76t-177 -63q-41 -40 -41 -96t34 -90t105 -74t127 -74q56 -33 102 -92
t46 -133q0 -133 -98 -219t-269 -85q-96 1 -155 21q-60 20 -77 30t-35 19t-28 17t-20 14l-8 8l63 88q121 -88 260 -88z" />
    <glyph glyph-name="Ydieresis" unicode="&#x178;" horiz-adv-x="1103" 
d="M743 1577q-1 -39 -27 -66t-65 -27t-65 28q-26 26 -27 65q0 39 27 65q28 26 66 27q38 -1 64 -27t27 -65zM1055 1577q0 -39 -27 -66q-28 -27 -66 -27t-65 28q-27 26 -27 65t27 65t66 27q39 -1 65 -27t27 -65zM1282 1366l-571 -827l-90 -539h-129l90 539l-297 827h141
l246 -702l475 702h135z" />
    <glyph glyph-name="Zcaron" unicode="&#x17d;" horiz-adv-x="1110" 
d="M1141 1665l-357 -197l-280 203l61 76l246 -139l276 139zM1229 1366l-17 -102l-940 -1149h762l-18 -115h-922l17 96l948 1159h-713l19 111h864z" />
    <glyph glyph-name="zcaron" unicode="&#x17e;" horiz-adv-x="954" 
d="M1016 1317l-357 -197l-280 203l61 76l246 -139l277 139zM987 983l-18 -100l-703 -774h588l-18 -109h-750l16 96l715 783h-543l19 104h694z" />
    <glyph glyph-name="florin" unicode="&#x192;" 
d="M1177 1278q-85 0 -145 -61t-112 -201l-119 -307h313l-39 -109h-315l-236 -629q-44 -133 -62 -166q-17 -32 -39 -80t-75 -100q-90 -90 -225 -90q-55 0 -103 13t-67 26l-21 12l54 97q61 -35 142 -35t135 54t134 267q6 18 11 29l227 602h-264l39 109h264l110 292
q85 233 177 312q92 77 225 77t190 -57l-57 -90q-57 35 -142 35z" />
    <glyph glyph-name="circumflex" unicode="&#x2c6;" horiz-adv-x="778" 
d="M911 1200l-61 -76l-246 140l-276 -140l-54 82l357 197z" />
    <glyph glyph-name="caron" unicode="&#x2c7;" horiz-adv-x="778" 
d="M930 1321l-357 -197l-280 203l61 76l246 -139l277 139z" />
    <glyph glyph-name="breve" unicode="&#x2d8;" horiz-adv-x="778" 
d="M311 1362q0 16 2 24h105q0 -129 139 -129q166 0 203 129h100q-12 -110 -98 -182t-200 -72t-182 58q-68 57 -69 172z" />
    <glyph glyph-name="dotaccent" unicode="&#x2d9;" horiz-adv-x="778" 
d="M676 1260q0 -39 -27 -66t-65 -27t-66 27q-27 27 -26 66q0 40 26 66t66 26t66 -26t26 -66z" />
    <glyph glyph-name="ring" unicode="&#x2da;" horiz-adv-x="778" 
d="M694 1292q0 47 -34 82t-80 35t-82 -35q-35 -35 -35 -82t35 -81q35 -33 82 -33q46 0 80 34t34 80zM778 1292q0 -84 -59 -142t-141 -58t-142 58q-59 58 -59 142t59 142q60 58 142 59q82 -1 141 -59t59 -142z" />
    <glyph glyph-name="ogonek" unicode="&#x2db;" horiz-adv-x="778" 
d="M406 -446q-90 0 -146 44q-55 44 -55 136q0 147 164 248l96 -31q-59 -41 -82 -59t-51 -59q-28 -42 -27 -91q0 -98 113 -98q57 0 143 43l35 -76q-100 -57 -190 -57z" />
    <glyph glyph-name="tilde" unicode="&#x2dc;" horiz-adv-x="778" 
d="M468 1221q-52 0 -128 -50l-57 84q115 86 215 86q48 -1 118 -27t109 -26t61 12q23 12 34 19q12 6 24 16t16 13l62 -82q-109 -94 -215 -95q-47 0 -117 25t-122 25z" />
    <glyph glyph-name="hungarumlaut" unicode="&#x2dd;" horiz-adv-x="778" 
d="M596 1374l-199 -340l-90 45l164 361zM860 1374l-198 -340l-91 45l164 361z" />
    <glyph glyph-name="Delta" unicode="&#x394;" horiz-adv-x="1435" 
d="M1120 109l-360 1054l-367 -1054h727zM1284 0h-1051l478 1366h102z" />
    <glyph glyph-name="Omega" unicode="&#x3a9;" horiz-adv-x="1679" 
d="M1561 0h-500v109q328 133 328 587q-1 262 -133 426t-344 164t-344 -164t-132 -426q0 -455 330 -587v-109h-500v113h318q-139 85 -212 241t-73 355q0 299 172 490t441 191q270 0 442 -190q172 -192 172 -491q0 -195 -71 -353t-212 -243h318v-113z" />
    <glyph glyph-name="mu" unicode="&#x3bc;" horiz-adv-x="1044" 
d="M502 86q158 0 309 127l133 770h123l-168 -983h-108l18 104q-50 -44 -148 -85q-98 -40 -180 -39q-156 0 -205 86l-55 -308h-121l209 1225h123l-100 -569q-20 -124 -20 -176t47 -102q48 -50 143 -50z" />
    <glyph glyph-name="pi" unicode="&#x3c0;" horiz-adv-x="1370" 
d="M1130 102q16 0 66 9l-18 -105q-25 -12 -91 -12q-174 0 -174 151q0 39 21 148l98 581h-422l-147 -874h-123l147 874h-147l18 109h971l-18 -109h-156l-94 -559q-18 -111 -19 -139q0 -74 88 -74z" />
    <glyph glyph-name="figuredash" unicode="&#x2012;" 
d="M1143 465h-973v108h973v-108z" />
    <glyph glyph-name="endash" unicode="&#x2013;" horiz-adv-x="1316" 
d="M1239 573l-16 -108h-971l16 108h971z" />
    <glyph glyph-name="emdash" unicode="&#x2014;" horiz-adv-x="2033" 
d="M1956 573l-17 -108h-1687l16 108h1688z" />
    <glyph glyph-name="quoteleft" unicode="&#x2018;" horiz-adv-x="401" 
d="M549 1325q-145 -145 -162 -330h-147q8 176 170 338q39 39 69 62z" />
    <glyph glyph-name="quoteright" unicode="&#x2019;" horiz-adv-x="401" 
d="M559 1366q-8 -176 -170 -338q-39 -39 -70 -61l-69 69q145 145 162 330h147z" />
    <glyph glyph-name="quotesinglbase" unicode="&#x201a;" horiz-adv-x="395" 
d="M354 156q-8 -176 -170 -338q-39 -39 -69 -62l-70 70q145 145 162 330h147z" />
    <glyph glyph-name="quotedblleft" unicode="&#x201c;" horiz-adv-x="665" 
d="M549 1325q-145 -145 -162 -330h-147q8 176 170 338q39 39 69 62zM819 1325q-145 -145 -162 -330h-147q8 176 170 338q39 39 70 62z" />
    <glyph glyph-name="quotedblright" unicode="&#x201d;" horiz-adv-x="677" 
d="M561 1366q-8 -176 -170 -338q-39 -39 -69 -61l-70 69q145 145 162 330h147zM831 1366q-8 -176 -169 -338q-39 -39 -70 -61l-70 69q145 145 162 330h147z" />
    <glyph glyph-name="quotedblbase" unicode="&#x201e;" horiz-adv-x="665" 
d="M354 156q-8 -176 -170 -338q-39 -39 -69 -62l-70 70q145 145 162 330h147zM625 156q-8 -176 -170 -338q-39 -39 -70 -62l-70 70q145 145 162 330h148z" />
    <glyph glyph-name="dagger" unicode="&#x2020;" horiz-adv-x="1132" 
d="M1135 860l-21 -117h-358l-181 -993h-102l154 993h-359l21 117h356l80 506h145l-92 -506h357z" />
    <glyph glyph-name="daggerdbl" unicode="&#x2021;" horiz-adv-x="1132" 
d="M1135 860l-21 -117h-358l-51 -288h360l-18 -115h-363l-109 -590h-102l92 590h-364l18 115h363l45 288h-359l21 117h356l80 506h145l-92 -506h357z" />
    <glyph glyph-name="bullet" unicode="&#x2022;" horiz-adv-x="1122" 
d="M786 516q0 -70 -49 -118t-118 -48t-119 49t-49 118q0 69 50 119q51 50 119 50t117 -50t49 -120z" />
    <glyph glyph-name="ellipsis" unicode="&#x2026;" horiz-adv-x="1325" 
d="M326 76q0 -39 -27 -66q-27 -26 -66 -26t-65 26t-27 66q0 40 27 66q28 26 66 26t65 -26t27 -66zM768 76q0 -39 -27 -66q-27 -26 -65 -26t-66 26q-27 26 -26 66q0 40 26 66t66 26t66 -26t26 -66zM1210 76q0 -39 -26 -66q-26 -26 -66 -26t-66 26t-26 66t27 66t65 26t66 -26
q26 -26 26 -66z" />
    <glyph glyph-name="perthousand" unicode="&#x2030;" horiz-adv-x="2144" 
d="M1989 449q0 170 -138 169q-142 0 -200 -186q-29 -90 -29 -180q0 -170 135 -170t200 183q32 90 32 184zM2103 465q0 -168 -81 -310q-40 -73 -112 -119t-154 -46q-83 0 -134 24q-111 53 -115 222q0 160 79 308q40 75 113 121t165 46q239 0 239 -246zM1303 449
q0 170 -138 169q-142 0 -200 -186q-29 -90 -29 -180q0 -170 135 -170t200 183q32 90 32 184zM1417 465q0 -168 -81 -310q-40 -73 -112 -119t-154 -46q-158 0 -208 91q-41 75 -41 153q-1 78 19 156t60 154q40 75 113 121t165 46q239 0 239 -246zM676 1116q0 170 -139 170
t-199 -186q-29 -90 -29 -180q0 -170 135 -170t200 183q32 89 32 183zM791 1133q0 -163 -81 -311q-40 -73 -112 -119t-155 -46q-159 0 -207 92q-41 75 -41 152q0 165 78 310q40 75 113 121t165 46q240 1 240 -245zM1456 1372l-1218 -1446l-78 60l1218 1450z" />
    <glyph glyph-name="guilsinglleft" unicode="&#x2039;" horiz-adv-x="634" 
d="M645 825l-256 -321l148 -320l-101 -65l-221 385l346 387z" />
    <glyph glyph-name="guilsinglright" unicode="&#x203a;" horiz-adv-x="632" 
d="M590 506l-346 -387l-84 65l256 322l-148 319l101 66z" />
    <glyph glyph-name="fraction" unicode="&#x2044;" horiz-adv-x="477" 
d="M887 1372l-1219 -1446l-78 60l1219 1450z" />
    <glyph glyph-name="zerosuperior" unicode="&#x2070;" horiz-adv-x="780" 
d="M735 1116q0 170 -139 170t-199 -186q-29 -90 -28 -180q0 -170 135 -170t199 183q32 89 32 183zM850 1133q0 -163 -81 -311q-40 -73 -112 -119q-73 -46 -155 -46t-133 25q-115 56 -115 240q0 147 79 289q40 75 112 121q73 46 165 46q240 1 240 -245z" />
    <glyph glyph-name="foursuperior" unicode="&#x2074;" horiz-adv-x="780" 
d="M637 1212l-272 -292h219zM780 920l-16 -89h-96l-29 -163h-100l28 163h-340l15 78l426 457h96l-80 -446h96z" />
    <glyph glyph-name="fivesuperior" unicode="&#x2075;" horiz-adv-x="780" 
d="M549 1124q94 0 150 -55q57 -55 57 -157t-76 -179q-76 -76 -193 -76q-61 0 -123 26t-94 69l62 63q68 -67 148 -67t127 47q48 47 48 111t-37 96q-36 32 -96 32t-119 -49l-47 33l58 348h387l-17 -88h-288l-27 -170q27 16 80 16z" />
    <glyph glyph-name="sixsuperior" unicode="&#x2076;" horiz-adv-x="780" 
d="M510 743q76 1 117 61t41 122q0 124 -95 123q-75 1 -119 -55t-44 -128q0 -123 100 -123zM622 1292q-75 0 -132 -69q-56 -70 -78 -162q60 72 156 72q200 0 200 -189q0 -117 -74 -202t-183 -85t-162 73q-52 72 -52 186t39 216q93 246 297 246q53 0 104 -23t80 -67l-59 -57
q-61 61 -136 61z" />
    <glyph glyph-name="sevensuperior" unicode="&#x2077;" horiz-adv-x="780" 
d="M836 1366l-13 -68l-387 -630h-117l383 610h-358l16 88h476z" />
    <glyph glyph-name="eightsuperior" unicode="&#x2078;" horiz-adv-x="780" 
d="M629 880q0 108 -117 108q-55 0 -99 -40q-44 -39 -44 -98q0 -111 112 -111q63 0 106 42q42 41 42 99zM432 1170q0 -100 106 -101q50 0 90 39q38 39 38 102q0 88 -95 88q-55 0 -97 -38q-42 -36 -42 -90zM332 1155q0 99 74 161t160 62t144 -44t58 -116t-32 -123
q-32 -50 -81 -67q76 -34 76 -140t-73 -168t-170 -62t-159 43q-63 43 -63 123t35 134t96 74q-29 12 -47 47t-18 76z" />
    <glyph glyph-name="ninesuperior" unicode="&#x2079;" horiz-adv-x="780" 
d="M674 1174q0 121 -101 120q-73 0 -115 -60t-42 -134q0 -111 94 -111q70 -1 117 55t47 130zM672 977q-60 -74 -184 -74q-68 0 -120 47q-52 48 -52 152t73 190q74 86 182 86t162 -68q53 -69 53 -187t-38 -221t-99 -161q-80 -84 -198 -84q-53 0 -105 25t-80 63l60 60
q59 -61 136 -61t135 70q58 71 75 163z" />
    <glyph glyph-name="parenleftsuperior" unicode="&#x207d;" horiz-adv-x="399" 
d="M227 930q0 146 81 305q82 160 229 246l47 -70q-117 -78 -183 -211q-65 -133 -65 -294t106 -267l-57 -68q-158 86 -158 359z" />
    <glyph glyph-name="parenrightsuperior" unicode="&#x207e;" horiz-adv-x="399" 
d="M512 1120q0 -146 -81 -305q-81 -160 -228 -246l-47 70q117 78 182 211q66 133 66 294t-107 267l57 68q158 -86 158 -359z" />
    <glyph glyph-name="zeroinferior" unicode="&#x2080;" horiz-adv-x="780" 
d="M629 449q0 170 -137 169q-141 0 -201 -186q-29 -90 -29 -180q0 -170 135 -170t200 183q32 90 32 184zM743 465q0 -166 -80 -310q-40 -73 -112 -119t-155 -46t-134 24q-111 53 -115 222q0 160 79 308q40 75 113 121t165 46q239 0 239 -246z" />
    <glyph glyph-name="oneinferior" unicode="&#x2081;" horiz-adv-x="780" 
d="M604 698l-119 -698h-106l96 567l-176 -98l-49 76l272 153h82z" />
    <glyph glyph-name="twoinferior" unicode="&#x2082;" horiz-adv-x="780" 
d="M682 537q0 -76 -34 -131q-68 -110 -310 -316h289l-17 -90h-430l15 80q195 166 272 246q115 119 115 200q0 39 -28 66t-71 26q-74 0 -157 -69l-54 63q90 98 215 99q83 0 139 -49t56 -125z" />
    <glyph glyph-name="threeinferior" unicode="&#x2083;" horiz-adv-x="780" 
d="M395 403q187 0 187 127q0 43 -29 66t-72 22q-72 0 -151 -67l-54 61q92 98 218 99q76 0 130 -46q54 -45 54 -115q0 -139 -111 -194q72 -44 72 -144t-79 -162t-169 -62q-143 0 -211 88l60 63q76 -59 141 -59t113 38q47 38 47 99q0 96 -126 96h-63l13 90h30z" />
    <glyph glyph-name="fourinferior" unicode="&#x2084;" horiz-adv-x="780" 
d="M551 545l-272 -293h219zM694 252l-16 -88h-96l-29 -164h-100l28 164h-340l15 78l426 456h96l-80 -446h96z" />
    <glyph glyph-name="fiveinferior" unicode="&#x2085;" horiz-adv-x="780" 
d="M397 -10q-61 0 -123 25t-94 69l62 63q68 -67 148 -67t127 47q48 47 48 111t-37 97q-36 32 -96 32t-119 -50l-47 33l58 348h387l-17 -88h-288l-27 -170q27 16 80 17q94 1 150 -55q57 -56 57 -158t-76 -178t-193 -76z" />
    <glyph glyph-name="sixinferior" unicode="&#x2086;" horiz-adv-x="780" 
d="M410 76q76 0 116 60t41 122q0 124 -94 123q-76 0 -120 -55t-44 -127q0 -123 101 -123zM466 465q200 0 202 -189q0 -118 -74 -202t-183 -84t-162 72q-52 73 -52 187t39 216q94 246 296 246q53 0 105 -24t80 -66l-60 -58q-61 61 -136 61t-131 -69q-56 -70 -79 -162
q59 72 155 72z" />
    <glyph glyph-name="seveninferior" unicode="&#x2087;" horiz-adv-x="780" 
d="M737 698l-12 -67l-387 -631h-117l383 610h-358l16 88h475z" />
    <glyph glyph-name="eightinferior" unicode="&#x2088;" horiz-adv-x="780" 
d="M543 212q0 108 -117 108q-55 0 -99 -40q-44 -38 -44 -106q0 -104 119 -102q56 0 98 42q42 40 43 98zM346 502q0 -101 106 -101q50 0 90 39q38 40 38 103q0 88 -95 88q-55 0 -97 -38t-42 -91zM682 550q0 -72 -32 -122t-81 -68q76 -34 76 -140t-73 -168t-170 -62t-159 44
q-63 44 -63 123t35 133t96 75q-29 12 -47 47t-18 75q0 98 73 161q74 62 161 62q86 0 144 -43q58 -45 58 -117z" />
    <glyph glyph-name="nineinferior" unicode="&#x2089;" horiz-adv-x="780" 
d="M588 506q0 121 -101 121q-73 -1 -115 -61t-42 -134q0 -111 94 -110q70 0 117 55t47 129zM485 711q107 -1 161 -69t54 -186t-38 -222t-99 -160q-80 -84 -198 -84q-53 0 -106 25t-79 63l60 59q57 -61 135 -61t136 70t75 163q-60 -73 -184 -73q-68 0 -120 47t-52 151t73 191
q74 86 182 86z" />
    <glyph glyph-name="parenleftinferior" unicode="&#x208d;" horiz-adv-x="399" 
d="M305 -121q-158 87 -158 359q-1 146 81 304q82 160 229 246l47 -69q-116 -78 -182 -211t-66 -294t106 -267z" />
    <glyph glyph-name="parenrightinferior" unicode="&#x208e;" horiz-adv-x="399" 
d="M272 786q158 -86 158 -358q0 -145 -81 -305t-228 -246l-47 70q117 78 182 211q66 133 66 294t-107 267z" />
    <glyph glyph-name="franc" unicode="&#x20a3;" horiz-adv-x="1513" 
d="M1495 760q-43 0 -107 -30t-127 -91q-62 -61 -87 -96l-93 -543h-123l144 850h117l-25 -150q158 176 340 177q69 0 106 -25l-41 -102q-61 10 -104 10zM1108 1366l-18 -111h-572l-67 -405h534l-18 -109h-535l-125 -741h-131l230 1366h702z" />
    <glyph glyph-name="lira" unicode="&#x20a4;" 
d="M395 109h701l-17 -109h-891l15 104q92 29 147 86q100 102 115 326h-203l17 100h190v134h-180l16 100h170q4 82 44 198t124 201q135 141 350 141t307 -120l-73 -82q-105 92 -247 92t-243 -100q-63 -64 -97 -168t-36 -162h385l-18 -100h-373l-2 -134h367l-19 -100h-350
q-18 -238 -141 -362q-45 -45 -58 -45z" />
    <glyph glyph-name="peseta" unicode="&#x20a7;" horiz-adv-x="2551" 
d="M2307 903q-114 0 -177 -63q-41 -40 -41 -96t34 -90q35 -34 105 -74t126 -74q56 -33 102 -92t47 -133q-1 -133 -99 -219t-268 -85q-96 1 -155 21q-60 20 -77 30q-18 10 -36 19q-18 10 -29 19t-27 20l64 88q30 -20 37 -24q8 -4 27 -16t64 -26q166 -53 294 20q74 42 74 139
t-147 175q-61 33 -121 68t-103 90t-43 127q0 127 99 205t245 78q193 -1 283 -101l-66 -82q-98 76 -212 76zM1415 190q0 -106 121 -106q68 0 132 35q11 6 13 6l41 -88q-228 -113 -367 -12q-67 47 -67 139l23 158l96 561h-172l16 100h172l47 279h123l-47 -279h316l-17 -100
h-315l-92 -535q-23 -135 -23 -158zM1038 1040q0 100 -48 148t-107 60q-59 11 -168 12h-197l-100 -588h203q139 0 205 24t118 76q94 94 94 268zM1171 1051q0 -203 -147 -351q-82 -82 -187 -108t-266 -27h-172l-94 -565h-129l230 1366h268q172 0 260 -16t147 -76
q90 -90 90 -223z" />
    <glyph glyph-name="Euro" unicode="&#x20ac;" 
d="M350 616q0 61 23 134h-129l18 100h133q15 70 69 182t146 203q158 158 389 158q111 0 193 -40t115 -79l-74 -82q-106 90 -260 90t-262 -108q-80 -80 -128 -178t-55 -146h529l-19 -100h-532q-16 -51 -23 -134h533l-17 -100h-520l-2 -33q0 -393 301 -393q88 0 162 28t111 52
q38 25 43 27l57 -93q-50 -50 -166 -90q-116 -39 -228 -39t-201 45q-149 75 -198 277q-18 78 -18 168l2 51h-137l16 100h129z" />
    <glyph glyph-name="afii61289" unicode="&#x2113;" horiz-adv-x="1024" 
d="M788 1214q0 90 -47 91q-23 0 -47 -26q-74 -82 -162 -597q256 287 256 532zM442 138q0 -64 37 -64q53 0 105 110q16 37 41 37t25 -39t-54 -114q-76 -96 -148 -96t-108 47q-37 47 -37 127t21 266q-84 -78 -98 -78t-22 10q-9 10 -9 26t44 55q44 38 99 103q84 442 182 652
t221 209q59 1 95 -45t34 -121q0 -178 -131 -394q-73 -118 -229 -278q-68 -349 -68 -413z" />
    <glyph glyph-name="afii61352" unicode="&#x2116;" horiz-adv-x="2365" 
d="M2021 1083q0 95 -46 157t-136 63q-133 0 -214 -117t-81 -258q0 -94 46 -156t136 -63q133 1 214 117t81 257zM2124 1094q0 -188 -112 -330t-292 -143q-126 1 -202 81t-76 216q0 188 111 330q112 142 292 143q125 0 202 -81t77 -216zM1352 1366l-230 -1366h-145l-483 1174
l-195 -1174h-123l230 1366h139l489 -1184l195 1184h123z" />
    <glyph glyph-name="trademark" unicode="&#x2122;" horiz-adv-x="1474" 
d="M805 1366l-14 -88h-207l-107 -637h-98l106 637h-206l14 88h512zM1526 1366l-27 -725h-98l22 543l-280 -543h-78l-98 545l-160 -545h-98l219 725h100l102 -567l293 567h103z" />
    <glyph glyph-name="uni2126" unicode="&#x2126;" horiz-adv-x="1679" 
d="M1561 0h-500v109q328 133 328 587q-1 262 -133 426t-344 164t-344 -164t-132 -426q0 -455 330 -587v-109h-500v113h318q-139 85 -212 241t-73 355q0 299 172 490t441 191q270 0 442 -190q172 -192 172 -491q0 -195 -71 -353t-212 -243h318v-113z" />
    <glyph glyph-name="estimated" unicode="&#x212e;" horiz-adv-x="1634" 
d="M1298 686v371q0 25 -20 45q-188 192 -458 192t-464 -198q-20 -20 -20 -47v-363q0 -10 12 -10h940q10 0 10 10zM1575 637h-1227q-12 0 -12 -8v-371q0 -20 18 -43q190 -201 465 -201q143 0 269 60t219 166h110q-104 -123 -263 -195t-337 -72q-313 0 -535 200
q-222 199 -222 481t222 482t535 200t536 -200q222 -200 222 -481v-18z" />
    <glyph glyph-name="onethird" unicode="&#x2153;" horiz-adv-x="1497" 
d="M662 1366l-119 -698h-107l96 567l-176 -98l-49 75l273 154h82zM1456 1372l-1218 -1446l-78 60l1218 1450zM1096 403q186 0 186 127q0 43 -29 66t-71 22q-72 0 -152 -67l-53 61q92 98 217 99q76 0 130 -46q54 -45 54 -115q0 -140 -110 -194q72 -44 72 -144t-80 -162
q-78 -62 -168 -62q-143 0 -211 88l59 63q76 -59 141 -59t113 38q47 38 47 99q0 96 -126 96h-62l12 90h31z" />
    <glyph glyph-name="twothirds" unicode="&#x2154;" horiz-adv-x="1497" 
d="M1096 403q186 0 186 127q0 43 -29 66t-71 22q-72 0 -152 -67l-53 61q92 98 217 99q76 0 130 -46q54 -45 54 -115q0 -140 -110 -194q72 -44 72 -144t-80 -162q-78 -62 -168 -62q-143 0 -211 88l59 63q76 -59 141 -59t113 38q47 38 47 99q0 96 -126 96h-62l12 90h31z
M700 1204q0 -76 -34 -131q-66 -109 -310 -315h289l-16 -90h-430l14 80q195 166 272 245q115 119 115 201q0 39 -28 66t-70 26q-74 0 -158 -69l-53 63q90 98 215 98q82 0 138 -49t56 -125zM1456 1372l-1218 -1446l-78 60l1218 1450z" />
    <glyph glyph-name="oneeighth" unicode="&#x215b;" horiz-adv-x="1497" 
d="M973 182q-1 -112 119 -110q56 0 98 42t43 98q0 108 -117 108q-55 0 -99 -40q-44 -38 -44 -98zM1036 502q0 -101 107 -101q51 -1 89 39t38 103q0 88 -94 88q-56 0 -98 -38t-42 -91zM1372 550q0 -72 -32 -122t-80 -68q76 -34 76 -140t-74 -168q-72 -62 -170 -62t-159 44
q-63 44 -63 123t35 133t96 75q-29 12 -47 47t-18 75q0 99 74 161t161 62t144 -43q57 -45 57 -117zM662 1366l-119 -698h-107l96 567l-176 -98l-49 75l273 154h82zM1456 1372l-1218 -1446l-78 60l1218 1450z" />
    <glyph glyph-name="threeeighths" unicode="&#x215c;" horiz-adv-x="1497" 
d="M973 182q-1 -112 119 -110q56 0 98 42t43 98q0 108 -117 108q-55 0 -99 -40q-44 -38 -44 -98zM1036 502q0 -101 107 -101q51 -1 89 39t38 103q0 88 -94 88q-56 0 -98 -38t-42 -91zM1372 550q0 -72 -32 -122t-80 -68q76 -34 76 -140t-74 -168q-72 -62 -170 -62t-159 44
q-63 44 -63 123t35 133t96 75q-29 12 -47 47t-18 75q0 99 74 161t161 62t144 -43q57 -45 57 -117zM424 1071q188 0 186 127q0 43 -28 66q-29 23 -72 22q-72 0 -152 -67l-53 61q92 98 217 98q76 0 130 -46t55 -116q0 -138 -111 -192q72 -44 72 -144t-79 -162t-169 -63
q-143 0 -211 88l59 64q76 -59 142 -59t112 38q47 38 47 99q0 96 -126 96h-62l12 90h31zM1456 1372l-1218 -1446l-78 60l1218 1450z" />
    <glyph glyph-name="fiveeighths" unicode="&#x215d;" horiz-adv-x="1497" 
d="M973 182q-1 -112 119 -110q56 0 98 42t43 98q0 108 -117 108q-55 0 -99 -40q-44 -38 -44 -98zM1036 502q0 -101 107 -101q51 -1 89 39t38 103q0 88 -94 88q-56 0 -98 -38t-42 -91zM1372 550q0 -72 -32 -122t-80 -68q76 -34 76 -140t-74 -168q-72 -62 -170 -62t-159 44
q-63 44 -63 123t35 133t96 75q-29 12 -47 47t-18 75q0 99 74 161t161 62t144 -43q57 -45 57 -117zM469 1124q95 0 151 -55t56 -157t-76 -179q-76 -76 -206 -76t-204 95l62 63q68 -67 148 -67t127 47q48 47 48 111q-1 64 -37 96t-96 32t-118 -49l-48 33l58 348h387l-16 -88
h-289l-27 -170q27 16 80 16zM1456 1372l-1218 -1446l-78 60l1218 1450z" />
    <glyph glyph-name="seveneighths" unicode="&#x215e;" horiz-adv-x="1497" 
d="M973 182q-1 -112 119 -110q56 0 98 42t43 98q0 108 -117 108q-55 0 -99 -40q-44 -38 -44 -98zM1036 502q0 -101 107 -101q51 -1 89 39t38 103q0 88 -94 88q-56 0 -98 -38t-42 -91zM1372 550q0 -72 -32 -122t-80 -68q76 -34 76 -140t-74 -168q-72 -62 -170 -62t-159 44
q-63 44 -63 123t35 133t96 75q-29 12 -47 47t-18 75q0 99 74 161t161 62t144 -43q57 -45 57 -117zM715 1366l-13 -68l-387 -630h-116l383 610h-359l17 88h475zM1456 1372l-1218 -1446l-78 60l1218 1450z" />
    <glyph glyph-name="partialdiff" unicode="&#x2202;" horiz-adv-x="1251" 
d="M758 891q-168 0 -266 -158t-99 -352q1 -74 17 -134q16 -61 69 -109t137 -48q154 0 269 164t159 455l9 51q-14 18 -39 41t-100 57t-156 33zM1202 965q0 -418 -171 -705t-419 -287q-174 0 -261 111t-87 293q0 281 152 455t350 174q72 0 163 -36t138 -79q2 31 2 86
q0 190 -84 298q-84 107 -223 107t-254 -75l-59 94q30 36 133 67q104 32 182 31q226 0 332 -148t106 -386z" />
    <glyph glyph-name="uni2206" unicode="&#x2206;" horiz-adv-x="1435" 
d="M1120 109l-360 1054l-367 -1054h727zM1284 0h-1051l478 1366h102z" />
    <glyph glyph-name="product" unicode="&#x220f;" horiz-adv-x="1652" 
d="M1608 1257h-156v-1257h-135v1257h-686v-1257h-135v1257h-156v109h1268v-109z" />
    <glyph glyph-name="summation" unicode="&#x2211;" horiz-adv-x="1128" 
d="M1034 0h-743v78l373 620l-373 580v88h743v-109h-581l348 -555l-363 -593h596v-109z" />
    <glyph glyph-name="minus" unicode="&#x2212;" 
d="M1143 465h-973v108h973v-108z" />
    <glyph glyph-name="radical" unicode="&#x221a;" horiz-adv-x="1642" 
d="M1540 1458l-547 -1458h-110l-324 840l-242 -82l-34 102l348 121l311 -811l488 1329z" />
    <glyph glyph-name="infinity" unicode="&#x221e;" horiz-adv-x="1740" 
d="M531 758q-72 0 -125 -53q-54 -53 -54 -129t56 -132t122 -57q68 0 134 34q66 33 102 63t96 85q-63 63 -99 95t-98 64q-62 30 -134 30zM1326 387q68 1 122 57q55 56 55 132t-53 129q-52 53 -124 53t-134 -31t-99 -63q-36 -32 -100 -95q59 -55 97 -85t102 -64
q66 -34 134 -33zM1606 567q0 -119 -85 -203t-187 -85q-102 0 -192 51q-89 51 -214 170q-125 -119 -214 -170q-90 -51 -192 -51t-187 85q-85 86 -85 204t82 202t200 84q188 0 396 -215q207 215 395 215q119 0 201 -84t82 -203z" />
    <glyph glyph-name="integral" unicode="&#x222b;" horiz-adv-x="1343" 
d="M329 -465q-136 0 -216 80l69 80q61 -51 146 -51q86 0 144 58t87 216l201 1188q10 70 18 106t35 92t68 97q98 98 234 98t216 -80l-69 -80q-60 51 -146 51t-144 -58t-87 -216l-201 -1188q-10 -70 -18 -106t-35 -92q-27 -55 -68 -97q-98 -98 -234 -98z" />
    <glyph glyph-name="approxequal" unicode="&#x2248;" 
d="M885 258q-82 0 -217 58t-208 58t-145 -79l-94 63q100 137 250 138q84 0 215 -58t201 -59q70 0 145 84l92 -68q-109 -137 -239 -137zM885 545q-82 0 -217 58q-135 59 -208 59t-145 -80l-94 63q100 137 250 137q84 0 215 -58t201 -58t145 84l92 -68q-109 -137 -239 -137z
" />
    <glyph glyph-name="notequal" unicode="&#x2260;" 
d="M1143 336h-531l-176 -277l-94 58l141 219h-313v108h379l92 150h-471v108h539l165 263l91 -58l-129 -205h307v-108h-375l-92 -150h467v-108z" />
    <glyph glyph-name="lessequal" unicode="&#x2264;" 
d="M1149 0h-969v109h969v-109zM1149 299l-45 -98l-924 446v82l922 447l47 -99l-819 -391z" />
    <glyph glyph-name="greaterequal" unicode="&#x2265;" 
d="M1182 0h-969v109h969v-109zM1182 647l-924 -446l-45 98l819 387l-819 391l47 99l922 -447v-82z" />
    <glyph glyph-name="lozenge" unicode="&#x25ca;" horiz-adv-x="1363" 
d="M1118 688l-356 541l-348 -541l352 -565zM1253 688l-440 -688h-98l-441 688l441 678h94z" />
    <glyph glyph-name="Euro.fitted" unicode="&#xe002;" horiz-adv-x="1126" 
d="M293 616q0 61 22 134h-129l19 100h133q16 70 70 182t145 203q158 158 389 158q110 0 192 -40t115 -79l-73 -82q-106 90 -260 90t-263 -108q-80 -80 -128 -178t-54 -146h528l-18 -100h-532q-16 -51 -23 -134h532l-16 -100h-520l-2 -33q0 -393 301 -393q88 0 163 30
q79 27 108 48q28 21 44 29l58 -93q-50 -50 -166 -89q-116 -40 -228 -40t-201 45q-149 75 -198 277q-18 78 -18 168l2 51h-138l17 100h129z" />
    <glyph glyph-name="Dotaccent" unicode="&#xefed;" horiz-adv-x="778" 
d="M676 1577q0 -39 -27 -66t-65 -27t-66 28q-27 26 -26 65q0 39 26 65t66 27q40 -1 66 -27t26 -65z" />
    <glyph glyph-name="Breve" unicode="&#xefee;" horiz-adv-x="778" 
d="M562 1464q-114 0 -182 58t-69 172q0 16 2 24h105q0 -129 139 -129q166 0 203 129h100q-12 -110 -98 -182t-200 -72z" />
    <glyph glyph-name="Ogonek" unicode="&#xeff1;" horiz-adv-x="778" 
d="M406 -446q-90 0 -146 44q-55 44 -55 136q0 147 164 248l96 -31q-59 -41 -82 -59t-51 -59q-28 -42 -27 -91q0 -98 113 -98q57 0 143 43l35 -76q-100 -57 -190 -57z" />
    <glyph glyph-name="Cedilla" unicode="&#xeff2;" horiz-adv-x="778" 
d="M537 -258q1 -76 -59 -132t-159 -56t-147 47l47 75q55 -32 105 -32t83 24t33 65q0 39 -22 63t-62 24q-39 0 -77 -29l-43 35l67 174h88l-47 -109q12 13 62 13t90 -43q41 -43 41 -119z" />
    <glyph glyph-name="Tilde" unicode="&#xeff5;" horiz-adv-x="778" 
d="M468 1518q-52 0 -128 -50l-57 84q115 86 215 86q48 0 118 -26t109 -27q39 1 61 13q23 12 34 18q12 6 24 16t16 13l62 -82q-109 -94 -215 -95q-47 0 -117 25t-122 25z" />
    <glyph glyph-name="Circumflex" unicode="&#xeff7;" horiz-adv-x="778" 
d="M911 1548l-61 -75l-246 139l-276 -139l-54 81l357 197z" />
    <glyph glyph-name="parenleft.dnom" unicode="&#xf62c;" horiz-adv-x="399" 
d="M305 -121q-158 87 -158 359q-1 146 81 304q82 160 229 246l47 -69q-116 -78 -182 -211t-66 -294t106 -267z" />
    <glyph glyph-name="parenright.dnom" unicode="&#xf62d;" horiz-adv-x="399" 
d="M272 786q158 -86 158 -358q0 -145 -81 -305t-228 -246l-47 70q117 78 182 211q66 133 66 294t-107 267z" />
    <glyph glyph-name="parenleft.numr" unicode="&#xf631;" horiz-adv-x="399" 
d="M227 930q0 146 81 305q82 160 229 246l47 -70q-117 -78 -183 -211q-65 -133 -65 -294t106 -267l-57 -68q-158 86 -158 359z" />
    <glyph glyph-name="parenright.numr" unicode="&#xf632;" horiz-adv-x="399" 
d="M512 1120q0 -146 -81 -305q-81 -160 -228 -246l-47 70q117 78 182 211q66 133 66 294t-107 267l57 68q158 -86 158 -359z" />
    <glyph glyph-name="zero.fitted" unicode="&#xf639;" horiz-adv-x="1230" 
d="M1096 899q0 106 -23 187q-23 80 -86 138t-166 58q-143 0 -245 -108t-158 -308q-57 -199 -58 -397q0 -383 273 -383t400 406q63 198 63 407zM1231 907q0 -322 -136 -608q-69 -143 -190 -233t-261 -90t-226 48q-189 109 -193 437q0 255 85 488q46 126 113 223
q67 96 171 158t231 63q203 -1 305 -129t101 -357z" />
    <glyph glyph-name="two.fitted" unicode="&#xf63a;" horiz-adv-x="995" 
d="M1044 1066q0 -142 -66 -248q-147 -240 -724 -703h666l-21 -115h-829l18 109q354 291 565 501q252 252 252 437q-1 97 -69 163t-174 66q-166 0 -328 -129l-68 78q111 111 275 151q66 16 133 17q160 -1 265 -93t105 -234z" />
    <glyph glyph-name="three.fitted" unicode="&#xf63b;" horiz-adv-x="1024" 
d="M1042 1078q0 -144 -88 -250t-225 -126q9 -2 25 -5t56 -22t71 -47t55 -83t25 -125q0 -205 -158 -325t-339 -120t-265 57q-85 57 -109 89l80 84q125 -113 292 -113t264 98t97 208q0 176 -154 225q-59 18 -105 20t-132 2l17 113h34q250 0 351 100q78 78 78 192t-72 170
t-176 56q-166 0 -316 -125l-67 76q29 31 73 63t140 68q94 35 194 35q150 0 252 -85q102 -86 102 -230z" />
    <glyph glyph-name="four.fitted" unicode="&#xf63c;" horiz-adv-x="1128" 
d="M938 1176l-637 -734h514zM1128 442l-18 -110h-186l-56 -332h-127l56 332h-658l19 106l809 928h131l-156 -924h186z" />
    <glyph glyph-name="five.fitted" unicode="&#xf63d;" horiz-adv-x="1046" 
d="M182 211q119 -119 297 -119t291 108t113 275q0 129 -85 203q-84 74 -224 74t-246 -88l-56 38l113 664h731l-18 -111h-604l-72 -438q86 49 192 49q182 0 294 -99t112 -273q0 -226 -150 -372t-372 -147q-115 0 -232 43t-164 109z" />
    <glyph glyph-name="six.fitted" unicode="&#xf63e;" horiz-adv-x="1165" 
d="M997 524q0 117 -60 187t-177 69q-160 0 -270 -126t-110 -272t66 -223t185 -77q166 0 266 136t100 306zM866 1280q-165 0 -284 -123q-82 -84 -138 -218t-67 -206q-12 -72 -17 -127q49 131 161 206q113 75 261 75t246 -91t98 -261q0 -229 -142 -395t-359 -165
q-166 0 -273 107q-127 128 -127 372t78 453q181 486 580 486q158 0 246 -64q65 -46 85 -76l-77 -79q-106 106 -271 106z" />
    <glyph glyph-name="seven.fitted" unicode="&#xf63f;" horiz-adv-x="1075" 
d="M1198 1366l-16 -104l-789 -1262h-147l796 1249h-766l19 117h903z" />
    <glyph glyph-name="eight.fitted" unicode="&#xf640;" horiz-adv-x="1159" 
d="M971 420q0 233 -285 233q-134 0 -238 -90q-104 -89 -104 -231t79 -198t215 -56t234 93q99 93 99 249zM740 754q118 0 214 93t95 211q0 118 -69 176q-68 56 -186 56t-216 -87t-98 -209t70 -182q72 -58 190 -58zM1178 1088q0 -146 -85 -250t-219 -133q49 -8 108 -45
q118 -74 118 -234q0 -211 -139 -331t-347 -120q-164 0 -282 82t-119 244q0 161 92 271t252 133q-96 25 -151 95t-56 173q0 186 142 303t306 117q166 0 273 -80q107 -79 107 -225z" />
    <glyph glyph-name="nine.fitted" unicode="&#xf641;" horiz-adv-x="1110" 
d="M973 986q0 146 -66 223t-184 77q-166 0 -266 -136t-101 -306q0 -117 60 -187t178 -69q160 0 270 126t109 272zM1128 914q0 -244 -78 -453q-180 -486 -579 -486q-157 0 -234 55t-98 85l78 80q106 -107 271 -107t284 123q82 84 137 218t68 206q12 72 16 127
q-49 -131 -161 -206t-260 -75t-246 91t-99 262q1 229 143 394t359 165q166 0 272 -107q127 -128 127 -372z" />
    <glyph glyph-name="zero.taboldstyle" unicode="&#xf643;" 
d="M1081 641q0 135 -79 232t-226 98q-205 0 -334 -171t-129 -388q0 -136 78 -232t225 -96q205 0 335 170t130 387zM782 1075q204 1 316 -115t112 -296t-70 -330t-210 -252q-142 -102 -322 -102t-302 114t-122 316q0 258 171 462t427 203z" />
    <glyph glyph-name="one.taboldstyle" unicode="&#xf644;" 
d="M895 1059l-178 -1059h-125l156 909l-281 -159l-57 86l383 223h102z" />
    <glyph glyph-name="two.taboldstyle" unicode="&#xf645;" 
d="M752 1077q108 1 202 -71t93 -186q1 -114 -45 -188q-46 -75 -177 -203t-389 -320h559l-18 -109h-741l18 96q322 240 493 407t171 296q0 74 -58 121t-133 47q-137 0 -266 -105l-68 78q53 63 151 100q100 37 208 37z" />
    <glyph glyph-name="three.taboldstyle" unicode="&#xf646;" 
d="M784 428q207 -40 207 -280q0 -80 -45 -163q-78 -144 -269 -211q-81 -28 -157 -28q-242 0 -352 135l76 82q112 -109 268 -109t260 101q88 87 88 191q0 210 -238 227q-42 2 -124 2l18 106h33q233 0 330 97q73 74 73 179t-64 157q-65 52 -161 53q-139 0 -291 -121l-71 78
q25 28 61 56t128 62t212 35q120 0 216 -77t97 -213q0 -136 -84 -237t-211 -122z" />
    <glyph glyph-name="four.taboldstyle" unicode="&#xf647;" 
d="M924 883l-652 -756h523zM1092 127l-19 -107h-170l-47 -270h-125l47 270h-661l16 97l805 942h139l-157 -932h172z" />
    <glyph glyph-name="five.taboldstyle" unicode="&#xf648;" 
d="M659 588q175 0 279 -93t104 -259q0 -214 -142 -352t-366 -138t-337 125l71 84l31 -24q9 -5 25 -16t30 -17q100 -43 189 -43q162 0 266 104q104 103 104 241t-80 209q-81 71 -194 70q-152 0 -252 -84l-51 37l104 627h693l-19 -109h-567l-70 -409q82 47 182 47z" />
    <glyph glyph-name="six.taboldstyle" unicode="&#xf649;" 
d="M975 496q0 110 -54 174t-161 63q-144 0 -248 -118t-104 -254q0 -137 58 -207t167 -70q152 0 247 128t95 284zM852 1202q-140 0 -256 -115q-70 -69 -121 -191t-65 -190t-21 -120q51 116 151 184t238 68q136 0 228 -86t92 -248q0 -215 -135 -370t-334 -154q-131 0 -217 72
t-119 173q-33 102 -33 232q0 238 75 419t175 279q160 156 356 156q84 0 178 -39t134 -94l-74 -76q-112 100 -252 100z" />
    <glyph glyph-name="seven.taboldstyle" unicode="&#xf64a;" 
d="M1190 1059l-16 -105l-734 -1204h-139l741 1196h-710l18 113h840z" />
    <glyph glyph-name="eight.taboldstyle" unicode="&#xf64b;" 
d="M954 378q0 126 -68 179q-69 53 -173 53q-150 0 -239 -89t-89 -212t72 -175q73 -52 195 -52t212 85t90 211zM1028 994q0 110 -62 162t-169 52t-197 -82t-90 -194t64 -166q64 -53 172 -53t195 86q87 85 87 195zM385 918q0 174 131 284q130 110 284 109q154 0 254 -76
t99 -211q0 -135 -79 -234t-202 -126q43 -5 99 -42q112 -75 110 -219q0 -199 -129 -311t-321 -112q-145 0 -259 76t-114 234q0 157 111 267q78 78 206 107q-90 22 -140 90t-50 164z" />
    <glyph glyph-name="nine.taboldstyle" unicode="&#xf64c;" 
d="M942 701q0 272 -223 272q-150 0 -245 -123t-95 -277q0 -106 55 -167t160 -62q145 0 247 113q101 113 101 244zM1092 606q0 -305 -136 -567q-68 -131 -190 -212t-281 -81q-84 0 -176 34t-137 93l74 80q109 -96 252 -96q94 0 171 41t126 102q127 159 168 483
q-49 -115 -149 -181t-240 -66t-230 85t-90 238q0 207 133 363t331 156t286 -135q88 -134 88 -337z" />
    <glyph glyph-name="Euro.taboldstyle" unicode="&#xf64e;" 
d="M350 616q0 61 23 134h-129l18 100h133q15 70 69 182t146 203q158 158 389 158q111 0 193 -40t115 -79l-74 -82q-106 90 -260 90t-262 -108q-80 -80 -128 -178t-55 -146h529l-19 -100h-532q-16 -51 -23 -134h533l-17 -100h-520l-2 -33q0 -393 301 -393q88 0 162 28t111 52
q38 25 43 27l57 -93q-50 -50 -166 -90q-116 -39 -228 -39t-201 45q-149 75 -198 277q-18 78 -18 168l2 51h-137l16 100h129z" />
    <glyph glyph-name="florin.taboldstyle" unicode="&#xf64f;" 
d="M1130 1278q-84 0 -144 -61t-114 -201l-118 -307h313l-39 -109h-315l-236 -629q-20 -62 -29 -81q-8 -19 -21 -53t-21 -49t-22 -44q-31 -66 -83 -119q-90 -90 -225 -90q-54 0 -102 13t-68 26l-21 12l54 97q61 -35 142 -35t135 54t134 267q6 18 10 29l228 602h-264l38 109
h265l110 292q85 233 177 312q92 77 225 77t190 -57l-57 -90q-57 35 -142 35z" />
    <glyph glyph-name="sterling.taboldstyle" unicode="&#xf651;" 
d="M978 1280q-145 0 -235 -93q-89 -93 -119 -229t-26 -249h391l-18 -109h-375v-37q0 -109 -40 -235t-134 -202q-18 -14 -27 -17h701l-17 -109h-891l15 104q92 29 147 86q117 119 117 410h-178l16 109h164q0 360 174 540q135 141 350 141t307 -120l-73 -82q-104 92 -249 92z
" />
    <glyph glyph-name="yen.taboldstyle" unicode="&#xf652;" 
d="M1309 1366l-492 -659h258l-16 -101h-301l-21 -114h301l-16 -99h-299l-66 -393h-129l66 393h-297l16 99h297l21 114h-297l16 101h252l-266 659h141l238 -639l459 639h135z" />
    <glyph glyph-name="dollar.taboldstyle" unicode="&#xf653;" 
d="M936 389q0 76 -44 129t-126 100l-86 -509q104 9 180 85t76 195zM518 1029q0 -67 18 -93q37 -52 58 -67q20 -15 30 -22l32 -21q22 -13 26 -15l76 446q-106 -11 -188 -103q-52 -58 -52 -125zM1208 1233l-84 -78q-98 98 -250 109l-86 -508q218 -112 265 -221q23 -53 22 -121
q0 -170 -116 -286t-300 -136l-32 -197h-117l33 195q-223 10 -353 157l80 84l17 -14q119 -104 274 -115l98 572q-173 99 -216 155q-54 77 -56 170q0 154 115 256t274 117l25 152h117l-25 -150q219 -12 315 -141z" />
    <glyph glyph-name="cent.taboldstyle" unicode="&#xf654;" 
d="M408 414q0 -131 62 -205t155 -92l137 801q-150 -20 -252 -172t-102 -332zM281 399q0 244 140 427t357 200l29 164h117l-29 -166q164 -17 248 -117l-70 -76q-98 74 -196 87l-136 -805q91 6 209 75l15 11l55 -86q-23 -25 -112 -66t-185 -45l-37 -207h-117l35 209
q-137 20 -230 120t-93 275z" />
    <glyph glyph-name="zero.dnom" unicode="&#xf655;" horiz-adv-x="780" 
d="M629 449q0 170 -137 169q-141 0 -201 -186q-29 -90 -29 -180q0 -170 135 -170t200 183q32 90 32 184zM743 465q0 -166 -80 -310q-40 -73 -112 -119t-155 -46t-134 24q-111 53 -115 222q0 160 79 308q40 75 113 121t165 46q239 0 239 -246z" />
    <glyph glyph-name="one.dnom" unicode="&#xf656;" horiz-adv-x="780" 
d="M604 698l-119 -698h-106l96 567l-176 -98l-49 76l272 153h82z" />
    <glyph glyph-name="two.dnom" unicode="&#xf657;" horiz-adv-x="780" 
d="M682 537q0 -76 -34 -131q-68 -110 -310 -316h289l-17 -90h-430l15 80q195 166 272 246q115 119 115 200q0 39 -28 66t-71 26q-74 0 -157 -69l-54 63q90 98 215 99q83 0 139 -49t56 -125z" />
    <glyph glyph-name="three.dnom" unicode="&#xf658;" horiz-adv-x="780" 
d="M395 403q187 0 187 127q0 43 -29 66t-72 22q-72 0 -151 -67l-54 61q92 98 218 99q76 0 130 -46q54 -45 54 -115q0 -139 -111 -194q72 -44 72 -144t-79 -162t-169 -62q-143 0 -211 88l60 63q76 -59 141 -59t113 38q47 38 47 99q0 96 -126 96h-63l13 90h30z" />
    <glyph glyph-name="four.dnom" unicode="&#xf659;" horiz-adv-x="780" 
d="M551 545l-272 -293h219zM694 252l-16 -88h-96l-29 -164h-100l28 164h-340l15 78l426 456h96l-80 -446h96z" />
    <glyph glyph-name="five.dnom" unicode="&#xf65a;" horiz-adv-x="780" 
d="M397 -10q-61 0 -123 25t-94 69l62 63q68 -67 148 -67t127 47q48 47 48 111t-37 97q-36 32 -96 32t-119 -50l-47 33l58 348h387l-17 -88h-288l-27 -170q27 16 80 17q94 1 150 -55q57 -56 57 -158t-76 -178t-193 -76z" />
    <glyph glyph-name="six.dnom" unicode="&#xf65b;" horiz-adv-x="780" 
d="M410 76q76 0 116 60t41 122q0 124 -94 123q-76 0 -120 -55t-44 -127q0 -123 101 -123zM466 465q200 0 202 -189q0 -118 -74 -202t-183 -84t-162 72q-52 73 -52 187t39 216q94 246 296 246q53 0 105 -24t80 -66l-60 -58q-61 61 -136 61t-131 -69q-56 -70 -79 -162
q59 72 155 72z" />
    <glyph glyph-name="seven.dnom" unicode="&#xf65c;" horiz-adv-x="780" 
d="M737 698l-12 -67l-387 -631h-117l383 610h-358l16 88h475z" />
    <glyph glyph-name="eight.dnom" unicode="&#xf65d;" horiz-adv-x="780" 
d="M543 212q0 108 -117 108q-55 0 -99 -40q-44 -38 -44 -106q0 -104 119 -102q56 0 98 42q42 40 43 98zM346 502q0 -101 106 -101q50 0 90 39q38 40 38 103q0 88 -95 88q-55 0 -97 -38t-42 -91zM682 550q0 -72 -32 -122t-81 -68q76 -34 76 -140t-73 -168t-170 -62t-159 44
q-63 44 -63 123t35 133t96 75q-29 12 -47 47t-18 75q0 98 73 161q74 62 161 62q86 0 144 -43q58 -45 58 -117z" />
    <glyph glyph-name="nine.dnom" unicode="&#xf65e;" horiz-adv-x="780" 
d="M588 506q0 121 -101 121q-73 -1 -115 -61t-42 -134q0 -111 94 -110q70 0 117 55t47 129zM485 711q107 -1 161 -69t54 -186t-38 -222t-99 -160q-80 -84 -198 -84q-53 0 -106 25t-79 63l60 59q57 -61 135 -61t136 70t75 163q-60 -73 -184 -73q-68 0 -120 47t-52 151t73 191
q74 86 182 86z" />
    <glyph glyph-name="zero.numr" unicode="&#xf661;" horiz-adv-x="780" 
d="M735 1116q0 170 -139 170t-199 -186q-29 -90 -28 -180q0 -170 135 -170t199 183q32 89 32 183zM850 1133q0 -163 -81 -311q-40 -73 -112 -119q-73 -46 -155 -46t-133 25q-115 56 -115 240q0 147 79 289q40 75 112 121q73 46 165 46q240 1 240 -245z" />
    <glyph glyph-name="one.numr" unicode="&#xf662;" horiz-adv-x="780" 
d="M719 1366l-119 -698h-106l96 567l-176 -98l-49 75l272 154h82z" />
    <glyph glyph-name="two.numr" unicode="&#xf663;" horiz-adv-x="780" 
d="M606 1378q82 0 138 -49t57 -125q0 -76 -34 -131q-69 -111 -310 -315h288l-16 -90h-430l14 80q195 166 291 265t96 181q0 39 -27 66q-28 27 -71 26q-74 0 -158 -69l-53 63q90 98 215 98z" />
    <glyph glyph-name="three.numr" unicode="&#xf664;" horiz-adv-x="780" 
d="M504 1071q186 0 186 127q0 43 -28 66q-29 23 -72 22q-74 0 -152 -67l-53 61q92 98 217 98q76 0 130 -46t54 -116q0 -139 -110 -192q72 -44 72 -144t-79 -162t-169 -63q-143 0 -211 88l59 64q76 -59 142 -59t112 38q47 38 47 99q0 96 -126 96h-62l12 90h31z" />
    <glyph glyph-name="four.numr" unicode="&#xf665;" horiz-adv-x="780" 
d="M637 1212l-272 -292h219zM780 920l-16 -89h-96l-29 -163h-100l28 163h-340l15 78l426 457h96l-80 -446h96z" />
    <glyph glyph-name="five.numr" unicode="&#xf666;" horiz-adv-x="780" 
d="M549 1124q94 0 150 -55q57 -55 57 -157t-76 -179q-76 -76 -193 -76q-61 0 -123 26t-94 69l62 63q68 -67 148 -67t127 47q48 47 48 111t-37 96q-36 32 -96 32t-119 -49l-47 33l58 348h387l-17 -88h-288l-27 -170q27 16 80 16z" />
    <glyph glyph-name="six.numr" unicode="&#xf667;" horiz-adv-x="780" 
d="M510 743q76 1 117 61t41 122q0 124 -95 123q-75 1 -119 -55t-44 -128q0 -123 100 -123zM622 1292q-75 0 -132 -69q-56 -70 -78 -162q60 72 156 72q200 0 200 -189q0 -117 -74 -202t-183 -85t-162 73q-52 72 -52 186t39 216q93 246 297 246q53 0 104 -23t80 -67l-59 -57
q-61 61 -136 61z" />
    <glyph glyph-name="seven.numr" unicode="&#xf668;" horiz-adv-x="780" 
d="M836 1366l-13 -68l-387 -630h-117l383 610h-358l16 88h476z" />
    <glyph glyph-name="eight.numr" unicode="&#xf669;" horiz-adv-x="780" 
d="M629 880q0 108 -117 108q-55 0 -99 -40q-44 -39 -44 -98q0 -111 112 -111q63 0 106 42q42 41 42 99zM432 1170q0 -100 106 -101q50 0 90 39q38 39 38 102q0 88 -95 88q-55 0 -97 -38q-42 -36 -42 -90zM332 1155q0 99 74 161t160 62t144 -44t58 -116t-32 -123
q-32 -50 -81 -67q76 -34 76 -140t-73 -168t-170 -62t-159 43q-63 43 -63 123t35 134t96 74q-29 12 -47 47t-18 76z" />
    <glyph glyph-name="nine.numr" unicode="&#xf66a;" horiz-adv-x="780" 
d="M674 1174q0 121 -101 120q-73 0 -115 -60t-42 -134q0 -111 94 -111q70 -1 117 55t47 130zM672 977q-60 -74 -184 -74q-68 0 -120 47q-52 48 -52 152t73 190q74 86 182 86t162 -68q53 -69 53 -187t-38 -221t-99 -161q-80 -84 -198 -84q-53 0 -105 25t-80 63l60 60
q59 -61 136 -61t135 70q58 71 75 163z" />
    <glyph glyph-name="Acute" unicode="&#xf6c9;" horiz-adv-x="778" 
d="M846 1628l-457 -162l-37 84l441 199z" />
    <glyph glyph-name="Caron" unicode="&#xf6ca;" horiz-adv-x="778" 
d="M930 1665l-357 -197l-280 203l61 76l246 -139l277 139z" />
    <glyph glyph-name="Dieresis" unicode="&#xf6cb;" horiz-adv-x="778" 
d="M492 1577q0 -39 -27 -66t-66 -27t-65 28q-26 26 -27 65q0 39 27 65q28 26 66 27q38 -1 65 -27t27 -65zM803 1577q0 -39 -27 -66q-28 -27 -66 -27t-65 28q-27 26 -27 65t27 65t66 27q39 -1 65 -27t27 -65z" />
    <glyph glyph-name="Grave" unicode="&#xf6ce;" horiz-adv-x="778" 
d="M838 1552l-47 -84l-433 162l68 121z" />
    <glyph glyph-name="Hungarumlaut" unicode="&#xf6cf;" horiz-adv-x="778" 
d="M596 1802l-199 -340l-90 45l164 361zM860 1802l-198 -340l-91 45l164 361z" />
    <glyph glyph-name="Macron" unicode="&#xf6d0;" horiz-adv-x="778" 
d="M936 1597l-18 -110h-656l19 110h655z" />
    <glyph glyph-name="one.fitted" unicode="&#xf6dc;" horiz-adv-x="735" 
d="M774 1366l-229 -1366h-129l205 1212l-371 -221l-57 90l473 285h108z" />
    <glyph glyph-name="Lslashsmall" unicode="&#xf6f9;" horiz-adv-x="874" 
d="M836 109l-19 -109h-592l74 438l-139 -90l-56 80l218 139l81 492h127l-69 -422l215 137l53 -82l-291 -180l-67 -403h465z" />
    <glyph glyph-name="OEsmall" unicode="&#xf6fa;" horiz-adv-x="1476" 
d="M872 954q-145 0 -248 -26q-104 -26 -178 -101q-74 -74 -116 -179t-41 -212q0 -152 90 -242t356 -90h41l142 850h-46zM762 0q-188 0 -302 26t-188 99q-117 117 -116 319q0 258 178 437q106 106 231 142t334 36h641l-20 -107h-476l-59 -346h451l-21 -104h-446l-66 -393h492
l-19 -109h-614z" />
    <glyph glyph-name="Scaronsmall" unicode="&#xf6fd;" horiz-adv-x="868" 
d="M1020 1356l-356 -197l-281 203l61 76l246 -140l277 140zM604 969q-94 0 -164 -51t-70 -139t158 -163q66 -32 130 -66t111 -94q46 -60 46 -143q0 -135 -100 -235t-293 -101q-88 0 -179 35t-145 99l76 79l31 -26q6 -4 22 -16q17 -12 29 -19q90 -43 174 -43q128 0 192 64
t64 141q0 78 -64 129q-65 51 -168 102q-102 50 -156 104t-54 142q0 137 111 222q112 85 255 85q213 0 303 -123l-79 -73q-96 90 -230 90z" />
    <glyph glyph-name="Zcaronsmall" unicode="&#xf6ff;" horiz-adv-x="962" 
d="M1028 1356l-356 -197l-281 203l62 76l245 -140l277 140zM1020 1059l-14 -90l-738 -860h606l-18 -109h-766l14 88l746 864h-565l16 107h719z" />
    <glyph glyph-name="ampersandsmall" unicode="&#xf726;" horiz-adv-x="1128" 
d="M283 245q0 -71 57 -114t143 -43q123 0 260 98l-233 330q-63 -33 -107 -62q-43 -30 -81 -84t-39 -125zM817 883q1 100 -139 100q-66 0 -124 -48q-58 -47 -58 -115t75 -179q246 113 246 242zM1047 0q-154 0 -238 102q-66 -55 -162 -88t-184 -32q-127 0 -215 68t-88 192
q0 122 82 202t219 148q-88 121 -88 211q0 123 98 199q97 76 209 75q112 0 186 -47t74 -137q0 -184 -315 -328l215 -299q109 119 141 301h109q-2 -91 -60 -203t-127 -182q39 -49 78 -67t100 -21l-16 -94h-18z" />
    <glyph glyph-name="zerooldstyle" unicode="&#xf730;" horiz-adv-x="1220" 
d="M1083 641q0 135 -78 232q-79 97 -227 98q-205 0 -334 -171t-129 -388q0 -136 78 -232t225 -96q205 0 335 170t130 387zM784 1075q204 1 316 -115t112 -296t-70 -330t-210 -252q-142 -102 -322 -102t-302 114t-122 316q0 258 171 462t427 203z" />
    <glyph glyph-name="oneoldstyle" unicode="&#xf731;" horiz-adv-x="622" 
d="M631 1059l-178 -1059h-125l155 909l-280 -159l-58 86l383 223h103z" />
    <glyph glyph-name="twooldstyle" unicode="&#xf732;" horiz-adv-x="872" 
d="M561 1077q109 1 202 -71t93 -186t-45 -188q-111 -185 -565 -523h559l-19 -109h-741l18 96q322 240 493 407t171 296q0 74 -58 121t-132 47q-137 0 -267 -105l-67 78q53 63 151 100t207 37z" />
    <glyph glyph-name="threeoldstyle" unicode="&#xf733;" horiz-adv-x="917" 
d="M602 428q207 -40 207 -280q0 -80 -45 -163q-78 -144 -269 -211q-81 -28 -157 -28q-242 0 -352 135l75 82q113 -109 269 -109t260 101q88 87 88 191q0 210 -239 227q-42 2 -124 2l19 106h33q233 0 329 97q74 74 74 179t-64 157q-65 52 -161 53q-139 0 -291 -121l-72 78
q25 28 62 56t128 62q92 34 212 35q120 0 216 -77t97 -213q0 -136 -84 -237t-211 -122z" />
    <glyph glyph-name="fouroldstyle" unicode="&#xf734;" horiz-adv-x="1067" 
d="M913 883l-651 -756h522zM1081 127l-18 -107h-170l-47 -270h-125l47 270h-662l17 97l805 942h139l-158 -932h172z" />
    <glyph glyph-name="fiveoldstyle" unicode="&#xf735;" horiz-adv-x="1021" 
d="M575 588q175 0 279 -93t104 -259q0 -214 -142 -352t-366 -138t-337 125l71 84l13 -8q31 -31 59 -43q114 -49 203 -49q162 0 266 104q104 103 104 241t-80 209q-81 71 -194 70q-152 0 -252 -84l-51 37l104 627h693l-19 -109h-567l-70 -409q82 47 182 47z" />
    <glyph glyph-name="sixoldstyle" unicode="&#xf736;" horiz-adv-x="1046" 
d="M905 496q0 110 -54 174t-161 63q-144 0 -248 -118t-104 -254q0 -137 58 -207t167 -70q152 0 247 128t95 284zM783 1202q-140 0 -257 -115q-70 -69 -120 -191t-66 -190q-14 -68 -21 -120q51 116 151 184t238 68q136 0 228 -86t92 -248q0 -215 -135 -370t-334 -154
q-131 0 -217 72t-119 173q-33 102 -33 232q0 238 75 419t175 279q160 156 357 156q84 0 178 -39t133 -94l-74 -76q-111 100 -251 100z" />
    <glyph glyph-name="sevenoldstyle" unicode="&#xf737;" horiz-adv-x="886" 
d="M1020 1059l-16 -105l-734 -1204h-139l741 1196h-710l18 113h840z" />
    <glyph glyph-name="eightoldstyle" unicode="&#xf738;" horiz-adv-x="1024" 
d="M858 378q0 126 -68 179q-69 53 -174 53q-150 0 -238 -89t-89 -212t71 -175t195 -52t213 85t90 211zM932 994q0 110 -62 162t-170 52q-106 0 -196 -82t-90 -194t64 -166q64 -53 172 -53t195 86q87 85 87 195zM289 918q0 174 131 284q130 110 284 109q154 0 254 -76
t99 -211q0 -135 -79 -234t-202 -126q41 -5 113 -52q41 -27 69 -81t27 -128q0 -199 -129 -311t-321 -112q-145 0 -260 76q-113 77 -113 234t110 267q78 78 207 107q-90 22 -140 90t-50 164z" />
    <glyph glyph-name="nineoldstyle" unicode="&#xf739;" horiz-adv-x="1054" 
d="M887 701q0 272 -223 272q-150 0 -245 -123t-95 -277q0 -106 55 -167t160 -62q145 0 247 113t101 244zM1036 606q0 -303 -135 -567q-67 -131 -189 -212t-282 -81q-84 0 -176 34t-137 93l73 80q109 -96 252 -96q94 0 171 41t126 102q132 164 168 483q-49 -115 -149 -181
t-240 -66t-230 85t-89 238q0 207 133 363t331 156q197 0 285 -135q88 -134 88 -337z" />
    <glyph glyph-name="Asmall" unicode="&#xf761;" horiz-adv-x="1005" 
d="M768 403l-111 525l-286 -525h397zM983 0h-131l-64 299h-477l-161 -299h-127l593 1059h134z" />
    <glyph glyph-name="Bsmall" unicode="&#xf762;" horiz-adv-x="964" 
d="M444 104q208 0 276 68t68 140q0 73 -50 123t-183 50h-188l-66 -381h143zM528 588q172 0 240 68t68 141q0 75 -43 117t-189 42h-158l-63 -368h145zM588 1059q126 1 194 -15t124 -72t57 -166t-71 -182t-153 -79q76 -13 130 -63q55 -50 55 -162t-93 -203q-69 -69 -169 -93
t-254 -24h-252l180 1059h252z" />
    <glyph glyph-name="Csmall" unicode="&#xf763;" horiz-adv-x="1044" 
d="M797 965q-223 0 -355 -157t-131 -384q0 -156 83 -244q84 -88 236 -88t294 94l47 -92q-56 -50 -157 -82q-101 -33 -191 -32q-195 0 -320 112t-125 320q0 301 183 482t438 181q121 0 203 -42t106 -81l-72 -75q-96 88 -239 88z" />
    <glyph glyph-name="Dsmall" unicode="&#xf764;" horiz-adv-x="1165" 
d="M1030 623q0 151 -90 241t-356 90h-140l-141 -850h143q144 0 248 27t178 101t116 180t42 211zM1163 614q0 -258 -178 -436q-106 -106 -231 -142t-334 -36h-264l178 1059h223q188 0 302 -26t188 -99q116 -117 116 -320z" />
    <glyph glyph-name="Esmall" unicode="&#xf765;" horiz-adv-x="874" 
d="M938 1059l-18 -107h-478l-59 -346h451l-19 -104h-448l-66 -393h492l-19 -109h-618l178 1059h604z" />
    <glyph glyph-name="Fsmall" unicode="&#xf766;" horiz-adv-x="829" 
d="M922 1059l-19 -107h-461l-59 -346h428l-18 -104h-426l-84 -502h-127l178 1059h588z" />
    <glyph glyph-name="Gsmall" unicode="&#xf767;" horiz-adv-x="1044" 
d="M797 965q-223 0 -355 -157t-131 -384q0 -154 90 -244q89 -90 231 -90t238 60l45 272h-239l16 102h363l-74 -436q-173 -108 -359 -108t-315 112t-129 320q0 301 183 482t438 181q121 0 203 -42t106 -81l-72 -75q-96 88 -239 88z" />
    <glyph glyph-name="Hsmall" unicode="&#xf768;" horiz-adv-x="1105" 
d="M1128 1059l-178 -1059h-127l84 504h-540l-84 -504h-127l178 1059h127l-76 -451h543l73 451h127z" />
    <glyph glyph-name="Ismall" unicode="&#xf769;" horiz-adv-x="438" 
d="M461 1059l-178 -1059h-127l178 1059h127z" />
    <glyph glyph-name="Jsmall" unicode="&#xf76a;" horiz-adv-x="626" 
d="M230 88q72 0 116 43q43 43 62 162l131 766h127l-123 -729q-17 -106 -37 -164t-68 -105q-82 -82 -209 -81q-74 0 -130 26t-74 47l63 84q70 -49 142 -49z" />
    <glyph glyph-name="Ksmall" unicode="&#xf76b;" horiz-adv-x="940" 
d="M1083 1059l-600 -522l447 -537h-160l-408 489l-79 -489h-127l178 1059h127l-82 -477l555 477h149z" />
    <glyph glyph-name="Lsmall" unicode="&#xf76c;" horiz-adv-x="804" 
d="M766 109l-18 -109h-592l178 1059h127l-160 -950h465z" />
    <glyph glyph-name="Msmall" unicode="&#xf76d;" horiz-adv-x="1437" 
d="M1362 1059l-19 -1059h-129l25 862l-457 -862h-104l-184 862l-252 -862h-123l315 1059h137l193 -877l461 877h137z" />
    <glyph glyph-name="Nsmall" unicode="&#xf76e;" horiz-adv-x="1099" 
d="M1122 1059l-178 -1059h-133l-393 870l-142 -870h-120l178 1059h129l397 -879l141 879h121z" />
    <glyph glyph-name="Osmall" unicode="&#xf76f;" horiz-adv-x="1206" 
d="M1071 639q0 133 -77 230t-224 98q-203 0 -331 -169t-128 -384q0 -134 76 -230t223 -96q203 0 332 168t129 383zM776 1075q204 1 316 -115t112 -296t-70 -330t-210 -252q-142 -102 -322 -102t-302 114t-122 316q0 258 171 462t427 203z" />
    <glyph glyph-name="Psmall" unicode="&#xf770;" horiz-adv-x="942" 
d="M848 797q0 69 -36 105t-84 45t-136 9h-148l-71 -424h149q111 0 165 18t91 56q70 70 70 191zM977 801q0 -149 -112 -261t-378 -112h-133l-71 -428h-127l180 1059h227q143 -1 218 -15t126 -65q70 -69 70 -178z" />
    <glyph glyph-name="Qsmall" unicode="&#xf771;" horiz-adv-x="1191" 
d="M1071 639q0 141 -81 234t-220 93t-247 -84q-107 -85 -159 -209t-52 -262q0 -139 79 -231q80 -92 219 -92q205 0 333 170t128 381zM1204 649q0 -247 -152 -447t-393 -218q94 -111 287 -111q63 0 141 10l-14 -92q-82 -16 -185 -16t-216 53t-168 162q-154 28 -240 144
t-86 276q0 260 171 462t427 203q199 0 314 -113q114 -114 114 -313z" />
    <glyph glyph-name="Rsmall" unicode="&#xf772;" horiz-adv-x="956" 
d="M831 805q0 94 -58 123t-163 28h-168l-63 -391h117q137 1 236 57t99 183zM956 794q0 -116 -85 -197t-220 -99q109 -14 168 -209l90 -289h-133l-67 236q-37 131 -85 178t-173 47h-91l-77 -461h-127l178 1059h244q72 0 112 -2q40 -3 100 -21t97 -55q69 -71 69 -187z" />
    <glyph glyph-name="Ssmall" unicode="&#xf773;" horiz-adv-x="868" 
d="M604 969q-94 0 -164 -51t-70 -139t158 -163q66 -32 130 -66t111 -94q46 -60 46 -143q0 -135 -100 -235t-293 -101q-88 0 -179 35t-145 99l76 79l31 -26q6 -4 22 -16q17 -12 29 -19q90 -43 174 -43q128 0 192 64t64 141q0 78 -64 129q-65 51 -168 102q-102 50 -156 104
t-54 142q0 137 111 222q112 85 255 85q213 0 303 -123l-79 -73q-96 90 -230 90z" />
    <glyph glyph-name="Tsmall" unicode="&#xf774;" horiz-adv-x="915" 
d="M1034 1059l-18 -107h-334l-162 -952h-127l162 952h-334l19 107h794z" />
    <glyph glyph-name="Usmall" unicode="&#xf775;" horiz-adv-x="1073" 
d="M315 270q1 -82 61 -131t188 -49q251 0 308 301l113 668h127l-111 -662q-35 -201 -127 -293q-125 -125 -337 -124q-137 0 -242 74q-104 75 -105 204q0 55 31 229l96 572h127l-102 -608q-27 -139 -27 -181z" />
    <glyph glyph-name="Vsmall" unicode="&#xf776;" horiz-adv-x="1011" 
d="M1149 1059l-574 -1059h-147l-209 1059h131l174 -934l498 934h127z" />
    <glyph glyph-name="Wsmall" unicode="&#xf777;" horiz-adv-x="1529" 
d="M1632 1059l-440 -1059h-164l-104 932l-410 -932h-166l-94 1059h133l70 -928l407 928h162l109 -928l370 928h127z" />
    <glyph glyph-name="Xsmall" unicode="&#xf778;" horiz-adv-x="978" 
d="M1075 1059l-426 -512l277 -547h-146l-217 449l-370 -449h-146l459 553l-250 506h145l195 -408l332 408h147z" />
    <glyph glyph-name="Ysmall" unicode="&#xf779;" horiz-adv-x="933" 
d="M1067 1059l-469 -643l-70 -416h-127l70 418l-248 641h137l201 -524l373 524h133z" />
    <glyph glyph-name="Zsmall" unicode="&#xf77a;" horiz-adv-x="962" 
d="M1028 1059l-16 -92l-740 -858h607l-19 -109h-770l19 90l743 862h-565l18 107h723z" />
    <glyph glyph-name="Agravesmall" unicode="&#xf7e0;" horiz-adv-x="1005" 
d="M952 1243l-47 -84l-432 162l68 121zM768 403l-111 525l-286 -525h397zM983 0h-131l-64 299h-477l-161 -299h-127l593 1059h134z" />
    <glyph glyph-name="Aacutesmall" unicode="&#xf7e1;" horiz-adv-x="1005" 
d="M950 1321l-456 -162l-37 84l440 199zM768 403l-111 525l-286 -525h397zM983 0h-131l-64 299h-477l-161 -299h-127l593 1059h134z" />
    <glyph glyph-name="Acircumflexsmall" unicode="&#xf7e2;" horiz-adv-x="1005" 
d="M1022 1237l-61 -76l-246 139l-277 -139l-53 82l356 197zM768 403l-111 525l-286 -525h397zM983 0h-131l-64 299h-477l-161 -299h-127l593 1059h134z" />
    <glyph glyph-name="Atildesmall" unicode="&#xf7e3;" horiz-adv-x="1005" 
d="M588 1264q-52 0 -129 -50l-58 84q115 86 215 86q49 0 119 -26t109 -27q39 1 61 13q21 12 33 18t24 16t17 13l61 -82q-109 -94 -215 -95q-47 0 -117 25q-68 25 -120 25zM768 403l-111 525l-286 -525h397zM983 0h-131l-64 299h-477l-161 -299h-127l593 1059h134z" />
    <glyph glyph-name="Adieresissmall" unicode="&#xf7e4;" horiz-adv-x="1005" 
d="M649 1300q-1 -40 -27 -66t-65 -26t-65 27t-27 65q0 38 27 66q28 27 66 27t64 -27t27 -66zM961 1300q0 -40 -27 -66t-66 -26q-40 0 -66 27t-26 65t27 66q27 27 65 27t66 -27q27 -27 27 -66zM768 403l-111 525l-286 -525h397zM983 0h-131l-64 299h-477l-161 -299h-127
l593 1059h134z" />
    <glyph glyph-name="Aringsmall" unicode="&#xf7e5;" horiz-adv-x="1005" 
d="M840 1333q0 47 -34 82t-81 35t-82 -35t-35 -82t35 -81t82 -34t81 34t34 81zM924 1333q0 -84 -58 -142t-143 -58q-84 0 -142 58t-59 142q0 85 58 143t143 58t143 -58t58 -143zM768 403l-111 525l-286 -525h397zM983 0h-131l-64 299h-477l-161 -299h-127l593 1059h134z" />
    <glyph glyph-name="AEsmall" unicode="&#xf7e6;" horiz-adv-x="1460" 
d="M885 944l-412 -541h318zM1503 1059l-18 -107h-477l-58 -346h449l-19 -104h-448l-66 -393h492l-19 -109h-618l49 297h-375l-225 -297h-147l825 1059h655z" />
    <glyph glyph-name="Ccedillasmall" unicode="&#xf7e7;" horiz-adv-x="1044" 
d="M797 965q-223 0 -355 -157t-131 -384q0 -156 83 -244q84 -88 236 -88t294 94l47 -92q-56 -50 -157 -82q-101 -33 -191 -32l-39 -89q12 13 60 13t90 -43q40 -43 40 -119t-59 -132t-159 -56t-146 47l47 75q107 -64 187 -8q34 25 34 65q0 39 -23 63t-61 24t-78 -29l-43 35
l62 160q-160 25 -259 134q-98 110 -98 292q0 301 183 482t438 181q121 0 203 -42t106 -81l-72 -75q-96 88 -239 88z" />
    <glyph glyph-name="Egravesmall" unicode="&#xf7e8;" horiz-adv-x="874" 
d="M918 1243l-48 -84l-432 162l68 121zM938 1059l-18 -107h-478l-59 -346h451l-19 -104h-448l-66 -393h492l-19 -109h-618l178 1059h604z" />
    <glyph glyph-name="Eacutesmall" unicode="&#xf7e9;" horiz-adv-x="874" 
d="M922 1321l-457 -162l-37 84l440 199zM938 1059l-18 -107h-478l-59 -346h451l-19 -104h-448l-66 -393h492l-19 -109h-618l178 1059h604z" />
    <glyph glyph-name="Ecircumflexsmall" unicode="&#xf7ea;" horiz-adv-x="874" 
d="M991 1237l-61 -76l-246 139l-276 -139l-54 82l357 197zM938 1059l-18 -107h-478l-59 -346h451l-19 -104h-448l-66 -393h492l-19 -109h-618l178 1059h604z" />
    <glyph glyph-name="Edieresissmall" unicode="&#xf7eb;" horiz-adv-x="874" 
d="M612 1300q0 -40 -26 -66t-66 -26t-66 27t-26 65t27 66q27 27 65 27t66 -27q26 -27 26 -66zM924 1300q0 -40 -27 -66t-66 -26t-65 27t-27 65q0 38 27 66q28 27 66 27t65 -27t27 -66zM938 1059l-18 -107h-478l-59 -346h451l-19 -104h-448l-66 -393h492l-19 -109h-618
l178 1059h604z" />
    <glyph glyph-name="Igravesmall" unicode="&#xf7ec;" horiz-adv-x="438" 
d="M674 1241l-47 -84l-432 162l67 121zM461 1059l-178 -1059h-127l178 1059h127z" />
    <glyph glyph-name="Iacutesmall" unicode="&#xf7ed;" horiz-adv-x="438" 
d="M682 1321l-457 -162l-37 84l441 199zM461 1059l-178 -1059h-127l178 1059h127z" />
    <glyph glyph-name="Icircumflexsmall" unicode="&#xf7ee;" horiz-adv-x="438" 
d="M748 1237l-62 -76l-246 139l-276 -139l-53 82l356 197zM461 1059l-178 -1059h-127l178 1059h127z" />
    <glyph glyph-name="Idieresissmall" unicode="&#xf7ef;" horiz-adv-x="438" 
d="M375 1300q0 -40 -27 -66q-28 -26 -66 -26t-65 27t-27 65t27 66q27 27 66 27t65 -27t27 -66zM686 1300q0 -40 -27 -66t-65 -26t-66 27q-26 27 -26 65t26 66q27 27 66 27q40 0 66 -27t26 -66zM461 1059l-178 -1059h-127l178 1059h127z" />
    <glyph glyph-name="Ethsmall" unicode="&#xf7f0;" horiz-adv-x="1232" 
d="M1098 623q0 151 -90 241t-357 90h-139l-57 -348h336l-19 -104h-336l-65 -398h143q144 0 248 27t178 101t116 180t42 211zM1231 614q0 -258 -178 -436q-105 -106 -231 -142t-335 -36h-264l84 502h-166l19 104h166l75 453h224q188 0 302 -26t187 -99q117 -117 117 -320z
" />
    <glyph glyph-name="Ntildesmall" unicode="&#xf7f1;" horiz-adv-x="1099" 
d="M632 1264q-52 0 -128 -50l-58 84q115 86 216 86q48 0 118 -26t109 -27q39 1 61 13t34 18t24 16t16 13l61 -82q-109 -94 -215 -95q-46 0 -116 25t-122 25zM1122 1059l-178 -1059h-133l-393 870l-142 -870h-120l178 1059h129l397 -879l141 879h121z" />
    <glyph glyph-name="Ogravesmall" unicode="&#xf7f2;" horiz-adv-x="1206" 
d="M1071 1243l-47 -84l-432 162l67 121zM1071 639q0 133 -77 230t-224 98q-203 0 -331 -169t-128 -384q0 -134 76 -230t223 -96q203 0 332 168t129 383zM776 1075q204 1 316 -115t112 -296t-70 -330t-210 -252q-142 -102 -322 -102t-302 114t-122 316q0 258 171 462t427 203
z" />
    <glyph glyph-name="Oacutesmall" unicode="&#xf7f3;" horiz-adv-x="1206" 
d="M1055 1321l-457 -162l-37 84l440 199zM1071 639q0 133 -77 230t-224 98q-203 0 -331 -169t-128 -384q0 -134 76 -230t223 -96q203 0 332 168t129 383zM776 1075q204 1 316 -115t112 -296t-70 -330t-210 -252q-142 -102 -322 -102t-302 114t-122 316q0 258 171 462
t427 203z" />
    <glyph glyph-name="Ocircumflexsmall" unicode="&#xf7f4;" horiz-adv-x="1206" 
d="M1128 1237l-61 -76l-246 139l-276 -139l-53 82l356 197zM1071 639q0 133 -77 230t-224 98q-203 0 -331 -169t-128 -384q0 -134 76 -230t223 -96q203 0 332 168t129 383zM776 1075q204 1 316 -115t112 -296t-70 -330t-210 -252q-142 -102 -322 -102t-302 114t-122 316
q0 258 171 462t427 203z" />
    <glyph glyph-name="Otildesmall" unicode="&#xf7f5;" horiz-adv-x="1206" 
d="M698 1264q-51 0 -129 -50l-57 84q115 86 215 86q49 0 119 -26t108 -27q38 1 61 13t35 18t23 16q12 10 17 13l61 -82q-109 -94 -215 -95q-47 0 -117 25t-121 25zM1071 639q0 133 -77 230t-224 98q-203 0 -331 -169t-128 -384q0 -134 76 -230t223 -96q203 0 332 168
t129 383zM776 1075q204 1 316 -115t112 -296t-70 -330t-210 -252q-142 -102 -322 -102t-302 114t-122 316q0 258 171 462t427 203z" />
    <glyph glyph-name="Odieresissmall" unicode="&#xf7f6;" horiz-adv-x="1206" 
d="M764 1300q0 -40 -27 -66t-65 -26t-66 27q-26 27 -26 65t26 66q27 27 66 27q40 0 66 -27t26 -66zM1075 1300q-1 -40 -27 -66t-65 -26t-65 27t-27 65q0 38 27 66q28 27 66 27t64 -27t27 -66zM1071 639q0 133 -77 230t-224 98q-203 0 -331 -169t-128 -384q0 -134 76 -230
t223 -96q203 0 332 168t129 383zM776 1075q204 1 316 -115t112 -296t-70 -330t-210 -252q-142 -102 -322 -102t-302 114t-122 316q0 258 171 462t427 203z" />
    <glyph glyph-name="Oslashsmall" unicode="&#xf7f8;" horiz-adv-x="1206" 
d="M770 967q-203 0 -331 -169t-128 -384q0 -156 66 -221l565 725q-59 49 -172 49zM1071 639q0 68 -19 126t-40 81l-559 -719q43 -39 157 -39q203 0 332 168t129 383zM602 -20q-68 0 -130 17t-87 36l-115 -146l-82 58l115 149q-125 109 -125 316q0 258 171 462t427 203
q158 0 240 -59l119 151l77 -57l-118 -154q110 -121 110 -296q0 -176 -70 -326t-210 -252q-141 -102 -322 -102z" />
    <glyph glyph-name="Ugravesmall" unicode="&#xf7f9;" horiz-adv-x="1073" 
d="M995 1243l-47 -84l-432 162l68 121zM315 270q1 -82 61 -131t188 -49q251 0 308 301l113 668h127l-111 -662q-35 -201 -127 -293q-125 -125 -337 -124q-137 0 -242 74q-104 75 -105 204q0 55 31 229l96 572h127l-102 -608q-27 -139 -27 -181z" />
    <glyph glyph-name="Uacutesmall" unicode="&#xf7fa;" horiz-adv-x="1073" 
d="M1006 1321l-457 -162l-37 84l440 199zM315 270q1 -82 61 -131t188 -49q251 0 308 301l113 668h127l-111 -662q-35 -201 -127 -293q-125 -125 -337 -124q-137 0 -242 74q-104 75 -105 204q0 55 31 229l96 572h127l-102 -608q-27 -139 -27 -181z" />
    <glyph glyph-name="Ucircumflexsmall" unicode="&#xf7fb;" horiz-adv-x="1073" 
d="M1063 1237l-62 -76l-245 139l-277 -139l-53 82l356 197zM315 270q1 -82 61 -131t188 -49q251 0 308 301l113 668h127l-111 -662q-35 -201 -127 -293q-125 -125 -337 -124q-137 0 -242 74q-104 75 -105 204q0 55 31 229l96 572h127l-102 -608q-27 -139 -27 -181z" />
    <glyph glyph-name="Udieresissmall" unicode="&#xf7fc;" horiz-adv-x="1073" 
d="M692 1300q0 -40 -26 -66t-66 -26t-66 27t-26 65t27 66q27 27 65 27t66 -27q26 -27 26 -66zM1004 1300q0 -40 -27 -66t-66 -26t-65 27t-27 65q0 38 27 66q28 27 66 27t65 -27t27 -66zM315 270q1 -82 61 -131t188 -49q251 0 308 301l113 668h127l-111 -662
q-35 -201 -127 -293q-125 -125 -337 -124q-137 0 -242 74q-104 75 -105 204q0 55 31 229l96 572h127l-102 -608q-27 -139 -27 -181z" />
    <glyph glyph-name="Yacutesmall" unicode="&#xf7fd;" horiz-adv-x="933" 
d="M950 1321l-456 -162l-37 84l440 199zM1067 1059l-469 -643l-70 -416h-127l70 418l-248 641h137l201 -524l373 524h133z" />
    <glyph glyph-name="Thornsmall" unicode="&#xf7fe;" horiz-adv-x="942" 
d="M815 594q0 70 -36 106t-84 44t-136 10h-147l-72 -424h149q111 0 165 18t91 55q70 70 70 191zM944 598q0 -150 -112 -262t-377 -111h-133l-39 -225h-127l178 1059h127l-33 -203h102q142 0 218 -14t126 -66q70 -69 70 -178z" />
    <glyph glyph-name="Ydieresissmall" unicode="&#xf7ff;" horiz-adv-x="933" 
d="M631 1300q0 -40 -27 -66q-28 -26 -66 -26t-65 27t-27 65t27 66q27 27 66 27t65 -27t27 -66zM942 1300q0 -40 -27 -66t-65 -26t-66 27q-26 27 -26 65t26 66q27 27 66 27q40 0 66 -27t26 -66zM1067 1059l-469 -643l-70 -416h-127l70 418l-248 641h137l201 -524l373 524h133
z" />
    <glyph glyph-name="Foundry" unicode="&#xf8ff;" horiz-adv-x="1859" 
d="M1739 796q0 284 -205 490t-493 207q-289 0 -495 -206t-206 -476q0 -271 159 -451t369 -235v516h-174v100h174v179q0 188 86 273t216 85q132 0 208 -64l-49 -86q-61 41 -146 41t-138 -53t-54 -196v-179h316v-100h-316v-537q25 -4 49 -4q287 0 493 206t206 490zM1872 795
q0 -342 -241 -583t-590 -241t-591 241t-241 584q0 344 243 584q242 240 590 240t589 -242t241 -583z" />
    <glyph glyph-name="Ring" unicode="&#xfff3;" horiz-adv-x="778" 
d="M694 1669q0 47 -34 82t-80 35t-82 -35q-35 -35 -35 -82t35 -81t82 -34q46 0 80 34t34 81zM778 1669q0 -84 -59 -142q-59 -59 -141 -59t-142 58t-59 143q0 84 59 142q60 59 142 59t141 -58t59 -143z" />
    <glyph glyph-name="dollaroldstyle" horiz-adv-x="1024" 
d="M805 389q0 76 -44 129t-126 100l-86 -509q104 9 180 85t76 195zM387 1029q1 -67 19 -93q37 -52 57 -67q21 -15 31 -22l31 -21q22 -13 26 -15l76 446q-106 -11 -188 -103q-52 -58 -52 -125zM256 999q0 154 115 256t274 117l25 152h116l-24 -150q219 -12 315 -141l-84 -78
q-98 98 -250 109l-86 -508q218 -112 265 -221q23 -53 22 -121q0 -170 -116 -286t-300 -136l-32 -197h-117l33 195q-223 10 -353 157l80 84l17 -14q119 -104 274 -115l98 572q-173 99 -216 155q-56 80 -56 170z" />
    <glyph glyph-name="centoldstyle" horiz-adv-x="1015" 
d="M674 918q-150 -20 -252 -172t-103 -332q1 -131 63 -205t155 -92zM193 399q0 244 140 427t357 200l29 164h117l-29 -166q164 -17 248 -117l-70 -76q-98 74 -197 87l-135 -805q101 6 224 86l55 -86q-23 -25 -112 -66t-185 -45l-37 -207h-117l35 209q-137 20 -230 120
t-93 275z" />
    <glyph glyph-name="sterlingoldstyle" horiz-adv-x="1126" 
d="M935 1280q-145 0 -235 -93t-120 -229t-25 -249h391l-18 -109h-375v-37q0 -109 -40 -235t-134 -202q-18 -14 -27 -17h701l-17 -109h-891l15 104q92 29 147 86q117 119 117 410h-178l16 109h164q0 360 174 540q135 141 350 141t307 -120l-73 -82q-104 92 -249 92z" />
    <glyph glyph-name="Eurooldstyle" 
d="M350 616q0 61 23 134h-129l18 100h133q15 70 69 182t146 203q158 158 389 158q111 0 193 -40t115 -79l-74 -82q-106 90 -260 90t-262 -108q-80 -80 -128 -178t-55 -146h529l-19 -100h-532q-16 -51 -23 -134h533l-17 -100h-520l-2 -33q0 -393 301 -393q88 0 162 28t111 52
q38 25 43 27l57 -93q-50 -50 -166 -90q-116 -39 -228 -39t-201 45q-149 75 -198 277q-18 78 -18 168l2 51h-137l16 100h129z" />
    <glyph glyph-name="florinoldstyle" horiz-adv-x="1159" 
d="M1109 1278q-85 0 -144 -61t-113 -201l-119 -307h314l-39 -109h-316l-235 -629q-1 -6 -15 -42t-29 -78t-26 -60q-10 -18 -30 -62t-76 -104q-90 -90 -212 -90t-184 39l-20 12l53 97q61 -35 142 -35q82 0 136 54t134 267q6 18 10 29l227 602h-264l39 109h264l111 292
q86 236 177 313q91 76 225 76q133 0 190 -57l-58 -90q-57 35 -142 35z" />
    <glyph glyph-name="yenoldstyle" horiz-adv-x="1167" 
d="M1270 1366l-492 -659h258l-16 -101h-301l-21 -114h301l-16 -99h-299l-66 -393h-129l66 393h-297l16 99h297l21 114h-297l16 101h252l-266 659h141l238 -639l459 639h135z" />
    <glyph glyph-name="dollar.fitted" horiz-adv-x="1081" 
d="M864 389q0 76 -44 129t-126 100l-86 -509q104 9 180 85t76 195zM686 1257q-106 -11 -187 -103q-53 -58 -53 -124q-1 -102 74 -159q27 -20 57 -39t33 -21zM1004 414q0 -170 -116 -286t-300 -136l-33 -197h-117l33 195q-223 10 -352 157l80 84l16 -14q119 -104 274 -115
l99 572q-177 102 -216 155q-55 78 -57 170q0 154 115 256t275 117l24 152h117l-25 -150q220 -12 316 -141l-84 -78q-98 98 -250 109l-86 -508q216 -111 264 -221q23 -53 23 -121z" />
    <glyph glyph-name="cent.fitted" horiz-adv-x="950" 
d="M629 918q-150 -20 -252 -172t-103 -332q0 -131 62 -205t156 -92zM608 113q107 7 223 86l56 -86q-23 -25 -112 -66t-185 -45l-37 -207h-117l35 209q-137 20 -230 120t-94 275q1 244 141 427t357 200l29 164h117l-29 -166q164 -17 248 -117l-70 -76q-98 74 -197 87z" />
    <glyph glyph-name="sterling.fitted" horiz-adv-x="1048" 
d="M906 1280q-144 0 -234 -93t-120 -229t-26 -249h392l-19 -109h-375v-37q0 -109 -36 -223q-50 -157 -158 -229l-6 -2h700l-16 -109h-891l14 104q92 29 148 86q117 119 116 410h-178l16 109h164q0 360 174 540q135 141 351 141t307 -120l-74 -82q-104 92 -249 92z" />
    <glyph glyph-name="florin.fitted" horiz-adv-x="1067" 
d="M1056 1278q-84 0 -144 -61t-113 -201l-119 -307h313l-39 -109h-315l-236 -629q-44 -133 -62 -165q-17 -33 -39 -81t-75 -100q-90 -90 -211 -90t-184 39l-20 12l53 97q61 -35 142 -35t135 54t134 267q6 18 11 29l227 602h-264l39 109h264l111 292q86 236 177 313
q91 76 224 76t190 -57l-57 -90q-57 35 -142 35z" />
    <glyph glyph-name="yen.fitted" horiz-adv-x="1081" 
d="M1237 1366l-492 -659h259l-17 -101h-301l-20 -114h301l-17 -99h-299l-65 -393h-129l65 393h-297l17 99h297l20 114h-297l17 101h251l-266 659h142l237 -639l459 639h135z" />
    <glyph glyph-name="germandblssmall" horiz-adv-x="1619" 
d="M604 969q-94 0 -164 -51t-70 -139t158 -163q66 -32 130 -66t111 -94q46 -60 46 -143q0 -135 -100 -235t-293 -101q-88 0 -179 35t-145 99l76 79l31 -26q6 -4 22 -16q17 -12 29 -19q90 -43 174 -43q128 0 192 64t64 141q0 78 -64 129q-65 51 -168 102q-102 50 -156 104
t-54 142q0 137 111 222q112 85 255 85q213 0 303 -123l-79 -73q-96 90 -230 90zM1356 969q-94 0 -164 -51t-70 -139t157 -163q65 -32 131 -66t111 -94q46 -60 46 -143q-1 -135 -101 -235t-292 -101q-88 0 -181 36t-143 98l76 79l30 -26q6 -4 22 -16q81 -62 207 -62t189 64
t64 141q0 78 -65 129t-168 102q-103 50 -156 104t-54 142q0 137 112 222t255 85q213 0 303 -123l-80 -73q-96 90 -229 90z" />
    <glyph glyph-name="germandbls.small" horiz-adv-x="1619" 
d="M604 969q-94 0 -164 -51t-70 -139t158 -163q66 -32 130 -66t111 -94q46 -60 46 -143q0 -135 -100 -235t-293 -101q-88 0 -179 35t-145 99l76 79l31 -26q6 -4 22 -16q17 -12 29 -19q90 -43 174 -43q128 0 192 64t64 141q0 78 -64 129q-65 51 -168 102q-102 50 -156 104
t-54 142q0 137 111 222q112 85 255 85q213 0 303 -123l-79 -73q-96 90 -230 90zM1356 969q-94 0 -164 -51t-70 -139t157 -163q65 -32 131 -66t111 -94q46 -60 46 -143q-1 -135 -101 -235t-292 -101q-88 0 -181 36t-143 98l76 79l30 -26q6 -4 22 -16q81 -62 207 -62t189 64
t64 141q0 78 -65 129t-168 102q-103 50 -156 104t-54 142q0 137 112 222t255 85q213 0 303 -123l-80 -73q-96 90 -229 90z" />
    <glyph glyph-name="dotlessismall" horiz-adv-x="438" 
d="M461 1059l-178 -1059h-127l178 1059h127z" />
    <glyph glyph-name="commaaccent" horiz-adv-x="491" 
d="M403 539q-5 -90 -59 -190q-79 -147 -192 -230l-66 65q60 58 110 154t60 201h147z" />
    <glyph glyph-name="Commaaccent" horiz-adv-x="0" 
 />
    </font>
</defs>
</svg>
