<?xml version="1.0" encoding="utf-8"?>
<!-- Generator: Adobe Illustrator 19.1.0, SVG Export Plug-In . SVG Version: 6.00 Build 0)  -->
<!DOCTYPE svg PUBLIC "-//W3C//DTD SVG 1.1//EN" "http://www.w3.org/Graphics/SVG/1.1/DTD/svg11.dtd">
<svg version="1.1" id="Layer_1" xmlns="http://www.w3.org/2000/svg" xmlns:xlink="http://www.w3.org/1999/xlink" x="0px" y="0px"
	 viewBox="0 0 11 9" style="enable-background:new 0 0 11 9;" xml:space="preserve">
<style type="text/css">
	.st0{fill-rule:evenodd;clip-rule:evenodd;fill:#FFFFFF;}
</style>
<path class="st0" d="M10.9,1.4L9.6,0.1C9.6,0,9.5,0,9.5,0C9.4,0,9.3,0,9.3,0.1L3.7,6l-2-2.1c0,0-0.1-0.1-0.2-0.1
	c-0.1,0-0.1,0-0.2,0.1L0.1,5.1C0,5.2,0,5.4,0.1,5.5l3,3l0,0l0.4,0.4C3.5,9,3.6,9,3.7,9s0.1,0,0.2-0.1l7.1-7.2
	C11,1.6,11,1.5,10.9,1.4z"/>
</svg>
