<?xml version="1.0" encoding="utf-8"?>
<!-- Generator: Adobe Illustrator 19.1.0, SVG Export Plug-In . SVG Version: 6.00 Build 0)  -->
<!DOCTYPE svg PUBLIC "-//W3C//DTD SVG 1.1//EN" "http://www.w3.org/Graphics/SVG/1.1/DTD/svg11.dtd">
<svg version="1.1" id="Layer_1" xmlns="http://www.w3.org/2000/svg" xmlns:xlink="http://www.w3.org/1999/xlink" x="0px" y="0px"
	 viewBox="0 0 100.2 100.1" style="enable-background:new 0 0 100.2 100.1;" xml:space="preserve">
<style type="text/css">
	.st0{fill:#FFFFFF;}
</style>
<g>
	<path class="st0" d="M94.7,1L67.9,27.7L68,12.5c0-1.3-1-2.4-2.2-2.3h-1.7c-1.3,0-2.3,0.8-2.3,2l-0.1,22.6c0,0,0.1,0,0.1,0.1
		L61.7,36c0,0.6,0.1,1.2,0.5,1.6s1,0.7,1.6,0.6h1.1c0,0,0,0,0.1,0l22.5,0.1c1.3,0,2.3-1.1,2.3-2.3v-1.6c-0.2-1.5-1.4-2.4-2.6-2.3
		H72.4L99.1,5.4c1.2-1.2,1.2-3.2,0-4.4C97.9-0.2,95.9-0.2,94.7,1z"/>
	<path class="st0" d="M5.3,99.1l26.8-26.7L32,87.5c0,1.3,1,2.4,2.2,2.3h1.7c1.3,0,2.3-0.8,2.3-2l0.1-22.6c0,0-0.1,0-0.1-0.1l0.1-1.2
		c0-0.6-0.1-1.2-0.5-1.6c-0.4-0.4-1-0.7-1.6-0.6h-1.1c0,0,0,0-0.1,0l-22.5-0.1c-1.3,0-2.3,1.1-2.3,2.3v1.6c0.2,1.5,1.4,2.4,2.6,2.3
		l14.8,0.1L0.9,94.5c-1.2,1.2-1.2,3.2,0,4.4C2.1,100.3,4.1,100.3,5.3,99.1z"/>
	<path class="st0" d="M61.7,65.2l0.1,22.6c0,1.3,1.1,2,2.3,2h1.6c1.3,0,2.3-1.1,2.2-2.3l-0.1-15.2L94.6,99c1.2,1.2,3.2,1.2,4.4,0
		c1.2-1.2,1.2-3.2,0-4.4L72.3,68H87c1.3,0,2.4-0.8,2.6-2.3v-1.6c0-1.3-1.1-2.3-2.3-2.3L65,62c0,0,0,0-0.1,0h-1.1
		c-0.6,0-1.2,0.2-1.6,0.6c-0.4,0.4-0.6,1-0.5,1.6L61.7,65.2C61.7,65.2,61.7,65.2,61.7,65.2z"/>
	<path class="st0" d="M27.6,32.1H12.9c-1.3,0-2.4,0.8-2.6,2.3V36c0,1.3,1.1,2.3,2.3,2.3l22.6-0.1c0,0,0,0,0.1,0h1.1
		c0.6,0,1.2-0.2,1.6-0.6c0.4-0.4,0.6-1,0.5-1.6l-0.1-1.1c0,0,0.1,0,0.1-0.1l-0.1-22.6c0-1.3-1.1-2-2.3-2h-1.7
		c-1.3,0-2.3,1.1-2.2,2.3l0.1,15.1L5.4,0.9C4.2-0.3,2.2-0.3,1,0.9s-1.2,3.2,0,4.4L27.6,32.1z"/>
</g>
</svg>
