<?xml version="1.0" encoding="utf-8"?>
<!-- Generator: Adobe Illustrator 19.0.1, SVG Export Plug-In . SVG Version: 6.00 Build 0)  -->
<!DOCTYPE svg PUBLIC "-//W3C//DTD SVG 1.1//EN" "http://www.w3.org/Graphics/SVG/1.1/DTD/svg11.dtd">
<svg version="1.1" id="Layer_1" xmlns="http://www.w3.org/2000/svg" xmlns:xlink="http://www.w3.org/1999/xlink" x="0px" y="0px"
	 viewBox="0 0 20 10" style="enable-background:new 0 0 20 10;" xml:space="preserve">
<style type="text/css">
	.st0{fill:#393939;}
</style>
<g>
	<g id="_x37_65-arrow-left-toolbar_x40_2x.png_16_">
		<g>
			<path class="st0" d="M19.2,0.1L10,8.8L0.8,0.1l0,0C0.8,0.1,0.6,0,0.5,0C0.2,0,0,0.2,0,0.5c0,0.1,0.1,0.3,0.2,0.4l0,0l9.5,9l0,0
				C9.7,10,9.9,10,10,10c0.1,0,0.3-0.1,0.3-0.1l0,0l9.5-9l0,0C19.9,0.8,20,0.6,20,0.5C20,0.2,19.8,0,19.5,0
				C19.4,0,19.2,0.1,19.2,0.1L19.2,0.1z"/>
		</g>
	</g>
</g>
</svg>
