<?xml version="1.0" encoding="utf-8"?>
<!-- Generator: Adobe Illustrator 19.1.0, SVG Export Plug-In . SVG Version: 6.00 Build 0)  -->
<!DOCTYPE svg PUBLIC "-//W3C//DTD SVG 1.1//EN" "http://www.w3.org/Graphics/SVG/1.1/DTD/svg11.dtd">
<svg version="1.1" id="Layer_1" xmlns="http://www.w3.org/2000/svg" xmlns:xlink="http://www.w3.org/1999/xlink" x="0px" y="0px"
	 viewBox="0 0 100.3 100" style="enable-background:new 0 0 100.3 100;" xml:space="preserve">
<style type="text/css">
	.st0{fill:#FFFFFF;}
</style>
<g>
	<g>
		<path class="st0" d="M67.1,37.3l26.8-26.7l-0.1,15.2c0,1.3,1,2.4,2.2,2.3h1.6c1.3,0,2.3-0.8,2.3-2L100,3.5c0,0-0.1,0-0.1-0.1
			l0.1-1.1c0-0.6-0.1-1.2-0.5-1.6s-1-0.7-1.6-0.6h-1.1c0,0,0,0-0.1,0L74.3,0C73,0,72,1.1,72,2.3v1.6c0.2,1.5,1.4,2.4,2.6,2.3h14.8
			L62.6,32.9c-1.2,1.2-1.2,3.2,0,4.4C63.9,38.5,65.9,38.5,67.1,37.3z"/>
		<path class="st0" d="M33.3,62.5L6.4,89.2l0.1-15.1c0-1.3-1-2.4-2.2-2.3H2.6c-1.3,0-2.3,0.8-2.3,2L0.3,96.4c0,0,0.1,0,0.1,0.1
			l-0.1,1.2c0,0.6,0.1,1.2,0.5,1.6s1,0.7,1.6,0.6h1.1c0,0,0,0,0.1,0L26,100c1.3,0,2.3-1.1,2.3-2.3v-1.6c-0.2-1.5-1.4-2.4-2.6-2.3
			l-14.8-0.1l26.7-26.6c1.2-1.2,1.2-3.2,0-4.4C36.5,61.3,34.5,61.3,33.3,62.5z"/>
		<path class="st0" d="M100.1,96.4L100,73.8c0-1.3-1.1-2-2.3-2h-1.6c-1.3,0-2.3,1.1-2.2,2.3L94,89.3L67.2,62.6
			c-1.2-1.2-3.2-1.2-4.4,0c-1.2,1.2-1.2,3.2,0,4.4l26.7,26.6H74.8c-1.3,0-2.4,0.8-2.6,2.3v1.6c0,1.3,1.1,2.3,2.3,2.3l22.3-0.1
			c0,0,0,0,0.1,0H98c0.6,0,1.2-0.2,1.6-0.6c0.4-0.4,0.6-1,0.5-1.6L100.1,96.4C100,96.4,100.1,96.4,100.1,96.4z"/>
		<path class="st0" d="M10.9,6.2h14.8c1.3,0,2.4-0.8,2.6-2.3V2.3C28.3,1,27.2,0,26,0L3.4,0.1c0,0,0,0-0.1,0H2.2
			C1.6,0.1,1,0.3,0.6,0.7s-0.6,1-0.5,1.6l0.1,1.1c0,0-0.1,0-0.1,0.1l0.1,22.6c0,1.3,1.1,2,2.3,2h1.7c1.3,0,2.3-1.1,2.2-2.3L6.3,10.7
			l26.8,26.7c1.2,1.2,3.2,1.2,4.4,0c1.2-1.2,1.2-3.2,0-4.4L10.9,6.2z"/>
	</g>
</g>
</svg>
