<?xml version="1.0" encoding="utf-8"?>
<!-- Generator: Adobe Illustrator 19.1.0, SVG Export Plug-In . SVG Version: 6.00 Build 0)  -->
<!DOCTYPE svg PUBLIC "-//W3C//DTD SVG 1.1//EN" "http://www.w3.org/Graphics/SVG/1.1/DTD/svg11.dtd">
<svg version="1.1" id="Layer_1" xmlns="http://www.w3.org/2000/svg" xmlns:xlink="http://www.w3.org/1999/xlink" x="0px" y="0px"
	 viewBox="0 0 15 30" style="enable-background:new 0 0 15 30;" xml:space="preserve">
<g>
	<path d="M7.5,20c2.1,0,3.8-1.7,3.8-3.8v-4.9H3.7v4.9C3.7,18.3,5.4,20,7.5,20z"/>
	<path d="M13.8,27.5h-5v-3.8c4.9-0.6,6.2-5,6.2-7.4v-5c0-0.7-0.6-1.2-1.2-1.2c-0.7,0-1.2,0.6-1.2,1.2v5c0,0.2-0.1,5-5,5
		c-4.8,0-5-4.5-5-5v-5c0-0.7-0.6-1.2-1.2-1.2S0,10.6,0,11.3v5c0,2.4,1.4,6.8,6.3,7.4v3.8h-5c-0.7,0-1.2,0.6-1.2,1.2
		C0,29.4,0.6,30,1.3,30h12.5c0.7,0,1.2-0.6,1.2-1.2C15,28.1,14.4,27.5,13.8,27.5z"/>
	<path d="M11.2,9.9V3.8C11.2,1.7,9.6,0,7.5,0C5.4,0,3.7,1.7,3.7,3.8v6.2H11.2z"/>
</g>
</svg>
