<?xml version="1.0" encoding="utf-8"?>
<!-- Generator: Adobe Illustrator 19.0.0, SVG Export Plug-In . SVG Version: 6.00 Build 0)  -->
<!DOCTYPE svg PUBLIC "-//W3C//DTD SVG 1.1//EN" "http://www.w3.org/Graphics/SVG/1.1/DTD/svg11.dtd">
<svg version="1.1" id="Layer_1" xmlns="http://www.w3.org/2000/svg" xmlns:xlink="http://www.w3.org/1999/xlink" x="0px" y="0px"
	 viewBox="0 0 102 100" style="enable-background:new 0 0 102 100;" xml:space="preserve">
<style type="text/css">
	.st0{fill:#727272;}
</style>
<path id="XMLID_31_" class="st0" d="M0,40.3c0,22.3,18,40.4,40.2,40.4c7.8,0,15.1-2.3,21.3-6.1l0,0l21.7,22.1c2.1,2.2,5,3.3,7.8,3.3
	c2.8,0,5.6-1.1,7.7-3.2c4.3-4.3,4.4-11.3,0.1-15.6L76.7,58.7c-0.1-0.2-0.3-0.3-0.5-0.4c2.7-5.4,4.2-11.5,4.2-17.9
	C80.4,18.1,62.4,0,40.2,0C18-0.1,0,18,0,40.3 M9.2,40.3c0-17.1,13.9-31.1,31-31.1s31,13.9,31,31.1s-13.9,31.1-31,31.1
	S9.2,57.4,9.2,40.3z"/>
</svg>
